<?xml version="1.0" encoding="UTF-8" standalone="no"?><!-- Generator: Gravit.io --><svg xmlns="http://www.w3.org/2000/svg" xmlns:xlink="http://www.w3.org/1999/xlink" style="isolation:isolate" viewBox="0 0 1288 1288" width="1288pt" height="1288pt"><defs><clipPath id="_clipPath_0Afr0tbrmz6XXJYPAIDzkZdwdmk126Bk"><rect width="1288" height="1288"/></clipPath></defs><g clip-path="url(#_clipPath_0Afr0tbrmz6XXJYPAIDzkZdwdmk126Bk)"><clipPath id="_clipPath_idjtGlin8cNvFGUDEDPbZx7x3AfUDSgg"><rect x="0" y="0" width="1288" height="1288" transform="matrix(1,0,0,1,0,0)" fill="rgb(255,255,255)"/></clipPath><g clip-path="url(#_clipPath_idjtGlin8cNvFGUDEDPbZx7x3AfUDSgg)"><g><g><path d=" M 55.273 3.5 L 1231.729 3.5 C 1260.303 3.5 1283.501 26.698 1283.501 55.272 L 1283.501 1231.728 C 1283.501 1260.302 1260.303 1283.5 1231.729 1283.5 L 55.273 1283.5 C 26.699 1283.5 3.501 1260.302 3.501 1231.728 L 3.501 55.272 C 3.501 26.698 26.699 3.5 55.273 3.5 Z " fill="rgb(255,255,255)"/><rect x="76.006" y="53.263" width="1134.989" height="1180.475" transform="matrix(1,0,0,1,0,0)" fill="none" vector-effect="non-scaling-stroke" stroke-width="4.952" stroke="rgb(0,0,0)" stroke-opacity="100000000" stroke-linejoin="miter" stroke-linecap="round" stroke-miterlimit="2"/><rect x="101.278" y="69.197" width="1084.444" height="1148.606" transform="matrix(1,0,0,1,0,0)" fill="none" vector-effect="non-scaling-stroke" stroke-width="1" stroke="rgb(0,0,0)" stroke-opacity="100000000" stroke-linejoin="miter" stroke-linecap="round" stroke-miterlimit="2"/><path d=" M 966.053 200.875 L 1041.053 200.875 L 1041.053 500.875 L 1091.053 500.875 L 1091.053 275.968 L 1091.053 200.875 L 1166.053 200.875 L 1166.053 150.875 C 1099.37 151.379 1032.709 151.385 966.053 150.875 L 966.053 200.875 L 966.053 200.875 L 966.053 200.875 Z " fill="rgb(0,0,0)"/><path d=" M 891.346 400.875 L 799.346 150.875 L 741.346 150.875 L 741.346 500.875 L 791.346 500.875 L 791.346 250.875 L 883.346 500.875 L 941.346 500.875 L 941.346 150.875 L 891.346 150.875 L 891.346 400.875 L 891.346 400.875 L 891.346 400.875 Z " fill="rgb(0,0,0)"/><path d=" M 138.5 1133.764 L 142.82 1073.022 C 156.474 885.327 192.802 822.006 398.846 626.064 C 498.878 531.083 531.681 484.218 536.278 429.847 C 549.378 301.605 447.169 261.578 380.596 260.993 C 294.321 260.132 196.708 318.412 243.302 453.887 L 146.484 486.055 C 127.024 359.686 147.037 241.135 237.633 188.526 C 358.612 119.928 513.741 146.82 592.067 254.895 C 644.71 327.401 656.739 427.738 628.499 506.262 C 545.991 706.857 266.115 795.115 243.025 1027.212 L 552.351 1027.212 L 552.351 897.992 L 643.5 897.992 L 643.5 1135.875 L 138.5 1133.764 L 138.5 1133.764 Z " fill="rgb(0,0,0)"/></g></g></g></g></svg>