<?xml version="1.0" encoding="UTF-8" standalone="no"?><!-- Generator: Gravit.io --><svg xmlns="http://www.w3.org/2000/svg" xmlns:xlink="http://www.w3.org/1999/xlink" style="isolation:isolate" viewBox="0 0 1288 1288" width="1288pt" height="1288pt"><defs><clipPath id="_clipPath_tdetX07NKrlliWrAOmEPvHNc3h357Zsf"><rect width="1288" height="1288"/></clipPath></defs><g clip-path="url(#_clipPath_tdetX07NKrlliWrAOmEPvHNc3h357Zsf)"><clipPath id="_clipPath_icPt5LNya6bwLt96SwjgFLLTYj3rp3M2"><rect x="0" y="0" width="1288" height="1288" transform="matrix(1,0,0,1,0,0)" fill="rgb(255,255,255)"/></clipPath><g clip-path="url(#_clipPath_icPt5LNya6bwLt96SwjgFLLTYj3rp3M2)"><g><g><path d=" M 55.273 3.5 L 1231.729 3.5 C 1260.303 3.5 1283.501 26.698 1283.501 55.272 L 1283.501 1231.728 C 1283.501 1260.302 1260.303 1283.5 1231.729 1283.5 L 55.273 1283.5 C 26.699 1283.5 3.501 1260.302 3.501 1231.728 L 3.501 55.272 C 3.501 26.698 26.699 3.5 55.273 3.5 Z " fill="rgb(255,255,255)"/><rect x="76.006" y="53.263" width="1134.989" height="1180.475" transform="matrix(1,0,0,1,0,0)" fill="none" vector-effect="non-scaling-stroke" stroke-width="4.952" stroke="rgb(0,0,0)" stroke-opacity="100000000" stroke-linejoin="miter" stroke-linecap="round" stroke-miterlimit="2"/><rect x="101.278" y="69.197" width="1084.444" height="1148.606" transform="matrix(1,0,0,1,0,0)" fill="none" vector-effect="non-scaling-stroke" stroke-width="1" stroke="rgb(0,0,0)" stroke-opacity="100000000" stroke-linejoin="miter" stroke-linecap="round" stroke-miterlimit="2"/><path d=" M 966.053 200.875 L 1041.053 200.875 L 1041.053 500.875 L 1091.053 500.875 L 1091.053 275.968 L 1091.053 200.875 L 1166.053 200.875 L 1166.053 150.875 C 1099.37 151.379 1032.709 151.385 966.053 150.875 L 966.053 200.875 L 966.053 200.875 L 966.053 200.875 Z " fill="rgb(0,0,0)"/><path d=" M 891.346 400.875 L 799.346 150.875 L 741.346 150.875 L 741.346 500.875 L 791.346 500.875 L 791.346 250.875 L 883.346 500.875 L 941.346 500.875 L 941.346 150.875 L 891.346 150.875 L 891.346 400.875 L 891.346 400.875 L 891.346 400.875 Z " fill="rgb(0,0,0)"/><path d=" M 128.072 919.961 L 187.967 864.188 C 239.952 971.355 298.089 1041.939 387.022 1029.823 C 520.453 1018.215 575.741 841.128 547.824 707.697 C 520.816 587.985 410.331 529.672 322.489 593.495 C 301.756 608.622 281.751 620.971 277.841 620.971 C 268.626 620.971 247.772 568.443 250.621 552.42 C 309.577 443.416 452.737 252.453 452.737 252.453 L 229.07 252.453 L 229.07 380.335 L 143.228 380.335 L 143.228 150.875 L 580.378 150.875 L 580.378 228.729 C 580.378 228.729 463.255 382.523 424.548 466.749 C 519.877 471.164 596.716 547.652 624.299 668.576 C 640.395 732.241 633.181 877.867 612.115 940.635 C 576.923 1045.262 480.806 1130.151 392.933 1135.036 C 245.407 1147.582 167.143 1016.729 128.072 919.961 L 128.072 919.961 L 128.072 919.961 Z " fill="rgb(0,0,0)"/></g></g></g></g></svg>