<?xml version="1.0" encoding="UTF-8" standalone="no"?><!-- Generator: Gravit.io --><svg xmlns="http://www.w3.org/2000/svg" xmlns:xlink="http://www.w3.org/1999/xlink" style="isolation:isolate" viewBox="0 0 1288 1288" width="1288pt" height="1288pt"><defs><clipPath id="_clipPath_S3nGiEdsaneNHhAJGeC6D2o89HDoZKxI"><rect width="1288" height="1288"/></clipPath></defs><g clip-path="url(#_clipPath_S3nGiEdsaneNHhAJGeC6D2o89HDoZKxI)"><clipPath id="_clipPath_4pujQByR5eR13aQh4niGrieVnGtxwz5P"><rect x="0" y="0" width="1288" height="1288" transform="matrix(1,0,0,1,0,0)" fill="rgb(255,255,255)"/></clipPath><g clip-path="url(#_clipPath_4pujQByR5eR13aQh4niGrieVnGtxwz5P)"><g><g><path d=" M 55.273 3.5 L 1231.729 3.5 C 1260.303 3.5 1283.501 26.698 1283.501 55.272 L 1283.501 1231.728 C 1283.501 1260.302 1260.303 1283.5 1231.729 1283.5 L 55.273 1283.5 C 26.699 1283.5 3.501 1260.302 3.501 1231.728 L 3.501 55.272 C 3.501 26.698 26.699 3.5 55.273 3.5 Z " fill="rgb(255,255,255)"/><rect x="76.006" y="53.263" width="1134.989" height="1180.475" transform="matrix(1,0,0,1,0,0)" fill="none" vector-effect="non-scaling-stroke" stroke-width="4.952" stroke="rgb(0,0,0)" stroke-opacity="100000000" stroke-linejoin="miter" stroke-linecap="round" stroke-miterlimit="2"/><rect x="101.278" y="69.197" width="1084.444" height="1148.606" transform="matrix(1,0,0,1,0,0)" fill="none" vector-effect="non-scaling-stroke" stroke-width="1" stroke="rgb(0,0,0)" stroke-opacity="100000000" stroke-linejoin="miter" stroke-linecap="round" stroke-miterlimit="2"/><path d=" M 966.053 200.875 L 1041.053 200.875 L 1041.053 500.875 L 1091.053 500.875 L 1091.053 275.968 L 1091.053 200.875 L 1166.053 200.875 L 1166.053 150.875 C 1099.37 151.379 1032.709 151.385 966.053 150.875 L 966.053 200.875 L 966.053 200.875 L 966.053 200.875 Z " fill="rgb(0,0,0)"/><path d=" M 891.346 400.875 L 799.346 150.875 L 741.346 150.875 L 741.346 500.875 L 791.346 500.875 L 791.346 250.875 L 883.346 500.875 L 941.346 500.875 L 941.346 150.875 L 891.346 150.875 L 891.346 400.875 L 891.346 400.875 L 891.346 400.875 Z " fill="rgb(0,0,0)"/><path d=" M 404.128 1135.756 L 404.128 1048.76 L 468.641 1048.76 L 468.641 905.248 L 145.953 905.248 L 145.953 803.985 L 495.127 150.875 L 552.167 151.226 L 552.167 803.985 L 650.953 803.985 L 650.953 905.248 L 552.167 905.248 L 550.307 1048.76 L 604.382 1048.76 L 604.382 1135.875 L 404.128 1135.756 Z  M 468.641 389.982 L 246.947 804.023 L 468.641 804.023 L 468.641 389.982 Z " fill="rgb(0,0,0)"/></g></g></g></g></svg>