<?xml version="1.0" encoding="UTF-8" standalone="no"?><!-- Generator: Gravit.io --><svg xmlns="http://www.w3.org/2000/svg" xmlns:xlink="http://www.w3.org/1999/xlink" style="isolation:isolate" viewBox="0 0 1288 1288" width="1288pt" height="1288pt"><defs><clipPath id="_clipPath_44ZMkNjUkNhcZGdqBA6teu9Xcs69drR4"><rect width="1288" height="1288"/></clipPath></defs><g clip-path="url(#_clipPath_44ZMkNjUkNhcZGdqBA6teu9Xcs69drR4)"><g><path d=" M 55.273 3.5 L 1231.729 3.5 C 1260.303 3.5 1283.501 26.698 1283.501 55.272 L 1283.501 1231.728 C 1283.501 1260.302 1260.303 1283.5 1231.729 1283.5 L 55.273 1283.5 C 26.699 1283.5 3.501 1260.302 3.501 1231.728 L 3.501 55.272 C 3.501 26.698 26.699 3.5 55.273 3.5 Z " fill="rgb(255,255,255)"/><rect x="76.006" y="53.263" width="1134.989" height="1180.475" transform="matrix(1,0,0,1,0,0)" fill="none" vector-effect="non-scaling-stroke" stroke-width="4.952" stroke="rgb(0,0,0)" stroke-opacity="10000000000" stroke-linejoin="miter" stroke-linecap="round" stroke-miterlimit="2"/><rect x="101.278" y="69.197" width="1084.444" height="1148.606" transform="matrix(1,0,0,1,0,0)" fill="none" vector-effect="non-scaling-stroke" stroke-width="1" stroke="rgb(0,0,0)" stroke-opacity="10000000000" stroke-linejoin="miter" stroke-linecap="round" stroke-miterlimit="2"/><path d=" M 966.053 200.875 L 1041.053 200.875 L 1041.053 500.875 L 1091.053 500.875 L 1091.053 275.968 L 1091.053 200.875 L 1166.053 200.875 L 1166.053 150.875 C 1099.37 151.379 1032.709 151.385 966.053 150.875 L 966.053 200.875 L 966.053 200.875 L 966.053 200.875 L 966.053 200.875 Z " fill="rgb(0,0,0)"/><path d=" M 891.346 400.875 L 799.346 150.875 L 741.346 150.875 L 741.346 500.875 L 791.346 500.875 L 791.346 250.875 L 883.346 500.875 L 941.346 500.875 L 941.346 150.875 L 891.346 150.875 L 891.346 400.875 L 891.346 400.875 L 891.346 400.875 L 891.346 400.875 Z " fill="rgb(0,0,0)"/><path d=" M 138.507 880.886 L 217.03 879.946 C 232.011 939.399 265.156 999.83 310.16 1016.599 C 437.308 1054.005 519.109 965.003 546.043 862.396 C 578.72 737.939 545.325 563.175 457.782 501.144 C 385.251 449.704 277.483 493.092 227.985 603.125 L 172.994 560.988 L 202.518 150.875 L 561.773 150.875 L 561.773 247.813 L 270.649 247.813 L 266.029 418.668 C 328.698 363.553 425.011 364.14 487.65 402.798 C 606.278 473.665 661.394 634.786 638.361 824.675 C 606.402 1013.55 535.931 1120.572 376.98 1135.856 C 200.177 1137.85 137.758 985.601 138.507 880.886 L 138.507 880.886 L 138.507 880.886 Z " fill="rgb(0,0,0)"/></g></g></svg>