<?xml version="1.0" encoding="UTF-8" standalone="no"?><!-- Generator: Gravit.io --><svg xmlns="http://www.w3.org/2000/svg" xmlns:xlink="http://www.w3.org/1999/xlink" style="isolation:isolate" viewBox="0 0 1288 1288" width="1288pt" height="1288pt"><defs><clipPath id="_clipPath_wUCmqUGnHnCMncaMFdHM4f3VcJGSDwPD"><rect width="1288" height="1288"/></clipPath></defs><g clip-path="url(#_clipPath_wUCmqUGnHnCMncaMFdHM4f3VcJGSDwPD)"><g><path d=" M 55.273 3.5 L 1231.729 3.5 C 1260.303 3.5 1283.501 26.698 1283.501 55.272 L 1283.501 1231.728 C 1283.501 1260.302 1260.303 1283.5 1231.729 1283.5 L 55.273 1283.5 C 26.699 1283.5 3.501 1260.302 3.501 1231.728 L 3.501 55.272 C 3.501 26.698 26.699 3.5 55.273 3.5 Z " fill="rgb(255,255,255)"/><path d=" M 146.31 832.835 C 136.051 749.934 136.311 535.624 144.686 472.225 C 170.559 278.004 233.311 189.12 338.428 160.117 C 440.524 131.859 583.947 163.324 615.404 325.651 L 530.058 327.604 C 483.895 217.85 367.093 247.165 301.289 294.928 C 248.796 332.958 225.066 491.768 235.226 501.54 C 235.226 501.54 334.5 414.612 412.768 421.022 C 580.019 441.62 649.003 613.093 643.16 774.988 C 637.836 969.757 585.602 1125.517 408.321 1135.875 C 239.772 1128.174 162.542 1019.553 146.31 832.835 L 146.31 832.835 L 146.31 832.835 Z  M 562.002 781.398 C 562.91 646.277 511.034 545.004 412.768 533.904 C 314.599 522.725 215.554 635.998 222.404 773.738 C 229.253 912.065 274.539 1028.425 393.615 1027.8 C 521.682 1027.213 561.385 877.59 562.002 781.398 L 562.002 781.398 L 562.002 781.398 Z " fill="rgb(0,0,0)"/><rect x="76.006" y="53.263" width="1134.989" height="1180.475" transform="matrix(1,0,0,1,0,0)" fill="none" vector-effect="non-scaling-stroke" stroke-width="4.952" stroke="rgb(0,0,0)" stroke-opacity="10000000000" stroke-linejoin="miter" stroke-linecap="round" stroke-miterlimit="2"/><rect x="101.278" y="69.197" width="1084.444" height="1148.606" transform="matrix(1,0,0,1,0,0)" fill="none" vector-effect="non-scaling-stroke" stroke-width="1" stroke="rgb(0,0,0)" stroke-opacity="10000000000" stroke-linejoin="miter" stroke-linecap="round" stroke-miterlimit="2"/><path d=" M 966.053 200.875 L 1041.053 200.875 L 1041.053 500.875 L 1091.053 500.875 L 1091.053 275.968 L 1091.053 200.875 L 1166.053 200.875 L 1166.053 150.875 C 1099.37 151.379 1032.709 151.385 966.053 150.875 L 966.053 200.875 L 966.053 200.875 L 966.053 200.875 L 966.053 200.875 Z " fill="rgb(0,0,0)"/><path d=" M 891.346 400.875 L 799.346 150.875 L 741.346 150.875 L 741.346 500.875 L 791.346 500.875 L 791.346 250.875 L 883.346 500.875 L 941.346 500.875 L 941.346 150.875 L 891.346 150.875 L 891.346 400.875 L 891.346 400.875 L 891.346 400.875 L 891.346 400.875 Z " fill="rgb(0,0,0)"/></g></g></svg>