<?xml version="1.0" encoding="UTF-8" standalone="no"?><!-- Generator: Gravit.io --><svg xmlns="http://www.w3.org/2000/svg" xmlns:xlink="http://www.w3.org/1999/xlink" style="isolation:isolate" viewBox="0 0 1281 1281" width="1281pt" height="1281pt"><defs><clipPath id="_clipPath_ZRs74fNqnC67qw4vIDvLGUn6KKwRdMzv"><rect width="1281" height="1281"/></clipPath></defs><g clip-path="url(#_clipPath_ZRs74fNqnC67qw4vIDvLGUn6KKwRdMzv)"><g><path d=" M 52.772 1 L 1229.228 1 C 1257.802 1 1281 24.198 1281 52.772 L 1281 1229.228 C 1281 1257.802 1257.802 1281 1229.228 1281 L 52.772 1281 C 24.198 1281 1 1257.802 1 1229.228 L 1 52.772 C 1 24.198 24.198 1 52.772 1 Z " fill="rgb(255,255,255)"/><rect x="73.006" y="50.263" width="1134.989" height="1180.475" transform="matrix(1,0,0,1,0,0)" fill="none" vector-effect="non-scaling-stroke" stroke-width="4.952" stroke="rgb(0,0,0)" stroke-opacity="10000" stroke-linejoin="miter" stroke-linecap="round" stroke-miterlimit="2"/><rect x="98.278" y="66.197" width="1084.444" height="1148.606" transform="matrix(1,0,0,1,0,0)" fill="none" vector-effect="non-scaling-stroke" stroke-width="1" stroke="rgb(0,0,0)" stroke-opacity="10000" stroke-linejoin="miter" stroke-linecap="round" stroke-miterlimit="2"/><path d=" M 907.252 484.273 C 907.395 466.355 892.172 466.012 892.361 479.089 C 891.115 544.769 831.409 577.1 788.042 569.463 C 721.2 557.635 699.861 495.846 700.514 459.491 C 702.462 347.22 823.904 264.406 933.46 120.5 C 1013.709 250.424 1146.229 352.448 1154.067 452.836 C 1164.505 586.386 983.001 636.171 957.066 480.559 C 955.392 469.549 941.475 464.642 942.544 479.995 C 946.486 522.618 940.917 540.403 992.595 645.5 L 857.474 645.5 C 887.398 596.4 905.21 536.081 907.252 484.273 L 907.252 484.273 L 907.252 484.273 Z " fill="rgb(0,0,0)"/><path d=" M 452.837 120.5 L 452.837 974.666 L 386.17 974.666 L 386.17 212.333 L 236.17 262.583 L 236.17 176.292 L 402.837 120.5 L 452.837 120.5 L 452.837 120.5 Z " fill="rgb(0,0,0)"/></g></g></svg>