<?xml version="1.0" encoding="UTF-8" standalone="no"?><!-- Generator: Gravit.io --><svg xmlns="http://www.w3.org/2000/svg" xmlns:xlink="http://www.w3.org/1999/xlink" style="isolation:isolate" viewBox="0 0 1281 1281" width="1281pt" height="1281pt"><defs><clipPath id="_clipPath_73l2Do22B30qbyZUjUEZPKCAsOpUxKo5"><rect width="1281" height="1281"/></clipPath></defs><g clip-path="url(#_clipPath_73l2Do22B30qbyZUjUEZPKCAsOpUxKo5)"><g><path d=" M 52.772 1 L 1229.228 1 C 1257.802 1 1281 24.198 1281 52.772 L 1281 1229.228 C 1281 1257.802 1257.802 1281 1229.228 1281 L 52.772 1281 C 24.198 1281 1 1257.802 1 1229.228 L 1 52.772 C 1 24.198 24.198 1 52.772 1 Z " fill="rgb(255,255,255)"/><rect x="73.006" y="50.263" width="1134.989" height="1180.475" transform="matrix(1,0,0,1,0,0)" fill="none" vector-effect="non-scaling-stroke" stroke-width="4.952" stroke="rgb(0,0,0)" stroke-opacity="10000" stroke-linejoin="miter" stroke-linecap="round" stroke-miterlimit="2"/><rect x="98.278" y="66.197" width="1084.444" height="1148.606" transform="matrix(1,0,0,1,0,0)" fill="none" vector-effect="non-scaling-stroke" stroke-width="1" stroke="rgb(0,0,0)" stroke-opacity="10000" stroke-linejoin="miter" stroke-linecap="round" stroke-miterlimit="2"/><path d=" M 452.837 120.5 L 452.837 974.666 L 386.17 974.666 L 386.17 212.333 L 236.17 262.583 L 236.17 176.292 L 402.837 120.5 L 452.837 120.5 L 452.837 120.5 Z " fill="rgb(212,0,0)"/><path d=" M 700.5 385.057 C 801.837 300.767 868.399 208.871 932.038 120.5 C 987.839 217.75 1067.933 302.812 1154.5 385.057 C 1061.844 466.626 990.035 553.81 932.294 645.5 C 868.297 551.514 800.879 466.419 700.5 385.057 L 700.5 385.057 L 700.5 385.057 L 700.5 385.057 Z " fill="rgb(212,0,0)"/></g></g></svg>