<?xml version="1.0" encoding="UTF-8" standalone="no"?><!-- Generator: Gravit.io --><svg xmlns="http://www.w3.org/2000/svg" xmlns:xlink="http://www.w3.org/1999/xlink" style="isolation:isolate" viewBox="0 0 1281 1281" width="1281pt" height="1281pt"><defs><clipPath id="_clipPath_cfcjCODDXpHX66BQVVWvbnPEGbUM8r7I"><rect width="1281" height="1281"/></clipPath></defs><g clip-path="url(#_clipPath_cfcjCODDXpHX66BQVVWvbnPEGbUM8r7I)"><g><path d=" M 52.772 1 L 1229.228 1 C 1257.802 1 1281 24.198 1281 52.772 L 1281 1229.228 C 1281 1257.802 1257.802 1281 1229.228 1281 L 52.772 1281 C 24.198 1281 1 1257.802 1 1229.228 L 1 52.772 C 1 24.198 24.198 1 52.772 1 Z " fill="rgb(255,255,255)"/><rect x="73.006" y="50.263" width="1134.989" height="1180.475" transform="matrix(1,0,0,1,0,0)" fill="none" vector-effect="non-scaling-stroke" stroke-width="4.952" stroke="rgb(0,0,0)" stroke-opacity="10000" stroke-linejoin="miter" stroke-linecap="round" stroke-miterlimit="2"/><rect x="98.278" y="66.197" width="1084.444" height="1148.606" transform="matrix(1,0,0,1,0,0)" fill="none" vector-effect="non-scaling-stroke" stroke-width="1" stroke="rgb(0,0,0)" stroke-opacity="10000" stroke-linejoin="miter" stroke-linecap="round" stroke-miterlimit="2"/><path d=" M 452.837 120.5 L 452.837 974.666 L 386.17 974.666 L 386.17 212.333 L 236.17 262.583 L 236.17 176.292 L 402.837 120.5 L 452.837 120.5 L 452.837 120.5 Z " fill="rgb(212,0,0)"/><path d=" M 811.51 122.317 C 880.27 118.021 916.143 173.37 923.098 216.976 C 927.286 223.891 929.585 221.941 931.185 216.579 C 934.518 160.618 987.731 114.835 1036.997 121.07 C 1117.189 122.09 1165.889 206.128 1152.207 277.245 C 1135.48 364.117 1085.793 416.451 1048.14 470.339 C 1005.601 526.13 948.297 606.711 929.825 645.5 C 929.825 645.5 871.631 562.04 795.855 463.889 C 745.181 398.224 704.664 327.108 700.898 265.876 C 696.577 195.904 727.083 133.164 811.51 122.317 L 811.51 122.317 L 811.51 122.317 L 811.51 122.317 Z " fill="rgb(212,0,0)"/></g></g></svg>