<?xml version="1.0" encoding="UTF-8" standalone="no"?><!-- Generator: Gravit.io --><svg xmlns="http://www.w3.org/2000/svg" xmlns:xlink="http://www.w3.org/1999/xlink" style="isolation:isolate" viewBox="104 -186.5 1280 1280" width="1280pt" height="1280pt"><defs><clipPath id="_clipPath_u3vEtAPTDLxkAtY9MMRj8id5uyBQOgc7"><rect x="104" y="-186.5" width="1280" height="1280"/></clipPath></defs><g clip-path="url(#_clipPath_u3vEtAPTDLxkAtY9MMRj8id5uyBQOgc7)"><g><path d=" M 155.772 -186.5 L 1332.228 -186.5 C 1360.802 -186.5 1384 -163.302 1384 -134.728 L 1384 1041.728 C 1384 1070.302 1360.802 1093.5 1332.228 1093.5 L 155.772 1093.5 C 127.198 1093.5 104 1070.302 104 1041.728 L 104 -134.728 C 104 -163.302 127.198 -186.5 155.772 -186.5 Z " fill="rgb(255,255,255)"/><rect x="176.006" y="-137.237" width="1134.989" height="1180.475" transform="matrix(1,0,0,1,0,0)" fill="rgb(255,255,255)" vector-effect="non-scaling-stroke" stroke-width="4.952" stroke="rgb(0,0,0)" stroke-opacity="100000000" stroke-linejoin="miter" stroke-linecap="round" stroke-miterlimit="2"/><rect x="201.278" y="-121.303" width="1084.444" height="1148.606" transform="matrix(1,0,0,1,0,0)" fill="rgb(255,255,255)" vector-effect="non-scaling-stroke" stroke-width="1" stroke="rgb(0,0,0)" stroke-opacity="100000000" stroke-linejoin="miter" stroke-linecap="round" stroke-miterlimit="2"/><path d=" M 1010.752 297.273 C 1010.895 279.355 995.672 279.012 995.861 292.089 C 994.615 357.769 934.909 390.1 891.542 382.463 C 824.7 370.635 803.361 308.846 804.014 272.491 C 805.962 160.22 927.404 77.406 1036.96 -66.5 C 1117.209 63.424 1249.729 165.448 1257.567 265.836 C 1268.005 399.386 1086.501 449.171 1060.566 293.559 C 1058.892 282.549 1044.975 277.642 1046.044 292.995 C 1049.986 335.618 1044.417 353.403 1096.095 458.5 L 960.974 458.5 C 990.898 409.4 1008.71 349.081 1010.752 297.273 L 1010.752 297.273 L 1010.752 297.273 L 1010.752 297.273 Z " fill="rgb(0,0,0)"/><path d=" M 542.604 -67 L 542.604 889.938 L 462.946 889.938 L 462.946 35.882 L 283.715 92.178 L 283.715 -4.496 L 482.86 -67 L 542.604 -67 L 542.604 -67 L 542.604 -67 Z " fill="rgb(0,0,0)"/></g></g></svg>