<?xml version="1.0" encoding="UTF-8" standalone="no"?><!-- Generator: Gravit.io --><svg xmlns="http://www.w3.org/2000/svg" xmlns:xlink="http://www.w3.org/1999/xlink" style="isolation:isolate" viewBox="-0.5 -0.5 1281 1281" width="1281pt" height="1281pt"><defs><clipPath id="_clipPath_rtKIj5h6AMmH59CP5tSGTxsuYqjJ7ZrF"><rect x="-0.5" y="-0.5" width="1281" height="1281"/></clipPath></defs><g clip-path="url(#_clipPath_rtKIj5h6AMmH59CP5tSGTxsuYqjJ7ZrF)"><g><path d="M 52.272 0.5 L 1228.728 0.5 C 1257.302 0.5 1280.5 23.698 1280.5 52.272 L 1280.5 1228.728 C 1280.5 1257.302 1257.302 1280.5 1228.728 1280.5 L 52.272 1280.5 C 23.698 1280.5 0.5 1257.302 0.5 1228.728 L 0.5 52.272 C 0.5 23.698 23.698 0.5 52.272 0.5 Z" style="stroke:none;fill:#FFFFFF;stroke-miterlimit:10;"/><path d="M 52.272 0.5 L 1228.728 0.5 C 1257.302 0.5 1280.5 23.698 1280.5 52.272 L 1280.5 1228.728 C 1280.5 1257.302 1257.302 1280.5 1228.728 1280.5 L 52.272 1280.5 C 23.698 1280.5 0.5 1257.302 0.5 1228.728 L 0.5 52.272 C 0.5 23.698 23.698 0.5 52.272 0.5 Z" style="fill:none;stroke:#000000;stroke-width:1;stroke-miterlimit:2;"/><rect x="72.506" y="49.763" width="1134.989" height="1180.475" transform="matrix(1,0,0,1,0,0)" fill="none" vector-effect="non-scaling-stroke" stroke-width="4.952" stroke="rgb(0,0,0)" stroke-linejoin="miter" stroke-linecap="round" stroke-miterlimit="2"/><rect x="97.778" y="65.697" width="1084.444" height="1148.606" transform="matrix(1,0,0,1,0,0)" fill="none" vector-effect="non-scaling-stroke" stroke-width="1" stroke="rgb(0,0,0)" stroke-linejoin="miter" stroke-linecap="round" stroke-miterlimit="2"/><path d=" M 135.131 1104.483 L 139.45 1043.698 C 153.1 855.869 189.419 792.504 395.41 596.422 C 495.416 501.374 528.21 454.477 532.806 400.066 C 545.903 271.733 443.72 231.678 377.164 231.093 C 290.911 230.231 193.324 288.552 239.906 424.124 L 143.113 456.315 C 123.658 329.856 143.666 211.221 234.238 158.575 C 355.186 89.928 510.275 116.839 588.58 224.991 C 641.21 297.548 653.235 397.956 625.003 476.536 C 542.516 677.273 262.713 765.593 239.629 997.856 L 548.875 997.856 L 548.875 868.544 L 640 868.544 L 640 1106.595 L 135.131 1104.483 L 135.131 1104.483 Z " fill="rgb(0,0,0)"/><path d=" M 906.752 483.773 C 906.895 465.855 891.672 465.512 891.861 478.589 C 890.615 544.269 830.909 576.6 787.542 568.963 C 720.7 557.135 699.361 495.346 700.014 458.991 C 701.962 346.72 823.404 263.906 932.96 120 C 1013.209 249.924 1145.729 351.948 1153.567 452.336 C 1164.005 585.886 982.501 635.671 956.566 480.059 C 954.892 469.049 940.975 464.142 942.044 479.495 C 945.986 522.118 940.417 539.903 992.095 645 L 856.974 645 C 886.898 595.9 904.71 535.581 906.752 483.773 L 906.752 483.773 Z " fill="rgb(0,0,0)"/></g></g></svg>