<?xml version="1.0" encoding="UTF-8" standalone="no"?><!-- Generator: Gravit.io --><svg xmlns="http://www.w3.org/2000/svg" xmlns:xlink="http://www.w3.org/1999/xlink" style="isolation:isolate" viewBox="-0.5 -0.5 1281 1281" width="1281pt" height="1281pt"><defs><clipPath id="_clipPath_bmNY9qRTJInZnxII0GBRykK200bkHxyW"><rect x="-0.5" y="-0.5" width="1281" height="1281"/></clipPath></defs><g clip-path="url(#_clipPath_bmNY9qRTJInZnxII0GBRykK200bkHxyW)"><g><path d="M 52.272 0.5 L 1228.728 0.5 C 1257.302 0.5 1280.5 23.698 1280.5 52.272 L 1280.5 1228.728 C 1280.5 1257.302 1257.302 1280.5 1228.728 1280.5 L 52.272 1280.5 C 23.698 1280.5 0.5 1257.302 0.5 1228.728 L 0.5 52.272 C 0.5 23.698 23.698 0.5 52.272 0.5 Z" style="stroke:none;fill:#FFFFFF;stroke-miterlimit:10;"/><path d="M 52.272 0.5 L 1228.728 0.5 C 1257.302 0.5 1280.5 23.698 1280.5 52.272 L 1280.5 1228.728 C 1280.5 1257.302 1257.302 1280.5 1228.728 1280.5 L 52.272 1280.5 C 23.698 1280.5 0.5 1257.302 0.5 1228.728 L 0.5 52.272 C 0.5 23.698 23.698 0.5 52.272 0.5 Z" style="fill:none;stroke:#000000;stroke-width:1;stroke-miterlimit:2;"/><rect x="72.506" y="49.763" width="1134.989" height="1180.475" transform="matrix(1,0,0,1,0,0)" fill="none" vector-effect="non-scaling-stroke" stroke-width="4.952" stroke="rgb(0,0,0)" stroke-linejoin="miter" stroke-linecap="round" stroke-miterlimit="2"/><rect x="97.778" y="65.697" width="1084.444" height="1148.606" transform="matrix(1,0,0,1,0,0)" fill="none" vector-effect="non-scaling-stroke" stroke-width="1" stroke="rgb(0,0,0)" stroke-linejoin="miter" stroke-linecap="round" stroke-miterlimit="2"/><path d=" M 868.096 645 C 891.176 591.932 907.964 537.52 910.939 479.295 C 913.674 457.842 902.334 457.486 900.612 472.599 C 867.976 615.842 694.161 577.037 700.151 442.327 C 705 332.997 799.69 309.489 849.074 345.251 C 868.557 358.389 867.465 350.534 856.827 336.856 C 783.453 243.053 827.908 122.251 927.017 120 C 1034.239 127.315 1062.056 256.651 996.274 332.687 C 988.1 341.84 969.98 371.217 997.296 350.672 C 1063.699 296.57 1155.845 354.76 1153.972 438.147 C 1150.486 591.932 986.968 603.37 951.989 474.942 C 948.623 460.713 938.957 453.536 941.611 477.721 C 946.469 521.545 956.487 587.533 985.205 645 L 868.096 645 Z " fill="rgb(0,0,0)"/></g><path d=" M 135 889.086 L 194.895 833.313 C 246.88 940.48 305.017 1011.064 393.95 998.948 C 527.381 987.34 582.669 810.253 554.752 676.822 C 527.744 557.11 417.259 498.797 329.417 562.62 C 308.684 577.747 288.679 590.096 284.769 590.096 C 275.554 590.096 254.7 537.568 257.549 521.545 C 316.505 412.541 459.665 221.578 459.665 221.578 L 235.998 221.578 L 235.998 349.46 L 150.156 349.46 L 150.156 120 L 587.306 120 L 587.306 197.854 C 587.306 197.854 470.183 351.648 431.476 435.874 C 526.805 440.289 603.644 516.777 631.227 637.701 C 647.323 701.366 640.109 846.992 619.043 909.76 C 583.851 1014.387 487.734 1099.276 399.861 1104.161 C 252.335 1116.707 174.071 985.854 135 889.086 L 135 889.086 L 135 889.086 Z " fill="rgb(0,0,0)"/></g></svg>