<?xml version="1.0" encoding="UTF-8" standalone="no"?><!-- Generator: Gravit.io --><svg xmlns="http://www.w3.org/2000/svg" xmlns:xlink="http://www.w3.org/1999/xlink" style="isolation:isolate" viewBox="-0.5 -0.5 1281 1281" width="1281pt" height="1281pt"><defs><clipPath id="_clipPath_lC5xiJwsCJMDwgrtE17LVdDQLmfyi0d3"><rect x="-0.5" y="-0.5" width="1281" height="1281"/></clipPath></defs><g clip-path="url(#_clipPath_lC5xiJwsCJMDwgrtE17LVdDQLmfyi0d3)"><g><path d="M 52.272 0.5 L 1228.728 0.5 C 1257.302 0.5 1280.5 23.698 1280.5 52.272 L 1280.5 1228.728 C 1280.5 1257.302 1257.302 1280.5 1228.728 1280.5 L 52.272 1280.5 C 23.698 1280.5 0.5 1257.302 0.5 1228.728 L 0.5 52.272 C 0.5 23.698 23.698 0.5 52.272 0.5 Z" style="stroke:none;fill:#FFFFFF;stroke-miterlimit:10;"/><path d="M 52.272 0.5 L 1228.728 0.5 C 1257.302 0.5 1280.5 23.698 1280.5 52.272 L 1280.5 1228.728 C 1280.5 1257.302 1257.302 1280.5 1228.728 1280.5 L 52.272 1280.5 C 23.698 1280.5 0.5 1257.302 0.5 1228.728 L 0.5 52.272 C 0.5 23.698 23.698 0.5 52.272 0.5 Z" style="fill:none;stroke:#000000;stroke-width:1;stroke-miterlimit:2;"/><rect x="72.506" y="49.763" width="1134.989" height="1180.475" transform="matrix(1,0,0,1,0,0)" fill="none" vector-effect="non-scaling-stroke" stroke-width="4.952" stroke="rgb(0,0,0)" stroke-linejoin="miter" stroke-linecap="round" stroke-miterlimit="2"/><rect x="97.778" y="65.697" width="1084.444" height="1148.606" transform="matrix(1,0,0,1,0,0)" fill="none" vector-effect="non-scaling-stroke" stroke-width="1" stroke="rgb(0,0,0)" stroke-linejoin="miter" stroke-linecap="round" stroke-miterlimit="2"/><path d=" M 811.01 121.817 C 879.77 117.521 915.643 172.87 922.598 216.476 C 926.786 223.391 929.085 221.441 930.685 216.079 C 934.018 160.118 987.231 114.335 1036.497 120.57 C 1116.689 121.59 1165.389 205.628 1151.707 276.745 C 1134.98 363.617 1085.293 415.951 1047.64 469.839 C 1005.101 525.63 947.797 606.211 929.325 645 C 929.325 645 871.131 561.54 795.355 463.389 C 744.681 397.724 704.164 326.608 700.398 265.376 C 696.077 195.404 726.583 132.664 811.01 121.817 L 811.01 121.817 L 811.01 121.817 Z " fill="rgb(212,0,0)"/><path d=" M 135 889.076 L 194.895 833.185 C 246.88 940.357 305.017 1011.06 393.95 998.867 C 527.381 987.414 582.669 810.281 554.752 676.688 C 527.744 557.128 417.259 498.851 329.417 562.639 C 308.684 577.763 288.679 590.154 284.769 590.154 C 275.554 590.154 254.7 537.585 257.549 521.6 C 316.505 412.592 459.665 221.544 459.665 221.544 L 235.998 221.544 L 235.998 349.47 L 150.156 349.47 L 150.156 120 L 587.306 120 L 587.306 197.858 C 587.306 197.858 470.183 351.619 431.476 435.887 C 526.805 440.34 603.644 516.831 631.227 637.722 C 647.323 701.39 640.109 847.06 619.043 909.635 C 583.851 1014.383 487.734 1099.275 399.861 1104.161 C 252.335 1116.707 174.071 985.89 135 889.076 L 135 889.076 L 135 889.076 Z " fill="rgb(212,0,0)"/></g></g></svg>