<?xml version="1.0" encoding="UTF-8" standalone="no"?><!-- Generator: Gravit.io --><svg xmlns="http://www.w3.org/2000/svg" xmlns:xlink="http://www.w3.org/1999/xlink" style="isolation:isolate" viewBox="-0.5 -0.5 1281 1281" width="1281pt" height="1281pt"><defs><clipPath id="_clipPath_KFhOdLixb38RDrdbgErKj6ILr0ouE4k3"><rect x="-0.5" y="-0.5" width="1281" height="1281"/></clipPath></defs><g clip-path="url(#_clipPath_KFhOdLixb38RDrdbgErKj6ILr0ouE4k3)"><g><path d="M 52.272 0.5 L 1228.728 0.5 C 1257.302 0.5 1280.5 23.698 1280.5 52.272 L 1280.5 1228.728 C 1280.5 1257.302 1257.302 1280.5 1228.728 1280.5 L 52.272 1280.5 C 23.698 1280.5 0.5 1257.302 0.5 1228.728 L 0.5 52.272 C 0.5 23.698 23.698 0.5 52.272 0.5 Z" style="stroke:none;fill:#FFFFFF;stroke-miterlimit:10;"/><path d="M 52.272 0.5 L 1228.728 0.5 C 1257.302 0.5 1280.5 23.698 1280.5 52.272 L 1280.5 1228.728 C 1280.5 1257.302 1257.302 1280.5 1228.728 1280.5 L 52.272 1280.5 C 23.698 1280.5 0.5 1257.302 0.5 1228.728 L 0.5 52.272 C 0.5 23.698 23.698 0.5 52.272 0.5 Z" style="fill:none;stroke:#000000;stroke-width:1;stroke-miterlimit:2;"/><rect x="72.506" y="49.763" width="1134.989" height="1180.475" transform="matrix(1,0,0,1,0,0)" fill="none" vector-effect="non-scaling-stroke" stroke-width="4.952" stroke="rgb(0,0,0)" stroke-linejoin="miter" stroke-linecap="round" stroke-miterlimit="2"/><rect x="97.778" y="65.697" width="1084.444" height="1148.606" transform="matrix(1,0,0,1,0,0)" fill="none" vector-effect="non-scaling-stroke" stroke-width="1" stroke="rgb(0,0,0)" stroke-linejoin="miter" stroke-linecap="round" stroke-miterlimit="2"/><path d=" M 906.752 483.773 C 906.895 465.855 891.672 465.512 891.861 478.589 C 890.615 544.269 830.909 576.6 787.542 568.963 C 720.7 557.135 699.361 495.346 700.014 458.991 C 701.962 346.72 823.404 263.906 932.96 120 C 1013.209 249.924 1145.729 351.948 1153.567 452.336 C 1164.005 585.886 982.501 635.671 956.566 480.059 C 954.892 469.049 940.975 464.142 942.044 479.495 C 945.986 522.118 940.417 539.903 992.095 645 L 856.974 645 C 886.898 595.9 904.71 535.581 906.752 483.773 L 906.752 483.773 Z " fill="rgb(0,0,0)"/><path d=" M 135 889.086 L 194.895 833.313 C 246.88 940.48 305.017 1011.064 393.95 998.948 C 527.381 987.34 582.669 810.253 554.752 676.822 C 527.744 557.11 417.259 498.797 329.417 562.62 C 308.684 577.747 288.679 590.096 284.769 590.096 C 275.554 590.096 254.7 537.568 257.549 521.545 C 316.505 412.541 459.665 221.578 459.665 221.578 L 235.998 221.578 L 235.998 349.46 L 150.156 349.46 L 150.156 120 L 587.306 120 L 587.306 197.854 C 587.306 197.854 470.183 351.648 431.476 435.874 C 526.805 440.289 603.644 516.777 631.227 637.701 C 647.323 701.366 640.109 846.992 619.043 909.76 C 583.851 1014.387 487.734 1099.276 399.861 1104.161 C 252.335 1116.707 174.071 985.854 135 889.086 L 135 889.086 L 135 889.086 Z " fill="rgb(0,0,0)"/></g></g></svg>