<?xml version="1.0" encoding="UTF-8" standalone="no"?><!-- Generator: Gravit.io --><svg xmlns="http://www.w3.org/2000/svg" xmlns:xlink="http://www.w3.org/1999/xlink" style="isolation:isolate" viewBox="-0.5 -0.5 1281 1281" width="1281pt" height="1281pt"><defs><clipPath id="_clipPath_E3Xr6c844RR1ELcFlVUkgMZFEsjeLRgm"><rect x="-0.5" y="-0.5" width="1281" height="1281"/></clipPath></defs><g clip-path="url(#_clipPath_E3Xr6c844RR1ELcFlVUkgMZFEsjeLRgm)"><g><path d="M 52.272 0.5 L 1228.728 0.5 C 1257.302 0.5 1280.5 23.698 1280.5 52.272 L 1280.5 1228.728 C 1280.5 1257.302 1257.302 1280.5 1228.728 1280.5 L 52.272 1280.5 C 23.698 1280.5 0.5 1257.302 0.5 1228.728 L 0.5 52.272 C 0.5 23.698 23.698 0.5 52.272 0.5 Z" style="stroke:none;fill:#FFFFFF;stroke-miterlimit:10;"/><path d="M 52.272 0.5 L 1228.728 0.5 C 1257.302 0.5 1280.5 23.698 1280.5 52.272 L 1280.5 1228.728 C 1280.5 1257.302 1257.302 1280.5 1228.728 1280.5 L 52.272 1280.5 C 23.698 1280.5 0.5 1257.302 0.5 1228.728 L 0.5 52.272 C 0.5 23.698 23.698 0.5 52.272 0.5 Z" style="fill:none;stroke:#000000;stroke-width:1;stroke-miterlimit:2;"/><rect x="72.506" y="49.763" width="1134.989" height="1180.475" transform="matrix(1,0,0,1,0,0)" fill="none" vector-effect="non-scaling-stroke" stroke-width="4.952" stroke="rgb(0,0,0)" stroke-linejoin="miter" stroke-linecap="round" stroke-miterlimit="2"/><rect x="97.778" y="65.697" width="1084.444" height="1148.606" transform="matrix(1,0,0,1,0,0)" fill="none" vector-effect="non-scaling-stroke" stroke-width="1" stroke="rgb(0,0,0)" stroke-linejoin="miter" stroke-linecap="round" stroke-miterlimit="2"/><path d=" M 700 384.557 C 801.337 300.267 867.899 208.371 931.538 120 C 987.339 217.25 1067.433 302.312 1154 384.557 C 1061.344 466.126 989.535 553.31 931.794 645 C 867.797 551.014 800.379 465.919 700 384.557 L 700 384.557 L 700 384.557 Z " fill="rgb(212,0,0)"/><path d=" M 393.175 1104.883 L 393.175 1017.846 L 457.688 1017.846 L 457.688 874.335 L 135 874.335 L 135 773.11 L 484.174 120 L 541.214 120.312 L 541.214 773.11 L 640 773.11 L 640 874.335 L 541.214 874.335 L 539.354 1017.846 L 593.429 1017.846 L 593.429 1105 L 393.175 1104.883 Z  M 457.688 358.952 L 235.994 773.148 L 457.688 773.148 L 457.688 358.952 Z " fill="rgb(212,0,0)"/></g></g></svg>