<?xml version="1.0" encoding="UTF-8" standalone="no"?><!-- Generator: Gravit.io --><svg xmlns="http://www.w3.org/2000/svg" xmlns:xlink="http://www.w3.org/1999/xlink" style="isolation:isolate" viewBox="-0.5 -0.5 1281 1281" width="1281pt" height="1281pt"><defs><clipPath id="_clipPath_mX74ldTzjHUpYS7Ymjhq2A3O8HHBVHB5"><rect x="-0.5" y="-0.5" width="1281" height="1281"/></clipPath></defs><g clip-path="url(#_clipPath_mX74ldTzjHUpYS7Ymjhq2A3O8HHBVHB5)"><g><path d="M 52.272 0.5 L 1228.728 0.5 C 1257.302 0.5 1280.5 23.698 1280.5 52.272 L 1280.5 1228.728 C 1280.5 1257.302 1257.302 1280.5 1228.728 1280.5 L 52.272 1280.5 C 23.698 1280.5 0.5 1257.302 0.5 1228.728 L 0.5 52.272 C 0.5 23.698 23.698 0.5 52.272 0.5 Z" style="stroke:none;fill:#FFFFFF;stroke-miterlimit:10;"/><path d="M 52.272 0.5 L 1228.728 0.5 C 1257.302 0.5 1280.5 23.698 1280.5 52.272 L 1280.5 1228.728 C 1280.5 1257.302 1257.302 1280.5 1228.728 1280.5 L 52.272 1280.5 C 23.698 1280.5 0.5 1257.302 0.5 1228.728 L 0.5 52.272 C 0.5 23.698 23.698 0.5 52.272 0.5 Z" style="fill:none;stroke:#000000;stroke-width:1;stroke-miterlimit:2;"/><rect x="72.506" y="49.763" width="1134.989" height="1180.475" transform="matrix(1,0,0,1,0,0)" fill="none" vector-effect="non-scaling-stroke" stroke-width="4.952" stroke="rgb(0,0,0)" stroke-linejoin="miter" stroke-linecap="round" stroke-miterlimit="2"/><rect x="97.778" y="65.697" width="1084.444" height="1148.606" transform="matrix(1,0,0,1,0,0)" fill="none" vector-effect="non-scaling-stroke" stroke-width="1" stroke="rgb(0,0,0)" stroke-linejoin="miter" stroke-linecap="round" stroke-miterlimit="2"/><path d=" M 868.096 645 C 891.176 591.932 907.964 537.52 910.939 479.295 C 913.674 457.842 902.334 457.486 900.612 472.599 C 867.976 615.842 694.161 577.037 700.151 442.327 C 705 332.997 799.69 309.489 849.074 345.251 C 868.557 358.389 867.465 350.534 856.827 336.856 C 783.453 243.053 827.908 122.251 927.017 120 C 1034.239 127.315 1062.056 256.651 996.274 332.687 C 988.1 341.84 969.98 371.217 997.296 350.672 C 1063.699 296.57 1155.845 354.76 1153.972 438.147 C 1150.486 591.932 986.968 603.37 951.989 474.942 C 948.623 460.713 938.957 453.536 941.611 477.721 C 946.469 521.545 956.487 587.533 985.205 645 L 868.096 645 Z " fill="rgb(0,0,0)"/></g><path d=" M 135.007 850.011 L 213.53 849.071 C 228.511 908.524 261.656 968.955 306.66 985.724 C 433.808 1023.13 515.609 934.128 542.543 831.521 C 575.22 707.064 541.825 532.3 454.282 470.269 C 381.751 418.829 273.983 462.217 224.485 572.25 L 169.494 530.113 L 199.018 120 L 558.273 120 L 558.273 216.938 L 267.149 216.938 L 262.529 387.793 C 325.198 332.678 421.511 333.265 484.15 371.923 C 602.778 442.79 657.894 603.911 634.861 793.8 C 602.902 982.675 532.431 1089.697 373.48 1104.981 C 196.677 1106.975 134.258 954.726 135.007 850.011 L 135.007 850.011 L 135.007 850.011 Z " fill="rgb(0,0,0)"/></g></svg>