<?xml version="1.0" encoding="UTF-8" standalone="no"?><!-- Generator: Gravit.io --><svg xmlns="http://www.w3.org/2000/svg" xmlns:xlink="http://www.w3.org/1999/xlink" style="isolation:isolate" viewBox="-0.5 -0.5 1281 1281" width="1281pt" height="1281pt"><defs><clipPath id="_clipPath_OrQKjYXmdssWzVtT26VXe5b83gXbqhqU"><rect x="-0.5" y="-0.5" width="1281" height="1281"/></clipPath></defs><g clip-path="url(#_clipPath_OrQKjYXmdssWzVtT26VXe5b83gXbqhqU)"><g><path d="M 52.272 0.5 L 1228.728 0.5 C 1257.302 0.5 1280.5 23.698 1280.5 52.272 L 1280.5 1228.728 C 1280.5 1257.302 1257.302 1280.5 1228.728 1280.5 L 52.272 1280.5 C 23.698 1280.5 0.5 1257.302 0.5 1228.728 L 0.5 52.272 C 0.5 23.698 23.698 0.5 52.272 0.5 Z" style="stroke:none;fill:#FFFFFF;stroke-miterlimit:10;"/><path d="M 52.272 0.5 L 1228.728 0.5 C 1257.302 0.5 1280.5 23.698 1280.5 52.272 L 1280.5 1228.728 C 1280.5 1257.302 1257.302 1280.5 1228.728 1280.5 L 52.272 1280.5 C 23.698 1280.5 0.5 1257.302 0.5 1228.728 L 0.5 52.272 C 0.5 23.698 23.698 0.5 52.272 0.5 Z" style="fill:none;stroke:#000000;stroke-width:1;stroke-miterlimit:2;"/><rect x="72.506" y="49.763" width="1134.989" height="1180.475" transform="matrix(1,0,0,1,0,0)" fill="none" vector-effect="non-scaling-stroke" stroke-width="4.952" stroke="rgb(0,0,0)" stroke-linejoin="miter" stroke-linecap="round" stroke-miterlimit="2"/><rect x="97.778" y="65.697" width="1084.444" height="1148.606" transform="matrix(1,0,0,1,0,0)" fill="none" vector-effect="non-scaling-stroke" stroke-width="1" stroke="rgb(0,0,0)" stroke-linejoin="miter" stroke-linecap="round" stroke-miterlimit="2"/><path d=" M 700 384.557 C 801.337 300.267 867.899 208.371 931.538 120 C 987.339 217.25 1067.433 302.312 1154 384.557 C 1061.344 466.126 989.535 553.31 931.794 645 C 867.797 551.014 800.379 465.919 700 384.557 L 700 384.557 L 700 384.557 Z " fill="rgb(212,0,0)"/><path d=" M 135.007 849.852 L 213.53 849.11 C 228.511 908.484 261.656 968.915 306.66 985.763 C 433.808 1023.169 515.609 934.126 542.543 831.52 C 575.22 707.103 541.825 532.261 454.282 470.268 C 381.751 418.674 273.983 462.178 224.485 572.289 L 169.494 529.957 L 199.018 120 L 558.273 120 L 558.273 216.978 L 267.149 216.978 L 262.529 387.638 C 325.198 332.718 421.511 333.109 484.15 371.806 C 602.778 442.634 657.894 603.714 634.861 793.684 C 602.902 982.714 532.431 1089.54 373.48 1104.981 C 196.677 1106.973 134.258 954.765 135.007 849.852 L 135.007 849.852 L 135.007 849.852 Z " fill="rgb(212,0,0)"/></g></g></svg>