<?xml version="1.0" encoding="UTF-8" standalone="no"?><!-- Generator: Gravit.io --><svg xmlns="http://www.w3.org/2000/svg" xmlns:xlink="http://www.w3.org/1999/xlink" style="isolation:isolate" viewBox="-0.5 -0.5 1281 1281" width="1281pt" height="1281pt"><defs><clipPath id="_clipPath_B3ncT3zfjmn4dWK5QTSo0YgSreugcIOL"><rect x="-0.5" y="-0.5" width="1281" height="1281"/></clipPath></defs><g clip-path="url(#_clipPath_B3ncT3zfjmn4dWK5QTSo0YgSreugcIOL)"><g><path d="M 52.272 0.5 L 1228.728 0.5 C 1257.302 0.5 1280.5 23.698 1280.5 52.272 L 1280.5 1228.728 C 1280.5 1257.302 1257.302 1280.5 1228.728 1280.5 L 52.272 1280.5 C 23.698 1280.5 0.5 1257.302 0.5 1228.728 L 0.5 52.272 C 0.5 23.698 23.698 0.5 52.272 0.5 Z" style="stroke:none;fill:#FFFFFF;stroke-miterlimit:10;"/><path d="M 52.272 0.5 L 1228.728 0.5 C 1257.302 0.5 1280.5 23.698 1280.5 52.272 L 1280.5 1228.728 C 1280.5 1257.302 1257.302 1280.5 1228.728 1280.5 L 52.272 1280.5 C 23.698 1280.5 0.5 1257.302 0.5 1228.728 L 0.5 52.272 C 0.5 23.698 23.698 0.5 52.272 0.5 Z" style="fill:none;stroke:#000000;stroke-width:1;stroke-miterlimit:2;"/><rect x="72.506" y="49.763" width="1134.989" height="1180.475" transform="matrix(1,0,0,1,0,0)" fill="none" vector-effect="non-scaling-stroke" stroke-width="4.952" stroke="rgb(0,0,0)" stroke-linejoin="miter" stroke-linecap="round" stroke-miterlimit="2"/><rect x="97.778" y="65.697" width="1084.444" height="1148.606" transform="matrix(1,0,0,1,0,0)" fill="none" vector-effect="non-scaling-stroke" stroke-width="1" stroke="rgb(0,0,0)" stroke-linejoin="miter" stroke-linecap="round" stroke-miterlimit="2"/><path d=" M 811.01 121.817 C 879.77 117.521 915.643 172.87 922.598 216.476 C 926.786 223.391 929.085 221.441 930.685 216.079 C 934.018 160.118 987.231 114.335 1036.497 120.57 C 1116.689 121.59 1165.389 205.628 1151.707 276.745 C 1134.98 363.617 1085.293 415.951 1047.64 469.839 C 1005.101 525.63 947.797 606.211 929.325 645 C 929.325 645 871.131 561.54 795.355 463.389 C 744.681 397.724 704.164 326.608 700.398 265.376 C 696.077 195.404 726.583 132.664 811.01 121.817 L 811.01 121.817 L 811.01 121.817 Z " fill="rgb(212,0,0)"/><path d=" M 135.007 849.852 L 213.53 849.11 C 228.511 908.484 261.656 968.915 306.66 985.763 C 433.808 1023.169 515.609 934.126 542.543 831.52 C 575.22 707.103 541.825 532.261 454.282 470.268 C 381.751 418.674 273.983 462.178 224.485 572.289 L 169.494 529.957 L 199.018 120 L 558.273 120 L 558.273 216.978 L 267.149 216.978 L 262.529 387.638 C 325.198 332.718 421.511 333.109 484.15 371.806 C 602.778 442.634 657.894 603.714 634.861 793.684 C 602.902 982.714 532.431 1089.54 373.48 1104.981 C 196.677 1106.973 134.258 954.765 135.007 849.852 L 135.007 849.852 L 135.007 849.852 Z " fill="rgb(212,0,0)"/></g></g></svg>