<?xml version="1.0" encoding="UTF-8" standalone="no"?><!-- Generator: Gravit.io --><svg xmlns="http://www.w3.org/2000/svg" xmlns:xlink="http://www.w3.org/1999/xlink" style="isolation:isolate" viewBox="-0.5 -0.5 1281 1281" width="1281pt" height="1281pt"><defs><clipPath id="_clipPath_fVN4EvgU3aryXAcb9Rvpq6CUoFB9wupZ"><rect x="-0.5" y="-0.5" width="1281" height="1281"/></clipPath></defs><g clip-path="url(#_clipPath_fVN4EvgU3aryXAcb9Rvpq6CUoFB9wupZ)"><g><path d="M 52.272 0.5 L 1228.728 0.5 C 1257.302 0.5 1280.5 23.698 1280.5 52.272 L 1280.5 1228.728 C 1280.5 1257.302 1257.302 1280.5 1228.728 1280.5 L 52.272 1280.5 C 23.698 1280.5 0.5 1257.302 0.5 1228.728 L 0.5 52.272 C 0.5 23.698 23.698 0.5 52.272 0.5 Z" style="stroke:none;fill:#FFFFFF;stroke-miterlimit:10;"/><path d="M 52.272 0.5 L 1228.728 0.5 C 1257.302 0.5 1280.5 23.698 1280.5 52.272 L 1280.5 1228.728 C 1280.5 1257.302 1257.302 1280.5 1228.728 1280.5 L 52.272 1280.5 C 23.698 1280.5 0.5 1257.302 0.5 1228.728 L 0.5 52.272 C 0.5 23.698 23.698 0.5 52.272 0.5 Z" style="fill:none;stroke:#000000;stroke-width:1;stroke-miterlimit:2;"/><rect x="72.506" y="49.763" width="1134.989" height="1180.475" transform="matrix(1,0,0,1,0,0)" fill="none" vector-effect="non-scaling-stroke" stroke-width="4.952" stroke="rgb(0,0,0)" stroke-linejoin="miter" stroke-linecap="round" stroke-miterlimit="2"/><rect x="97.778" y="65.697" width="1084.444" height="1148.606" transform="matrix(1,0,0,1,0,0)" fill="none" vector-effect="non-scaling-stroke" stroke-width="1" stroke="rgb(0,0,0)" stroke-linejoin="miter" stroke-linecap="round" stroke-miterlimit="2"/><path d=" M 906.752 483.773 C 906.895 465.855 891.672 465.512 891.861 478.589 C 890.615 544.269 830.909 576.6 787.542 568.963 C 720.7 557.135 699.361 495.346 700.014 458.991 C 701.962 346.72 823.404 263.906 932.96 120 C 1013.209 249.924 1145.729 351.948 1153.567 452.336 C 1164.005 585.886 982.501 635.671 956.566 480.059 C 954.892 469.049 940.975 464.142 942.044 479.495 C 945.986 522.118 940.417 539.903 992.095 645 L 856.974 645 C 886.898 595.9 904.71 535.581 906.752 483.773 L 906.752 483.773 Z " fill="rgb(0,0,0)"/><path d=" M 135.007 850.011 L 213.53 849.071 C 228.511 908.524 261.656 968.955 306.66 985.724 C 433.808 1023.13 515.609 934.128 542.543 831.521 C 575.22 707.064 541.825 532.3 454.282 470.269 C 381.751 418.829 273.983 462.217 224.485 572.25 L 169.494 530.113 L 199.018 120 L 558.273 120 L 558.273 216.938 L 267.149 216.938 L 262.529 387.793 C 325.198 332.678 421.511 333.265 484.15 371.923 C 602.778 442.79 657.894 603.911 634.861 793.8 C 602.902 982.675 532.431 1089.697 373.48 1104.981 C 196.677 1106.975 134.258 954.726 135.007 850.011 L 135.007 850.011 L 135.007 850.011 Z " fill="rgb(0,0,0)"/></g></g></svg>