<?xml version="1.0" encoding="UTF-8" standalone="no"?><!-- Generator: Gravit.io --><svg xmlns="http://www.w3.org/2000/svg" xmlns:xlink="http://www.w3.org/1999/xlink" style="isolation:isolate" viewBox="-0.5 -0.5 1281 1281" width="1281pt" height="1281pt"><defs><clipPath id="_clipPath_86mP6ooABwp9XawLLG0dAQfzl3uQYzjk"><rect x="-0.5" y="-0.5" width="1281" height="1281"/></clipPath></defs><g clip-path="url(#_clipPath_86mP6ooABwp9XawLLG0dAQfzl3uQYzjk)"><g><path d="M 52.272 0.5 L 1228.728 0.5 C 1257.302 0.5 1280.5 23.698 1280.5 52.272 L 1280.5 1228.728 C 1280.5 1257.302 1257.302 1280.5 1228.728 1280.5 L 52.272 1280.5 C 23.698 1280.5 0.5 1257.302 0.5 1228.728 L 0.5 52.272 C 0.5 23.698 23.698 0.5 52.272 0.5 Z" style="stroke:none;fill:#FFFFFF;stroke-miterlimit:10;"/><path d="M 52.272 0.5 L 1228.728 0.5 C 1257.302 0.5 1280.5 23.698 1280.5 52.272 L 1280.5 1228.728 C 1280.5 1257.302 1257.302 1280.5 1228.728 1280.5 L 52.272 1280.5 C 23.698 1280.5 0.5 1257.302 0.5 1228.728 L 0.5 52.272 C 0.5 23.698 23.698 0.5 52.272 0.5 Z" style="fill:none;stroke:#000000;stroke-width:1;stroke-miterlimit:2;"/><rect x="72.506" y="49.763" width="1134.989" height="1180.475" transform="matrix(1,0,0,1,0,0)" fill="none" vector-effect="non-scaling-stroke" stroke-width="4.952" stroke="rgb(0,0,0)" stroke-linejoin="miter" stroke-linecap="round" stroke-miterlimit="2"/><rect x="97.778" y="65.697" width="1084.444" height="1148.606" transform="matrix(1,0,0,1,0,0)" fill="none" vector-effect="non-scaling-stroke" stroke-width="1" stroke="rgb(0,0,0)" stroke-linejoin="miter" stroke-linecap="round" stroke-miterlimit="2"/><path d=" M 811.01 121.817 C 879.77 117.521 915.643 172.87 922.598 216.476 C 926.786 223.391 929.085 221.441 930.685 216.079 C 934.018 160.118 987.231 114.335 1036.497 120.57 C 1116.689 121.59 1165.389 205.628 1151.707 276.745 C 1134.98 363.617 1085.293 415.951 1047.64 469.839 C 1005.101 525.63 947.797 606.211 929.325 645 C 929.325 645 871.131 561.54 795.355 463.389 C 744.681 397.724 704.164 326.608 700.398 265.376 C 696.077 195.404 726.583 132.664 811.01 121.817 L 811.01 121.817 L 811.01 121.817 Z " fill="rgb(212,0,0)"/><path d=" M 142.809 802.07 C 132.55 718.998 132.81 504.611 141.185 441.36 C 167.058 247.107 229.81 158.287 334.927 129.241 C 437.023 100.976 580.446 132.486 611.903 294.761 L 526.557 296.794 C 480.394 186.943 363.592 216.263 297.788 263.917 C 245.295 302.11 221.565 460.906 231.725 470.68 C 231.725 470.68 330.999 383.775 409.267 390.186 C 576.518 410.828 645.502 582.132 639.659 744.173 C 634.335 939.012 582.101 1094.68 404.82 1105 C 236.271 1097.417 159.041 988.895 142.809 802.07 L 142.809 802.07 L 142.809 802.07 Z  M 558.501 750.622 C 559.409 615.322 507.533 514.227 409.267 503.087 C 311.098 491.946 212.053 605.236 218.903 743.039 C 225.752 881.389 271.038 997.731 390.114 997.144 C 518.181 996.323 557.884 846.832 558.501 750.622 L 558.501 750.622 L 558.501 750.622 Z " fill="rgb(212,0,0)"/></g></g></svg>