<?xml version="1.0" encoding="UTF-8" standalone="no"?><!-- Generator: Gravit.io --><svg xmlns="http://www.w3.org/2000/svg" xmlns:xlink="http://www.w3.org/1999/xlink" style="isolation:isolate" viewBox="-0.5 -0.5 1281 1281" width="1281pt" height="1281pt"><defs><clipPath id="_clipPath_x801X4YoG9ipunsrSG5Nqr5FVnKYqBih"><rect x="-0.5" y="-0.5" width="1281" height="1281"/></clipPath></defs><g clip-path="url(#_clipPath_x801X4YoG9ipunsrSG5Nqr5FVnKYqBih)"><g><path d="M 52.272 0.5 L 1228.728 0.5 C 1257.302 0.5 1280.5 23.698 1280.5 52.272 L 1280.5 1228.728 C 1280.5 1257.302 1257.302 1280.5 1228.728 1280.5 L 52.272 1280.5 C 23.698 1280.5 0.5 1257.302 0.5 1228.728 L 0.5 52.272 C 0.5 23.698 23.698 0.5 52.272 0.5 Z" style="stroke:none;fill:#FFFFFF;stroke-miterlimit:10;"/><path d="M 52.272 0.5 L 1228.728 0.5 C 1257.302 0.5 1280.5 23.698 1280.5 52.272 L 1280.5 1228.728 C 1280.5 1257.302 1257.302 1280.5 1228.728 1280.5 L 52.272 1280.5 C 23.698 1280.5 0.5 1257.302 0.5 1228.728 L 0.5 52.272 C 0.5 23.698 23.698 0.5 52.272 0.5 Z" style="fill:none;stroke:#000000;stroke-width:1;stroke-miterlimit:2;"/><rect x="72.506" y="49.763" width="1134.989" height="1180.475" transform="matrix(1,0,0,1,0,0)" fill="none" vector-effect="non-scaling-stroke" stroke-width="4.952" stroke="rgb(0,0,0)" stroke-linejoin="miter" stroke-linecap="round" stroke-miterlimit="2"/><rect x="97.778" y="65.697" width="1084.444" height="1148.606" transform="matrix(1,0,0,1,0,0)" fill="none" vector-effect="non-scaling-stroke" stroke-width="1" stroke="rgb(0,0,0)" stroke-linejoin="miter" stroke-linecap="round" stroke-miterlimit="2"/><path d=" M 906.752 483.773 C 906.895 465.855 891.672 465.512 891.861 478.589 C 890.615 544.269 830.909 576.6 787.542 568.963 C 720.7 557.135 699.361 495.346 700.014 458.991 C 701.962 346.72 823.404 263.906 932.96 120 C 1013.209 249.924 1145.729 351.948 1153.567 452.336 C 1164.005 585.886 982.501 635.671 956.566 480.059 C 954.892 469.049 940.975 464.142 942.044 479.495 C 945.986 522.118 940.417 539.903 992.095 645 L 856.974 645 C 886.898 595.9 904.71 535.581 906.752 483.773 L 906.752 483.773 Z " fill="rgb(0,0,0)"/><path d=" M 142.809 801.96 C 132.55 719.059 132.81 504.749 141.185 441.35 C 167.058 247.129 229.81 158.245 334.927 129.242 C 437.023 100.984 580.446 132.449 611.903 294.776 L 526.557 296.729 C 480.394 186.975 363.592 216.29 297.788 264.053 C 245.295 302.083 221.565 460.893 231.725 470.665 C 231.725 470.665 330.999 383.737 409.267 390.147 C 576.518 410.745 645.502 582.218 639.659 744.113 C 634.335 938.882 582.101 1094.642 404.82 1105 C 236.271 1097.299 159.041 988.678 142.809 801.96 L 142.809 801.96 L 142.809 801.96 Z  M 558.501 750.523 C 559.409 615.402 507.533 514.129 409.267 503.029 C 311.098 491.85 212.053 605.123 218.903 742.863 C 225.752 881.19 271.038 997.55 390.114 996.925 C 518.181 996.338 557.884 846.715 558.501 750.523 L 558.501 750.523 L 558.501 750.523 Z " fill="rgb(0,0,0)"/></g></g></svg>