<?xml version="1.0" encoding="UTF-8" standalone="no"?><!-- Generator: Gravit.io --><svg xmlns="http://www.w3.org/2000/svg" xmlns:xlink="http://www.w3.org/1999/xlink" style="isolation:isolate" viewBox="629.333 641.833 1288 1288" width="1288pt" height="1288pt"><defs><clipPath id="_clipPath_qVBIlEVdkCrxkGnJKweZYZTBROMyy43d"><rect x="629.333" y="641.833" width="1288" height="1288"/></clipPath></defs><g clip-path="url(#_clipPath_qVBIlEVdkCrxkGnJKweZYZTBROMyy43d)"><g><mask id="_mask_XIadajAuQYGDapB7LUcz6cz6nczdoTrI" x="-200%" y="-200%" width="400%" height="400%"><rect x="-200%" y="-200%" width="400%" height="400%" style="fill:white;"/><path d=" M 685.105 645.833 L 1861.561 645.833 C 1890.135 645.833 1913.333 669.031 1913.333 697.605 L 1913.333 1874.061 C 1913.333 1902.635 1890.135 1925.833 1861.561 1925.833 L 685.105 1925.833 C 656.531 1925.833 633.333 1902.635 633.333 1874.061 L 633.333 697.605 C 633.333 669.031 656.531 645.833 685.105 645.833 Z " fill="black" stroke="none"/></mask><path d=" M 685.105 645.833 L 1861.561 645.833 C 1890.135 645.833 1913.333 669.031 1913.333 697.605 L 1913.333 1874.061 C 1913.333 1902.635 1890.135 1925.833 1861.561 1925.833 L 685.105 1925.833 C 656.531 1925.833 633.333 1902.635 633.333 1874.061 L 633.333 697.605 C 633.333 669.031 656.531 645.833 685.105 645.833 Z " fill="rgb(255,255,255)"/><path d=" M 685.105 645.833 L 1861.561 645.833 C 1890.135 645.833 1913.333 669.031 1913.333 697.605 L 1913.333 1874.061 C 1913.333 1902.635 1890.135 1925.833 1861.561 1925.833 L 685.105 1925.833 C 656.531 1925.833 633.333 1902.635 633.333 1874.061 L 633.333 697.605 C 633.333 669.031 656.531 645.833 685.105 645.833 Z " fill="rgb(255,255,255)" mask="url(#_mask_XIadajAuQYGDapB7LUcz6cz6nczdoTrI)" vector-effect="non-scaling-stroke" stroke-width="2" stroke="rgb(255,255,255)" stroke-linejoin="miter" stroke-linecap="butt" stroke-miterlimit="4"/><rect x="705.339" y="695.096" width="1134.989" height="1180.475" transform="matrix(1,0,0,1,0,0)" fill="none" vector-effect="non-scaling-stroke" stroke-width="4.952" stroke="rgb(0,0,0)" stroke-opacity="10000" stroke-linejoin="miter" stroke-linecap="round" stroke-miterlimit="2"/><rect x="730.611" y="711.03" width="1084.444" height="1148.606" transform="matrix(1,0,0,1,0,0)" fill="none" vector-effect="non-scaling-stroke" stroke-width="1" stroke="rgb(0,0,0)" stroke-opacity="10000" stroke-linejoin="miter" stroke-linecap="round" stroke-miterlimit="2"/><path d=" M 1360 1070.714 L 1510 1070.714 L 1510 1585 L 1610 1585 L 1610 1070.714 L 1760 1070.714 L 1760 985 L 1360 985 L 1360 1070.714 L 1360 1070.714 Z " fill="rgb(212,0,0)"/><path d=" M 1100 1413.571 L 916 985 L 800 985 L 800 1585 L 900 1585 L 900 1156.429 L 1084 1585 L 1200 1585 L 1200 985 L 1100 985 L 1100 1413.571 L 1100 1413.571 Z " fill="rgb(212,0,0)"/></g></g></svg>