<?xml version="1.0" encoding="UTF-8" standalone="no"?><!-- Generator: Gravit.io --><svg xmlns="http://www.w3.org/2000/svg" xmlns:xlink="http://www.w3.org/1999/xlink" style="isolation:isolate" viewBox="50.603 839.003 824.993 1281.993" width="824.993pt" height="1281.993pt"><defs><clipPath id="_clipPath_vGnt8XIsFU6axANjV5nRbugKC0gW7Ucv"><rect x="50.603" y="839.003" width="824.993" height="1281.993"/></clipPath></defs><g clip-path="url(#_clipPath_vGnt8XIsFU6axANjV5nRbugKC0gW7Ucv)"><g><g><g><g><g><path d="M 833.746 2120.5 L 93.454 2120.5 C 70.63 2120.5 52.1 2101.97 52.1 2079.146 L 52.1 881.854 C 52.1 859.03 70.63 840.5 93.454 840.5 L 833.746 840.5 C 856.57 840.5 875.1 859.03 875.1 881.854 L 875.1 2079.146 C 875.1 2101.97 856.57 2120.5 833.746 2120.5 Z" style="stroke:none;fill:#FFFFFF;stroke-miterlimit:10;"/><path d="M 833.746 2120.5 L 93.454 2120.5 C 70.63 2120.5 52.1 2101.97 52.1 2079.146 L 52.1 881.854 C 52.1 859.03 70.63 840.5 93.454 840.5 L 833.746 840.5 C 856.57 840.5 875.1 859.03 875.1 881.854 L 875.1 2079.146 C 875.1 2101.97 856.57 2120.5 833.746 2120.5 Z" style="fill:none;stroke:#000000;stroke-width:0.99673343;stroke-miterlimit:2;"/><g/></g></g><g><path d=" M 846.476 1933.859 L 846.476 2063.196 L 835.007 2063.196 L 835.007 1933.859 L 846.476 1933.859 Z " fill="rgb(0,0,0)"/><path d=" M 801.019 2063.196 C 812.058 2063.196 820.933 2052.167 820.933 2038.473 L 820.933 1958.582 C 820.933 1944.888 812.058 1933.859 801.019 1933.859 L 794.585 1933.859 C 783.546 1933.859 774.654 1944.888 774.654 1958.582 L 774.654 2038.473 C 774.654 2052.167 783.546 2063.196 794.585 2063.196 L 801.019 2063.196 Z  M 797.697 2050.971 C 791.177 2050.971 785.931 2045.482 785.931 2038.648 L 785.931 1957.686 C 785.931 1950.852 791.177 1945.345 797.697 1945.345 C 804.218 1945.345 809.464 1950.852 809.464 1957.686 L 809.464 2038.648 C 809.464 2045.482 804.218 2050.971 797.697 2050.971 Z " fill="rgb(0,0,0)"/><path d=" M 79.724 1026.141 L 79.724 896.805 L 91.193 896.805 L 91.193 1026.141 L 79.724 1026.141 Z " fill="rgb(0,0,0)"/><path d=" M 125.18 896.805 C 114.141 896.805 105.267 907.833 105.267 921.527 L 105.267 1001.418 C 105.267 1015.112 114.141 1026.141 125.18 1026.141 L 131.614 1026.141 C 142.653 1026.141 151.545 1015.112 151.545 1001.418 L 151.545 921.527 C 151.545 907.833 142.653 896.805 131.614 896.805 L 125.18 896.805 Z  M 128.502 909.03 C 135.022 909.03 140.269 914.518 140.269 921.352 L 140.269 1002.314 C 140.269 1009.148 135.022 1014.656 128.502 1014.656 C 121.982 1014.656 116.736 1009.148 116.736 1002.314 L 116.736 921.352 C 116.736 914.518 121.982 909.03 128.502 909.03 Z " fill="rgb(0,0,0)"/><path d=" M 624.007 1459.743 C 634.621 1436.034 642.352 1411.71 643.724 1385.699 C 644.984 1376.127 639.763 1375.967 638.975 1382.708 C 623.946 1446.717 543.993 1429.384 546.742 1369.176 C 548.973 1320.347 592.53 1309.842 615.252 1325.808 C 624.224 1331.69 623.717 1328.167 618.82 1322.065 C 585.068 1280.147 605.51 1226.164 651.121 1225.176 C 700.449 1228.433 713.248 1286.218 682.99 1320.201 C 679.228 1324.284 670.885 1337.406 683.444 1328.231 C 713.996 1304.061 756.396 1330.049 755.531 1367.314 C 753.936 1436.028 678.701 1441.153 662.612 1383.758 C 661.064 1377.395 656.605 1374.199 657.837 1385.008 C 660.067 1404.575 664.682 1434.077 677.884 1459.743 L 624.007 1459.743 Z " fill="rgb(0,0,0)"/><path d=" M 242.301 1459.743 C 252.916 1436.034 260.647 1411.71 262.019 1385.699 C 263.278 1376.127 258.057 1375.967 257.27 1382.708 C 242.241 1446.717 162.288 1429.384 165.037 1369.176 C 167.267 1320.347 210.825 1309.842 233.546 1325.808 C 242.518 1331.69 242.011 1328.167 237.114 1322.065 C 203.362 1280.147 223.805 1226.164 269.415 1225.176 C 318.743 1228.433 331.542 1286.218 301.285 1320.201 C 297.522 1324.284 289.179 1337.406 301.738 1328.231 C 332.29 1304.061 374.69 1330.049 373.825 1367.314 C 372.23 1436.028 296.996 1441.153 280.906 1383.758 C 279.358 1377.395 274.9 1374.199 276.132 1385.008 C 278.362 1404.575 282.976 1434.077 296.178 1459.743 L 242.301 1459.743 Z " fill="rgb(0,0,0)"/><path d=" M 432.967 1325.65 C 443.581 1301.942 451.312 1277.617 452.684 1251.606 C 453.944 1242.035 448.722 1241.874 447.935 1248.615 C 432.906 1312.625 352.953 1295.291 355.702 1235.083 C 357.933 1186.254 401.49 1175.749 424.211 1191.715 C 433.184 1197.597 432.677 1194.074 427.78 1187.972 C 394.028 1146.054 414.47 1092.071 460.081 1091.083 C 509.409 1094.34 522.208 1152.125 491.95 1186.108 C 488.188 1190.191 479.845 1203.314 492.404 1194.139 C 522.956 1169.968 565.356 1195.957 564.491 1233.222 C 562.896 1301.936 487.661 1307.061 471.571 1249.666 C 470.024 1243.302 465.565 1240.107 466.797 1250.915 C 469.027 1270.482 473.642 1299.984 486.844 1325.65 L 432.967 1325.65 Z " fill="rgb(0,0,0)"/><path d=" M 624.007 1191.558 C 634.621 1167.849 642.352 1143.524 643.724 1117.514 C 644.984 1107.942 639.763 1107.781 638.975 1114.523 C 623.946 1178.532 543.993 1161.199 546.742 1100.99 C 548.973 1052.162 592.53 1041.657 615.252 1057.622 C 624.224 1063.504 623.717 1059.981 618.82 1053.879 C 585.068 1011.961 605.51 957.978 651.121 956.99 C 700.449 960.247 713.248 1018.032 682.99 1052.015 C 679.228 1056.098 670.885 1069.221 683.444 1060.046 C 713.996 1035.876 756.396 1061.864 755.531 1099.129 C 753.936 1167.843 678.701 1172.968 662.612 1115.573 C 661.064 1109.209 656.605 1106.014 657.837 1116.822 C 660.067 1136.389 664.682 1165.892 677.884 1191.558 L 624.007 1191.558 Z " fill="rgb(0,0,0)"/><path d=" M 242.301 1191.558 C 252.916 1167.849 260.647 1143.524 262.019 1117.514 C 263.278 1107.942 258.057 1107.781 257.27 1114.523 C 242.241 1178.532 162.288 1161.199 165.037 1100.99 C 167.267 1052.162 210.825 1041.657 233.546 1057.622 C 242.518 1063.504 242.011 1059.981 237.114 1053.879 C 203.362 1011.961 223.805 957.978 269.415 956.99 C 318.743 960.247 331.542 1018.032 301.285 1052.015 C 297.522 1056.098 289.179 1069.221 301.738 1060.046 C 332.29 1035.876 374.69 1061.864 373.825 1099.129 C 372.23 1167.843 296.996 1172.968 280.906 1115.573 C 279.358 1109.209 274.9 1106.014 276.132 1116.822 C 278.362 1136.389 282.976 1165.892 296.178 1191.558 L 242.301 1191.558 Z " fill="rgb(0,0,0)"/><path d=" M 296.505 1500.256 C 285.891 1523.964 278.16 1548.289 276.787 1574.3 C 275.528 1583.871 280.749 1584.032 281.536 1577.291 C 296.565 1513.281 376.519 1530.614 373.77 1590.823 C 371.539 1639.652 327.981 1650.157 305.26 1634.191 C 296.288 1628.309 296.795 1631.832 301.692 1637.934 C 335.444 1679.852 315.002 1733.835 269.391 1734.823 C 220.063 1731.566 207.264 1673.781 237.521 1639.798 C 241.284 1635.715 249.627 1622.592 237.068 1631.767 C 206.516 1655.938 164.116 1629.949 164.981 1592.684 C 166.576 1523.97 241.811 1518.845 257.9 1576.24 C 259.448 1582.604 263.906 1585.799 262.675 1574.991 C 260.445 1555.424 255.83 1525.922 242.628 1500.256 L 296.505 1500.256 Z " fill="rgb(0,0,0)"/><path d=" M 296.505 1768.441 C 285.891 1792.15 278.16 1816.474 276.787 1842.485 C 275.528 1852.057 280.749 1852.217 281.536 1845.476 C 296.565 1781.467 376.519 1798.8 373.77 1859.008 C 371.539 1907.837 327.981 1918.342 305.26 1902.376 C 296.288 1896.494 296.795 1900.017 301.692 1906.119 C 335.444 1948.037 315.002 2002.02 269.391 2003.008 C 220.063 1999.751 207.264 1941.967 237.521 1907.983 C 241.284 1903.9 249.627 1890.778 237.068 1899.953 C 206.516 1924.123 164.116 1898.135 164.981 1860.87 C 166.576 1792.155 241.811 1787.031 257.9 1844.425 C 259.448 1850.789 263.906 1853.985 262.675 1843.176 C 260.445 1823.609 255.83 1794.107 242.628 1768.441 L 296.505 1768.441 Z " fill="rgb(0,0,0)"/><path d=" M 678.21 1500.256 C 667.596 1523.964 659.865 1548.289 658.493 1574.3 C 657.234 1583.871 662.455 1584.032 663.242 1577.291 C 678.271 1513.281 758.224 1530.614 755.475 1590.823 C 753.245 1639.652 709.687 1650.156 686.966 1634.191 C 677.994 1628.309 678.501 1631.832 683.397 1637.934 C 717.149 1679.852 696.707 1733.835 651.097 1734.823 C 601.768 1731.566 588.969 1673.781 619.227 1639.798 C 622.99 1635.715 631.333 1622.592 618.774 1631.767 C 588.222 1655.938 545.822 1629.949 546.686 1592.684 C 548.282 1523.97 623.516 1518.845 639.606 1576.24 C 641.154 1582.604 645.612 1585.799 644.38 1574.991 C 642.15 1555.424 637.536 1525.922 624.334 1500.256 L 678.21 1500.256 Z " fill="rgb(0,0,0)"/><path d=" M 678.21 1768.441 C 667.596 1792.15 659.865 1816.474 658.493 1842.485 C 657.234 1852.057 662.455 1852.217 663.242 1845.476 C 678.271 1781.467 758.224 1798.8 755.475 1859.008 C 753.245 1907.837 709.687 1918.342 686.966 1902.376 C 677.994 1896.494 678.501 1900.017 683.397 1906.119 C 717.149 1948.037 696.707 2002.02 651.097 2003.008 C 601.768 1999.751 588.969 1941.966 619.227 1907.983 C 622.99 1903.9 631.333 1890.778 618.774 1899.952 C 588.222 1924.123 545.822 1898.135 546.686 1860.869 C 548.282 1792.155 623.516 1787.031 639.606 1844.425 C 641.154 1850.789 645.612 1853.984 644.38 1843.176 C 642.15 1823.609 637.536 1794.107 624.334 1768.441 L 678.21 1768.441 Z " fill="rgb(0,0,0)"/><path d=" M 488.894 1634.348 C 478.28 1658.057 470.549 1682.381 469.177 1708.392 C 467.917 1717.964 473.139 1718.125 473.926 1711.383 C 488.955 1647.374 568.908 1664.707 566.159 1724.916 C 563.929 1773.744 520.371 1784.249 497.65 1768.283 C 488.678 1762.402 489.184 1765.925 494.081 1772.026 C 527.833 1813.945 507.391 1867.927 461.78 1868.916 C 412.452 1865.658 399.653 1807.874 429.911 1773.89 C 433.674 1769.808 442.017 1756.685 429.457 1765.86 C 398.906 1790.03 356.505 1764.042 357.37 1726.777 C 358.966 1658.063 434.2 1652.938 450.29 1710.333 C 451.837 1716.696 456.296 1719.892 455.064 1709.084 C 452.834 1689.516 448.22 1660.014 435.017 1634.348 L 488.894 1634.348 Z " fill="rgb(0,0,0)"/><path d=" M 100.162 1148.868 C 104.557 1138.831 108.834 1129.489 111.165 1118.487 C 112.71 1108.112 109.549 1111.966 107.754 1118.767 C 105.095 1128.198 97.716 1132.494 90.868 1132.597 C 78.439 1132.783 72.24 1121.906 72.626 1110.208 C 71.269 1097.899 82.474 1089.19 90.919 1089.86 C 97.269 1090.365 102.805 1094.179 106.156 1097.147 C 108.355 1098.442 110.706 1099.014 107.428 1095.676 C 101.243 1088.152 96.085 1083.508 96.198 1072.233 C 96.305 1061.647 104.432 1050.607 115.205 1050.953 C 128.667 1051.386 134.789 1062.817 134.757 1073.451 C 134.72 1081.203 131.241 1088.337 125.867 1092.756 C 122.385 1095.9 123.362 1098.256 127.333 1095.28 C 131.148 1091.618 135.691 1090.015 140.402 1089.902 C 153.271 1089.678 158.301 1102.059 157.564 1113.564 C 156.873 1124.343 148.632 1135.438 137.77 1134.181 C 128.071 1132.943 122.975 1123.878 120.054 1114.572 C 119.087 1111.718 117.562 1110.948 117.604 1115.2 C 119.845 1135.961 126.79 1148.88 126.841 1148.868 L 100.162 1148.868 Z " fill="rgb(0,0,0)"/><path d=" M 826.111 1813.9 C 821.716 1823.937 817.439 1833.279 815.109 1844.281 C 813.563 1854.657 816.724 1850.802 818.52 1844.001 C 821.179 1834.57 828.557 1830.275 835.405 1830.172 C 847.834 1829.985 854.034 1840.862 853.647 1852.56 C 855.004 1864.87 843.8 1873.579 835.354 1872.908 C 829.005 1872.403 823.468 1868.589 820.117 1865.621 C 817.919 1864.327 815.568 1863.755 818.846 1867.093 C 825.031 1874.617 830.188 1879.261 830.076 1890.536 C 829.969 1901.121 821.841 1912.162 811.069 1911.815 C 797.606 1911.382 791.484 1899.951 791.516 1889.317 C 791.553 1881.566 795.032 1874.431 800.407 1870.013 C 803.888 1866.868 802.911 1864.513 798.94 1867.489 C 795.125 1871.151 790.582 1872.754 785.871 1872.866 C 773.003 1873.091 767.972 1860.709 768.709 1849.204 C 769.4 1838.425 777.641 1827.331 788.503 1828.587 C 798.202 1829.825 803.299 1838.891 806.219 1848.197 C 807.186 1851.05 808.711 1851.821 808.669 1847.568 C 806.428 1826.807 799.483 1813.889 799.432 1813.9 L 826.111 1813.9 Z " fill="rgb(0,0,0)"/></g></g></g></g></g></svg>