<?xml version="1.0" encoding="UTF-8" standalone="no"?><!-- Generator: Gravit.io --><svg xmlns="http://www.w3.org/2000/svg" xmlns:xlink="http://www.w3.org/1999/xlink" style="isolation:isolate" viewBox="45.102 854.502 823.997 1280.997" width="823.997pt" height="1280.997pt"><defs><clipPath id="_clipPath_qlY2rduRx8gcFIp6F8K7X4pc5rfVqNsY"><rect x="45.102" y="854.502" width="823.997" height="1280.997"/></clipPath></defs><g clip-path="url(#_clipPath_qlY2rduRx8gcFIp6F8K7X4pc5rfVqNsY)"><g><g><path d="M 87.454 855.5 L 827.746 855.5 C 850.57 855.5 869.1 874.03 869.1 896.854 L 869.1 2094.146 C 869.1 2116.97 850.57 2135.5 827.746 2135.5 L 87.454 2135.5 C 64.63 2135.5 46.1 2116.97 46.1 2094.146 L 46.1 896.854 C 46.1 874.03 64.63 855.5 87.454 855.5 Z" style="stroke:none;fill:#FFFFFF;stroke-miterlimit:10;"/><path d="M 87.454 855.5 L 827.746 855.5 C 850.57 855.5 869.1 874.03 869.1 896.854 L 869.1 2094.146 C 869.1 2116.97 850.57 2135.5 827.746 2135.5 L 87.454 2135.5 C 64.63 2135.5 46.1 2116.97 46.1 2094.146 L 46.1 896.854 C 46.1 874.03 64.63 855.5 87.454 855.5 Z" style="fill:none;stroke:#000000;stroke-width:0.99673343;stroke-miterlimit:2;"/><g><path d=" M 166.711 1090.242 C 203.286 1050.499 227.308 1007.166 250.28 965.494 C 270.426 1011.347 299.336 1051.463 330.601 1090.242 C 297.15 1128.7 271.225 1169.824 250.38 1213.056 C 227.273 1168.739 202.945 1128.608 166.711 1090.242 Z " fill="rgb(212,0,0)"/><path d=" M 166.711 1358.427 C 203.286 1318.684 227.308 1275.352 250.28 1233.679 C 270.426 1279.533 299.336 1319.648 330.601 1358.427 C 297.15 1396.886 271.225 1438.009 250.38 1481.241 C 227.273 1436.924 202.945 1396.794 166.711 1358.427 Z " fill="rgb(212,0,0)"/><path d=" M 166.711 1633.042 C 203.286 1593.299 227.308 1549.967 250.28 1508.294 C 270.426 1554.148 299.336 1594.263 330.602 1633.042 C 297.15 1671.501 271.225 1712.624 250.38 1755.856 C 227.273 1711.539 202.946 1671.409 166.711 1633.042 Z " fill="rgb(212,0,0)"/><path d=" M 166.711 1900.303 C 203.286 1860.56 227.308 1817.228 250.28 1775.555 C 270.426 1821.409 299.336 1861.524 330.602 1900.303 C 297.15 1938.762 271.225 1979.885 250.38 2023.117 C 227.273 1978.8 202.946 1938.67 166.711 1900.303 L 166.711 1900.303 Z " fill="rgb(212,0,0)"/><path d=" M 373.847 1231.306 C 410.423 1191.563 434.444 1148.231 457.417 1106.558 C 477.563 1152.412 506.473 1192.527 537.738 1231.306 C 504.287 1269.765 478.362 1310.888 457.517 1354.12 C 434.409 1309.803 410.082 1269.673 373.847 1231.306 Z " fill="rgb(212,0,0)"/><path d=" M 372.123 1758.156 C 408.699 1718.413 432.72 1675.081 455.693 1633.408 C 475.839 1679.261 504.749 1719.377 536.014 1758.156 C 502.563 1796.614 476.638 1837.738 455.793 1880.97 C 432.685 1836.653 408.358 1796.522 372.123 1758.156 Z " fill="rgb(212,0,0)"/><path d=" M 577.911 1090.242 C 614.486 1050.499 638.507 1007.166 661.48 965.494 C 681.626 1011.347 710.536 1051.463 741.801 1090.242 C 708.35 1128.7 682.425 1169.824 661.58 1213.056 C 638.473 1168.739 614.145 1128.608 577.911 1090.242 Z " fill="rgb(212,0,0)"/><path d=" M 577.911 1358.427 C 614.486 1318.684 638.507 1275.352 661.48 1233.679 C 681.626 1279.533 710.536 1319.648 741.801 1358.427 C 708.35 1396.886 682.425 1438.009 661.58 1481.241 C 638.473 1436.924 614.145 1396.794 577.911 1358.427 Z " fill="rgb(212,0,0)"/><path d=" M 577.911 1633.042 C 614.486 1593.299 638.507 1549.967 661.48 1508.294 C 681.626 1554.148 710.536 1594.263 741.801 1633.042 C 708.35 1671.501 682.425 1712.624 661.58 1755.856 C 638.473 1711.539 614.145 1671.409 577.911 1633.042 Z " fill="rgb(212,0,0)"/><path d=" M 577.911 1900.303 C 614.486 1860.56 638.507 1817.228 661.48 1775.555 C 681.626 1821.409 710.536 1861.524 741.801 1900.303 C 708.35 1938.762 682.425 1979.885 661.58 2023.117 C 638.473 1978.8 614.145 1938.67 577.911 1900.303 L 577.911 1900.303 Z " fill="rgb(212,0,0)"/><path d=" M 771.558 1875.489 C 786.541 1859.209 796.381 1841.458 805.791 1824.387 C 814.044 1843.171 825.887 1859.604 838.695 1875.489 C 824.991 1891.244 814.371 1908.089 805.832 1925.799 C 796.366 1907.645 786.401 1891.206 771.558 1875.489 L 771.558 1875.489 Z " fill="rgb(212,0,0)"/><path d=" M 75.432 1112.535 C 90.415 1096.254 100.255 1078.503 109.666 1061.432 C 117.919 1080.216 129.762 1096.649 142.569 1112.535 C 128.866 1128.289 118.246 1145.135 109.707 1162.844 C 100.241 1144.69 90.276 1128.251 75.432 1112.535 L 75.432 1112.535 Z " fill="rgb(212,0,0)"/><path d=" M 73.724 1041.141 L 73.724 911.804 L 85.193 911.804 L 85.193 1041.141 L 73.724 1041.141 Z " fill="rgb(212,0,0)"/><path d=" M 119.181 911.804 C 108.142 911.804 99.267 922.833 99.267 936.527 L 99.267 1016.418 C 99.267 1030.112 108.142 1041.141 119.181 1041.141 L 125.615 1041.141 C 136.654 1041.141 145.546 1030.112 145.546 1016.418 L 145.546 936.527 C 145.546 922.833 136.654 911.804 125.615 911.804 L 119.181 911.804 Z  M 122.503 924.029 C 129.023 924.029 134.269 929.518 134.269 936.352 L 134.269 1017.314 C 134.269 1024.148 129.023 1029.655 122.503 1029.655 C 115.982 1029.655 110.736 1024.148 110.736 1017.314 L 110.736 936.352 C 110.736 929.518 115.982 924.029 122.503 924.029 Z " fill="rgb(212,0,0)"/><g><path d=" M 840.476 1948.859 L 840.476 2078.196 L 829.007 2078.196 L 829.007 1948.859 L 840.476 1948.859 Z " fill="rgb(212,0,0)"/><path d=" M 795.02 2078.196 C 806.059 2078.196 814.933 2067.167 814.933 2053.473 L 814.933 1973.582 C 814.933 1959.888 806.059 1948.859 795.02 1948.859 L 788.586 1948.859 C 777.547 1948.859 768.655 1959.888 768.655 1973.582 L 768.655 2053.473 C 768.655 2067.167 777.547 2078.196 788.586 2078.196 L 795.02 2078.196 Z  M 791.698 2065.97 C 785.178 2065.97 779.932 2060.482 779.932 2053.648 L 779.932 1972.686 C 779.932 1965.852 785.178 1960.344 791.698 1960.344 C 798.218 1960.344 803.464 1965.852 803.464 1972.686 L 803.464 2053.648 C 803.464 2060.482 798.218 2065.97 791.698 2065.97 Z " fill="rgb(212,0,0)"/></g></g></g></g></g></svg>