<?xml version="1.0" encoding="UTF-8" standalone="no"?><!-- Generator: Gravit.io --><svg xmlns="http://www.w3.org/2000/svg" xmlns:xlink="http://www.w3.org/1999/xlink" style="isolation:isolate" viewBox="216.102 893.502 823.997 1280.997" width="823.997pt" height="1280.997pt"><defs><clipPath id="_clipPath_wmXwTbGxUbJh6B6Y74LyeTDLkLZx9KrT"><rect x="216.102" y="893.502" width="823.997" height="1280.997"/></clipPath></defs><g clip-path="url(#_clipPath_wmXwTbGxUbJh6B6Y74LyeTDLkLZx9KrT)"><g><g><g><g><path d="M 258.454 894.5 L 998.746 894.5 C 1021.57 894.5 1040.1 913.03 1040.1 935.854 L 1040.1 2133.146 C 1040.1 2155.97 1021.57 2174.5 998.746 2174.5 L 258.454 2174.5 C 235.63 2174.5 217.1 2155.97 217.1 2133.146 L 217.1 935.854 C 217.1 913.03 235.63 894.5 258.454 894.5 Z" style="stroke:none;fill:#FFFFFF;stroke-miterlimit:10;"/><path d="M 258.454 894.5 L 998.746 894.5 C 1021.57 894.5 1040.1 913.03 1040.1 935.854 L 1040.1 2133.146 C 1040.1 2155.97 1021.57 2174.5 998.746 2174.5 L 258.454 2174.5 C 235.63 2174.5 217.1 2155.97 217.1 2133.146 L 217.1 935.854 C 217.1 913.03 235.63 894.5 258.454 894.5 Z" style="fill:none;stroke:#000000;stroke-width:0.99673343;stroke-miterlimit:2;"/><g><path d=" M 244.724 1080.141 L 244.724 950.804 L 256.193 950.804 L 256.193 1080.141 L 244.724 1080.141 Z " fill="rgb(212,0,0)"/><path d=" M 290.181 950.804 C 279.142 950.804 270.267 961.833 270.267 975.527 L 270.267 1055.418 C 270.267 1069.112 279.142 1080.141 290.181 1080.141 L 296.615 1080.141 C 307.654 1080.141 316.546 1069.112 316.546 1055.418 L 316.546 975.527 C 316.546 961.833 307.654 950.804 296.615 950.804 L 290.181 950.804 Z  M 293.503 963.029 C 300.023 963.029 305.269 968.518 305.269 975.352 L 305.269 1056.314 C 305.269 1063.148 300.023 1068.655 293.503 1068.655 C 286.982 1068.655 281.736 1063.148 281.736 1056.314 L 281.736 975.352 C 281.736 968.518 286.982 963.029 293.503 963.029 Z " fill="rgb(212,0,0)"/><g><path d=" M 1011.476 1987.859 L 1011.476 2117.196 L 1000.007 2117.196 L 1000.007 1987.859 L 1011.476 1987.859 Z " fill="rgb(212,0,0)"/><path d=" M 966.02 2117.196 C 977.059 2117.196 985.933 2106.167 985.933 2092.473 L 985.933 2012.582 C 985.933 1998.888 977.059 1987.859 966.02 1987.859 L 959.586 1987.859 C 948.547 1987.859 939.655 1998.888 939.655 2012.582 L 939.655 2092.473 C 939.655 2106.167 948.547 2117.196 959.586 2117.196 L 966.02 2117.196 Z  M 962.698 2104.97 C 956.178 2104.97 950.932 2099.482 950.932 2092.648 L 950.932 2011.686 C 950.932 2004.852 956.178 1999.344 962.698 1999.344 C 969.218 1999.344 974.464 2004.852 974.464 2011.686 L 974.464 2092.648 C 974.464 2099.482 969.218 2104.97 962.698 2104.97 Z " fill="rgb(212,0,0)"/></g></g></g></g><path d=" M 248.027 1140.876 C 242.191 1126.622 241.55 1102.266 258.981 1098.971 C 272.114 1097.089 277.458 1103.89 278.521 1114.332 C 279.045 1117.382 280.592 1117.569 281.082 1114.092 C 281.836 1103.381 291.358 1097.128 298.803 1098.699 C 319.178 1102.579 317.988 1127.551 311.332 1144.493 C 301.264 1166.986 290.684 1181.182 280.934 1203.818 C 269.733 1180.251 256.943 1161.105 248.027 1140.876 L 248.027 1140.876 Z " fill="rgb(212,0,0)"/><path d=" M 375.231 1010.268 C 401.57 1008.321 415.301 1033.369 417.98 1053.11 C 419.578 1056.246 420.453 1055.362 421.066 1052.937 C 422.354 1027.591 442.726 1006.877 461.594 1009.71 C 492.297 1010.154 510.958 1048.196 505.711 1080.394 C 499.302 1119.726 480.273 1143.411 465.865 1167.803 C 449.565 1193.059 427.623 1229.541 420.554 1247.099 C 420.554 1247.099 398.255 1209.314 369.244 1164.877 C 349.845 1135.163 334.318 1102.963 332.873 1075.242 C 331.222 1043.569 342.899 1015.178 375.231 1010.268 L 375.231 1010.268 Z " fill="rgb(212,0,0)"/><path d=" M 582.368 1144.361 C 608.706 1142.413 622.438 1167.462 625.117 1187.203 C 626.715 1190.339 627.59 1189.455 628.203 1187.029 C 629.49 1161.684 649.862 1140.97 668.73 1143.802 C 699.434 1144.247 718.095 1182.289 712.848 1214.486 C 706.438 1253.819 687.41 1277.503 673.002 1301.896 C 656.701 1327.151 634.76 1363.633 627.69 1381.192 C 627.69 1381.192 605.392 1343.407 576.38 1298.97 C 556.981 1269.255 541.455 1237.056 540.01 1209.334 C 538.358 1177.662 550.035 1149.27 582.368 1144.361 L 582.368 1144.361 Z " fill="rgb(212,0,0)"/><path d=" M 786.431 1010.268 C 812.77 1008.321 826.501 1033.369 829.18 1053.11 C 830.778 1056.246 831.653 1055.362 832.266 1052.937 C 833.554 1027.591 853.926 1006.877 872.794 1009.71 C 903.497 1010.154 922.158 1048.196 916.911 1080.394 C 910.502 1119.726 891.473 1143.411 877.065 1167.803 C 860.765 1193.059 838.823 1229.541 831.754 1247.099 C 831.754 1247.099 809.455 1209.314 780.444 1164.877 C 761.045 1135.163 745.518 1102.963 744.073 1075.242 C 742.422 1043.569 754.099 1015.178 786.431 1010.268 L 786.431 1010.268 Z " fill="rgb(212,0,0)"/><path d=" M 786.431 1278.453 C 812.77 1276.506 826.501 1301.554 829.18 1321.296 C 830.778 1324.431 831.653 1323.548 832.266 1321.122 C 833.554 1295.777 853.926 1275.063 872.794 1277.895 C 903.497 1278.34 922.158 1316.382 916.911 1348.579 C 910.502 1387.912 891.473 1411.596 877.065 1435.988 C 860.765 1461.244 838.823 1497.726 831.754 1515.285 C 831.754 1515.285 809.455 1477.5 780.444 1433.062 C 761.045 1403.348 745.518 1371.149 744.073 1343.427 C 742.422 1311.755 754.099 1283.363 786.431 1278.454 L 786.431 1278.453 Z " fill="rgb(212,0,0)"/><path d=" M 375.231 1278.453 C 401.57 1276.506 415.301 1301.554 417.98 1321.296 C 419.578 1324.431 420.453 1323.548 421.066 1321.122 C 422.354 1295.777 442.726 1275.063 461.594 1277.895 C 492.297 1278.34 510.958 1316.382 505.711 1348.579 C 499.302 1387.912 480.273 1411.596 465.865 1435.988 C 449.565 1461.244 427.623 1497.726 420.554 1515.285 C 420.554 1515.285 398.255 1477.5 369.244 1433.062 C 349.845 1403.348 334.318 1371.149 332.873 1343.427 C 331.222 1311.755 342.899 1283.363 375.231 1278.454 L 375.231 1278.453 Z " fill="rgb(212,0,0)"/><path d=" M 786.431 1789.082 C 812.77 1791.029 826.501 1765.981 829.18 1746.24 C 830.778 1743.104 831.653 1743.987 832.266 1746.413 C 833.554 1771.758 853.926 1792.473 872.794 1789.64 C 903.497 1789.196 922.158 1751.154 916.911 1718.956 C 910.502 1679.623 891.473 1655.939 877.065 1631.547 C 860.765 1606.291 838.823 1569.809 831.754 1552.25 C 831.754 1552.25 809.455 1590.035 780.444 1634.473 C 761.045 1664.187 745.518 1696.387 744.073 1724.108 C 742.422 1755.781 754.099 1784.172 786.431 1789.081 L 786.431 1789.082 Z " fill="rgb(212,0,0)"/><path d=" M 786.431 2056.343 C 812.77 2058.29 826.501 2033.242 829.18 2013.501 C 830.778 2010.365 831.653 2011.248 832.266 2013.674 C 833.554 2039.019 853.926 2059.734 872.794 2056.901 C 903.497 2056.457 922.158 2018.415 916.911 1986.217 C 910.502 1946.884 891.473 1923.2 877.065 1898.808 C 860.765 1873.552 838.823 1837.07 831.754 1819.511 C 831.754 1819.511 809.455 1857.296 780.444 1901.734 C 761.045 1931.448 745.518 1963.648 744.073 1991.369 C 742.422 2023.042 754.099 2051.433 786.431 2056.343 L 786.431 2056.343 Z " fill="rgb(212,0,0)"/><path d=" M 580.644 1922.712 C 606.982 1924.66 620.714 1899.611 623.393 1879.87 C 624.991 1876.734 625.866 1877.618 626.479 1880.044 C 627.766 1905.389 648.138 1926.103 667.006 1923.271 C 697.71 1922.826 716.371 1884.784 711.124 1852.587 C 704.715 1813.254 685.686 1789.57 671.278 1765.177 C 654.977 1739.922 633.036 1703.44 625.967 1685.881 C 625.967 1685.881 603.668 1723.666 574.656 1768.103 C 555.257 1797.818 539.731 1830.017 538.286 1857.739 C 536.634 1889.411 548.311 1917.803 580.644 1922.712 L 580.644 1922.712 Z " fill="rgb(212,0,0)"/><path d=" M 375.231 1789.082 C 401.57 1791.029 415.301 1765.981 417.98 1746.24 C 419.578 1743.104 420.453 1743.987 421.066 1746.413 C 422.354 1771.758 442.726 1792.473 461.594 1789.64 C 492.297 1789.196 510.958 1751.154 505.711 1718.956 C 499.302 1679.623 480.273 1655.939 465.865 1631.547 C 449.565 1606.291 427.623 1569.809 420.554 1552.25 C 420.554 1552.25 398.255 1590.035 369.244 1634.473 C 349.845 1664.187 334.318 1696.387 332.873 1724.108 C 331.222 1755.781 342.899 1784.172 375.231 1789.081 L 375.231 1789.082 Z " fill="rgb(212,0,0)"/><path d=" M 375.231 2056.343 C 401.57 2058.29 415.301 2033.242 417.98 2013.501 C 419.578 2010.365 420.453 2011.248 421.066 2013.674 C 422.354 2039.019 442.726 2059.734 461.594 2056.901 C 492.297 2056.457 510.958 2018.415 505.711 1986.217 C 499.302 1946.884 480.273 1923.2 465.865 1898.808 C 449.565 1873.552 427.623 1837.07 420.554 1819.511 C 420.554 1819.511 398.255 1857.296 369.244 1901.734 C 349.845 1931.448 334.318 1963.648 332.873 1991.369 C 331.222 2023.042 342.899 2051.433 375.231 2056.343 L 375.231 2056.343 Z " fill="rgb(212,0,0)"/><path d=" M 944.152 1924.356 C 938.316 1938.61 937.676 1962.966 955.106 1966.26 C 968.239 1968.142 973.583 1961.341 974.646 1950.9 C 975.17 1947.85 976.717 1947.663 977.208 1951.139 C 977.961 1961.851 987.483 1968.104 994.928 1966.533 C 1015.303 1962.652 1014.114 1937.681 1007.457 1920.739 C 997.389 1898.245 986.809 1884.05 977.06 1861.413 C 965.859 1884.98 953.069 1904.127 944.152 1924.356 L 944.152 1924.356 Z " fill="rgb(212,0,0)"/></g></g></g></svg>