<?xml version="1.0" encoding="UTF-8" standalone="no"?><!-- Generator: Gravit.io --><svg xmlns="http://www.w3.org/2000/svg" xmlns:xlink="http://www.w3.org/1999/xlink" style="isolation:isolate" viewBox="20.603 959.003 824.993 1281.993" width="824.993pt" height="1281.993pt"><defs><clipPath id="_clipPath_Xt8fAYsMY3HCtnCuulNwjknW8w4j2FyH"><rect x="20.603" y="959.003" width="824.993" height="1281.993"/></clipPath></defs><g clip-path="url(#_clipPath_Xt8fAYsMY3HCtnCuulNwjknW8w4j2FyH)"><g><g><g><g><path d="M 803.746 2240.5 L 63.454 2240.5 C 40.63 2240.5 22.1 2221.97 22.1 2199.146 L 22.1 1001.854 C 22.1 979.03 40.63 960.5 63.454 960.5 L 803.746 960.5 C 826.57 960.5 845.1 979.03 845.1 1001.854 L 845.1 2199.146 C 845.1 2221.97 826.57 2240.5 803.746 2240.5 Z" style="stroke:none;fill:#FFFFFF;stroke-miterlimit:10;"/><path d="M 803.746 2240.5 L 63.454 2240.5 C 40.63 2240.5 22.1 2221.97 22.1 2199.146 L 22.1 1001.854 C 22.1 979.03 40.63 960.5 63.454 960.5 L 803.746 960.5 C 826.57 960.5 845.1 979.03 845.1 1001.854 L 845.1 2199.146 C 845.1 2221.97 826.57 2240.5 803.746 2240.5 Z" style="fill:none;stroke:#000000;stroke-width:0.99673343;stroke-miterlimit:2;"/><g><path d=" M 816.476 2053.859 L 816.476 2183.196 L 805.007 2183.196 L 805.007 2053.859 L 816.476 2053.859 Z " fill="rgb(0,0,0)"/><path d=" M 771.019 2183.196 C 782.058 2183.196 790.933 2172.167 790.933 2158.473 L 790.933 2078.582 C 790.933 2064.888 782.058 2053.859 771.019 2053.859 L 764.585 2053.859 C 753.546 2053.859 744.654 2064.888 744.654 2078.582 L 744.654 2158.473 C 744.654 2172.167 753.546 2183.196 764.585 2183.196 L 771.019 2183.196 Z  M 767.697 2170.971 C 761.177 2170.971 755.931 2165.482 755.931 2158.648 L 755.931 2077.686 C 755.931 2070.852 761.177 2065.345 767.697 2065.345 C 774.218 2065.345 779.464 2070.852 779.464 2077.686 L 779.464 2158.648 C 779.464 2165.482 774.218 2170.971 767.697 2170.971 Z " fill="rgb(0,0,0)"/><g><path d=" M 49.724 1146.141 L 49.724 1016.804 L 61.193 1016.804 L 61.193 1146.141 L 49.724 1146.141 Z " fill="rgb(0,0,0)"/><path d=" M 95.18 1016.804 C 84.141 1016.804 75.267 1027.833 75.267 1041.527 L 75.267 1121.418 C 75.267 1135.112 84.141 1146.141 95.18 1146.141 L 101.614 1146.141 C 112.653 1146.141 121.545 1135.112 121.545 1121.418 L 121.545 1041.527 C 121.545 1027.833 112.653 1016.804 101.614 1016.804 L 95.18 1016.804 Z  M 98.502 1029.03 C 105.022 1029.03 110.268 1034.518 110.268 1041.352 L 110.268 1122.314 C 110.268 1129.148 105.022 1134.656 98.502 1134.656 C 91.982 1134.656 86.736 1129.148 86.736 1122.314 L 86.736 1041.352 C 86.736 1034.518 91.982 1029.03 98.502 1029.03 Z " fill="rgb(0,0,0)"/></g></g></g></g><path d=" M 216.764 1241.279 C 216.82 1232.964 210.914 1232.805 210.981 1238.875 C 210.486 1269.37 187.325 1284.385 170.498 1280.823 C 144.557 1275.332 136.278 1246.661 136.525 1229.775 C 137.289 1177.656 184.409 1139.224 226.926 1072.41 C 258.08 1132.716 309.5 1180.084 312.545 1226.701 C 316.592 1288.679 246.149 1311.797 236.092 1239.561 C 235.443 1234.458 230.046 1232.167 230.465 1239.294 C 231.993 1259.091 229.82 1267.337 249.879 1316.138 L 197.446 1316.138 C 209.059 1293.335 215.974 1265.34 216.764 1241.28 L 216.764 1241.279 Z " fill="rgb(0,0,0)"/><path d=" M 422.177 1375.372 C 422.232 1367.056 416.327 1366.898 416.394 1372.967 C 415.899 1403.462 392.737 1418.478 375.911 1414.916 C 349.97 1409.425 341.69 1380.753 341.938 1363.868 C 342.702 1311.749 389.821 1273.317 432.339 1206.502 C 463.493 1266.809 514.913 1314.176 517.957 1360.794 C 522.004 1422.772 451.562 1445.89 441.504 1373.654 C 440.855 1368.551 435.459 1366.26 435.878 1373.387 C 437.406 1393.184 435.233 1401.43 455.292 1450.231 L 402.859 1450.231 C 414.471 1427.428 421.387 1399.433 422.177 1375.372 L 422.177 1375.372 Z " fill="rgb(0,0,0)"/><path d=" M 627.964 1241.279 C 628.02 1232.964 622.114 1232.805 622.181 1238.875 C 621.686 1269.37 598.525 1284.385 581.698 1280.823 C 555.757 1275.332 547.478 1246.661 547.725 1229.775 C 548.489 1177.656 595.608 1139.224 638.126 1072.41 C 669.28 1132.716 720.7 1180.084 723.745 1226.701 C 727.792 1288.679 657.349 1311.797 647.292 1239.561 C 646.643 1234.458 641.246 1232.167 641.665 1239.294 C 643.193 1259.091 641.02 1267.337 661.079 1316.138 L 608.646 1316.138 C 620.258 1293.335 627.174 1265.34 627.964 1241.28 L 627.964 1241.279 Z " fill="rgb(0,0,0)"/><path d=" M 627.964 1509.465 C 628.02 1501.149 622.114 1500.99 622.181 1507.06 C 621.686 1537.555 598.525 1552.57 581.698 1549.008 C 555.757 1543.517 547.478 1514.846 547.725 1497.96 C 548.489 1445.841 595.608 1407.41 638.126 1340.595 C 669.28 1400.901 720.7 1448.269 723.745 1494.886 C 727.792 1556.865 657.349 1579.983 647.292 1507.746 C 646.643 1502.644 641.246 1500.353 641.665 1507.48 C 643.193 1527.277 641.02 1535.523 661.079 1584.324 L 608.646 1584.324 C 620.258 1561.521 627.174 1533.525 627.964 1509.465 L 627.964 1509.465 Z " fill="rgb(0,0,0)"/><path d=" M 216.764 1509.465 C 216.82 1501.149 210.914 1500.99 210.981 1507.06 C 210.486 1537.555 187.325 1552.57 170.498 1549.008 C 144.557 1543.517 136.278 1514.846 136.525 1497.96 C 137.289 1445.841 184.409 1407.41 226.926 1340.595 C 258.08 1400.901 309.5 1448.269 312.545 1494.886 C 316.592 1556.865 246.149 1579.983 236.092 1507.746 C 235.443 1502.644 230.046 1500.353 230.465 1507.48 C 231.993 1527.277 229.82 1535.523 249.879 1584.324 L 197.446 1584.324 C 209.059 1561.521 215.974 1533.525 216.764 1509.465 L 216.764 1509.465 Z " fill="rgb(0,0,0)"/><path d=" M 628.004 1690.639 C 628.059 1698.954 622.154 1699.113 622.221 1693.043 C 621.726 1662.548 598.565 1647.533 581.738 1651.095 C 555.797 1656.586 547.517 1685.257 547.765 1702.143 C 548.529 1754.262 595.648 1792.694 638.166 1859.508 C 669.32 1799.202 720.74 1751.834 723.784 1705.217 C 727.831 1643.239 657.389 1620.12 647.331 1692.357 C 646.683 1697.46 641.286 1699.751 641.705 1692.624 C 643.233 1672.827 641.06 1664.581 661.119 1615.78 L 608.686 1615.78 C 620.298 1638.583 627.214 1666.578 628.004 1690.638 L 628.004 1690.639 Z " fill="rgb(0,0,0)"/><path d=" M 628.004 1958.824 C 628.059 1967.14 622.154 1967.299 622.221 1961.229 C 621.726 1930.734 598.565 1915.718 581.738 1919.28 C 555.797 1924.771 547.517 1953.443 547.765 1970.328 C 548.529 2022.447 595.648 2060.879 638.166 2127.694 C 669.32 2067.387 720.74 2020.02 723.784 1973.402 C 727.831 1911.424 657.389 1888.306 647.331 1960.542 C 646.683 1965.645 641.286 1967.936 641.705 1960.809 C 643.233 1941.012 641.06 1932.766 661.119 1883.965 L 608.686 1883.965 C 620.298 1906.768 627.214 1934.763 628.004 1958.824 L 628.004 1958.824 Z " fill="rgb(0,0,0)"/><path d=" M 423.941 1824.731 C 423.996 1833.047 418.091 1833.206 418.158 1827.136 C 417.663 1796.641 394.501 1781.626 377.674 1785.188 C 351.734 1790.679 343.454 1819.35 343.701 1836.236 C 344.465 1888.355 391.585 1926.787 434.103 1993.601 C 465.257 1933.295 516.677 1885.927 519.721 1839.31 C 523.768 1777.331 453.326 1754.213 443.268 1826.45 C 442.619 1831.552 437.223 1833.843 437.642 1826.716 C 439.17 1806.919 436.997 1798.673 457.055 1749.872 L 404.623 1749.872 C 416.235 1772.675 423.15 1800.671 423.941 1824.731 L 423.941 1824.731 Z " fill="rgb(0,0,0)"/><path d=" M 216.804 1690.639 C 216.859 1698.954 210.954 1699.113 211.021 1693.043 C 210.526 1662.548 187.365 1647.533 170.538 1651.095 C 144.597 1656.586 136.317 1685.257 136.565 1702.143 C 137.329 1754.262 184.448 1792.694 226.966 1859.508 C 258.12 1799.202 309.54 1751.834 312.584 1705.217 C 316.631 1643.239 246.189 1620.12 236.131 1692.357 C 235.483 1697.46 230.086 1699.751 230.505 1692.624 C 232.033 1672.827 229.86 1664.581 249.919 1615.78 L 197.486 1615.78 C 209.098 1638.583 216.014 1666.578 216.804 1690.638 L 216.804 1690.639 Z " fill="rgb(0,0,0)"/><path d=" M 216.804 1958.824 C 216.859 1967.14 210.954 1967.299 211.021 1961.229 C 210.526 1930.734 187.365 1915.718 170.538 1919.28 C 144.597 1924.771 136.317 1953.443 136.565 1970.328 C 137.329 2022.447 184.448 2060.879 226.966 2127.694 C 258.12 2067.387 309.54 2020.02 312.584 1973.402 C 316.631 1911.424 246.189 1888.306 236.131 1960.542 C 235.483 1965.645 230.086 1967.936 230.505 1960.809 C 232.033 1941.012 229.86 1932.766 249.919 1883.965 L 197.486 1883.965 C 209.098 1906.768 216.014 1934.763 216.804 1958.824 L 216.804 1958.824 Z " fill="rgb(0,0,0)"/><path d=" M 83.499 1246.819 C 83.536 1243.242 80.198 1244.912 79.746 1246.038 C 75.458 1254.189 69.184 1256.086 62.979 1253.147 C 56.832 1250.236 53.378 1243.786 53.932 1234.584 C 55.076 1220.471 65.123 1205.029 69.988 1196.299 C 74.604 1188.377 79.677 1178.967 85.018 1166.931 C 91.276 1180.737 94.452 1184.667 101.259 1197.274 C 107.254 1208.375 115.61 1219.248 116.255 1232.669 C 116.255 1242.869 112.399 1252.504 103.722 1254.259 C 98.814 1255.252 94.215 1252.446 90.805 1245.898 C 89.766 1244.229 87.675 1245.098 87.71 1247.383 C 88.319 1255.976 91.233 1263.734 98.142 1272.882 L 72.751 1272.882 C 77.949 1266.413 83.253 1257.679 83.499 1246.819 L 83.499 1246.819 Z " fill="rgb(0,0,0)"/><path d=" M 779.624 1955.949 C 779.661 1959.527 776.324 1957.856 775.872 1956.73 C 771.584 1948.579 765.31 1946.682 759.105 1949.621 C 752.958 1952.532 749.504 1958.982 750.058 1968.185 C 751.201 1982.297 761.249 1997.739 766.114 2006.469 C 770.73 2014.392 775.802 2023.802 781.144 2035.837 C 787.401 2022.031 790.577 2018.101 797.385 2005.495 C 803.379 1994.393 811.735 1983.521 812.381 1970.1 C 812.381 1959.899 808.524 1950.265 799.848 1948.509 C 794.939 1947.516 790.341 1950.322 786.93 1956.871 C 785.891 1958.54 783.801 1957.67 783.836 1955.385 C 784.445 1946.792 787.358 1939.034 794.267 1929.886 L 768.876 1929.886 C 774.075 1936.356 779.379 1945.09 779.624 1955.949 L 779.624 1955.949 Z " fill="rgb(0,0,0)"/></g></g></g></svg>