<?xml version="1.0" encoding="UTF-8" standalone="no"?><!-- Generator: Gravit.io --><svg xmlns="http://www.w3.org/2000/svg" xmlns:xlink="http://www.w3.org/1999/xlink" style="isolation:isolate" viewBox="-62.898 461.502 823.997 1280.997" width="823.997pt" height="1280.997pt"><defs><clipPath id="_clipPath_nrCemlrS3i2QUrpJUjsstWVZAhImcwAq"><rect x="-62.898" y="461.502" width="823.997" height="1280.997"/></clipPath></defs><g clip-path="url(#_clipPath_nrCemlrS3i2QUrpJUjsstWVZAhImcwAq)"><g><g><g><g><path d="M -20.546 462.5 L 719.746 462.5 C 742.57 462.5 761.1 481.03 761.1 503.854 L 761.1 1701.146 C 761.1 1723.97 742.57 1742.5 719.746 1742.5 L -20.546 1742.5 C -43.37 1742.5 -61.9 1723.97 -61.9 1701.146 L -61.9 503.854 C -61.9 481.03 -43.37 462.5 -20.546 462.5 Z" style="stroke:none;fill:#FFFFFF;stroke-miterlimit:10;"/><path d="M -20.546 462.5 L 719.746 462.5 C 742.57 462.5 761.1 481.03 761.1 503.854 L 761.1 1701.146 C 761.1 1723.97 742.57 1742.5 719.746 1742.5 L -20.546 1742.5 C -43.37 1742.5 -61.9 1723.97 -61.9 1701.146 L -61.9 503.854 C -61.9 481.03 -43.37 462.5 -20.546 462.5 Z" style="fill:none;stroke:#000000;stroke-width:0.99673343;stroke-miterlimit:2;"/></g></g><g><path d=" M -32.265 653.447 L -31.657 645.16 C -29.779 619.548 -24.747 610.898 3.817 584.178 C 17.678 571.212 22.229 564.813 22.87 557.388 C 24.679 539.901 10.515 534.437 1.284 534.342 C -10.669 534.22 -24.191 542.19 -17.744 560.672 L -31.151 565.056 C -33.859 547.814 -31.089 531.632 -18.523 524.447 C -1.762 515.089 19.746 518.76 30.598 533.506 C 37.891 543.416 39.549 557.094 35.641 567.806 C 24.21 595.193 -14.577 607.241 -17.784 638.903 L 25.098 638.903 L 25.098 621.272 L 37.728 621.272 L 37.728 653.731 L -32.265 653.447 Z " fill="rgb(0,0,0)"/><path d=" M 729.46 1550.553 L 728.853 1558.84 C 726.975 1584.451 721.942 1593.102 693.379 1619.821 C 679.517 1632.788 674.967 1639.187 674.326 1646.612 C 672.516 1664.099 686.681 1669.562 695.912 1669.657 C 707.865 1669.78 721.386 1661.81 714.94 1643.328 L 728.347 1638.944 C 731.054 1656.186 728.285 1672.367 715.718 1679.553 C 698.957 1688.911 677.449 1685.239 666.597 1670.494 C 659.304 1660.584 657.646 1646.906 661.555 1636.193 C 672.986 1608.806 711.773 1596.759 714.979 1565.096 L 672.097 1565.096 L 672.097 1582.728 L 659.467 1582.728 L 659.467 1550.269 L 729.46 1550.553 Z " fill="rgb(0,0,0)"/><path d=" M 321.868 812.09 C 332.482 788.381 340.213 764.057 341.586 738.046 C 342.845 728.475 337.624 728.314 336.837 735.055 C 321.808 799.065 241.854 781.732 244.603 721.523 C 246.834 672.694 290.392 662.19 313.113 678.155 C 322.085 684.037 321.578 680.514 316.681 674.412 C 282.929 632.494 303.371 578.511 348.982 577.523 C 398.31 580.78 411.109 638.565 380.852 672.548 C 377.089 676.631 368.746 689.754 381.305 680.579 C 411.857 656.408 454.257 682.397 453.392 719.662 C 451.797 788.376 376.562 793.501 360.473 736.106 C 358.925 729.742 354.467 726.547 355.698 737.355 C 357.928 756.922 362.543 786.424 375.745 812.09 L 321.868 812.09 Z " fill="rgb(0,0,0)"/><path d=" M 376.072 1393.64 C 365.457 1417.349 357.726 1441.673 356.354 1467.684 C 355.095 1477.256 360.316 1477.416 361.103 1470.675 C 376.132 1406.666 456.085 1423.999 453.336 1484.207 C 451.106 1533.036 407.548 1543.541 384.827 1527.575 C 375.855 1521.693 376.362 1525.216 381.259 1531.318 C 415.011 1573.236 394.568 1627.219 348.958 1628.207 C 299.63 1624.95 286.831 1567.165 317.088 1533.182 C 320.851 1529.099 329.194 1515.977 316.635 1525.151 C 286.083 1549.322 243.683 1523.334 244.548 1486.068 C 246.143 1417.354 321.377 1412.23 337.467 1469.624 C 339.015 1475.988 343.473 1479.183 342.241 1468.375 C 340.011 1448.808 335.397 1419.306 322.195 1393.64 L 376.072 1393.64 Z " fill="rgb(0,0,0)"/><path d=" M -11.863 768.478 C -7.468 758.441 -3.191 749.099 -0.86 738.097 C 0.685 727.721 -2.476 731.576 -4.271 738.377 C -6.93 747.808 -14.309 752.103 -21.157 752.206 C -33.585 752.393 -39.785 741.516 -39.399 729.818 C -40.756 717.508 -29.551 708.799 -21.106 709.47 C -14.756 709.975 -9.22 713.789 -5.869 716.757 C -3.67 718.051 -1.319 718.623 -4.597 715.285 C -10.782 707.761 -15.94 703.117 -15.827 691.842 C -15.72 681.257 -7.593 670.216 3.18 670.563 C 16.642 670.996 22.764 682.427 22.732 693.06 C 22.695 700.812 19.216 707.947 13.842 712.365 C 10.361 715.51 11.337 717.865 15.308 714.889 C 19.123 711.227 23.666 709.624 28.377 709.512 C 41.246 709.287 46.276 721.669 45.539 733.174 C 44.848 743.953 36.607 755.047 25.745 753.791 C 16.046 752.553 10.95 743.487 8.029 734.181 C 7.062 731.328 5.537 730.557 5.579 734.81 C 7.82 755.571 14.766 768.489 14.816 768.478 L -11.863 768.478 Z " fill="rgb(0,0,0)"/><path d=" M 710.063 1435.209 C 705.668 1445.246 701.391 1454.588 699.06 1465.59 C 697.515 1475.966 700.676 1472.111 702.471 1465.31 C 705.13 1455.879 712.509 1451.584 719.357 1451.48 C 731.785 1451.294 737.985 1462.171 737.599 1473.869 C 738.956 1486.178 727.751 1494.887 719.306 1494.217 C 712.956 1493.712 707.42 1489.898 704.069 1486.93 C 701.87 1485.635 699.519 1485.063 702.797 1488.401 C 708.982 1495.925 714.14 1500.569 714.027 1511.844 C 713.92 1522.43 705.793 1533.47 695.02 1533.124 C 681.558 1532.691 675.436 1521.26 675.468 1510.626 C 675.505 1502.874 678.984 1495.74 684.358 1491.321 C 687.839 1488.177 686.863 1485.821 682.892 1488.798 C 679.077 1492.459 674.534 1494.063 669.823 1494.175 C 656.954 1494.4 651.924 1482.018 652.661 1470.513 C 653.352 1459.734 661.593 1448.639 672.455 1449.896 C 682.154 1451.134 687.25 1460.199 690.171 1469.505 C 691.138 1472.359 692.663 1473.129 692.621 1468.877 C 690.38 1448.116 683.434 1435.197 683.384 1435.209 L 710.063 1435.209 Z " fill="rgb(0,0,0)"/></g></g></g></g></svg>