<?xml version="1.0" encoding="UTF-8" standalone="no"?><!-- Generator: Gravit.io --><svg xmlns="http://www.w3.org/2000/svg" xmlns:xlink="http://www.w3.org/1999/xlink" style="isolation:isolate" viewBox="141.102 584.502 823.997 1280.997" width="823.997pt" height="1280.997pt"><defs><clipPath id="_clipPath_l8SosAtuXy86jlRq5cGZRyjYn7sGpFhw"><rect x="141.102" y="584.502" width="823.997" height="1280.997"/></clipPath></defs><g clip-path="url(#_clipPath_l8SosAtuXy86jlRq5cGZRyjYn7sGpFhw)"><g><g><path d="M 183.454 585.5 L 923.746 585.5 C 946.57 585.5 965.1 604.03 965.1 626.854 L 965.1 1824.146 C 965.1 1846.97 946.57 1865.5 923.746 1865.5 L 183.454 1865.5 C 160.63 1865.5 142.1 1846.97 142.1 1824.146 L 142.1 626.854 C 142.1 604.03 160.63 585.5 183.454 585.5 Z" style="stroke:none;fill:#FFFFFF;stroke-miterlimit:10;"/><path d="M 183.454 585.5 L 923.746 585.5 C 946.57 585.5 965.1 604.03 965.1 626.854 L 965.1 1824.146 C 965.1 1846.97 946.57 1865.5 923.746 1865.5 L 183.454 1865.5 C 160.63 1865.5 142.1 1846.97 142.1 1824.146 L 142.1 626.854 C 142.1 604.03 160.63 585.5 183.454 585.5 Z" style="fill:none;stroke:#000000;stroke-width:0.99673343;stroke-miterlimit:2;"/><g><path d=" M 471.527 818.774 C 508.102 779.031 532.124 735.699 555.096 694.026 C 575.242 739.879 604.152 779.995 635.418 818.774 C 601.967 857.232 576.041 898.356 555.196 941.588 C 532.089 897.271 507.762 857.14 471.527 818.774 Z " fill="rgb(212,0,0)"/><path d=" M 471.527 1634.891 C 508.102 1595.148 532.124 1551.815 555.096 1510.143 C 575.242 1555.996 604.152 1596.112 635.418 1634.891 C 601.967 1673.349 576.041 1714.472 555.196 1757.705 C 532.089 1713.388 507.762 1673.257 471.527 1634.891 Z " fill="rgb(212,0,0)"/><path d=" M 866.085 1607.566 C 881.068 1591.286 890.908 1573.535 900.318 1556.464 C 908.571 1575.248 920.414 1591.681 933.221 1607.566 C 919.518 1623.321 908.898 1640.166 900.359 1657.876 C 890.893 1639.722 880.928 1623.283 866.085 1607.566 Z " fill="rgb(212,0,0)"/><path d=" M 173.983 842.912 C 188.966 826.632 198.806 808.881 208.217 791.81 C 216.469 810.594 228.312 827.027 241.12 842.912 C 227.417 858.666 216.796 875.512 208.257 893.222 C 198.792 875.068 188.826 858.629 173.983 842.912 L 173.983 842.912 Z " fill="rgb(212,0,0)"/><path d=" M 172.237 776.446 L 172.845 768.16 C 174.723 742.548 179.756 733.898 208.319 707.178 C 222.18 694.212 226.731 687.813 227.372 680.388 C 229.182 662.9 215.017 657.437 205.786 657.342 C 193.833 657.22 180.311 665.189 186.758 683.672 L 173.351 688.056 C 170.644 670.814 173.413 654.632 185.979 647.447 C 202.741 638.088 224.249 641.76 235.1 656.506 C 242.394 666.416 244.052 680.094 240.143 690.806 C 228.712 718.193 189.925 730.241 186.719 761.903 L 229.6 761.903 L 229.6 744.272 L 242.23 744.272 L 242.23 776.73 L 172.237 776.446 Z " fill="rgb(212,0,0)"/><path d=" M 933.963 1673.553 L 933.355 1681.84 C 931.477 1707.451 926.444 1716.102 897.881 1742.821 C 884.02 1755.788 879.469 1762.187 878.828 1769.612 C 877.018 1787.099 891.183 1792.562 900.414 1792.657 C 912.367 1792.779 925.889 1784.81 919.442 1766.328 L 932.849 1761.944 C 935.557 1779.186 932.787 1795.367 920.221 1802.553 C 903.459 1811.911 881.951 1808.239 871.1 1793.494 C 863.806 1783.584 862.148 1769.906 866.057 1759.193 C 877.488 1731.806 916.275 1719.759 919.481 1688.096 L 876.6 1688.096 L 876.6 1705.728 L 863.97 1705.728 L 863.97 1673.269 L 933.963 1673.553 Z " fill="rgb(212,0,0)"/></g></g></g></g></svg>