<?xml version="1.0" encoding="UTF-8" standalone="no"?><!-- Generator: Gravit.io --><svg xmlns="http://www.w3.org/2000/svg" xmlns:xlink="http://www.w3.org/1999/xlink" style="isolation:isolate" viewBox="-101.898 554.502 823.997 1280.997" width="823.997pt" height="1280.997pt"><defs><clipPath id="_clipPath_qna4x0EUBfzVzly34M2rhpst4tS3Ovft"><rect x="-101.898" y="554.502" width="823.997" height="1280.997"/></clipPath></defs><g clip-path="url(#_clipPath_qna4x0EUBfzVzly34M2rhpst4tS3Ovft)"><g><g><g><path d="M -59.546 555.5 L 680.746 555.5 C 703.57 555.5 722.1 574.03 722.1 596.854 L 722.1 1794.146 C 722.1 1816.97 703.57 1835.5 680.746 1835.5 L -59.546 1835.5 C -82.37 1835.5 -100.9 1816.97 -100.9 1794.146 L -100.9 596.854 C -100.9 574.03 -82.37 555.5 -59.546 555.5 Z" style="stroke:none;fill:#FFFFFF;stroke-miterlimit:10;"/><path d="M -59.546 555.5 L 680.746 555.5 C 703.57 555.5 722.1 574.03 722.1 596.854 L 722.1 1794.146 C 722.1 1816.97 703.57 1835.5 680.746 1835.5 L -59.546 1835.5 C -82.37 1835.5 -100.9 1816.97 -100.9 1794.146 L -100.9 596.854 C -100.9 574.03 -82.37 555.5 -59.546 555.5 Z" style="fill:none;stroke:#000000;stroke-width:0.99673343;stroke-miterlimit:2;"/></g><g><path d=" M -67.925 802.253 C -73.761 787.999 -74.401 763.644 -56.971 760.349 C -43.838 758.467 -38.494 765.268 -37.431 775.709 C -36.907 778.76 -35.36 778.946 -34.869 775.47 C -34.116 764.758 -24.594 758.506 -17.149 760.076 C 3.226 763.957 2.037 788.928 -4.62 805.87 C -14.688 828.364 -25.268 842.56 -35.017 865.196 C -46.219 841.629 -59.008 822.483 -67.925 802.254 L -67.925 802.253 Z " fill="rgb(212,0,0)"/><g><path d=" M 624.177 1587.433 C 618.341 1601.687 617.7 1626.043 635.131 1629.337 C 648.264 1631.219 653.608 1624.418 654.671 1613.977 C 655.195 1610.927 656.741 1610.74 657.232 1614.216 C 657.986 1624.928 667.508 1631.181 674.952 1629.61 C 695.328 1625.729 694.138 1600.758 687.482 1583.816 C 677.414 1561.323 666.834 1547.127 657.084 1524.49 C 645.883 1548.058 633.093 1567.204 624.177 1587.433 L 624.177 1587.433 Z " fill="rgb(212,0,0)"/><g><g><path d=" M -71.265 746.447 L -70.657 738.16 C -68.779 712.548 -63.747 703.898 -35.183 677.178 C -21.322 664.212 -16.771 657.813 -16.13 650.388 C -14.321 632.901 -28.485 627.437 -37.716 627.342 C -49.669 627.22 -63.191 635.19 -56.744 653.672 L -70.151 658.056 C -72.859 640.814 -70.089 624.632 -57.523 617.447 C -40.761 608.089 -19.254 611.76 -8.402 626.506 C -1.109 636.416 0.549 650.094 -3.359 660.806 C -14.79 688.193 -53.577 700.241 -56.784 731.903 L -13.902 731.903 L -13.902 714.272 L -1.272 714.272 L -1.272 746.731 L -71.265 746.447 Z " fill="rgb(212,0,0)"/><path d=" M 690.46 1643.553 L 689.853 1651.84 C 687.975 1677.451 682.942 1686.102 654.379 1712.821 C 640.517 1725.788 635.967 1732.187 635.326 1739.612 C 633.516 1757.099 647.681 1762.562 656.912 1762.657 C 668.865 1762.78 682.386 1754.81 675.94 1736.328 L 689.347 1731.944 C 692.054 1749.186 689.285 1765.367 676.718 1772.553 C 659.957 1781.911 638.449 1778.239 627.597 1763.494 C 620.304 1753.584 618.646 1739.906 622.555 1729.193 C 633.986 1701.806 672.773 1689.759 675.979 1658.096 L 633.097 1658.096 L 633.097 1675.728 L 620.467 1675.728 L 620.467 1643.269 L 690.46 1643.553 Z " fill="rgb(212,0,0)"/></g><path d=" M 265.545 669.8 C 291.883 667.853 305.615 692.901 308.294 712.643 C 309.892 715.778 310.767 714.895 311.38 712.469 C 312.668 687.124 333.039 666.41 351.907 669.242 C 382.611 669.687 401.272 707.728 396.025 739.926 C 389.616 779.259 370.587 802.943 356.179 827.335 C 339.878 852.591 317.937 889.073 310.868 906.632 C 310.868 906.632 288.569 868.847 259.558 824.409 C 240.158 794.695 224.632 762.495 223.187 734.774 C 221.536 703.101 233.212 674.71 265.545 669.801 L 265.545 669.8 Z " fill="rgb(212,0,0)"/><path d=" M 265.545 1721.93 C 291.883 1723.878 305.615 1698.83 308.294 1679.088 C 309.892 1675.952 310.767 1676.836 311.38 1679.262 C 312.668 1704.607 333.039 1725.321 351.907 1722.489 C 382.611 1722.044 401.272 1684.002 396.025 1651.805 C 389.616 1612.472 370.587 1588.788 356.179 1564.396 C 339.878 1539.14 317.937 1502.658 310.868 1485.099 C 310.868 1485.099 288.569 1522.884 259.558 1567.321 C 240.158 1597.036 224.632 1629.235 223.187 1656.957 C 221.536 1688.629 233.212 1717.021 265.545 1721.93 L 265.545 1721.93 Z " fill="rgb(212,0,0)"/></g></g></g></g></g></g></svg>