<?xml version="1.0" encoding="UTF-8" standalone="no"?><!-- Generator: Gravit.io --><svg xmlns="http://www.w3.org/2000/svg" xmlns:xlink="http://www.w3.org/1999/xlink" style="isolation:isolate" viewBox="90.102 800.502 823.997 1280.997" width="823.997pt" height="1280.997pt"><defs><clipPath id="_clipPath_nwstW2juQ3DIz3qfki2Man0Wuggm3B2Y"><rect x="90.102" y="800.502" width="823.997" height="1280.997"/></clipPath></defs><g clip-path="url(#_clipPath_nwstW2juQ3DIz3qfki2Man0Wuggm3B2Y)"><g><g><g><g><path d="M 132.454 801.5 L 872.746 801.5 C 895.57 801.5 914.1 820.03 914.1 842.854 L 914.1 2040.146 C 914.1 2062.97 895.57 2081.5 872.746 2081.5 L 132.454 2081.5 C 109.63 2081.5 91.1 2062.97 91.1 2040.146 L 91.1 842.854 C 91.1 820.03 109.63 801.5 132.454 801.5 Z" style="stroke:none;fill:#FFFFFF;stroke-miterlimit:10;"/><path d="M 132.454 801.5 L 872.746 801.5 C 895.57 801.5 914.1 820.03 914.1 842.854 L 914.1 2040.146 C 914.1 2062.97 895.57 2081.5 872.746 2081.5 L 132.454 2081.5 C 109.63 2081.5 91.1 2062.97 91.1 2040.146 L 91.1 842.854 C 91.1 820.03 109.63 801.5 132.454 801.5 Z" style="fill:none;stroke:#000000;stroke-width:0.99673343;stroke-miterlimit:2;"/><g><path d=" M 121.237 992.446 L 121.845 984.16 C 123.723 958.548 128.756 949.898 157.319 923.178 C 171.18 910.212 175.731 903.813 176.372 896.388 C 178.182 878.9 164.017 873.437 154.786 873.342 C 142.833 873.22 129.311 881.189 135.758 899.672 L 122.351 904.056 C 119.644 886.814 122.413 870.632 134.979 863.447 C 151.741 854.088 173.249 857.76 184.1 872.506 C 191.394 882.416 193.052 896.094 189.143 906.806 C 177.712 934.193 138.925 946.241 135.719 977.903 L 178.6 977.903 L 178.6 960.272 L 191.23 960.272 L 191.23 992.73 L 121.237 992.446 Z " fill="rgb(0,0,0)"/><path d=" M 882.963 1889.553 L 882.355 1897.84 C 880.477 1923.451 875.444 1932.102 846.881 1958.821 C 833.02 1971.788 828.469 1978.187 827.828 1985.612 C 826.018 2003.099 840.183 2008.562 849.414 2008.657 C 861.367 2008.779 874.889 2000.81 868.442 1982.328 L 881.849 1977.944 C 884.557 1995.186 881.787 2011.367 869.221 2018.553 C 852.459 2027.911 830.951 2024.239 820.1 2009.494 C 812.806 1999.584 811.148 1985.906 815.057 1975.193 C 826.488 1947.806 865.275 1935.759 868.481 1904.096 L 825.6 1904.096 L 825.6 1921.728 L 812.97 1921.728 L 812.97 1889.269 L 882.963 1889.553 Z " fill="rgb(0,0,0)"/></g></g></g><path d=" M 498.255 1080.812 C 498.31 1072.496 492.405 1072.337 492.472 1078.407 C 491.976 1108.902 468.815 1123.918 451.988 1120.356 C 426.048 1114.865 417.768 1086.193 418.015 1069.308 C 418.779 1017.189 465.899 978.757 508.417 911.942 C 539.571 972.249 590.991 1019.616 594.035 1066.234 C 598.082 1128.212 527.64 1151.33 517.582 1079.094 C 516.933 1073.991 511.537 1071.7 511.956 1078.827 C 513.484 1098.624 511.311 1106.87 531.369 1155.671 L 478.937 1155.671 C 490.549 1132.868 497.464 1104.873 498.255 1080.812 L 498.255 1080.812 Z " fill="rgb(0,0,0)"/><path d=" M 498.295 1803.023 C 498.35 1811.338 492.444 1811.497 492.511 1805.428 C 492.016 1774.933 468.855 1759.917 452.028 1763.479 C 426.087 1768.97 417.808 1797.642 418.055 1814.527 C 418.819 1866.646 465.939 1905.078 508.457 1971.893 C 539.61 1911.586 591.031 1864.219 594.075 1817.601 C 598.122 1755.623 527.68 1732.505 517.622 1804.741 C 516.973 1809.844 511.577 1812.135 511.995 1805.008 C 513.524 1785.211 511.351 1776.965 531.409 1728.164 L 478.976 1728.164 C 490.589 1750.967 497.504 1778.962 498.295 1803.023 L 498.295 1803.023 Z " fill="rgb(0,0,0)"/><path d=" M 158.651 1085.429 C 158.688 1081.851 155.35 1083.522 154.898 1084.648 C 150.61 1092.799 144.336 1094.696 138.131 1091.757 C 131.984 1088.846 128.53 1082.396 129.084 1073.193 C 130.228 1059.081 140.275 1043.639 145.14 1034.909 C 149.756 1026.986 154.829 1017.576 160.17 1005.541 C 166.427 1019.347 169.603 1023.277 176.411 1035.883 C 182.406 1046.985 190.762 1057.857 191.407 1071.278 C 191.407 1081.479 187.551 1091.113 178.874 1092.868 C 173.965 1093.861 169.367 1091.056 165.956 1084.507 C 164.917 1082.838 162.827 1083.708 162.862 1085.993 C 163.471 1094.586 166.384 1102.344 173.294 1111.492 L 147.903 1111.492 C 153.101 1105.022 158.405 1096.288 158.651 1085.429 L 158.651 1085.429 Z " fill="rgb(0,0,0)"/><path d=" M 850.753 1796.257 C 850.79 1799.835 847.452 1798.165 847 1797.039 C 842.712 1788.888 836.438 1786.991 830.233 1789.93 C 824.086 1792.841 820.632 1799.29 821.186 1808.493 C 822.33 1822.606 832.377 1838.048 837.242 1846.778 C 841.858 1854.7 846.931 1864.11 852.272 1876.146 C 858.529 1862.34 861.705 1858.41 868.513 1845.803 C 874.507 1834.702 882.864 1823.829 883.509 1810.408 C 883.509 1800.207 879.652 1790.573 870.976 1788.818 C 866.067 1787.825 861.469 1790.631 858.058 1797.179 C 857.019 1798.848 854.929 1797.978 854.964 1795.694 C 855.573 1787.101 858.486 1779.342 865.396 1770.195 L 840.004 1770.195 C 845.203 1776.664 850.507 1785.398 850.753 1796.257 L 850.753 1796.257 Z " fill="rgb(0,0,0)"/></g></g></g></svg>