<?xml version="1.0" encoding="UTF-8" standalone="no"?><!-- Generator: Gravit.io --><svg xmlns="http://www.w3.org/2000/svg" xmlns:xlink="http://www.w3.org/1999/xlink" style="isolation:isolate" viewBox="12.102 359.502 823.997 1280.997" width="823.997pt" height="1280.997pt"><defs><clipPath id="_clipPath_mkL6WN333AnZmnvIQ6eFnLoPpw6nA8VY"><rect x="12.102" y="359.502" width="823.997" height="1280.997"/></clipPath></defs><g clip-path="url(#_clipPath_mkL6WN333AnZmnvIQ6eFnLoPpw6nA8VY)"><g><g><g><g><g><path d="M 54.454 360.5 L 794.746 360.5 C 817.57 360.5 836.1 379.03 836.1 401.854 L 836.1 1599.146 C 836.1 1621.97 817.57 1640.5 794.746 1640.5 L 54.454 1640.5 C 31.63 1640.5 13.1 1621.97 13.1 1599.146 L 13.1 401.854 C 13.1 379.03 31.63 360.5 54.454 360.5 Z" style="stroke:none;fill:#FFFFFF;stroke-miterlimit:10;"/><path d="M 54.454 360.5 L 794.746 360.5 C 817.57 360.5 836.1 379.03 836.1 401.854 L 836.1 1599.146 C 836.1 1621.97 817.57 1640.5 794.746 1640.5 L 54.454 1640.5 C 31.63 1640.5 13.1 1621.97 13.1 1599.146 L 13.1 401.854 C 13.1 379.03 31.63 360.5 54.454 360.5 Z" style="fill:none;stroke:#000000;stroke-width:0.99673343;stroke-miterlimit:2;"/></g></g><g><path d=" M 38.082 515.219 L 47.586 507.575 C 55.847 522.255 65.068 531.932 79.171 530.267 C 100.34 528.682 109.105 504.427 104.674 486.136 C 100.395 469.748 82.863 461.752 68.936 470.504 C 65.652 472.568 61.854 475.116 61.854 475.116 L 56.896 466.118 L 89.594 423.765 L 54.11 423.765 L 54.11 441.295 L 40.494 441.295 L 40.494 409.867 L 109.852 409.867 L 109.852 420.534 C 109.852 420.534 91.275 441.592 85.125 453.135 C 100.255 453.748 112.447 464.222 116.811 480.796 C 119.372 489.513 118.221 509.465 114.883 518.052 C 109.31 532.39 94.048 544.016 80.103 544.688 C 56.707 546.409 44.278 528.478 38.082 515.219 L 38.082 515.219 Z " fill="rgb(0,0,0)"/><path d=" M 807.921 1484.781 L 798.417 1492.425 C 790.156 1477.745 780.936 1468.068 766.832 1469.732 C 745.663 1471.317 736.898 1495.573 741.329 1513.864 C 745.608 1530.252 763.14 1538.247 777.067 1529.496 C 780.351 1527.432 784.149 1525.275 784.149 1525.275 L 790.02 1533.725 L 756.409 1576.235 L 791.893 1576.235 L 791.893 1558.705 L 805.509 1558.705 L 805.509 1590.133 L 736.151 1590.133 L 736.151 1579.466 C 736.151 1579.466 754.729 1558.408 760.878 1546.865 C 745.748 1546.252 733.556 1535.778 729.192 1519.204 C 726.631 1510.486 727.783 1490.534 731.12 1481.948 C 736.693 1467.61 751.955 1455.983 765.9 1455.312 C 789.296 1453.591 801.725 1471.522 807.921 1484.781 L 807.921 1484.781 Z " fill="rgb(0,0,0)"/><path d=" M 395.574 1118.693 C 406.316 1094.699 414.14 1070.082 415.529 1043.759 C 416.803 1034.072 411.519 1033.91 410.723 1040.732 C 395.513 1105.51 314.6 1087.969 317.381 1027.037 C 319.639 977.622 363.72 966.991 386.714 983.148 C 395.794 989.101 395.281 985.535 390.325 979.361 C 356.168 936.938 376.856 882.307 423.014 881.307 C 472.935 884.604 485.888 943.082 455.266 977.474 C 451.459 981.606 443.015 994.886 455.725 985.601 C 486.644 961.14 529.554 987.441 528.678 1025.154 C 527.064 1094.693 450.926 1099.88 434.643 1041.795 C 433.077 1035.355 428.564 1032.121 429.811 1043.059 C 432.068 1062.862 436.738 1092.718 450.099 1118.693 L 395.574 1118.693 Z " fill="rgb(0,0,0)"/><path d=" M 395.338 709.812 C 406.079 685.819 413.903 661.202 415.292 634.879 C 416.566 625.192 411.282 625.03 410.486 631.852 C 395.276 696.63 314.363 679.089 317.145 618.157 C 319.402 568.742 363.483 558.111 386.477 574.268 C 395.557 580.22 395.044 576.655 390.088 570.48 C 355.931 528.058 376.619 473.427 422.777 472.427 C 472.698 475.723 485.651 534.202 455.03 568.594 C 451.222 572.726 442.778 586.006 455.488 576.721 C 486.407 552.26 529.317 578.561 528.442 616.274 C 526.827 685.813 450.689 690.999 434.406 632.915 C 432.84 626.475 428.328 623.241 429.574 634.179 C 431.831 653.981 436.501 683.838 449.862 709.812 L 395.338 709.812 Z " fill="rgb(0,0,0)"/><path d=" M 450.192 1291.265 C 439.45 1315.259 431.627 1339.875 430.238 1366.199 C 428.963 1375.885 434.247 1376.048 435.044 1369.225 C 450.253 1304.447 531.167 1321.989 528.385 1382.92 C 526.128 1432.336 482.047 1442.967 459.053 1426.809 C 449.973 1420.857 450.486 1424.422 455.441 1430.597 C 489.599 1473.019 468.911 1527.65 422.753 1528.65 C 372.832 1525.354 359.879 1466.875 390.5 1432.484 C 394.308 1428.352 402.751 1415.071 390.041 1424.356 C 359.122 1448.817 316.213 1422.517 317.088 1384.804 C 318.703 1315.264 394.841 1310.078 411.124 1368.162 C 412.69 1374.602 417.202 1377.836 415.956 1366.898 C 413.699 1347.096 409.029 1317.239 395.668 1291.265 L 450.192 1291.265 Z " fill="rgb(0,0,0)"/><path d=" M 60.176 664.27 C 64.624 654.112 68.952 644.658 71.311 633.524 C 72.875 623.023 69.675 626.924 67.859 633.807 C 65.168 643.351 57.7 647.698 50.77 647.803 C 38.192 647.992 31.918 636.984 32.309 625.145 C 30.936 612.688 42.275 603.874 50.822 604.553 C 57.248 605.064 62.851 608.924 66.242 611.927 C 68.467 613.237 70.846 613.816 67.529 610.438 C 61.27 602.824 56.05 598.124 56.164 586.713 C 56.272 576.001 64.497 564.828 75.399 565.178 C 89.023 565.616 95.219 577.185 95.186 587.946 C 95.149 595.791 91.628 603.011 86.189 607.483 C 82.666 610.666 83.654 613.049 87.673 610.037 C 91.534 606.331 96.132 604.709 100.899 604.595 C 113.922 604.368 119.014 616.898 118.268 628.542 C 117.568 639.45 109.228 650.678 98.235 649.406 C 88.42 648.154 83.263 638.979 80.307 629.561 C 79.328 626.674 77.785 625.894 77.828 630.197 C 80.095 651.208 87.124 664.281 87.175 664.269 L 60.176 664.27 Z " fill="rgb(0,0,0)"/><path d=" M 788.024 1338.762 C 783.576 1348.92 779.248 1358.374 776.889 1369.508 C 775.325 1380.009 778.525 1376.107 780.341 1369.225 C 783.032 1359.681 790.5 1355.334 797.43 1355.229 C 810.008 1355.04 816.282 1366.048 815.891 1377.887 C 817.264 1390.344 805.925 1399.158 797.378 1398.479 C 790.952 1397.968 785.349 1394.108 781.958 1391.104 C 779.733 1389.794 777.354 1389.216 780.671 1392.594 C 786.931 1400.208 792.15 1404.908 792.036 1416.318 C 791.928 1427.031 783.703 1438.204 772.801 1437.854 C 759.177 1437.416 752.981 1425.847 753.014 1415.086 C 753.051 1407.241 756.572 1400.021 762.011 1395.549 C 765.534 1392.366 764.546 1389.983 760.527 1392.995 C 756.666 1396.7 752.068 1398.323 747.301 1398.437 C 734.278 1398.664 729.187 1386.134 729.932 1374.49 C 730.632 1363.582 738.972 1352.354 749.965 1353.626 C 759.78 1354.878 764.938 1364.053 767.893 1373.471 C 768.872 1376.358 770.415 1377.138 770.372 1372.835 C 768.105 1351.824 761.076 1338.75 761.025 1338.762 L 788.024 1338.762 Z " fill="rgb(0,0,0)"/></g></g></g></g></g></svg>