<?xml version="1.0" encoding="UTF-8" standalone="no"?><!-- Generator: Gravit.io --><svg xmlns="http://www.w3.org/2000/svg" xmlns:xlink="http://www.w3.org/1999/xlink" style="isolation:isolate" viewBox="168.102 584.502 823.997 1280.997" width="823.997pt" height="1280.997pt"><defs><clipPath id="_clipPath_7pdRv0VOc5oDcf6nnfHoXSILAyBR1mAH"><rect x="168.102" y="584.502" width="823.997" height="1280.997"/></clipPath></defs><g clip-path="url(#_clipPath_7pdRv0VOc5oDcf6nnfHoXSILAyBR1mAH)"><g><g><path d="M 210.454 585.5 L 950.746 585.5 C 973.57 585.5 992.1 604.03 992.1 626.854 L 992.1 1824.146 C 992.1 1846.97 973.57 1865.5 950.746 1865.5 L 210.454 1865.5 C 187.63 1865.5 169.1 1846.97 169.1 1824.146 L 169.1 626.854 C 169.1 604.03 187.63 585.5 210.454 585.5 Z" style="stroke:none;fill:#FFFFFF;stroke-miterlimit:10;"/><path d="M 210.454 585.5 L 950.746 585.5 C 973.57 585.5 992.1 604.03 992.1 626.854 L 992.1 1824.146 C 992.1 1846.97 973.57 1865.5 950.746 1865.5 L 210.454 1865.5 C 187.63 1865.5 169.1 1846.97 169.1 1824.146 L 169.1 626.854 C 169.1 604.03 187.63 585.5 210.454 585.5 Z" style="fill:none;stroke:#000000;stroke-width:0.99673343;stroke-miterlimit:2;"/><g><path d=" M 497.921 821.94 C 534.496 782.197 558.518 738.865 581.49 697.192 C 601.636 743.046 630.546 783.161 661.812 821.94 C 628.361 860.399 602.435 901.522 581.59 944.754 C 558.483 900.438 534.156 860.307 497.921 821.94 Z " fill="rgb(212,0,0)"/><path d=" M 497.921 1631.058 C 534.496 1591.315 558.518 1547.983 581.49 1506.31 C 601.636 1552.163 630.546 1592.279 661.812 1631.058 C 628.36 1669.516 602.435 1710.64 581.59 1753.872 C 558.483 1709.555 534.156 1669.424 497.921 1631.058 Z " fill="rgb(212,0,0)"/><path d=" M 497.921 1226.153 C 534.496 1186.41 558.518 1143.078 581.49 1101.405 C 601.636 1147.259 630.546 1187.374 661.812 1226.153 C 628.36 1264.612 602.435 1305.735 581.59 1348.967 C 558.483 1304.651 534.156 1264.52 497.921 1226.153 Z " fill="rgb(212,0,0)"/><path d=" M 892.31 1609.099 C 907.293 1592.818 917.133 1575.067 926.543 1557.996 C 934.796 1576.78 946.639 1593.213 959.446 1609.099 C 945.743 1624.853 935.123 1641.699 926.584 1659.408 C 917.118 1641.254 907.153 1624.815 892.31 1609.099 Z " fill="rgb(212,0,0)"/><path d=" M 202.925 844.689 C 217.908 828.409 227.748 810.658 237.159 793.587 C 245.411 812.371 257.254 828.804 270.062 844.689 C 256.359 860.444 245.739 877.289 237.2 894.999 C 227.734 876.845 217.769 860.406 202.925 844.689 Z " fill="rgb(212,0,0)"/><path d=" M 199.75 745.973 L 209.141 738.42 C 217.304 752.926 226.415 762.488 240.351 760.843 C 261.269 759.277 269.93 735.309 265.552 717.236 C 261.324 701.042 244 693.142 230.238 701.789 C 226.993 703.828 223.24 706.347 223.24 706.347 L 218.341 697.455 L 250.651 655.605 L 215.588 655.605 L 215.588 672.927 L 202.133 672.927 L 202.133 641.872 L 270.668 641.872 L 270.668 652.413 C 270.668 652.413 252.311 673.22 246.235 684.626 C 261.185 685.232 273.232 695.582 277.544 711.959 C 280.075 720.573 278.937 740.288 275.639 748.773 C 270.132 762.94 255.052 774.429 241.272 775.093 C 218.154 776.793 205.872 759.075 199.75 745.973 L 199.75 745.973 Z " fill="rgb(212,0,0)"/><path d=" M 960.45 1704.026 L 951.059 1711.579 C 942.897 1697.073 933.785 1687.511 919.849 1689.156 C 898.932 1690.722 890.27 1714.69 894.649 1732.764 C 898.877 1748.958 916.201 1756.858 929.962 1748.21 C 933.207 1746.171 936.961 1744.039 936.961 1744.039 L 942.762 1752.389 L 909.55 1794.394 L 944.613 1794.394 L 944.613 1777.073 L 958.067 1777.073 L 958.067 1808.127 L 889.532 1808.127 L 889.532 1797.587 C 889.532 1797.587 907.889 1776.779 913.966 1765.373 C 899.016 1764.768 886.968 1754.417 882.656 1738.04 C 880.126 1729.426 881.263 1709.711 884.561 1701.226 C 890.068 1687.059 905.149 1675.57 918.928 1674.907 C 942.047 1673.206 954.328 1690.925 960.45 1704.026 L 960.45 1704.026 Z " fill="rgb(212,0,0)"/></g></g></g></g></svg>