<?xml version="1.0" encoding="UTF-8" standalone="no"?><!-- Generator: Gravit.io --><svg xmlns="http://www.w3.org/2000/svg" xmlns:xlink="http://www.w3.org/1999/xlink" style="isolation:isolate" viewBox="42.102 731.502 823.997 1280.997" width="823.997pt" height="1280.997pt"><defs><clipPath id="_clipPath_G9e8FQzUsPup30xcP1p3luxj0L59Mksl"><rect x="42.102" y="731.502" width="823.997" height="1280.997"/></clipPath></defs><g clip-path="url(#_clipPath_G9e8FQzUsPup30xcP1p3luxj0L59Mksl)"><g><g><g><g><path d="M 84.454 732.5 L 824.746 732.5 C 847.57 732.5 866.1 751.03 866.1 773.854 L 866.1 1971.146 C 866.1 1993.97 847.57 2012.5 824.746 2012.5 L 84.454 2012.5 C 61.63 2012.5 43.1 1993.97 43.1 1971.146 L 43.1 773.854 C 43.1 751.03 61.63 732.5 84.454 732.5 Z" style="stroke:none;fill:#FFFFFF;stroke-miterlimit:10;"/><path d="M 84.454 732.5 L 824.746 732.5 C 847.57 732.5 866.1 751.03 866.1 773.854 L 866.1 1971.146 C 866.1 1993.97 847.57 2012.5 824.746 2012.5 L 84.454 2012.5 C 61.63 2012.5 43.1 1993.97 43.1 1971.146 L 43.1 773.854 C 43.1 751.03 61.63 732.5 84.454 732.5 Z" style="fill:none;stroke:#000000;stroke-width:0.99673343;stroke-miterlimit:2;"/><g><path d=" M 73.75 892.973 L 83.141 885.42 C 91.304 899.926 100.415 909.488 114.351 907.843 C 135.269 906.277 143.93 882.309 139.552 864.236 C 135.324 848.042 118 840.142 104.238 848.789 C 100.993 850.828 97.24 853.347 97.24 853.347 L 92.341 844.455 L 124.651 802.605 L 89.588 802.605 L 89.588 819.927 L 76.133 819.927 L 76.133 788.872 L 144.668 788.872 L 144.668 799.413 C 144.668 799.413 126.311 820.22 120.235 831.626 C 135.185 832.232 147.232 842.582 151.544 858.959 C 154.075 867.573 152.937 887.288 149.639 895.773 C 144.132 909.94 129.052 921.429 115.272 922.093 C 92.154 923.793 79.872 906.075 73.75 892.973 L 73.75 892.973 Z " fill="rgb(212,0,0)"/><path d=" M 834.45 1851.026 L 825.059 1858.579 C 816.897 1844.073 807.785 1834.511 793.849 1836.156 C 772.932 1837.722 764.27 1861.69 768.649 1879.764 C 772.877 1895.958 790.201 1903.858 803.962 1895.21 C 807.207 1893.171 810.961 1891.039 810.961 1891.039 L 816.762 1899.389 L 783.55 1941.394 L 818.613 1941.394 L 818.613 1924.073 L 832.067 1924.073 L 832.067 1955.127 L 763.532 1955.127 L 763.532 1944.587 C 763.532 1944.587 781.889 1923.779 787.966 1912.373 C 773.016 1911.768 760.968 1901.417 756.656 1885.04 C 754.126 1876.426 755.263 1856.711 758.561 1848.226 C 764.068 1834.059 779.149 1822.57 792.928 1821.907 C 816.047 1820.206 828.328 1837.925 834.45 1851.026 L 834.45 1851.026 Z " fill="rgb(212,0,0)"/></g></g></g><path d=" M 78.52 981.03 C 72.684 966.776 72.043 942.421 89.474 939.126 C 102.606 937.244 107.951 944.045 109.013 954.487 C 109.538 957.537 111.084 957.723 111.575 954.247 C 112.329 943.536 121.851 937.283 129.295 938.853 C 149.671 942.734 148.481 967.706 141.825 984.647 C 131.757 1007.141 121.177 1021.337 111.427 1043.973 C 100.226 1020.406 87.436 1001.26 78.52 981.031 L 78.52 981.03 Z " fill="rgb(212,0,0)"/><path d=" M 409.441 849.967 C 435.78 848.019 449.511 873.068 452.19 892.809 C 453.788 895.945 454.663 895.061 455.276 892.635 C 456.564 867.29 476.935 846.576 495.803 849.408 C 526.507 849.853 545.168 887.895 539.921 920.092 C 533.512 959.425 514.483 983.109 500.075 1007.501 C 483.774 1032.757 461.833 1069.239 454.764 1086.798 C 454.764 1086.798 432.465 1049.013 403.454 1004.576 C 384.054 974.861 368.528 942.662 367.083 914.94 C 365.432 883.268 377.108 854.876 409.441 849.967 L 409.441 849.967 Z " fill="rgb(212,0,0)"/><path d=" M 409.675 1253.993 C 436.013 1252.046 449.744 1277.094 452.424 1296.835 C 454.022 1299.971 454.897 1299.088 455.51 1296.662 C 456.797 1271.317 477.169 1250.602 496.037 1253.435 C 526.741 1253.879 545.402 1291.921 540.155 1324.119 C 533.745 1363.452 514.717 1387.136 500.309 1411.528 C 484.008 1436.784 462.067 1473.266 454.997 1490.825 C 454.997 1490.825 432.699 1453.04 403.687 1408.602 C 384.288 1378.888 368.762 1346.688 367.317 1318.967 C 365.665 1287.294 377.342 1258.903 409.675 1253.994 L 409.675 1253.993 Z " fill="rgb(212,0,0)"/><path d=" M 767.904 1765.965 C 762.068 1780.219 761.428 1804.575 778.858 1807.87 C 791.991 1809.751 797.335 1802.95 798.398 1792.509 C 798.922 1789.459 800.469 1789.272 800.959 1792.748 C 801.713 1803.46 811.235 1809.713 818.68 1808.142 C 839.055 1804.261 837.865 1779.29 831.209 1762.348 C 821.141 1739.855 810.561 1725.659 800.812 1703.023 C 789.61 1726.59 776.82 1745.736 767.904 1765.965 L 767.904 1765.965 Z " fill="rgb(212,0,0)"/><path d=" M 409.441 1895.097 C 435.78 1897.045 449.511 1871.997 452.19 1852.255 C 453.788 1849.12 454.663 1850.003 455.276 1852.429 C 456.564 1877.774 476.935 1898.488 495.803 1895.656 C 526.507 1895.211 545.168 1857.169 539.921 1824.972 C 533.512 1785.639 514.483 1761.955 500.075 1737.563 C 483.774 1712.307 461.833 1675.825 454.764 1658.266 C 454.764 1658.266 432.465 1696.051 403.454 1740.489 C 384.054 1770.203 368.528 1802.402 367.083 1830.124 C 365.432 1861.796 377.108 1890.188 409.441 1895.097 L 409.441 1895.097 Z " fill="rgb(212,0,0)"/></g></g></g></svg>