<?xml version="1.0" encoding="UTF-8" standalone="no"?><!-- Generator: Gravit.io --><svg xmlns="http://www.w3.org/2000/svg" xmlns:xlink="http://www.w3.org/1999/xlink" style="isolation:isolate" viewBox="-38.898 722.502 823.997 1280.997" width="823.997pt" height="1280.997pt"><defs><clipPath id="_clipPath_zAs5VMyiXVqiChgRLOpUpQoVBpJ7LvGj"><rect x="-38.898" y="722.502" width="823.997" height="1280.997"/></clipPath></defs><g clip-path="url(#_clipPath_zAs5VMyiXVqiChgRLOpUpQoVBpJ7LvGj)"><g><g><g><g><path d="M 3.454 723.5 L 743.746 723.5 C 766.57 723.5 785.1 742.03 785.1 764.854 L 785.1 1962.146 C 785.1 1984.97 766.57 2003.5 743.746 2003.5 L 3.454 2003.5 C -19.37 2003.5 -37.9 1984.97 -37.9 1962.146 L -37.9 764.854 C -37.9 742.03 -19.37 723.5 3.454 723.5 Z" style="stroke:none;fill:#FFFFFF;stroke-miterlimit:10;"/><path d="M 3.454 723.5 L 743.746 723.5 C 766.57 723.5 785.1 742.03 785.1 764.854 L 785.1 1962.146 C 785.1 1984.97 766.57 2003.5 743.746 2003.5 L 3.454 2003.5 C -19.37 2003.5 -37.9 1984.97 -37.9 1962.146 L -37.9 764.854 C -37.9 742.03 -19.37 723.5 3.454 723.5 Z" style="fill:none;stroke:#000000;stroke-width:0.99673343;stroke-miterlimit:2;"/><g><path d=" M -7.25 883.973 L 2.141 876.42 C 10.304 890.926 19.415 900.488 33.351 898.843 C 54.269 897.277 62.93 873.309 58.552 855.236 C 54.324 839.042 37 831.142 23.238 839.789 C 19.993 841.828 16.24 844.347 16.24 844.347 L 11.341 835.455 L 43.651 793.605 L 8.588 793.605 L 8.588 810.927 L -4.867 810.927 L -4.867 779.872 L 63.668 779.872 L 63.668 790.413 C 63.668 790.413 45.311 811.22 39.235 822.626 C 54.185 823.232 66.232 833.582 70.544 849.959 C 73.075 858.573 71.937 878.288 68.639 886.773 C 63.132 900.94 48.052 912.429 34.272 913.093 C 11.154 914.793 -1.128 897.075 -7.25 883.973 L -7.25 883.973 Z " fill="rgb(0,0,0)"/><path d=" M 753.45 1842.026 L 744.059 1849.579 C 735.897 1835.073 726.785 1825.511 712.849 1827.156 C 691.932 1828.722 683.27 1852.69 687.649 1870.764 C 691.877 1886.958 709.201 1894.858 722.962 1886.21 C 726.207 1884.171 729.961 1882.039 729.961 1882.039 L 735.762 1890.389 L 702.55 1932.394 L 737.613 1932.394 L 737.613 1915.073 L 751.067 1915.073 L 751.067 1946.127 L 682.532 1946.127 L 682.532 1935.587 C 682.532 1935.587 700.889 1914.779 706.966 1903.373 C 692.016 1902.768 679.968 1892.417 675.656 1876.04 C 673.126 1867.426 674.263 1847.711 677.561 1839.226 C 683.068 1825.059 698.149 1813.57 711.928 1812.907 C 735.047 1811.206 747.328 1828.925 753.45 1842.026 L 753.45 1842.026 Z " fill="rgb(0,0,0)"/></g></g></g><path d=" M 364.975 1005.979 C 365.03 997.663 359.125 997.504 359.192 1003.574 C 358.696 1034.069 335.535 1049.084 318.708 1045.522 C 292.768 1040.031 284.488 1011.36 284.735 994.474 C 285.499 942.355 332.619 903.923 375.137 837.109 C 406.291 897.415 457.711 944.783 460.755 991.4 C 464.802 1053.379 394.36 1076.497 384.302 1004.26 C 383.653 999.158 378.257 996.867 378.676 1003.993 C 380.204 1023.79 378.031 1032.037 398.089 1080.838 L 345.657 1080.838 C 357.269 1058.035 364.184 1030.039 364.975 1005.979 L 364.975 1005.979 Z " fill="rgb(0,0,0)"/><path d=" M 365.248 1316.099 C 365.304 1324.415 359.398 1324.574 359.465 1318.504 C 358.97 1288.009 335.809 1272.993 318.982 1276.555 C 293.041 1282.046 284.762 1310.718 285.009 1327.603 C 285.773 1379.722 332.893 1418.154 375.41 1484.969 C 406.564 1424.662 457.984 1377.295 461.029 1330.677 C 465.076 1268.699 394.633 1245.581 384.576 1317.817 C 383.927 1322.92 378.53 1325.211 378.949 1318.084 C 380.477 1298.287 378.304 1290.041 398.363 1241.24 L 345.93 1241.24 C 357.543 1264.043 364.458 1292.038 365.248 1316.099 L 365.248 1316.099 Z " fill="rgb(0,0,0)"/><path d=" M 365.015 1721.19 C 365.07 1729.506 359.164 1729.665 359.231 1723.595 C 358.736 1693.1 335.575 1678.085 318.748 1681.647 C 292.807 1687.138 284.528 1715.809 284.775 1732.695 C 285.539 1784.814 332.659 1823.246 375.177 1890.06 C 406.33 1829.754 457.751 1782.386 460.795 1735.769 C 464.842 1673.79 394.4 1650.672 384.342 1722.909 C 383.693 1728.011 378.297 1730.302 378.715 1723.176 C 380.244 1703.379 378.071 1695.133 398.129 1646.331 L 345.696 1646.331 C 357.309 1669.134 364.224 1697.13 365.015 1721.19 L 365.015 1721.19 Z " fill="rgb(0,0,0)"/><path d=" M 27.937 1009.206 C 27.974 1005.628 24.636 1007.299 24.184 1008.425 C 19.896 1016.576 13.622 1018.473 7.417 1015.534 C 1.27 1012.623 -2.184 1006.173 -1.63 996.97 C -0.486 982.858 9.561 967.416 14.426 958.686 C 19.042 950.763 24.115 941.353 29.456 929.318 C 35.714 943.124 38.889 947.054 45.697 959.66 C 51.692 970.762 60.048 981.634 60.693 995.055 C 60.693 1005.256 56.837 1014.89 48.16 1016.646 C 43.252 1017.639 38.653 1014.833 35.243 1008.284 C 34.204 1006.615 32.113 1007.485 32.148 1009.77 C 32.757 1018.363 35.671 1026.121 42.58 1035.269 L 17.189 1035.269 C 22.387 1028.799 27.691 1020.065 27.937 1009.206 L 27.937 1009.206 Z " fill="rgb(0,0,0)"/><path d=" M 717.303 1719.79 C 717.34 1723.367 714.002 1721.697 713.551 1720.571 C 709.262 1712.42 702.989 1710.523 696.783 1713.462 C 690.636 1716.373 687.182 1722.822 687.736 1732.025 C 688.88 1746.138 698.927 1761.58 703.792 1770.31 C 708.408 1778.232 713.481 1787.642 718.822 1799.678 C 725.08 1785.872 728.255 1781.942 735.063 1769.335 C 741.058 1758.234 749.414 1747.361 750.059 1733.94 C 750.059 1723.739 746.203 1714.105 737.526 1712.35 C 732.618 1711.357 728.019 1714.163 724.608 1720.711 C 723.57 1722.38 721.479 1721.51 721.514 1719.226 C 722.123 1710.633 725.036 1702.874 731.946 1693.727 L 706.555 1693.727 C 711.754 1700.196 717.057 1708.93 717.303 1719.79 L 717.303 1719.79 Z " fill="rgb(0,0,0)"/></g></g></g></svg>