<?xml version="1.0" encoding="UTF-8" standalone="no"?><!-- Generator: Gravit.io --><svg xmlns="http://www.w3.org/2000/svg" xmlns:xlink="http://www.w3.org/1999/xlink" style="isolation:isolate" viewBox="81.102 488.502 823.997 1280.997" width="823.997pt" height="1280.997pt"><defs><clipPath id="_clipPath_P88kO3atTrSRNfIDLSvOMxvX0YDONN0w"><rect x="81.102" y="488.502" width="823.997" height="1280.997"/></clipPath></defs><g clip-path="url(#_clipPath_P88kO3atTrSRNfIDLSvOMxvX0YDONN0w)"><g><g><g><g><g><path d="M 123.454 489.5 L 863.746 489.5 C 886.57 489.5 905.1 508.03 905.1 530.854 L 905.1 1728.146 C 905.1 1750.97 886.57 1769.5 863.746 1769.5 L 123.454 1769.5 C 100.63 1769.5 82.1 1750.97 82.1 1728.146 L 82.1 530.854 C 82.1 508.03 100.63 489.5 123.454 489.5 Z" style="stroke:none;fill:#FFFFFF;stroke-miterlimit:10;"/><path d="M 123.454 489.5 L 863.746 489.5 C 886.57 489.5 905.1 508.03 905.1 530.854 L 905.1 1728.146 C 905.1 1750.97 886.57 1769.5 863.746 1769.5 L 123.454 1769.5 C 100.63 1769.5 82.1 1750.97 82.1 1728.146 L 82.1 530.854 C 82.1 508.03 100.63 489.5 123.454 489.5 Z" style="fill:none;stroke:#000000;stroke-width:0.99673343;stroke-miterlimit:2;"/></g></g><g><path d=" M 149.482 679.366 L 149.482 667.818 L 159.012 667.818 L 159.012 648.787 L 111.36 648.787 L 111.36 635.359 L 162.92 548.75 L 171.346 548.782 L 171.346 635.359 L 185.921 635.359 L 185.921 648.787 L 171.346 648.787 L 171.065 667.818 L 179.054 667.818 L 179.054 679.366 L 149.482 679.366 Z  M 159.012 580.447 L 126.276 635.359 L 159.012 635.359 L 159.012 580.447 Z " fill="rgb(0,0,0)"/><path d=" M 840.968 1578.633 L 840.968 1590.181 L 831.438 1590.181 L 831.438 1609.213 L 879.09 1609.213 L 879.09 1622.64 L 827.53 1709.25 L 819.104 1709.217 L 819.104 1622.64 L 804.529 1622.64 L 804.529 1609.213 L 819.104 1609.213 L 819.385 1590.181 L 811.396 1590.181 L 811.396 1578.633 L 840.968 1578.633 Z  M 831.438 1677.553 L 864.174 1622.64 L 831.438 1622.64 L 831.438 1677.553 Z " fill="rgb(0,0,0)"/><path d=" M 648.65 831.285 C 659.264 807.576 666.995 783.252 668.367 757.241 C 669.627 747.669 664.406 747.509 663.619 754.25 C 648.59 818.259 568.636 800.926 571.385 740.718 C 573.616 691.889 617.174 681.384 639.895 697.35 C 648.867 703.232 648.36 699.709 643.463 693.607 C 609.711 651.689 630.153 597.706 675.764 596.718 C 725.092 599.975 737.891 657.76 707.633 691.743 C 703.871 695.826 695.528 708.949 708.087 699.774 C 738.639 675.603 781.039 701.592 780.174 738.857 C 778.579 807.571 703.344 812.696 687.255 755.301 C 685.707 748.937 681.248 745.742 682.48 756.55 C 684.71 776.117 689.325 805.619 702.527 831.285 L 648.65 831.285 Z " fill="rgb(0,0,0)"/><path d=" M 281.692 831.285 C 292.306 807.576 300.037 783.252 301.409 757.241 C 302.669 747.669 297.447 747.509 296.66 754.25 C 281.631 818.259 201.678 800.926 204.427 740.718 C 206.657 691.889 250.215 681.384 272.936 697.35 C 281.909 703.232 281.402 699.709 276.505 693.607 C 242.753 651.689 263.195 597.706 308.806 596.718 C 358.134 599.975 370.933 657.76 340.675 691.743 C 336.912 695.826 328.57 708.949 341.129 699.774 C 371.68 675.603 414.081 701.592 413.216 738.857 C 411.62 807.571 336.386 812.696 320.296 755.301 C 318.749 748.937 314.29 745.742 315.522 756.55 C 317.752 776.117 322.366 805.619 335.569 831.285 L 281.692 831.285 Z " fill="rgb(0,0,0)"/><path d=" M 702.854 1412.995 C 692.239 1436.704 684.508 1461.028 683.136 1487.039 C 681.877 1496.611 687.098 1496.771 687.885 1490.03 C 702.914 1426.021 782.867 1443.354 780.118 1503.562 C 777.888 1552.391 734.33 1562.896 711.609 1546.93 C 702.637 1541.048 703.144 1544.571 708.04 1550.673 C 741.792 1592.591 721.35 1646.574 675.74 1647.562 C 626.412 1644.305 613.612 1586.52 643.87 1552.537 C 647.633 1548.454 655.976 1535.332 643.417 1544.506 C 612.865 1568.677 570.465 1542.689 571.33 1505.423 C 572.925 1436.709 648.159 1431.585 664.249 1488.979 C 665.797 1495.343 670.255 1498.538 669.023 1487.73 C 666.793 1468.163 662.179 1438.661 648.977 1412.995 L 702.854 1412.995 Z " fill="rgb(0,0,0)"/><path d=" M 335.895 1412.995 C 325.281 1436.704 317.55 1461.028 316.178 1487.039 C 314.918 1496.611 320.14 1496.771 320.927 1490.03 C 335.956 1426.021 415.909 1443.354 413.16 1503.562 C 410.93 1552.391 367.372 1562.896 344.651 1546.93 C 335.678 1541.048 336.185 1544.571 341.082 1550.673 C 374.834 1592.591 354.392 1646.574 308.781 1647.562 C 259.453 1644.305 246.654 1586.52 276.912 1552.537 C 280.675 1548.454 289.017 1535.332 276.458 1544.506 C 245.907 1568.677 203.506 1542.689 204.371 1505.423 C 205.967 1436.709 281.201 1431.585 297.291 1488.979 C 298.838 1495.343 303.297 1498.538 302.065 1487.73 C 299.835 1468.163 295.221 1438.661 282.018 1412.995 L 335.895 1412.995 Z " fill="rgb(0,0,0)"/><path d=" M 133.069 798.611 C 137.464 788.574 141.741 779.232 144.071 768.23 C 145.617 757.854 142.455 761.709 140.66 768.51 C 138.001 777.941 130.623 782.236 123.775 782.339 C 111.346 782.526 105.146 771.649 105.533 759.951 C 104.176 747.642 115.38 738.932 123.826 739.603 C 130.175 740.108 135.712 743.922 139.063 746.89 C 141.261 748.185 143.612 748.756 140.334 745.419 C 134.149 737.894 128.992 733.251 129.104 721.975 C 129.211 711.39 137.339 700.349 148.111 700.696 C 161.574 701.129 167.696 712.56 167.664 723.194 C 167.627 730.945 164.148 738.08 158.773 742.498 C 155.292 745.643 156.268 747.998 160.239 745.022 C 164.055 741.361 168.598 739.757 173.308 739.645 C 186.177 739.42 191.208 751.802 190.471 763.307 C 189.78 774.086 181.539 785.18 170.676 783.924 C 160.978 782.686 155.881 773.621 152.961 764.315 C 151.994 761.461 150.469 760.691 150.511 764.943 C 152.752 785.704 159.697 798.623 159.748 798.611 L 133.069 798.611 Z " fill="rgb(0,0,0)"/><path d=" M 853.131 1460.584 C 848.736 1470.621 844.459 1479.963 842.129 1490.965 C 840.583 1501.341 843.745 1497.486 845.54 1490.685 C 848.199 1481.254 855.578 1476.959 862.426 1476.855 C 874.854 1476.669 881.054 1487.546 880.668 1499.244 C 882.025 1511.553 870.82 1520.263 862.375 1519.592 C 856.025 1519.087 850.488 1515.273 847.137 1512.305 C 844.939 1511.01 842.588 1510.438 845.866 1513.776 C 852.051 1521.3 857.209 1525.944 857.096 1537.219 C 856.989 1547.805 848.861 1558.845 838.089 1558.499 C 824.627 1558.066 818.505 1546.635 818.537 1536.001 C 818.574 1528.249 822.052 1521.115 827.427 1516.696 C 830.908 1513.552 829.932 1511.196 825.961 1514.173 C 822.145 1517.834 817.602 1519.438 812.892 1519.55 C 800.023 1519.775 794.992 1507.393 795.729 1495.888 C 796.42 1485.109 804.662 1474.014 815.524 1475.271 C 825.223 1476.509 830.319 1485.574 833.239 1494.88 C 834.206 1497.734 835.732 1498.504 835.689 1494.252 C 833.449 1473.491 826.503 1460.572 826.453 1460.584 L 853.131 1460.584 Z " fill="rgb(0,0,0)"/></g></g></g></g></g></svg>