<?xml version="1.0" encoding="UTF-8" standalone="no"?><!-- Generator: Gravit.io --><svg xmlns="http://www.w3.org/2000/svg" xmlns:xlink="http://www.w3.org/1999/xlink" style="isolation:isolate" viewBox="27.102 683.502 823.997 1280.997" width="823.997pt" height="1280.997pt"><defs><clipPath id="_clipPath_TsXh9pDxsYCTi6jiAh1ROYiXZxMZP6RH"><rect x="27.102" y="683.502" width="823.997" height="1280.997"/></clipPath></defs><g clip-path="url(#_clipPath_TsXh9pDxsYCTi6jiAh1ROYiXZxMZP6RH)"><g><g><path d="M 69.454 684.5 L 809.746 684.5 C 832.57 684.5 851.1 703.03 851.1 725.854 L 851.1 1923.146 C 851.1 1945.97 832.57 1964.5 809.746 1964.5 L 69.454 1964.5 C 46.63 1964.5 28.1 1945.97 28.1 1923.146 L 28.1 725.854 C 28.1 703.03 46.63 684.5 69.454 684.5 Z" style="stroke:none;fill:#FFFFFF;stroke-miterlimit:10;"/><path d="M 69.454 684.5 L 809.746 684.5 C 832.57 684.5 851.1 703.03 851.1 725.854 L 851.1 1923.146 C 851.1 1945.97 832.57 1964.5 809.746 1964.5 L 69.454 1964.5 C 46.63 1964.5 28.1 1945.97 28.1 1923.146 L 28.1 725.854 C 28.1 703.03 46.63 684.5 69.454 684.5 Z" style="fill:none;stroke:#000000;stroke-width:0.99673343;stroke-miterlimit:2;"/><g><path d=" M 155.976 909.969 C 192.552 870.226 216.573 826.893 239.545 785.221 C 259.691 831.074 288.602 871.19 319.867 909.969 C 286.416 948.427 260.49 989.551 239.645 1032.783 C 216.538 988.466 192.211 948.335 155.976 909.969 Z " fill="rgb(212,0,0)"/><path d=" M 155.976 1726.246 C 192.552 1686.503 216.573 1643.17 239.545 1601.498 C 259.691 1647.351 288.602 1687.467 319.867 1726.246 C 286.416 1764.704 260.49 1805.828 239.645 1849.06 C 216.538 1804.743 192.211 1764.612 155.976 1726.246 Z " fill="rgb(212,0,0)"/><path d=" M 567.176 909.969 C 603.751 870.226 627.773 826.893 650.745 785.221 C 670.891 831.074 699.801 871.19 731.067 909.969 C 697.616 948.427 671.69 989.551 650.845 1032.783 C 627.738 988.466 603.411 948.335 567.176 909.969 L 567.176 909.969 Z " fill="rgb(212,0,0)"/><path d=" M 567.176 1726.246 C 603.751 1686.503 627.773 1643.17 650.745 1601.498 C 670.891 1647.351 699.801 1687.467 731.067 1726.246 C 697.616 1764.704 671.69 1805.828 650.845 1849.06 C 627.738 1804.743 603.411 1764.612 567.176 1726.246 L 567.176 1726.246 Z " fill="rgb(212,0,0)"/><path d=" M 748.526 1704.942 C 763.509 1688.661 773.349 1670.911 782.76 1653.84 C 791.013 1672.623 802.856 1689.056 815.663 1704.942 C 801.96 1720.696 791.34 1737.542 782.801 1755.251 C 773.335 1737.097 763.37 1720.658 748.526 1704.942 L 748.526 1704.942 Z " fill="rgb(212,0,0)"/><path d=" M 58.287 945.046 C 73.27 928.765 83.11 911.014 92.521 893.943 C 100.773 912.727 112.617 929.16 125.424 945.046 C 111.721 960.8 101.101 977.646 92.562 995.355 C 83.096 977.201 73.131 960.762 58.287 945.046 Z " fill="rgb(212,0,0)"/><path d=" M 93.357 874.366 L 93.357 862.818 L 102.887 862.818 L 102.887 843.787 L 55.235 843.787 L 55.235 830.359 L 106.795 743.75 L 115.221 743.782 L 115.221 830.359 L 129.796 830.359 L 129.796 843.787 L 115.221 843.787 L 114.94 862.818 L 122.929 862.818 L 122.929 874.366 L 93.357 874.366 Z  M 102.887 775.447 L 70.151 830.359 L 102.887 830.359 L 102.887 775.447 Z " fill="rgb(212,0,0)"/><path d=" M 784.843 1773.633 L 784.843 1785.181 L 775.313 1785.181 L 775.313 1804.213 L 822.965 1804.213 L 822.965 1817.64 L 771.405 1904.25 L 762.98 1904.218 L 762.98 1817.64 L 748.404 1817.64 L 748.404 1804.213 L 762.98 1804.213 L 763.26 1785.181 L 755.271 1785.181 L 755.271 1773.633 L 784.843 1773.633 Z  M 775.313 1872.553 L 808.049 1817.64 L 775.313 1817.64 L 775.313 1872.553 Z " fill="rgb(212,0,0)"/></g></g></g></g></svg>