<?xml version="1.0" encoding="UTF-8" standalone="no"?><!-- Generator: Gravit.io --><svg xmlns="http://www.w3.org/2000/svg" xmlns:xlink="http://www.w3.org/1999/xlink" style="isolation:isolate" viewBox="60.102 707.502 823.997 1280.997" width="823.997pt" height="1280.997pt"><defs><clipPath id="_clipPath_aA7yJIHmwGk6aPGg12kPFuY8Rpf85pTZ"><rect x="60.102" y="707.502" width="823.997" height="1280.997"/></clipPath></defs><g clip-path="url(#_clipPath_aA7yJIHmwGk6aPGg12kPFuY8Rpf85pTZ)"><g><g><g><g><path d="M 102.454 708.5 L 842.746 708.5 C 865.57 708.5 884.1 727.03 884.1 749.854 L 884.1 1947.146 C 884.1 1969.97 865.57 1988.5 842.746 1988.5 L 102.454 1988.5 C 79.63 1988.5 61.1 1969.97 61.1 1947.146 L 61.1 749.854 C 61.1 727.03 79.63 708.5 102.454 708.5 Z" style="stroke:none;fill:#FFFFFF;stroke-miterlimit:10;"/><path d="M 102.454 708.5 L 842.746 708.5 C 865.57 708.5 884.1 727.03 884.1 749.854 L 884.1 1947.146 C 884.1 1969.97 865.57 1988.5 842.746 1988.5 L 102.454 1988.5 C 79.63 1988.5 61.1 1969.97 61.1 1947.146 L 61.1 749.854 C 61.1 727.03 79.63 708.5 102.454 708.5 Z" style="fill:none;stroke:#000000;stroke-width:0.99673343;stroke-miterlimit:2;"/><g><path d=" M 126.357 898.366 L 126.357 886.818 L 135.887 886.818 L 135.887 867.787 L 88.235 867.787 L 88.235 854.359 L 139.795 767.75 L 148.221 767.782 L 148.221 854.359 L 162.796 854.359 L 162.796 867.787 L 148.221 867.787 L 147.94 886.818 L 155.929 886.818 L 155.929 898.366 L 126.357 898.366 Z  M 135.887 799.447 L 103.151 854.359 L 135.887 854.359 L 135.887 799.447 Z " fill="rgb(212,0,0)"/><path d=" M 817.843 1797.633 L 817.843 1809.181 L 808.313 1809.181 L 808.313 1828.213 L 855.965 1828.213 L 855.965 1841.64 L 804.405 1928.25 L 795.98 1928.218 L 795.98 1841.64 L 781.404 1841.64 L 781.404 1828.213 L 795.98 1828.213 L 796.26 1809.181 L 788.271 1809.181 L 788.271 1797.633 L 817.843 1797.633 Z  M 808.313 1896.553 L 841.049 1841.64 L 808.313 1841.64 L 808.313 1896.553 Z " fill="rgb(212,0,0)"/></g></g></g><path d=" M 92.882 958.387 C 87.046 944.133 86.405 919.777 103.836 916.482 C 116.969 914.6 122.313 921.401 123.376 931.843 C 123.9 934.893 125.447 935.08 125.937 931.603 C 126.691 920.892 136.213 914.639 143.658 916.21 C 164.033 920.09 162.843 945.062 156.187 962.004 C 146.119 984.497 135.539 998.693 125.789 1021.329 C 114.588 997.762 101.798 978.616 92.882 958.387 L 92.882 958.387 Z " fill="rgb(212,0,0)"/><path d=" M 226.496 814.995 C 252.835 813.048 266.566 838.096 269.246 857.837 C 270.844 860.973 271.718 860.089 272.331 857.664 C 273.619 832.318 293.991 811.604 312.859 814.437 C 343.562 814.881 362.223 852.923 356.977 885.121 C 350.567 924.453 331.539 948.138 317.13 972.53 C 300.83 997.786 278.888 1034.268 271.819 1051.826 C 271.819 1051.826 249.52 1014.041 220.509 969.604 C 201.11 939.889 185.584 907.69 184.138 879.969 C 182.487 848.296 194.164 819.905 226.496 814.995 L 226.496 814.995 Z " fill="rgb(212,0,0)"/><path d=" M 630.323 814.995 C 656.661 813.048 670.392 838.096 673.072 857.837 C 674.67 860.973 675.545 860.089 676.158 857.664 C 677.445 832.318 697.817 811.604 716.685 814.437 C 747.389 814.881 766.05 852.923 760.803 885.121 C 754.393 924.453 735.365 948.138 720.957 972.53 C 704.656 997.786 682.715 1034.268 675.645 1051.826 C 675.645 1051.826 653.347 1014.041 624.335 969.604 C 604.936 939.889 589.41 907.69 587.965 879.969 C 586.313 848.296 597.99 819.905 630.323 814.995 L 630.323 814.995 Z " fill="rgb(212,0,0)"/><path d=" M 226.496 1867.285 C 252.835 1869.233 266.566 1844.184 269.246 1824.443 C 270.844 1821.307 271.718 1822.191 272.331 1824.617 C 273.619 1849.962 293.991 1870.676 312.859 1867.844 C 343.562 1867.399 362.223 1829.357 356.977 1797.16 C 350.567 1757.827 331.539 1734.143 317.13 1709.75 C 300.83 1684.495 278.888 1648.013 271.819 1630.454 C 271.819 1630.454 249.52 1668.239 220.509 1712.676 C 201.11 1742.391 185.584 1774.59 184.138 1802.312 C 182.487 1833.984 194.164 1862.376 226.496 1867.285 L 226.496 1867.285 Z " fill="rgb(212,0,0)"/><path d=" M 630.323 1867.285 C 656.661 1869.233 670.392 1844.184 673.072 1824.443 C 674.67 1821.307 675.545 1822.191 676.158 1824.617 C 677.445 1849.962 697.817 1870.676 716.685 1867.844 C 747.389 1867.399 766.05 1829.357 760.803 1797.16 C 754.393 1757.827 735.365 1734.143 720.957 1709.75 C 704.656 1684.495 682.715 1648.013 675.645 1630.454 C 675.645 1630.454 653.347 1668.239 624.335 1712.676 C 604.936 1742.391 589.41 1774.59 587.965 1802.312 C 586.313 1833.984 597.99 1862.376 630.323 1867.285 L 630.323 1867.285 Z " fill="rgb(212,0,0)"/><path d=" M 783.121 1738.808 C 777.285 1753.062 776.644 1777.418 794.075 1780.713 C 807.208 1782.595 812.552 1775.794 813.615 1765.352 C 814.139 1762.302 815.685 1762.115 816.176 1765.591 C 816.93 1776.303 826.452 1782.556 833.896 1780.985 C 854.272 1777.104 853.082 1752.133 846.426 1735.191 C 836.358 1712.698 825.778 1698.502 816.028 1675.866 C 804.827 1699.433 792.037 1718.579 783.121 1738.808 L 783.121 1738.808 Z " fill="rgb(212,0,0)"/></g></g></g></svg>