<?xml version="1.0" encoding="UTF-8" standalone="no"?><!-- Generator: Gravit.io --><svg xmlns="http://www.w3.org/2000/svg" xmlns:xlink="http://www.w3.org/1999/xlink" style="isolation:isolate" viewBox="-14.898 743.502 823.997 1280.997" width="823.997pt" height="1280.997pt"><defs><clipPath id="_clipPath_whYvnp2mCTstE7ckaFI6wG7UQ49W2Wmn"><rect x="-14.898" y="743.502" width="823.997" height="1280.997"/></clipPath></defs><g clip-path="url(#_clipPath_whYvnp2mCTstE7ckaFI6wG7UQ49W2Wmn)"><g><g><g><g><g><path d="M 27.454 744.5 L 767.746 744.5 C 790.57 744.5 809.1 763.03 809.1 785.854 L 809.1 1983.146 C 809.1 2005.97 790.57 2024.5 767.746 2024.5 L 27.454 2024.5 C 4.63 2024.5 -13.9 2005.97 -13.9 1983.146 L -13.9 785.854 C -13.9 763.03 4.63 744.5 27.454 744.5 Z" style="stroke:none;fill:#FFFFFF;stroke-miterlimit:10;"/><path d="M 27.454 744.5 L 767.746 744.5 C 790.57 744.5 809.1 763.03 809.1 785.854 L 809.1 1983.146 C 809.1 2005.97 790.57 2024.5 767.746 2024.5 L 27.454 2024.5 C 4.63 2024.5 -13.9 2005.97 -13.9 1983.146 L -13.9 785.854 C -13.9 763.03 4.63 744.5 27.454 744.5 Z" style="fill:none;stroke:#000000;stroke-width:0.99673343;stroke-miterlimit:2;"/><g><path d=" M 51.357 934.366 L 51.357 922.818 L 60.887 922.818 L 60.887 903.787 L 13.235 903.787 L 13.235 890.359 L 64.795 803.75 L 73.221 803.782 L 73.221 890.359 L 87.796 890.359 L 87.796 903.787 L 73.221 903.787 L 72.94 922.818 L 80.929 922.818 L 80.929 934.366 L 51.357 934.366 Z  M 60.887 835.447 L 28.151 890.359 L 60.887 890.359 L 60.887 835.447 Z " fill="rgb(0,0,0)"/><path d=" M 742.843 1833.633 L 742.843 1845.181 L 733.313 1845.181 L 733.313 1864.213 L 780.965 1864.213 L 780.965 1877.64 L 729.405 1964.25 L 720.98 1964.218 L 720.98 1877.64 L 706.404 1877.64 L 706.404 1864.213 L 720.98 1864.213 L 721.26 1845.181 L 713.271 1845.181 L 713.271 1833.633 L 742.843 1833.633 Z  M 733.313 1932.553 L 766.049 1877.64 L 733.313 1877.64 L 733.313 1932.553 Z " fill="rgb(0,0,0)"/></g></g></g></g><path d=" M 188.03 1016.007 C 188.085 1007.692 182.18 1007.533 182.247 1013.602 C 181.752 1044.097 158.59 1059.113 141.763 1055.551 C 115.823 1050.06 107.543 1021.388 107.791 1004.503 C 108.555 952.384 155.674 913.952 198.192 847.137 C 229.346 907.444 280.766 954.811 283.81 1001.429 C 287.857 1063.407 217.415 1086.525 207.357 1014.289 C 206.708 1009.186 201.312 1006.895 201.731 1014.022 C 203.259 1033.819 201.086 1042.065 221.144 1090.866 L 168.712 1090.866 C 180.324 1068.063 187.239 1040.068 188.03 1016.007 L 188.03 1016.007 Z " fill="rgb(0,0,0)"/><path d=" M 599.23 1016.007 C 599.285 1007.692 593.38 1007.533 593.447 1013.602 C 592.952 1044.097 569.79 1059.113 552.963 1055.551 C 527.023 1050.06 518.743 1021.388 518.991 1004.503 C 519.755 952.384 566.874 913.952 609.392 847.137 C 640.546 907.444 691.966 954.811 695.01 1001.429 C 699.057 1063.407 628.615 1086.525 618.557 1014.289 C 617.908 1009.186 612.512 1006.895 612.931 1014.022 C 614.459 1033.819 612.286 1042.065 632.344 1090.866 L 579.912 1090.866 C 591.524 1068.063 598.439 1040.068 599.23 1016.007 L 599.23 1016.007 Z " fill="rgb(0,0,0)"/><path d=" M 188.07 1738.378 C 188.125 1746.694 182.22 1746.853 182.287 1740.783 C 181.792 1710.288 158.63 1695.272 141.803 1698.834 C 115.863 1704.325 107.583 1732.997 107.83 1749.882 C 108.594 1802.001 155.714 1840.433 198.232 1907.248 C 229.386 1846.941 280.806 1799.574 283.85 1752.956 C 287.897 1690.978 217.455 1667.86 207.397 1740.096 C 206.748 1745.199 201.352 1747.49 201.771 1740.363 C 203.299 1720.566 201.126 1712.32 221.184 1663.519 L 168.752 1663.519 C 180.364 1686.322 187.279 1714.317 188.07 1738.378 L 188.07 1738.378 Z " fill="rgb(0,0,0)"/><path d=" M 599.27 1738.378 C 599.325 1746.694 593.42 1746.853 593.487 1740.783 C 592.991 1710.288 569.83 1695.272 553.003 1698.834 C 527.063 1704.325 518.783 1732.997 519.03 1749.882 C 519.794 1802.001 566.914 1840.433 609.432 1907.248 C 640.586 1846.941 692.006 1799.574 695.05 1752.956 C 699.097 1690.978 628.655 1667.86 618.597 1740.096 C 617.948 1745.199 612.552 1747.49 612.971 1740.363 C 614.499 1720.566 612.326 1712.32 632.384 1663.519 L 579.952 1663.519 C 591.564 1686.322 598.479 1714.317 599.27 1738.378 L 599.27 1738.378 Z " fill="rgb(0,0,0)"/><path d=" M 48.281 1031.562 C 48.318 1027.985 44.98 1029.655 44.528 1030.781 C 40.24 1038.932 33.966 1040.829 27.761 1037.89 C 21.614 1034.979 18.16 1028.529 18.714 1019.327 C 19.858 1005.214 29.905 989.772 34.77 981.042 C 39.386 973.12 44.459 963.71 49.8 951.674 C 56.058 965.48 59.234 969.41 66.041 982.016 C 72.036 993.118 80.392 1003.991 81.037 1017.412 C 81.037 1027.612 77.181 1037.247 68.504 1039.002 C 63.596 1039.995 58.997 1037.189 55.587 1030.64 C 54.548 1028.971 52.457 1029.841 52.492 1032.126 C 53.101 1040.719 56.015 1048.477 62.924 1057.625 L 37.533 1057.625 C 42.731 1051.156 48.035 1042.421 48.281 1031.562 L 48.281 1031.562 Z " fill="rgb(0,0,0)"/><path d=" M 738.52 1737.633 C 738.557 1741.21 735.219 1739.54 734.768 1738.414 C 730.479 1730.263 724.206 1728.366 718 1731.305 C 711.853 1734.216 708.399 1740.666 708.953 1749.868 C 710.097 1763.981 720.144 1779.423 725.009 1788.153 C 729.625 1796.075 734.698 1805.485 740.039 1817.521 C 746.297 1803.715 749.473 1799.785 756.28 1787.179 C 762.275 1776.077 770.631 1765.204 771.276 1751.783 C 771.276 1741.583 767.42 1731.948 758.743 1730.193 C 753.835 1729.2 749.236 1732.006 745.826 1738.555 C 744.787 1740.224 742.697 1739.354 742.732 1737.069 C 743.34 1728.476 746.254 1720.718 753.163 1711.57 L 727.772 1711.57 C 732.971 1718.039 738.275 1726.774 738.52 1737.633 L 738.52 1737.633 Z " fill="rgb(0,0,0)"/></g></g></g></svg>