<?xml version="1.0" encoding="UTF-8" standalone="no"?><!-- Generator: Gravit.io --><svg xmlns="http://www.w3.org/2000/svg" xmlns:xlink="http://www.w3.org/1999/xlink" style="isolation:isolate" viewBox="39.102 584.502 823.997 1280.997" width="823.997pt" height="1280.997pt"><defs><clipPath id="_clipPath_9gsg1b7I7q4CHAuV3Er7RHrwIOss5M0n"><rect x="39.102" y="584.502" width="823.997" height="1280.997"/></clipPath></defs><g clip-path="url(#_clipPath_9gsg1b7I7q4CHAuV3Er7RHrwIOss5M0n)"><g><g><g><g><g><path d="M 81.454 585.5 L 821.746 585.5 C 844.57 585.5 863.1 604.03 863.1 626.854 L 863.1 1824.146 C 863.1 1846.97 844.57 1865.5 821.746 1865.5 L 81.454 1865.5 C 58.63 1865.5 40.1 1846.97 40.1 1824.146 L 40.1 626.854 C 40.1 604.03 58.63 585.5 81.454 585.5 Z" style="stroke:none;fill:#FFFFFF;stroke-miterlimit:10;"/><path d="M 81.454 585.5 L 821.746 585.5 C 844.57 585.5 863.1 604.03 863.1 626.854 L 863.1 1824.146 C 863.1 1846.97 844.57 1865.5 821.746 1865.5 L 81.454 1865.5 C 58.63 1865.5 40.1 1846.97 40.1 1824.146 L 40.1 626.854 C 40.1 604.03 58.63 585.5 81.454 585.5 Z" style="fill:none;stroke:#000000;stroke-width:0.99673343;stroke-miterlimit:2;"/></g></g><g><path d=" M 70.036 739.094 L 81.908 738.978 C 84.165 746.959 89.178 755.095 95.98 757.342 C 115.195 762.366 127.566 750.415 131.641 736.625 C 136.582 719.903 131.529 696.414 118.304 688.072 C 107.333 681.152 91.04 686.988 83.566 701.777 L 75.244 696.113 L 79.711 641.016 L 134.019 641.016 L 134.019 654.036 L 90.007 654.036 L 89.317 676.988 C 98.774 669.59 113.348 669.662 122.813 674.854 C 140.748 684.373 149.078 706.023 145.587 731.547 C 140.756 756.929 130.112 771.311 106.074 773.377 C 79.364 773.634 69.929 753.189 70.036 739.095 L 70.036 739.094 Z " fill="rgb(0,0,0)"/><path d=" M 832.726 1710.905 L 820.854 1711.021 C 818.596 1703.041 813.583 1694.904 806.781 1692.658 C 787.566 1687.634 775.195 1699.584 771.12 1713.374 C 766.18 1730.096 771.232 1753.585 784.458 1761.928 C 795.428 1768.848 811.721 1763.011 819.195 1748.223 L 827.517 1753.887 L 823.051 1808.984 L 768.742 1808.984 L 768.742 1795.963 L 812.754 1795.963 L 813.445 1773.011 C 803.987 1780.409 789.414 1780.337 779.949 1775.146 C 762.013 1765.626 753.684 1743.977 757.174 1718.453 C 762.006 1693.07 772.649 1678.689 796.688 1676.622 C 823.397 1676.365 832.832 1696.811 832.726 1710.905 L 832.726 1710.905 Z " fill="rgb(0,0,0)"/><path d=" M 424.019 1342.388 C 434.633 1318.679 442.364 1294.355 443.736 1268.344 C 444.995 1258.772 439.774 1258.612 438.987 1265.353 C 423.958 1329.362 344.005 1312.029 346.754 1251.821 C 348.984 1202.992 392.542 1192.487 415.263 1208.453 C 424.235 1214.335 423.728 1210.812 418.832 1204.71 C 385.08 1162.792 405.522 1108.809 451.132 1107.821 C 500.46 1111.078 513.26 1168.863 483.002 1202.846 C 479.239 1206.929 470.896 1220.052 483.455 1210.877 C 514.007 1186.706 556.407 1212.695 555.542 1249.96 C 553.947 1318.674 478.713 1323.799 462.623 1266.404 C 461.075 1260.04 456.617 1256.845 457.849 1267.653 C 460.079 1287.22 464.693 1316.722 477.895 1342.388 L 424.019 1342.388 Z " fill="rgb(0,0,0)"/><path d=" M 605.567 934.912 C 616.182 911.203 623.912 886.878 625.285 860.867 C 626.544 851.296 621.323 851.135 620.536 857.876 C 605.507 921.886 525.554 904.553 528.303 844.344 C 530.533 795.516 574.091 785.011 596.812 800.976 C 605.784 806.858 605.277 803.335 600.38 797.233 C 566.628 755.315 587.071 701.332 632.681 700.344 C 682.009 703.601 694.808 761.386 664.551 795.369 C 660.788 799.452 652.445 812.575 665.004 803.4 C 695.556 779.229 737.956 805.218 737.091 842.483 C 735.496 911.197 660.261 916.322 644.172 858.927 C 642.624 852.564 638.166 849.368 639.397 860.176 C 641.628 879.743 646.242 909.246 659.444 934.912 L 605.567 934.912 Z " fill="rgb(0,0,0)"/><path d=" M 241.748 934.912 C 252.363 911.203 260.094 886.878 261.466 860.867 C 262.725 851.296 257.504 851.135 256.717 857.876 C 241.688 921.886 161.735 904.553 164.484 844.344 C 166.714 795.516 210.272 785.011 232.993 800.976 C 241.965 806.858 241.458 803.335 236.561 797.233 C 202.809 755.315 223.252 701.332 268.862 700.344 C 318.19 703.601 330.989 761.386 300.732 795.369 C 296.969 799.452 288.626 812.575 301.185 803.4 C 331.737 779.229 374.137 805.218 373.272 842.483 C 371.677 911.197 296.442 916.322 280.353 858.927 C 278.805 852.564 274.347 849.368 275.578 860.176 C 277.809 879.743 282.423 909.246 295.625 934.912 L 241.748 934.912 Z " fill="rgb(0,0,0)"/><path d=" M 659.771 1507.608 C 649.156 1531.317 641.426 1555.641 640.053 1581.652 C 638.794 1591.224 644.015 1591.384 644.802 1584.643 C 659.831 1520.634 739.784 1537.967 737.036 1598.175 C 734.805 1647.004 691.247 1657.509 668.526 1641.543 C 659.554 1635.661 660.061 1639.184 664.958 1645.286 C 698.71 1687.205 678.267 1741.187 632.657 1742.175 C 583.329 1738.918 570.53 1681.134 600.787 1647.15 C 604.55 1643.067 612.893 1629.945 600.334 1639.12 C 569.782 1663.29 527.382 1637.302 528.247 1600.037 C 529.842 1531.323 605.077 1526.198 621.166 1583.593 C 622.714 1589.956 627.172 1593.152 625.941 1582.343 C 623.71 1562.776 619.096 1533.274 605.894 1507.608 L 659.771 1507.608 Z " fill="rgb(0,0,0)"/><path d=" M 295.952 1507.608 C 285.337 1531.317 277.607 1555.641 276.234 1581.652 C 274.975 1591.224 280.196 1591.384 280.983 1584.643 C 296.012 1520.634 375.965 1537.967 373.217 1598.175 C 370.986 1647.004 327.428 1657.509 304.707 1641.543 C 295.735 1635.661 296.242 1639.184 301.139 1645.286 C 334.891 1687.205 314.448 1741.187 268.838 1742.175 C 219.51 1738.918 206.711 1681.134 236.968 1647.15 C 240.731 1643.067 249.074 1629.945 236.515 1639.12 C 205.963 1663.29 163.563 1637.302 164.428 1600.037 C 166.023 1531.323 241.258 1526.198 257.347 1583.593 C 258.895 1589.956 263.353 1593.152 262.122 1582.343 C 259.891 1562.776 255.277 1533.274 242.075 1507.608 L 295.952 1507.608 Z " fill="rgb(0,0,0)"/><path d=" M 92.01 892.978 C 96.405 882.941 100.682 873.599 103.013 862.597 C 104.558 852.222 101.397 856.076 99.602 862.877 C 96.943 872.308 89.564 876.604 82.716 876.707 C 70.287 876.894 64.088 866.016 64.474 854.318 C 63.117 842.009 74.322 833.3 82.767 833.971 C 89.117 834.475 94.653 838.289 98.004 841.258 C 100.203 842.552 102.554 843.124 99.276 839.786 C 93.091 832.262 87.933 827.618 88.046 816.343 C 88.153 805.757 96.28 794.717 107.053 795.063 C 120.515 795.496 126.637 806.927 126.605 817.561 C 126.568 825.313 123.089 832.447 117.715 836.866 C 114.233 840.011 115.21 842.366 119.181 839.39 C 122.996 835.728 127.539 834.125 132.25 834.012 C 145.119 833.788 150.149 846.169 149.412 857.674 C 148.721 868.453 140.48 879.548 129.618 878.291 C 119.919 877.054 114.823 867.988 111.902 858.682 C 110.935 855.829 109.41 855.058 109.452 859.31 C 111.693 880.071 118.638 892.99 118.689 892.978 L 92.01 892.978 Z " fill="rgb(0,0,0)"/><path d=" M 810.19 1558.01 C 805.795 1568.047 801.517 1577.389 799.187 1588.391 C 797.642 1598.767 800.803 1594.912 802.598 1588.111 C 805.257 1578.68 812.636 1574.385 819.484 1574.282 C 831.912 1574.095 838.112 1584.972 837.726 1596.67 C 839.083 1608.98 827.878 1617.689 819.433 1617.018 C 813.083 1616.513 807.546 1612.699 804.196 1609.731 C 801.997 1608.437 799.646 1607.865 802.924 1611.203 C 809.109 1618.727 814.267 1623.371 814.154 1634.646 C 814.047 1645.232 805.92 1656.272 795.147 1655.925 C 781.685 1655.492 775.563 1644.061 775.595 1633.428 C 775.632 1625.676 779.111 1618.541 784.485 1614.123 C 787.966 1610.978 786.99 1608.623 783.019 1611.599 C 779.203 1615.261 774.661 1616.864 769.95 1616.976 C 757.081 1617.201 752.05 1604.819 752.787 1593.314 C 753.478 1582.535 761.72 1571.441 772.582 1572.697 C 782.281 1573.935 787.377 1583.001 790.297 1592.307 C 791.264 1595.16 792.79 1595.931 792.747 1591.678 C 790.507 1570.917 783.561 1557.999 783.511 1558.01 L 810.19 1558.01 Z " fill="rgb(0,0,0)"/></g></g></g></g></g></svg>