<?xml version="1.0" encoding="UTF-8" standalone="no"?><!-- Generator: Gravit.io --><svg xmlns="http://www.w3.org/2000/svg" xmlns:xlink="http://www.w3.org/1999/xlink" style="isolation:isolate" viewBox="51.102 731.502 823.997 1280.997" width="823.997pt" height="1280.997pt"><defs><clipPath id="_clipPath_F2FmkH41JkM0UjVp16DxSZRbsGXVBflA"><rect x="51.102" y="731.502" width="823.997" height="1280.997"/></clipPath></defs><g clip-path="url(#_clipPath_F2FmkH41JkM0UjVp16DxSZRbsGXVBflA)"><g><g><path d="M 93.454 732.5 L 833.746 732.5 C 856.57 732.5 875.1 751.03 875.1 773.854 L 875.1 1971.146 C 875.1 1993.97 856.57 2012.5 833.746 2012.5 L 93.454 2012.5 C 70.63 2012.5 52.1 1993.97 52.1 1971.146 L 52.1 773.854 C 52.1 751.03 70.63 732.5 93.454 732.5 Z" style="stroke:none;fill:#FFFFFF;stroke-miterlimit:10;"/><path d="M 93.454 732.5 L 833.746 732.5 C 856.57 732.5 875.1 751.03 875.1 773.854 L 875.1 1971.146 C 875.1 1993.97 856.57 2012.5 833.746 2012.5 L 93.454 2012.5 C 70.63 2012.5 52.1 1993.97 52.1 1971.146 L 52.1 773.854 C 52.1 751.03 70.63 732.5 93.454 732.5 Z" style="fill:none;stroke:#000000;stroke-width:0.99673343;stroke-miterlimit:2;"/><g><path d=" M 176.503 965.595 C 213.079 925.852 237.1 882.52 260.072 840.847 C 280.218 886.701 309.129 926.816 340.394 965.595 C 306.943 1004.054 281.017 1045.177 260.172 1088.409 C 237.065 1044.092 212.738 1003.962 176.503 965.595 Z " fill="rgb(212,0,0)"/><path d=" M 176.503 1772.859 C 213.079 1733.116 237.1 1689.784 260.072 1648.111 C 280.218 1693.965 309.129 1734.08 340.394 1772.859 C 306.943 1811.318 281.017 1852.441 260.173 1895.673 C 237.065 1851.356 212.738 1811.226 176.503 1772.859 Z " fill="rgb(212,0,0)"/><path d=" M 584.564 965.595 C 621.139 925.852 645.16 882.52 668.133 840.847 C 688.279 886.701 717.189 926.816 748.454 965.595 C 715.003 1004.054 689.078 1045.177 668.233 1088.409 C 645.126 1044.092 620.798 1003.962 584.564 965.595 Z " fill="rgb(212,0,0)"/><path d=" M 380.894 1373.072 C 417.47 1333.329 441.491 1289.996 464.463 1248.324 C 484.609 1294.177 513.52 1334.293 544.785 1373.072 C 511.334 1411.53 485.408 1452.654 464.563 1495.886 C 441.456 1451.569 417.129 1411.438 380.894 1373.072 Z " fill="rgb(212,0,0)"/><path d=" M 584.564 1772.859 C 621.139 1733.116 645.16 1689.784 668.133 1648.111 C 688.279 1693.965 717.189 1734.08 748.454 1772.859 C 715.003 1811.318 689.078 1852.441 668.233 1895.673 C 645.126 1851.356 620.798 1811.226 584.564 1772.859 Z " fill="rgb(212,0,0)"/><path d=" M 773.429 1754.368 C 788.412 1738.088 798.251 1720.337 807.662 1703.266 C 815.915 1722.049 827.758 1738.482 840.565 1754.368 C 826.862 1770.122 816.242 1786.968 807.703 1804.678 C 798.237 1786.524 788.272 1770.085 773.429 1754.368 L 773.429 1754.368 Z " fill="rgb(212,0,0)"/><path d=" M 85.073 991.413 C 100.056 975.133 109.896 957.382 119.306 940.311 C 127.559 959.095 139.402 975.528 152.21 991.413 C 138.506 1007.167 127.886 1024.013 119.347 1041.723 C 109.881 1023.569 99.916 1007.13 85.073 991.413 L 85.073 991.413 Z " fill="rgb(212,0,0)"/><path d=" M 81.755 886.094 L 93.627 885.978 C 95.884 893.959 100.897 902.096 107.699 904.342 C 126.914 909.366 139.285 897.415 143.36 883.626 C 148.301 866.903 143.248 843.415 130.023 835.072 C 119.052 828.152 102.759 833.988 95.285 848.777 L 86.964 843.113 L 91.43 788.016 L 145.738 788.016 L 145.738 801.036 L 101.726 801.036 L 101.036 823.988 C 110.493 816.591 125.067 816.663 134.532 821.854 C 152.467 831.373 160.797 853.023 157.306 878.547 C 152.475 903.93 141.831 918.311 117.793 920.378 C 91.083 920.634 81.648 900.189 81.755 886.095 L 81.755 886.094 Z " fill="rgb(212,0,0)"/><path d=" M 844.445 1857.905 L 832.573 1858.022 C 830.315 1850.041 825.302 1841.904 818.5 1839.658 C 799.285 1834.634 786.914 1846.584 782.84 1860.374 C 777.899 1877.096 782.952 1900.585 796.177 1908.928 C 807.147 1915.848 823.441 1910.012 830.914 1895.223 L 839.236 1900.887 L 834.77 1955.984 L 780.461 1955.984 L 780.461 1942.964 L 824.473 1942.964 L 825.164 1920.012 C 815.706 1927.409 801.133 1927.337 791.668 1922.146 C 773.732 1912.627 765.403 1890.977 768.893 1865.453 C 773.725 1840.07 784.368 1825.689 808.407 1823.622 C 835.116 1823.365 844.551 1843.811 844.445 1857.905 L 844.445 1857.905 Z " fill="rgb(212,0,0)"/></g></g></g></g></svg>