<?xml version="1.0" encoding="UTF-8" standalone="no"?><!-- Generator: Gravit.io --><svg xmlns="http://www.w3.org/2000/svg" xmlns:xlink="http://www.w3.org/1999/xlink" style="isolation:isolate" viewBox="15.102 686.502 823.997 1280.997" width="823.997pt" height="1280.997pt"><defs><clipPath id="_clipPath_yNS2QWM6cqJGPJQswekvd4ORA6AIfRgU"><rect x="15.102" y="686.502" width="823.997" height="1280.997"/></clipPath></defs><g clip-path="url(#_clipPath_yNS2QWM6cqJGPJQswekvd4ORA6AIfRgU)"><g><g><g><g><path d="M 57.454 687.5 L 797.746 687.5 C 820.57 687.5 839.1 706.03 839.1 728.854 L 839.1 1926.146 C 839.1 1948.97 820.57 1967.5 797.746 1967.5 L 57.454 1967.5 C 34.63 1967.5 16.1 1948.97 16.1 1926.146 L 16.1 728.854 C 16.1 706.03 34.63 687.5 57.454 687.5 Z" style="stroke:none;fill:#FFFFFF;stroke-miterlimit:10;"/><path d="M 57.454 687.5 L 797.746 687.5 C 820.57 687.5 839.1 706.03 839.1 728.854 L 839.1 1926.146 C 839.1 1948.97 820.57 1967.5 797.746 1967.5 L 57.454 1967.5 C 34.63 1967.5 16.1 1948.97 16.1 1926.146 L 16.1 728.854 C 16.1 706.03 34.63 687.5 57.454 687.5 Z" style="fill:none;stroke:#000000;stroke-width:0.99673343;stroke-miterlimit:2;"/><g><path d=" M 45.755 841.094 L 57.627 840.978 C 59.884 848.959 64.897 857.096 71.699 859.342 C 90.914 864.366 103.285 852.415 107.36 838.626 C 112.301 821.903 107.248 798.415 94.023 790.072 C 83.052 783.152 66.759 788.988 59.285 803.777 L 50.964 798.113 L 55.43 743.016 L 109.738 743.016 L 109.738 756.036 L 65.726 756.036 L 65.036 778.988 C 74.493 771.591 89.067 771.663 98.532 776.854 C 116.467 786.373 124.797 808.023 121.306 833.547 C 116.475 858.93 105.831 873.311 81.793 875.378 C 55.083 875.634 45.648 855.189 45.755 841.095 L 45.755 841.094 Z " fill="rgb(212,0,0)"/><path d=" M 808.445 1812.905 L 796.573 1813.022 C 794.315 1805.041 789.302 1796.904 782.5 1794.658 C 763.285 1789.634 750.914 1801.584 746.84 1815.374 C 741.899 1832.096 746.952 1855.585 760.177 1863.928 C 771.147 1870.848 787.441 1865.012 794.914 1850.223 L 803.236 1855.887 L 798.77 1910.984 L 744.461 1910.984 L 744.461 1897.964 L 788.473 1897.964 L 789.164 1875.012 C 779.706 1882.409 765.133 1882.337 755.668 1877.146 C 737.732 1867.627 729.403 1845.977 732.893 1820.453 C 737.725 1795.07 748.368 1780.689 772.407 1778.622 C 799.116 1778.365 808.551 1798.811 808.445 1812.905 L 808.445 1812.905 Z " fill="rgb(212,0,0)"/></g></g></g><path d=" M 50.667 935.754 C 44.831 921.5 44.191 897.145 61.621 893.85 C 74.754 891.968 80.098 898.769 81.161 909.21 C 81.685 912.26 83.232 912.447 83.723 908.971 C 84.476 898.259 93.998 892.006 101.443 893.577 C 121.818 897.458 120.629 922.429 113.973 939.371 C 103.904 961.865 93.324 976.061 83.575 998.697 C 72.374 975.13 59.584 955.983 50.667 935.754 L 50.667 935.754 Z " fill="rgb(212,0,0)"/><path d=" M 178.023 801.621 C 204.362 799.674 218.093 824.722 220.773 844.464 C 222.371 847.599 223.245 846.716 223.858 844.29 C 225.146 818.945 245.518 798.231 264.386 801.063 C 295.09 801.508 313.75 839.55 308.504 871.747 C 302.094 911.08 283.066 934.764 268.657 959.156 C 252.357 984.412 230.415 1020.894 223.346 1038.453 C 223.346 1038.453 201.047 1000.668 172.036 956.23 C 152.637 926.516 137.111 894.317 135.665 866.595 C 134.014 834.923 145.691 806.531 178.023 801.622 L 178.023 801.621 Z " fill="rgb(212,0,0)"/><path d=" M 586.084 801.621 C 612.423 799.674 626.154 824.722 628.833 844.464 C 630.431 847.599 631.306 846.716 631.919 844.29 C 633.207 818.945 653.578 798.231 672.446 801.063 C 703.15 801.508 721.811 839.55 716.564 871.747 C 710.155 911.08 691.126 934.764 676.718 959.156 C 660.418 984.412 638.476 1020.894 631.407 1038.453 C 631.407 1038.453 609.108 1000.668 580.097 956.23 C 560.697 926.516 545.171 894.317 543.726 866.595 C 542.075 834.923 553.752 806.531 586.084 801.622 L 586.084 801.621 Z " fill="rgb(212,0,0)"/><path d=" M 382.675 1208.993 C 409.013 1207.046 422.744 1232.094 425.424 1251.835 C 427.022 1254.971 427.897 1254.088 428.51 1251.662 C 429.797 1226.317 450.169 1205.602 469.037 1208.435 C 499.741 1208.879 518.402 1246.921 513.155 1279.119 C 506.745 1318.452 487.717 1342.136 473.309 1366.528 C 457.008 1391.784 435.067 1428.266 427.997 1445.825 C 427.997 1445.825 405.699 1408.04 376.687 1363.602 C 357.288 1333.888 341.762 1301.688 340.317 1273.967 C 338.665 1242.294 350.342 1213.903 382.675 1208.994 L 382.675 1208.993 Z " fill="rgb(212,0,0)"/><path d=" M 178.023 1844.899 C 204.362 1846.846 218.093 1821.798 220.773 1802.056 C 222.371 1798.921 223.245 1799.804 223.858 1802.23 C 225.146 1827.575 245.518 1848.289 264.386 1845.457 C 295.09 1845.012 313.75 1806.97 308.504 1774.773 C 302.094 1735.44 283.066 1711.756 268.657 1687.364 C 252.357 1662.108 230.415 1625.626 223.346 1608.067 C 223.346 1608.067 201.047 1645.852 172.036 1690.29 C 152.637 1720.004 137.111 1752.203 135.665 1779.925 C 134.014 1811.597 145.691 1839.989 178.023 1844.898 L 178.023 1844.899 Z " fill="rgb(212,0,0)"/><path d=" M 586.084 1844.899 C 612.423 1846.846 626.154 1821.798 628.833 1802.056 C 630.431 1798.921 631.306 1799.804 631.919 1802.23 C 633.207 1827.575 653.578 1848.289 672.446 1845.457 C 703.15 1845.012 721.811 1806.97 716.564 1774.773 C 710.155 1735.44 691.126 1711.756 676.718 1687.364 C 660.418 1662.108 638.476 1625.626 631.407 1608.067 C 631.407 1608.067 609.108 1645.852 580.097 1690.29 C 560.697 1720.004 545.171 1752.203 543.726 1779.925 C 542.075 1811.597 553.752 1839.989 586.084 1844.898 L 586.084 1844.899 Z " fill="rgb(212,0,0)"/><path d=" M 739.023 1719.235 C 733.187 1733.489 732.546 1757.844 749.977 1761.139 C 763.109 1763.021 768.454 1756.22 769.516 1745.779 C 770.041 1742.728 771.587 1742.542 772.078 1746.018 C 772.832 1756.73 782.354 1762.982 789.798 1761.412 C 810.174 1757.531 808.984 1732.56 802.328 1715.618 C 792.26 1693.124 781.68 1678.928 771.93 1656.292 C 760.729 1679.859 747.939 1699.005 739.023 1719.234 L 739.023 1719.235 Z " fill="rgb(212,0,0)"/></g></g></g></svg>