<?xml version="1.0" encoding="UTF-8" standalone="no"?><!-- Generator: Gravit.io --><svg xmlns="http://www.w3.org/2000/svg" xmlns:xlink="http://www.w3.org/1999/xlink" style="isolation:isolate" viewBox="81.102 875.502 823.997 1280.997" width="823.997pt" height="1280.997pt"><defs><clipPath id="_clipPath_DanqMPB7XCl6Ga2jjyalySnhQm55W9cW"><rect x="81.102" y="875.502" width="823.997" height="1280.997"/></clipPath></defs><g clip-path="url(#_clipPath_DanqMPB7XCl6Ga2jjyalySnhQm55W9cW)"><g><g><g><g><path d="M 123.454 876.5 L 863.746 876.5 C 886.57 876.5 905.1 895.03 905.1 917.854 L 905.1 2115.146 C 905.1 2137.97 886.57 2156.5 863.746 2156.5 L 123.454 2156.5 C 100.63 2156.5 82.1 2137.97 82.1 2115.146 L 82.1 917.854 C 82.1 895.03 100.63 876.5 123.454 876.5 Z" style="stroke:none;fill:#FFFFFF;stroke-miterlimit:10;"/><path d="M 123.454 876.5 L 863.746 876.5 C 886.57 876.5 905.1 895.03 905.1 917.854 L 905.1 2115.146 C 905.1 2137.97 886.57 2156.5 863.746 2156.5 L 123.454 2156.5 C 100.63 2156.5 82.1 2137.97 82.1 2115.146 L 82.1 917.854 C 82.1 895.03 100.63 876.5 123.454 876.5 Z" style="fill:none;stroke:#000000;stroke-width:0.99673343;stroke-miterlimit:2;"/><g><path d=" M 111.755 1030.094 L 123.627 1029.978 C 125.884 1037.959 130.897 1046.096 137.699 1048.342 C 156.914 1053.366 169.285 1041.415 173.36 1027.626 C 178.301 1010.903 173.248 987.415 160.023 979.072 C 149.052 972.152 132.759 977.988 125.285 992.777 L 116.964 987.113 L 121.43 932.016 L 175.738 932.016 L 175.738 945.036 L 131.726 945.036 L 131.036 967.988 C 140.493 960.591 155.067 960.663 164.532 965.854 C 182.467 975.373 190.797 997.023 187.306 1022.547 C 182.475 1047.93 171.831 1062.311 147.793 1064.378 C 121.083 1064.634 111.648 1044.189 111.755 1030.095 L 111.755 1030.094 Z " fill="rgb(0,0,0)"/><path d=" M 874.445 2001.905 L 862.573 2002.022 C 860.315 1994.041 855.302 1985.904 848.5 1983.658 C 829.285 1978.634 816.914 1990.584 812.84 2004.374 C 807.899 2021.096 812.952 2044.585 826.177 2052.928 C 837.147 2059.848 853.441 2054.012 860.914 2039.223 L 869.236 2044.887 L 864.77 2099.984 L 810.461 2099.984 L 810.461 2086.964 L 854.473 2086.964 L 855.164 2064.012 C 845.706 2071.409 831.133 2071.337 821.668 2066.146 C 803.732 2056.627 795.403 2034.977 798.893 2009.453 C 803.725 1984.07 814.368 1969.689 838.407 1967.622 C 865.116 1967.365 874.551 1987.811 874.445 2001.905 L 874.445 2001.905 Z " fill="rgb(0,0,0)"/></g></g></g><path d=" M 280.557 1155.633 C 280.612 1147.318 274.707 1147.159 274.774 1153.229 C 274.278 1183.724 251.117 1198.739 234.29 1195.177 C 208.349 1189.686 200.07 1161.015 200.317 1144.129 C 201.081 1092.01 248.201 1053.578 290.719 986.764 C 321.873 1047.07 373.293 1094.438 376.337 1141.055 C 380.384 1203.033 309.942 1226.152 299.884 1153.915 C 299.235 1148.812 293.839 1146.521 294.258 1153.648 C 295.786 1173.445 293.613 1181.691 313.671 1230.492 L 261.239 1230.492 C 272.851 1207.689 279.766 1179.694 280.557 1155.634 L 280.557 1155.633 Z " fill="rgb(0,0,0)"/><path d=" M 688.617 1155.633 C 688.673 1147.318 682.767 1147.159 682.834 1153.229 C 682.339 1183.724 659.178 1198.739 642.351 1195.177 C 616.41 1189.686 608.131 1161.015 608.378 1144.129 C 609.142 1092.01 656.262 1053.578 698.779 986.764 C 729.933 1047.07 781.354 1094.438 784.398 1141.055 C 788.445 1203.033 718.002 1226.152 707.945 1153.915 C 707.296 1148.812 701.899 1146.521 702.318 1153.648 C 703.847 1173.445 701.673 1181.691 721.732 1230.492 L 669.299 1230.492 C 680.912 1207.689 687.827 1179.694 688.617 1155.634 L 688.617 1155.633 Z " fill="rgb(0,0,0)"/><path d=" M 484.948 1563.11 C 485.003 1554.795 479.098 1554.636 479.165 1560.706 C 478.67 1591.2 455.508 1606.216 438.681 1602.654 C 412.741 1597.163 404.461 1568.491 404.709 1551.606 C 405.472 1499.487 452.592 1461.055 495.11 1394.241 C 526.264 1454.547 577.684 1501.915 580.728 1548.532 C 584.775 1610.51 514.333 1633.628 504.275 1561.392 C 503.626 1556.289 498.23 1553.998 498.649 1561.125 C 500.177 1580.922 498.004 1589.168 518.062 1637.969 L 465.63 1637.969 C 477.242 1615.166 484.157 1587.171 484.948 1563.11 L 484.948 1563.11 Z " fill="rgb(0,0,0)"/><path d=" M 280.597 1868.991 C 280.652 1877.307 274.746 1877.466 274.813 1871.396 C 274.318 1840.901 251.157 1825.886 234.33 1829.448 C 208.389 1834.939 200.11 1863.61 200.357 1880.496 C 201.121 1932.615 248.241 1971.047 290.758 2037.861 C 321.912 1977.555 373.333 1930.187 376.377 1883.57 C 380.424 1821.591 309.982 1798.473 299.924 1870.71 C 299.275 1875.812 293.879 1878.103 294.297 1870.977 C 295.826 1851.18 293.653 1842.933 313.711 1794.132 L 261.278 1794.132 C 272.891 1816.935 279.806 1844.931 280.597 1868.991 L 280.597 1868.991 Z " fill="rgb(0,0,0)"/><path d=" M 688.657 1868.991 C 688.713 1877.307 682.807 1877.466 682.874 1871.396 C 682.379 1840.901 659.218 1825.886 642.391 1829.448 C 616.45 1834.939 608.171 1863.61 608.418 1880.496 C 609.182 1932.615 656.301 1971.047 698.819 2037.861 C 729.973 1977.555 781.393 1930.187 784.438 1883.57 C 788.485 1821.591 718.042 1798.473 707.985 1870.71 C 707.336 1875.812 701.939 1878.103 702.358 1870.977 C 703.886 1851.18 701.713 1842.933 721.772 1794.132 L 669.339 1794.132 C 680.951 1816.935 687.867 1844.931 688.657 1868.991 L 688.657 1868.991 Z " fill="rgb(0,0,0)"/><path d=" M 147.066 1161.93 C 147.103 1158.352 143.765 1160.022 143.313 1161.148 C 139.025 1169.299 132.752 1171.196 126.546 1168.258 C 120.399 1165.347 116.945 1158.897 117.499 1149.694 C 118.643 1135.581 128.69 1120.139 133.555 1111.409 C 138.171 1103.487 143.244 1094.077 148.585 1082.041 C 154.843 1095.848 158.019 1099.778 164.826 1112.384 C 170.821 1123.486 179.177 1134.358 179.822 1147.779 C 179.822 1157.98 175.966 1167.614 167.29 1169.369 C 162.381 1170.362 157.782 1167.557 154.372 1161.008 C 153.333 1159.339 151.242 1160.209 151.277 1162.493 C 151.886 1171.087 154.8 1178.845 161.709 1187.993 L 136.318 1187.993 C 141.517 1181.523 146.82 1172.789 147.066 1161.93 L 147.066 1161.93 Z " fill="rgb(0,0,0)"/><path d=" M 835.422 1871.059 C 835.459 1874.637 832.121 1872.967 831.67 1871.84 C 827.381 1863.689 821.108 1861.793 814.902 1864.731 C 808.755 1867.642 805.301 1874.092 805.855 1883.295 C 806.999 1897.407 817.046 1912.849 821.911 1921.58 C 826.527 1929.502 831.6 1938.912 836.941 1950.948 C 843.199 1937.141 846.374 1933.211 853.182 1920.605 C 859.177 1909.503 867.533 1898.631 868.178 1885.21 C 868.178 1875.009 864.322 1865.375 855.645 1863.62 C 850.737 1862.627 846.138 1865.432 842.727 1871.981 C 841.688 1873.65 839.598 1872.78 839.633 1870.496 C 840.242 1861.902 843.155 1854.144 850.065 1844.996 L 824.674 1844.996 C 829.873 1851.466 835.176 1860.2 835.422 1871.059 L 835.422 1871.059 Z " fill="rgb(0,0,0)"/></g></g></g></svg>