<?xml version="1.0" encoding="UTF-8" standalone="no"?><!-- Generator: Gravit.io --><svg xmlns="http://www.w3.org/2000/svg" xmlns:xlink="http://www.w3.org/1999/xlink" style="isolation:isolate" viewBox="60.102 527.502 823.997 1280.997" width="823.997pt" height="1280.997pt"><defs><clipPath id="_clipPath_Su0U8E3b1W2AxIYPrAs4qvQ1njL27Tym"><rect x="60.102" y="527.502" width="823.997" height="1280.997"/></clipPath></defs><g clip-path="url(#_clipPath_Su0U8E3b1W2AxIYPrAs4qvQ1njL27Tym)"><g><g><g><g><path d="M 102.454 528.5 L 842.746 528.5 C 865.57 528.5 884.1 547.03 884.1 569.854 L 884.1 1767.146 C 884.1 1789.97 865.57 1808.5 842.746 1808.5 L 102.454 1808.5 C 79.63 1808.5 61.1 1789.97 61.1 1767.146 L 61.1 569.854 C 61.1 547.03 79.63 528.5 102.454 528.5 Z" style="stroke:none;fill:#FFFFFF;stroke-miterlimit:10;"/><path d="M 102.454 528.5 L 842.746 528.5 C 865.57 528.5 884.1 547.03 884.1 569.854 L 884.1 1767.146 C 884.1 1789.97 865.57 1808.5 842.746 1808.5 L 102.454 1808.5 C 79.63 1808.5 61.1 1789.97 61.1 1767.146 L 61.1 569.854 C 61.1 547.03 79.63 528.5 102.454 528.5 Z" style="fill:none;stroke:#000000;stroke-width:0.99673343;stroke-miterlimit:2;"/></g></g><g><path d=" M 90.55 675.784 C 89.045 664.506 89.069 635.368 90.307 626.759 C 94.101 600.37 103.329 588.3 118.778 584.344 C 133.779 580.503 154.868 584.778 159.496 606.847 L 146.937 607.106 C 140.154 592.191 122.99 596.177 113.329 602.664 C 105.612 607.845 102.126 629.427 103.618 630.755 C 103.607 630.755 118.207 618.945 129.705 619.816 C 154.289 622.614 164.425 645.907 163.569 667.922 C 162.792 694.398 155.108 715.55 129.056 716.962 C 104.287 715.922 92.926 701.157 90.55 675.784 L 90.55 675.784 Z  M 151.642 668.785 C 151.779 650.413 144.144 636.671 129.707 635.154 C 115.271 633.637 100.716 649.037 101.724 667.759 C 102.735 686.546 109.387 702.372 126.891 702.284 C 145.716 702.19 151.545 681.856 151.642 668.785 L 151.642 668.785 Z " fill="rgb(0,0,0)"/><path d=" M 852.793 1660.216 C 854.298 1671.494 854.274 1700.632 853.036 1709.241 C 849.242 1735.63 840.014 1747.7 824.564 1751.656 C 809.564 1755.497 788.475 1751.222 783.847 1729.152 L 796.406 1728.894 C 803.189 1743.809 820.353 1739.822 830.014 1733.336 C 837.731 1728.155 841.216 1706.573 839.725 1705.244 C 839.736 1705.244 825.136 1717.055 813.638 1716.184 C 789.054 1713.385 778.918 1690.093 779.774 1668.078 C 780.551 1641.602 788.235 1620.449 814.287 1619.037 C 839.055 1620.078 850.417 1634.842 852.793 1660.216 L 852.793 1660.216 Z  M 791.701 1667.215 C 791.564 1685.587 799.199 1699.328 813.635 1700.846 C 828.072 1702.363 842.627 1686.963 841.619 1668.241 C 840.608 1649.454 833.956 1633.628 816.452 1633.716 C 797.626 1633.81 791.798 1654.144 791.701 1667.215 Z " fill="rgb(0,0,0)"/><path d=" M 628.566 1285.684 C 639.18 1261.975 646.911 1237.651 648.283 1211.64 C 649.543 1202.068 644.322 1201.908 643.534 1208.649 C 628.506 1272.658 548.552 1255.325 551.301 1195.117 C 553.532 1146.288 597.089 1135.783 619.811 1151.749 C 628.783 1157.631 628.276 1154.108 623.379 1148.006 C 589.627 1106.088 610.069 1052.105 655.68 1051.117 C 705.008 1054.374 717.807 1112.159 687.549 1146.142 C 683.787 1150.225 675.444 1163.348 688.003 1154.173 C 718.555 1130.002 760.955 1155.991 760.09 1193.256 C 758.495 1261.97 683.26 1267.095 667.171 1209.7 C 665.623 1203.336 661.164 1200.141 662.396 1210.949 C 664.626 1230.516 669.241 1260.018 682.443 1285.684 L 628.566 1285.684 Z " fill="rgb(0,0,0)"/><path d=" M 261.608 1285.684 C 272.222 1261.975 279.953 1237.651 281.325 1211.64 C 282.585 1202.068 277.363 1201.908 276.576 1208.649 C 261.547 1272.658 181.594 1255.325 184.343 1195.117 C 186.573 1146.288 230.131 1135.783 252.852 1151.749 C 261.824 1157.631 261.318 1154.108 256.421 1148.006 C 222.669 1106.088 243.111 1052.105 288.722 1051.117 C 338.05 1054.374 350.849 1112.159 320.591 1146.142 C 316.828 1150.225 308.485 1163.348 321.045 1154.173 C 351.596 1130.002 393.997 1155.991 393.132 1193.256 C 391.536 1261.97 316.302 1267.095 300.212 1209.7 C 298.665 1203.336 294.206 1200.141 295.438 1210.949 C 297.668 1230.516 302.282 1260.018 315.484 1285.684 L 261.608 1285.684 Z " fill="rgb(0,0,0)"/><path d=" M 628.566 879.721 C 639.18 856.012 646.911 831.688 648.283 805.677 C 649.543 796.105 644.322 795.945 643.534 802.686 C 628.506 866.695 548.552 849.362 551.301 789.154 C 553.532 740.325 597.089 729.82 619.811 745.786 C 628.783 751.667 628.276 748.145 623.379 742.043 C 589.627 700.124 610.069 646.142 655.68 645.154 C 705.008 648.411 717.807 706.195 687.549 740.179 C 683.787 744.262 675.444 757.384 688.003 748.21 C 718.555 724.039 760.955 750.027 760.09 787.293 C 758.495 856.007 683.26 861.131 667.171 803.737 C 665.623 797.373 661.164 794.177 662.396 804.986 C 664.626 824.553 669.241 854.055 682.443 879.721 L 628.566 879.721 Z " fill="rgb(0,0,0)"/><path d=" M 261.608 879.721 C 272.222 856.012 279.953 831.688 281.325 805.677 C 282.585 796.105 277.363 795.945 276.576 802.686 C 261.547 866.695 181.594 849.362 184.343 789.154 C 186.573 740.325 230.131 729.82 252.852 745.786 C 261.824 751.667 261.318 748.145 256.421 742.043 C 222.669 700.124 243.111 646.142 288.722 645.154 C 338.05 648.411 350.849 706.195 320.591 740.179 C 316.828 744.262 308.485 757.384 321.045 748.21 C 351.596 724.039 393.997 750.027 393.132 787.293 C 391.536 856.007 316.302 861.131 300.212 803.737 C 298.665 797.373 294.206 794.177 295.438 804.986 C 297.668 824.553 302.282 854.055 315.484 879.721 L 261.608 879.721 Z " fill="rgb(0,0,0)"/><path d=" M 682.769 1455.869 C 672.155 1479.578 664.424 1503.902 663.052 1529.913 C 661.793 1539.485 667.014 1539.645 667.801 1532.904 C 682.83 1468.895 762.783 1486.228 760.034 1546.436 C 757.804 1595.265 714.246 1605.77 691.525 1589.804 C 682.553 1583.923 683.06 1587.446 687.956 1593.547 C 721.708 1635.466 701.266 1689.448 655.656 1690.436 C 606.328 1687.179 593.528 1629.395 623.786 1595.411 C 627.549 1591.328 635.892 1578.206 623.333 1587.381 C 592.781 1611.551 550.381 1585.563 551.246 1548.298 C 552.841 1479.584 628.075 1474.459 644.165 1531.854 C 645.713 1538.217 650.171 1541.413 648.939 1530.605 C 646.709 1511.037 642.095 1481.535 628.893 1455.869 L 682.769 1455.869 Z " fill="rgb(0,0,0)"/><path d=" M 315.811 1455.869 C 305.197 1479.578 297.466 1503.902 296.094 1529.913 C 294.834 1539.485 300.056 1539.645 300.843 1532.904 C 315.872 1468.895 395.825 1486.228 393.076 1546.436 C 390.845 1595.265 347.288 1605.77 324.567 1589.804 C 315.594 1583.923 316.101 1587.446 320.998 1593.547 C 354.75 1635.466 334.308 1689.448 288.697 1690.436 C 239.369 1687.179 226.57 1629.395 256.828 1595.411 C 260.591 1591.328 268.933 1578.206 256.374 1587.381 C 225.822 1611.551 183.422 1585.563 184.287 1548.298 C 185.883 1479.584 261.117 1474.459 277.207 1531.854 C 278.754 1538.217 283.213 1541.413 281.981 1530.605 C 279.751 1511.037 275.136 1481.535 261.934 1455.869 L 315.811 1455.869 Z " fill="rgb(0,0,0)"/><path d=" M 109.125 830.957 C 113.52 820.92 117.797 811.578 120.128 800.576 C 121.673 790.2 118.512 794.055 116.717 800.856 C 114.058 810.287 106.679 814.582 99.831 814.685 C 87.403 814.872 81.203 803.995 81.589 792.297 C 80.232 779.988 91.437 771.278 99.882 771.949 C 106.232 772.454 111.768 776.268 115.119 779.236 C 117.318 780.531 119.669 781.102 116.391 777.765 C 110.206 770.24 105.048 765.597 105.161 754.322 C 105.268 743.736 113.395 732.696 124.168 733.042 C 137.63 733.475 143.752 744.906 143.72 755.54 C 143.683 763.291 140.204 770.426 134.83 774.844 C 131.349 777.989 132.325 780.344 136.296 777.368 C 140.112 773.707 144.654 772.103 149.365 771.991 C 162.234 771.766 167.264 784.148 166.528 795.653 C 165.837 806.432 157.595 817.527 146.733 816.27 C 137.034 815.032 131.938 805.967 129.018 796.661 C 128.051 793.807 126.525 793.037 126.568 797.289 C 128.808 818.05 135.754 830.969 135.804 830.957 L 109.125 830.957 Z " fill="rgb(0,0,0)"/><path d=" M 835.074 1495.989 C 830.679 1506.026 826.402 1515.368 824.072 1526.37 C 822.526 1536.745 825.688 1532.891 827.483 1526.09 C 830.142 1516.659 837.521 1512.363 844.368 1512.26 C 856.797 1512.073 862.997 1522.951 862.61 1534.649 C 863.968 1546.958 852.763 1555.667 844.318 1554.996 C 837.968 1554.492 832.431 1550.678 829.08 1547.709 C 826.882 1546.415 824.531 1545.843 827.809 1549.181 C 833.994 1556.705 839.152 1561.349 839.039 1572.624 C 838.932 1583.21 830.804 1594.25 820.032 1593.904 C 806.569 1593.471 800.448 1582.04 800.48 1571.406 C 800.516 1563.654 803.995 1556.52 809.37 1552.101 C 812.851 1548.956 811.875 1546.601 807.904 1549.577 C 804.088 1553.239 799.545 1554.842 794.835 1554.955 C 781.966 1555.179 776.935 1542.798 777.672 1531.292 C 778.363 1520.514 786.605 1509.419 797.467 1510.676 C 807.166 1511.913 812.262 1520.979 815.182 1530.285 C 816.149 1533.138 817.675 1533.909 817.632 1529.657 C 815.392 1508.896 808.446 1495.977 808.396 1495.989 L 835.074 1495.989 Z " fill="rgb(0,0,0)"/></g></g></g></g></svg>