<?xml version="1.0" encoding="UTF-8" standalone="no"?><!-- Generator: Gravit.io --><svg xmlns="http://www.w3.org/2000/svg" xmlns:xlink="http://www.w3.org/1999/xlink" style="isolation:isolate" viewBox="117.102 797.502 823.997 1280.997" width="823.997pt" height="1280.997pt"><defs><clipPath id="_clipPath_Zb8txQWFMUMUWE6jbq7Zt2UzSG30nSVL"><rect x="117.102" y="797.502" width="823.997" height="1280.997"/></clipPath></defs><g clip-path="url(#_clipPath_Zb8txQWFMUMUWE6jbq7Zt2UzSG30nSVL)"><g><g><path d="M 159.454 798.5 L 899.746 798.5 C 922.57 798.5 941.1 817.03 941.1 839.854 L 941.1 2037.146 C 941.1 2059.97 922.57 2078.5 899.746 2078.5 L 159.454 2078.5 C 136.63 2078.5 118.1 2059.97 118.1 2037.146 L 118.1 839.854 C 118.1 817.03 136.63 798.5 159.454 798.5 Z" style="stroke:none;fill:#FFFFFF;stroke-miterlimit:10;"/><path d="M 159.454 798.5 L 899.746 798.5 C 922.57 798.5 941.1 817.03 941.1 839.854 L 941.1 2037.146 C 941.1 2059.97 922.57 2078.5 899.746 2078.5 L 159.454 2078.5 C 136.63 2078.5 118.1 2059.97 118.1 2037.146 L 118.1 839.854 C 118.1 817.03 136.63 798.5 159.454 798.5 Z" style="fill:none;stroke:#000000;stroke-width:0.99673343;stroke-miterlimit:2;"/><g><path d=" M 242.072 1033.405 C 278.647 993.662 302.669 950.329 325.641 908.657 C 345.787 954.51 374.697 994.626 405.962 1033.405 C 372.511 1071.863 346.586 1112.986 325.741 1156.219 C 302.634 1111.902 278.306 1071.771 242.072 1033.405 Z " fill="rgb(212,0,0)"/><path d=" M 242.072 1439.368 C 278.647 1399.625 302.669 1356.293 325.641 1314.62 C 345.787 1360.473 374.697 1400.589 405.963 1439.368 C 372.511 1477.826 346.586 1518.95 325.741 1562.182 C 302.634 1517.865 278.307 1477.735 242.072 1439.368 L 242.072 1439.368 Z " fill="rgb(212,0,0)"/><path d=" M 242.072 1844.12 C 278.647 1804.377 302.669 1761.045 325.641 1719.372 C 345.787 1765.226 374.697 1805.341 405.963 1844.12 C 372.511 1882.579 346.586 1923.702 325.741 1966.934 C 302.634 1922.617 278.307 1882.487 242.072 1844.12 Z " fill="rgb(212,0,0)"/><path d=" M 653.272 1033.405 C 689.847 993.662 713.868 950.329 736.841 908.657 C 756.987 954.51 785.897 994.626 817.162 1033.405 C 783.711 1071.863 757.786 1112.986 736.941 1156.219 C 713.834 1111.902 689.506 1071.771 653.272 1033.405 Z " fill="rgb(212,0,0)"/><path d=" M 653.272 1439.368 C 689.847 1399.625 713.868 1356.293 736.841 1314.62 C 756.987 1360.473 785.897 1400.589 817.162 1439.368 C 783.711 1477.826 757.786 1518.95 736.941 1562.182 C 713.834 1517.865 689.506 1477.735 653.272 1439.368 L 653.272 1439.368 Z " fill="rgb(212,0,0)"/><path d=" M 653.272 1844.12 C 689.847 1804.377 713.868 1761.045 736.841 1719.372 C 756.987 1765.226 785.897 1805.341 817.162 1844.12 C 783.711 1882.579 757.786 1923.702 736.941 1966.934 C 713.834 1922.617 689.506 1882.487 653.272 1844.12 Z " fill="rgb(212,0,0)"/><path d=" M 844.023 1815.347 C 859.006 1799.066 868.846 1781.315 878.256 1764.244 C 886.509 1783.028 898.352 1799.461 911.159 1815.347 C 897.456 1831.101 886.836 1847.947 878.297 1865.656 C 868.831 1847.502 858.866 1831.063 844.023 1815.347 L 844.023 1815.347 Z " fill="rgb(212,0,0)"/><path d=" M 147.897 1052.392 C 162.88 1036.111 172.72 1018.361 182.131 1001.29 C 190.383 1020.073 202.226 1036.506 215.034 1052.392 C 201.331 1068.146 190.711 1084.992 182.172 1102.702 C 172.706 1084.547 162.741 1068.108 147.897 1052.392 L 147.897 1052.392 Z " fill="rgb(212,0,0)"/><path d=" M 147.979 945.784 C 146.473 934.506 146.497 905.368 147.735 896.759 C 151.529 870.37 160.757 858.3 176.207 854.344 C 191.207 850.503 212.297 854.778 216.924 876.848 L 204.365 877.106 C 197.582 862.191 180.418 866.178 170.757 872.664 C 163.04 877.845 159.555 899.427 161.046 900.756 C 161.035 900.756 175.635 888.945 187.133 889.816 C 211.718 892.615 221.853 915.907 220.997 937.922 C 220.22 964.398 212.536 985.55 186.484 986.962 C 161.716 985.922 150.355 971.158 147.979 945.784 L 147.979 945.784 Z  M 209.071 938.785 C 209.207 920.413 201.573 906.672 187.136 905.154 C 172.699 903.637 158.144 919.037 159.152 937.759 C 160.164 956.546 166.816 972.372 184.32 972.284 C 203.145 972.19 208.973 951.856 209.071 938.785 L 209.071 938.785 Z " fill="rgb(212,0,0)"/><path d=" M 910.221 1930.216 C 911.727 1941.494 911.702 1970.632 910.465 1979.241 C 906.67 2005.63 897.442 2017.7 881.993 2021.656 C 866.992 2025.497 845.903 2021.222 841.275 1999.152 L 853.834 1998.894 C 860.617 2013.809 877.781 2009.822 887.442 2003.336 C 895.159 1998.155 898.645 1976.573 897.153 1975.244 C 897.165 1975.244 882.565 1987.055 871.067 1986.184 C 846.482 1983.385 836.346 1960.093 837.203 1938.078 C 837.979 1911.602 845.664 1890.45 871.715 1889.038 C 896.484 1890.078 907.845 1904.842 910.221 1930.216 L 910.221 1930.216 Z  M 849.129 1937.215 C 848.992 1955.587 856.627 1969.328 871.064 1970.846 C 885.501 1972.363 900.055 1956.963 899.047 1938.241 C 898.036 1919.454 891.384 1903.628 873.88 1903.716 C 855.055 1903.81 849.226 1924.144 849.129 1937.215 Z " fill="rgb(212,0,0)"/></g></g></g></g></svg>