<?xml version="1.0" encoding="UTF-8" standalone="no"?><!-- Generator: Gravit.io --><svg xmlns="http://www.w3.org/2000/svg" xmlns:xlink="http://www.w3.org/1999/xlink" style="isolation:isolate" viewBox="-2.898 740.502 823.997 1280.997" width="823.997pt" height="1280.997pt"><defs><clipPath id="_clipPath_4ccyt7iHc40ffeWC4VjXWWmzJSd8fYcy"><rect x="-2.898" y="740.502" width="823.997" height="1280.997"/></clipPath></defs><g clip-path="url(#_clipPath_4ccyt7iHc40ffeWC4VjXWWmzJSd8fYcy)"><g><g><g><g><path d="M 39.454 741.5 L 779.746 741.5 C 802.57 741.5 821.1 760.03 821.1 782.854 L 821.1 1980.146 C 821.1 2002.97 802.57 2021.5 779.746 2021.5 L 39.454 2021.5 C 16.63 2021.5 -1.9 2002.97 -1.9 1980.146 L -1.9 782.854 C -1.9 760.03 16.63 741.5 39.454 741.5 Z" style="stroke:none;fill:#FFFFFF;stroke-miterlimit:10;"/><path d="M 39.454 741.5 L 779.746 741.5 C 802.57 741.5 821.1 760.03 821.1 782.854 L 821.1 1980.146 C 821.1 2002.97 802.57 2021.5 779.746 2021.5 L 39.454 2021.5 C 16.63 2021.5 -1.9 2002.97 -1.9 1980.146 L -1.9 782.854 C -1.9 760.03 16.63 741.5 39.454 741.5 Z" style="fill:none;stroke:#000000;stroke-width:0.99673343;stroke-miterlimit:2;"/><g><path d=" M 27.979 888.784 C 26.473 877.506 26.497 848.368 27.735 839.759 C 31.529 813.37 40.757 801.3 56.207 797.344 C 71.207 793.503 92.297 797.778 96.924 819.848 L 84.365 820.106 C 77.582 805.191 60.418 809.178 50.757 815.664 C 43.04 820.845 39.555 842.427 41.046 843.756 C 41.035 843.756 55.635 831.945 67.133 832.816 C 91.718 835.615 101.853 858.907 100.997 880.922 C 100.22 907.398 92.536 928.55 66.484 929.962 C 41.716 928.922 30.355 914.158 27.979 888.784 L 27.979 888.784 Z  M 89.071 881.785 C 89.207 863.413 81.573 849.672 67.136 848.154 C 52.699 846.637 38.144 862.037 39.152 880.759 C 40.164 899.546 46.816 915.372 64.32 915.284 C 83.145 915.19 88.973 894.856 89.071 881.785 L 89.071 881.785 Z " fill="rgb(212,0,0)"/><path d=" M 790.221 1873.216 C 791.727 1884.494 791.702 1913.632 790.465 1922.241 C 786.67 1948.63 777.442 1960.7 761.993 1964.656 C 746.992 1968.497 725.903 1964.222 721.275 1942.152 L 733.834 1941.894 C 740.617 1956.809 757.781 1952.822 767.442 1946.336 C 775.159 1941.155 778.645 1919.573 777.153 1918.244 C 777.165 1918.244 762.565 1930.055 751.067 1929.184 C 726.482 1926.385 716.346 1903.093 717.203 1881.078 C 717.979 1854.602 725.664 1833.45 751.715 1832.038 C 776.484 1833.078 787.845 1847.842 790.221 1873.216 L 790.221 1873.216 Z  M 729.129 1880.215 C 728.992 1898.587 736.627 1912.328 751.064 1913.846 C 765.501 1915.363 780.055 1899.963 779.047 1881.241 C 778.036 1862.454 771.384 1846.628 753.88 1846.716 C 735.055 1846.81 729.226 1867.144 729.129 1880.215 Z " fill="rgb(212,0,0)"/></g></g></g><path d=" M 29.492 984.733 C 23.656 970.479 23.015 946.123 40.446 942.828 C 53.579 940.946 58.923 947.747 59.986 958.189 C 60.51 961.239 62.056 961.426 62.547 957.95 C 63.301 947.238 72.823 940.985 80.267 942.556 C 100.643 946.437 99.453 971.408 92.797 988.35 C 82.729 1010.843 72.149 1025.039 62.399 1047.675 C 51.198 1024.108 38.408 1004.962 29.492 984.733 L 29.492 984.733 Z " fill="rgb(212,0,0)"/><path d=" M 159.592 857.431 C 185.931 855.484 199.662 880.532 202.341 900.273 C 203.939 903.409 204.814 902.525 205.427 900.1 C 206.715 874.754 227.086 854.04 245.954 856.873 C 276.658 857.317 295.319 895.359 290.072 927.556 C 283.663 966.889 264.634 990.573 250.226 1014.966 C 233.925 1040.222 211.984 1076.704 204.915 1094.262 C 204.915 1094.262 182.616 1056.477 153.605 1012.04 C 134.205 982.325 118.679 950.126 117.234 922.405 C 115.583 890.732 127.259 862.34 159.592 857.431 L 159.592 857.431 Z " fill="rgb(212,0,0)"/><path d=" M 570.792 857.431 C 597.131 855.484 610.862 880.532 613.541 900.273 C 615.139 903.409 616.014 902.525 616.627 900.1 C 617.915 874.754 638.286 854.04 657.154 856.873 C 687.858 857.317 706.519 895.359 701.272 927.556 C 694.863 966.889 675.834 990.573 661.426 1014.966 C 645.125 1040.222 623.184 1076.704 616.115 1094.262 C 616.115 1094.262 593.816 1056.477 564.805 1012.04 C 545.405 982.325 529.879 950.126 528.434 922.405 C 526.783 890.732 538.459 862.34 570.792 857.431 L 570.792 857.431 Z " fill="rgb(212,0,0)"/><path d=" M 570.792 1263.394 C 597.131 1261.447 610.862 1286.495 613.541 1306.237 C 615.139 1309.372 616.014 1308.489 616.627 1306.063 C 617.915 1280.718 638.286 1260.004 657.154 1262.836 C 687.858 1263.281 706.519 1301.322 701.272 1333.52 C 694.863 1372.853 675.834 1396.537 661.426 1420.929 C 645.125 1446.185 623.184 1482.667 616.115 1500.226 C 616.115 1500.226 593.816 1462.441 564.805 1418.003 C 545.405 1388.289 529.879 1356.09 528.434 1328.368 C 526.783 1296.695 538.459 1268.304 570.792 1263.395 L 570.792 1263.394 Z " fill="rgb(212,0,0)"/><path d=" M 159.592 1263.394 C 185.931 1261.447 199.662 1286.495 202.341 1306.237 C 203.939 1309.372 204.814 1308.489 205.427 1306.063 C 206.715 1280.718 227.086 1260.004 245.954 1262.836 C 276.658 1263.281 295.319 1301.322 290.072 1333.52 C 283.663 1372.853 264.634 1396.537 250.226 1420.929 C 233.925 1446.185 211.984 1482.667 204.915 1500.226 C 204.915 1500.226 182.616 1462.441 153.605 1418.003 C 134.205 1388.289 118.679 1356.09 117.234 1328.368 C 115.583 1296.695 127.259 1268.304 159.592 1263.395 L 159.592 1263.394 Z " fill="rgb(212,0,0)"/><path d=" M 159.592 1904.16 C 185.931 1906.107 199.662 1881.059 202.341 1861.318 C 203.939 1858.182 204.814 1859.065 205.427 1861.491 C 206.715 1886.836 227.086 1907.551 245.954 1904.718 C 276.658 1904.274 295.319 1866.232 290.072 1834.034 C 283.663 1794.701 264.634 1771.017 250.226 1746.625 C 233.925 1721.369 211.984 1684.887 204.915 1667.328 C 204.915 1667.328 182.616 1705.113 153.605 1749.551 C 134.205 1779.265 118.679 1811.465 117.234 1839.186 C 115.583 1870.859 127.259 1899.25 159.592 1904.16 L 159.592 1904.16 Z " fill="rgb(212,0,0)"/><path d=" M 570.792 1904.16 C 597.131 1906.107 610.862 1881.059 613.541 1861.318 C 615.139 1858.182 616.014 1859.065 616.627 1861.491 C 617.915 1886.836 638.286 1907.551 657.154 1904.718 C 687.858 1904.274 706.519 1866.232 701.272 1834.034 C 694.863 1794.701 675.834 1771.017 661.426 1746.625 C 645.125 1721.369 623.184 1684.887 616.115 1667.328 C 616.115 1667.328 593.816 1705.113 564.805 1749.551 C 545.405 1779.265 529.879 1811.465 528.434 1839.186 C 526.783 1870.859 538.459 1899.25 570.792 1904.16 L 570.792 1904.16 Z " fill="rgb(212,0,0)"/><path d=" M 725.617 1768.213 C 719.781 1782.467 719.141 1806.823 736.571 1810.117 C 749.704 1811.999 755.048 1805.198 756.111 1794.757 C 756.635 1791.707 758.182 1791.52 758.673 1794.996 C 759.426 1805.708 768.948 1811.961 776.393 1810.39 C 796.768 1806.509 795.579 1781.538 788.922 1764.596 C 778.854 1742.103 768.274 1727.907 758.525 1705.27 C 747.323 1728.838 734.534 1747.984 725.617 1768.213 L 725.617 1768.213 Z " fill="rgb(212,0,0)"/></g></g></g></svg>