<?xml version="1.0" encoding="UTF-8" standalone="no"?><!-- Generator: Gravit.io --><svg xmlns="http://www.w3.org/2000/svg" xmlns:xlink="http://www.w3.org/1999/xlink" style="isolation:isolate" viewBox="69.102 836.502 823.997 1280.997" width="823.997pt" height="1280.997pt"><defs><clipPath id="_clipPath_9QUctOwbt2hjggH9GcQsFe9FTaVzo6q8"><rect x="69.102" y="836.502" width="823.997" height="1280.997"/></clipPath></defs><g clip-path="url(#_clipPath_9QUctOwbt2hjggH9GcQsFe9FTaVzo6q8)"><g><g><g><g><path d="M 111.454 837.5 L 851.746 837.5 C 874.57 837.5 893.1 856.03 893.1 878.854 L 893.1 2076.146 C 893.1 2098.97 874.57 2117.5 851.746 2117.5 L 111.454 2117.5 C 88.63 2117.5 70.1 2098.97 70.1 2076.146 L 70.1 878.854 C 70.1 856.03 88.63 837.5 111.454 837.5 Z" style="stroke:none;fill:#FFFFFF;stroke-miterlimit:10;"/><path d="M 111.454 837.5 L 851.746 837.5 C 874.57 837.5 893.1 856.03 893.1 878.854 L 893.1 2076.146 C 893.1 2098.97 874.57 2117.5 851.746 2117.5 L 111.454 2117.5 C 88.63 2117.5 70.1 2098.97 70.1 2076.146 L 70.1 878.854 C 70.1 856.03 88.63 837.5 111.454 837.5 Z" style="fill:none;stroke:#000000;stroke-width:0.99673343;stroke-miterlimit:2;"/><g><path d=" M 99.979 984.784 C 98.473 973.506 98.497 944.368 99.735 935.759 C 103.529 909.37 112.757 897.3 128.207 893.344 C 143.207 889.503 164.297 893.778 168.924 915.848 L 156.365 916.106 C 149.582 901.191 132.418 905.178 122.757 911.664 C 115.04 916.845 111.555 938.427 113.046 939.756 C 113.035 939.756 127.635 927.945 139.133 928.816 C 163.718 931.615 173.853 954.907 172.997 976.922 C 172.22 1003.398 164.536 1024.55 138.484 1025.962 C 113.716 1024.922 102.355 1010.158 99.979 984.784 L 99.979 984.784 Z  M 161.071 977.785 C 161.207 959.413 153.573 945.672 139.136 944.154 C 124.699 942.637 110.144 958.037 111.152 976.759 C 112.164 995.546 118.816 1011.372 136.32 1011.284 C 155.145 1011.19 160.973 990.856 161.071 977.785 L 161.071 977.785 Z " fill="rgb(0,0,0)"/><path d=" M 862.221 1969.216 C 863.727 1980.494 863.702 2009.632 862.465 2018.241 C 858.67 2044.63 849.442 2056.7 833.993 2060.656 C 818.992 2064.497 797.903 2060.222 793.275 2038.152 L 805.834 2037.894 C 812.617 2052.809 829.781 2048.822 839.442 2042.336 C 847.159 2037.155 850.645 2015.573 849.153 2014.244 C 849.165 2014.244 834.565 2026.055 823.067 2025.184 C 798.482 2022.385 788.346 1999.093 789.203 1977.078 C 789.979 1950.602 797.664 1929.45 823.715 1928.038 C 848.484 1929.078 859.845 1943.842 862.221 1969.216 L 862.221 1969.216 Z  M 801.129 1976.215 C 800.992 1994.587 808.627 2008.328 823.064 2009.846 C 837.501 2011.363 852.055 1995.963 851.047 1977.241 C 850.036 1958.454 843.384 1942.628 825.88 1942.716 C 807.055 1942.81 801.226 1963.144 801.129 1976.215 Z " fill="rgb(0,0,0)"/></g></g></g><path d=" M 268.125 1118.443 C 268.181 1110.127 262.275 1109.968 262.342 1116.038 C 261.847 1146.533 238.686 1161.549 221.859 1157.987 C 195.918 1152.496 187.639 1123.824 187.886 1106.939 C 188.65 1054.82 235.77 1016.388 278.287 949.573 C 309.441 1009.88 360.861 1057.247 363.906 1103.865 C 367.953 1165.843 297.51 1188.961 287.453 1116.725 C 286.804 1111.622 281.407 1109.331 281.826 1116.458 C 283.354 1136.255 281.181 1144.501 301.24 1193.302 L 248.807 1193.302 C 260.42 1170.499 267.335 1142.504 268.125 1118.443 L 268.125 1118.443 Z " fill="rgb(0,0,0)"/><path d=" M 679.325 1118.443 C 679.381 1110.127 673.475 1109.968 673.542 1116.038 C 673.047 1146.533 649.886 1161.549 633.059 1157.987 C 607.118 1152.496 598.839 1123.824 599.086 1106.939 C 599.85 1054.82 646.97 1016.388 689.487 949.573 C 720.641 1009.88 772.061 1057.247 775.106 1103.865 C 779.153 1165.843 708.71 1188.961 698.653 1116.725 C 698.004 1111.622 692.607 1109.331 693.026 1116.458 C 694.554 1136.255 692.381 1144.501 712.44 1193.302 L 660.007 1193.302 C 671.62 1170.499 678.535 1142.504 679.325 1118.443 L 679.325 1118.443 Z " fill="rgb(0,0,0)"/><path d=" M 268.165 1430.5 C 268.22 1438.816 262.315 1438.975 262.382 1432.905 C 261.887 1402.41 238.726 1387.395 221.899 1390.956 C 195.958 1396.447 187.678 1425.119 187.926 1442.004 C 188.69 1494.123 235.809 1532.555 278.327 1599.37 C 309.481 1539.064 360.901 1491.696 363.946 1445.078 C 367.993 1383.1 297.55 1359.982 287.493 1432.218 C 286.844 1437.321 281.447 1439.612 281.866 1432.485 C 283.394 1412.688 281.221 1404.442 301.28 1355.641 L 248.847 1355.641 C 260.459 1378.444 267.375 1406.439 268.165 1430.5 L 268.165 1430.5 Z " fill="rgb(0,0,0)"/><path d=" M 679.365 1430.5 C 679.42 1438.816 673.515 1438.975 673.582 1432.905 C 673.087 1402.41 649.926 1387.395 633.099 1390.956 C 607.158 1396.447 598.878 1425.119 599.126 1442.004 C 599.89 1494.123 647.009 1532.555 689.527 1599.37 C 720.681 1539.064 772.101 1491.696 775.145 1445.078 C 779.193 1383.1 708.75 1359.982 698.693 1432.218 C 698.044 1437.321 692.647 1439.612 693.066 1432.485 C 694.594 1412.688 692.421 1404.442 712.48 1355.641 L 660.047 1355.641 C 671.659 1378.444 678.575 1406.439 679.365 1430.5 L 679.365 1430.5 Z " fill="rgb(0,0,0)"/><path d=" M 679.365 1835.252 C 679.42 1843.568 673.515 1843.727 673.582 1837.657 C 673.087 1807.162 649.926 1792.147 633.099 1795.709 C 607.158 1801.2 598.878 1829.871 599.126 1846.757 C 599.89 1898.876 647.009 1937.308 689.527 2004.122 C 720.681 1943.816 772.101 1896.448 775.145 1849.831 C 779.193 1787.852 708.75 1764.734 698.693 1836.971 C 698.044 1842.073 692.647 1844.364 693.066 1837.238 C 694.594 1817.441 692.421 1809.195 712.48 1760.393 L 660.047 1760.393 C 671.659 1783.196 678.575 1811.192 679.365 1835.252 L 679.365 1835.252 Z " fill="rgb(0,0,0)"/><path d=" M 268.165 1835.252 C 268.22 1843.568 262.315 1843.727 262.382 1837.657 C 261.887 1807.162 238.726 1792.147 221.899 1795.709 C 195.958 1801.2 187.678 1829.871 187.926 1846.757 C 188.69 1898.876 235.809 1937.308 278.327 2004.122 C 309.481 1943.816 360.901 1896.448 363.946 1849.831 C 367.993 1787.852 297.55 1764.734 287.493 1836.971 C 286.844 1842.073 281.447 1844.364 281.866 1837.238 C 283.394 1817.441 281.221 1809.195 301.28 1760.393 L 248.847 1760.393 C 260.459 1783.196 267.375 1811.192 268.165 1835.252 L 268.165 1835.252 Z " fill="rgb(0,0,0)"/><path d=" M 131.89 1117.908 C 131.927 1114.331 128.59 1116.001 128.138 1117.127 C 123.85 1125.278 117.576 1127.175 111.371 1124.236 C 105.224 1121.325 101.77 1114.875 102.324 1105.673 C 103.467 1091.56 113.515 1076.118 118.38 1067.388 C 122.996 1059.466 128.068 1050.056 133.41 1038.02 C 139.667 1051.826 142.843 1055.756 149.651 1068.363 C 155.646 1079.464 164.002 1090.337 164.647 1103.758 C 164.647 1113.959 160.791 1123.593 152.114 1125.348 C 147.205 1126.341 142.607 1123.535 139.196 1116.987 C 138.157 1115.318 136.067 1116.187 136.102 1118.472 C 136.711 1127.065 139.624 1134.823 146.534 1143.971 L 121.142 1143.971 C 126.341 1137.502 131.645 1128.768 131.89 1117.908 L 131.89 1117.908 Z " fill="rgb(0,0,0)"/><path d=" M 828.016 1827.038 C 828.053 1830.615 824.715 1828.945 824.264 1827.819 C 819.975 1819.668 813.702 1817.771 807.496 1820.71 C 801.349 1823.621 797.895 1830.07 798.449 1839.273 C 799.593 1853.386 809.64 1868.828 814.505 1877.558 C 819.121 1885.48 824.194 1894.89 829.535 1906.926 C 835.793 1893.12 838.969 1889.19 845.776 1876.583 C 851.771 1865.482 860.127 1854.609 860.772 1841.188 C 860.772 1830.987 856.916 1821.353 848.239 1819.598 C 843.331 1818.605 838.732 1821.411 835.322 1827.959 C 834.283 1829.628 832.193 1828.758 832.228 1826.474 C 832.836 1817.881 835.75 1810.122 842.659 1800.975 L 817.268 1800.975 C 822.467 1807.444 827.771 1816.178 828.016 1827.038 L 828.016 1827.038 Z " fill="rgb(0,0,0)"/></g></g></g></svg>