<?xml version="1.0" encoding="UTF-8" standalone="no"?><!-- Generator: Gravit.io --><svg xmlns="http://www.w3.org/2000/svg" xmlns:xlink="http://www.w3.org/1999/xlink" style="isolation:isolate" viewBox="45.105 719.505 823.99 1280.99" width="823.99pt" height="1280.99pt"><defs><clipPath id="_clipPath_UubNIMRVt6G7pj4MzDddzI1Z2xD88EkL"><rect x="45.105" y="719.505" width="823.99" height="1280.99"/></clipPath></defs><g clip-path="url(#_clipPath_UubNIMRVt6G7pj4MzDddzI1Z2xD88EkL)"><g><g><g><g><g><path d="M 87.454 720.5 L 827.746 720.5 C 850.57 720.5 869.1 739.03 869.1 761.854 L 869.1 1959.146 C 869.1 1981.97 850.57 2000.5 827.746 2000.5 L 87.454 2000.5 C 64.63 2000.5 46.1 1981.97 46.1 1959.146 L 46.1 761.854 C 46.1 739.03 64.63 720.5 87.454 720.5 Z" style="stroke:none;fill:#FFFFFF;stroke-miterlimit:10;"/><path d="M 87.454 720.5 L 827.746 720.5 C 850.57 720.5 869.1 739.03 869.1 761.854 L 869.1 1959.146 C 869.1 1981.97 850.57 2000.5 827.746 2000.5 L 87.454 2000.5 C 64.63 2000.5 46.1 1981.97 46.1 1959.146 L 46.1 761.854 C 46.1 739.03 64.63 720.5 87.454 720.5 Z" style="fill:none;stroke:#000000;stroke-width:0.99000001;stroke-miterlimit:2;"/></g></g><g><path d=" M 90.02 910.928 C 97.881 865.404 106.275 831.247 128.29 794.148 L 83.551 794.148 L 83.551 810.118 L 71.659 810.118 L 71.659 780.024 L 137.115 780.024 L 145.184 794.148 C 121.804 822.05 100.396 912.243 104.189 910.928 L 90.02 910.928 Z " fill="rgb(0,0,0)"/><path d=" M 822.013 1809.072 C 814.152 1854.596 805.757 1888.753 783.743 1925.852 L 828.481 1925.852 L 828.481 1909.882 L 840.374 1909.882 L 840.374 1939.976 L 774.917 1939.976 L 766.849 1925.852 C 790.229 1897.95 811.636 1807.757 807.844 1809.072 L 822.013 1809.072 Z " fill="rgb(0,0,0)"/><path d=" M 617.515 1077.65 C 628.129 1053.942 635.86 1029.617 637.232 1003.606 C 638.491 994.035 633.27 993.874 632.483 1000.615 C 617.454 1064.625 537.501 1047.292 540.25 987.083 C 542.48 938.254 586.038 927.75 608.759 943.715 C 617.731 949.597 617.224 946.074 612.328 939.972 C 578.576 898.054 599.018 844.071 644.628 843.083 C 693.956 846.34 706.756 904.125 676.498 938.108 C 672.735 942.191 664.392 955.314 676.951 946.139 C 707.503 921.968 749.903 947.957 749.038 985.222 C 747.443 1053.936 672.209 1059.061 656.119 1001.666 C 654.571 995.302 650.113 992.107 651.345 1002.915 C 653.575 1022.482 658.189 1051.984 671.391 1077.65 L 617.515 1077.65 Z " fill="rgb(0,0,0)"/><path d=" M 617.515 1489.175 C 628.129 1465.466 635.86 1441.142 637.232 1415.131 C 638.491 1405.559 633.27 1405.399 632.483 1412.14 C 617.454 1476.149 537.501 1458.816 540.25 1398.608 C 542.48 1349.779 586.038 1339.274 608.759 1355.24 C 617.731 1361.122 617.224 1357.599 612.328 1351.497 C 578.576 1309.579 599.018 1255.596 644.628 1254.608 C 693.956 1257.865 706.756 1315.65 676.498 1349.633 C 672.735 1353.716 664.392 1366.838 676.951 1357.664 C 707.503 1333.493 749.903 1359.481 749.038 1396.747 C 747.443 1465.461 672.209 1470.585 656.119 1413.191 C 654.571 1406.827 650.113 1403.632 651.345 1414.44 C 653.575 1434.007 658.189 1463.509 671.391 1489.175 L 617.515 1489.175 Z " fill="rgb(0,0,0)"/><path d=" M 243.183 1489.175 C 253.797 1465.466 261.528 1441.142 262.9 1415.131 C 264.159 1405.559 258.938 1405.399 258.151 1412.14 C 243.122 1476.149 163.169 1458.816 165.918 1398.608 C 168.148 1349.779 211.706 1339.274 234.427 1355.24 C 243.399 1361.122 242.893 1357.599 237.996 1351.497 C 204.244 1309.579 224.686 1255.596 270.297 1254.608 C 319.625 1257.865 332.424 1315.65 302.166 1349.633 C 298.403 1353.716 290.06 1366.838 302.62 1357.664 C 333.171 1333.493 375.572 1359.481 374.707 1396.747 C 373.111 1465.461 297.877 1470.585 281.787 1413.191 C 280.24 1406.827 275.781 1403.632 277.013 1414.44 C 279.243 1434.007 283.857 1463.509 297.059 1489.175 L 243.183 1489.175 Z " fill="rgb(0,0,0)"/><path d=" M 429.123 1283.413 C 439.737 1259.704 447.468 1235.38 448.84 1209.369 C 450.1 1199.797 444.878 1199.637 444.091 1206.378 C 429.062 1270.387 349.109 1253.054 351.858 1192.846 C 354.088 1144.017 397.646 1133.512 420.367 1149.478 C 429.34 1155.359 428.833 1151.836 423.936 1145.735 C 390.184 1103.816 410.626 1049.834 456.237 1048.846 C 505.565 1052.103 518.364 1109.887 488.106 1143.871 C 484.343 1147.954 476.001 1161.076 488.56 1151.901 C 519.111 1127.731 561.512 1153.719 560.647 1190.984 C 559.051 1259.698 483.817 1264.823 467.727 1207.428 C 466.18 1201.065 461.721 1197.869 462.953 1208.677 C 465.183 1228.245 469.797 1257.747 483 1283.413 L 429.123 1283.413 Z " fill="rgb(0,0,0)"/><path d=" M 243.183 1077.65 C 253.797 1053.942 261.528 1029.617 262.9 1003.606 C 264.159 994.035 258.938 993.874 258.151 1000.615 C 243.122 1064.625 163.169 1047.292 165.918 987.083 C 168.148 938.254 211.706 927.75 234.427 943.715 C 243.399 949.597 242.893 946.074 237.996 939.972 C 204.244 898.054 224.686 844.071 270.297 843.083 C 319.625 846.34 332.424 904.125 302.166 938.108 C 298.403 942.191 290.06 955.314 302.62 946.139 C 333.171 921.968 375.572 947.957 374.707 985.222 C 373.111 1053.936 297.877 1059.061 281.787 1001.666 C 280.24 995.302 275.781 992.107 277.013 1002.915 C 279.243 1022.482 283.857 1051.984 297.059 1077.65 L 243.183 1077.65 Z " fill="rgb(0,0,0)"/><path d=" M 671.718 1659.36 C 661.104 1683.069 653.373 1707.393 652.001 1733.404 C 650.741 1742.976 655.962 1743.136 656.75 1736.395 C 671.778 1672.386 751.732 1689.719 748.983 1749.928 C 746.752 1798.756 703.195 1809.261 680.473 1793.295 C 671.501 1787.414 672.008 1790.937 676.905 1797.038 C 710.657 1838.957 690.215 1892.939 644.604 1893.927 C 595.276 1890.67 582.477 1832.886 612.735 1798.902 C 616.497 1794.82 624.84 1781.697 612.281 1790.872 C 581.729 1815.042 539.329 1789.054 540.194 1751.789 C 541.789 1683.075 617.024 1677.95 633.113 1735.345 C 634.661 1741.708 639.12 1744.904 637.888 1734.096 C 635.658 1714.528 631.043 1685.026 617.841 1659.36 L 671.718 1659.36 Z " fill="rgb(0,0,0)"/><path d=" M 297.386 1659.36 C 286.772 1683.069 279.041 1707.393 277.669 1733.404 C 276.409 1742.976 281.631 1743.136 282.418 1736.395 C 297.447 1672.386 377.4 1689.719 374.651 1749.928 C 372.42 1798.756 328.863 1809.261 306.142 1793.295 C 297.169 1787.414 297.676 1790.937 302.573 1797.038 C 336.325 1838.957 315.883 1892.939 270.272 1893.927 C 220.944 1890.67 208.145 1832.886 238.403 1798.902 C 242.165 1794.82 250.508 1781.697 237.949 1790.872 C 207.397 1815.042 164.997 1789.054 165.862 1751.789 C 167.457 1683.075 242.692 1677.95 258.782 1735.345 C 260.329 1741.708 264.788 1744.904 263.556 1734.096 C 261.326 1714.528 256.711 1685.026 243.509 1659.36 L 297.386 1659.36 Z " fill="rgb(0,0,0)"/><path d=" M 94.125 1033.574 C 98.52 1023.537 102.798 1014.195 105.128 1003.193 C 106.673 992.817 103.512 996.672 101.717 1003.473 C 99.058 1012.904 91.679 1017.199 84.831 1017.302 C 72.403 1017.489 66.203 1006.612 66.589 994.914 C 65.232 982.605 76.437 973.895 84.882 974.566 C 91.232 975.071 96.769 978.885 100.119 981.853 C 102.318 983.148 104.669 983.719 101.391 980.382 C 95.206 972.857 90.048 968.214 90.161 956.938 C 90.268 946.353 98.396 935.313 109.168 935.659 C 122.63 936.092 128.752 947.523 128.72 958.157 C 128.683 965.908 125.204 973.043 119.83 977.461 C 116.349 980.606 117.325 982.961 121.296 979.985 C 125.112 976.324 129.654 974.72 134.365 974.608 C 147.234 974.383 152.265 986.765 151.528 998.27 C 150.837 1009.049 142.595 1020.143 131.733 1018.887 C 122.034 1017.649 116.938 1008.584 114.018 999.278 C 113.051 996.424 111.525 995.654 111.568 999.906 C 113.808 1020.667 120.754 1033.586 120.804 1033.574 L 94.125 1033.574 Z " fill="rgb(0,0,0)"/><path d=" M 820.074 1698.606 C 815.679 1708.643 811.402 1717.985 809.072 1728.986 C 807.526 1739.362 810.688 1735.507 812.483 1728.707 C 815.142 1719.276 822.521 1714.98 829.369 1714.877 C 841.797 1714.69 847.997 1725.568 847.61 1737.266 C 848.968 1749.575 837.763 1758.284 829.318 1757.613 C 822.968 1757.109 817.431 1753.295 814.08 1750.326 C 811.882 1749.032 809.531 1748.46 812.809 1751.798 C 818.994 1759.322 824.152 1763.966 824.039 1775.241 C 823.932 1785.827 815.804 1796.867 805.032 1796.521 C 791.57 1796.088 785.448 1784.657 785.48 1774.023 C 785.517 1766.271 788.995 1759.137 794.37 1754.718 C 797.851 1751.573 796.875 1749.218 792.904 1752.194 C 789.088 1755.856 784.545 1757.459 779.835 1757.572 C 766.966 1757.796 761.935 1745.415 762.672 1733.909 C 763.363 1723.131 771.605 1712.036 782.467 1713.293 C 792.166 1714.53 797.262 1723.596 800.182 1732.902 C 801.149 1735.755 802.675 1736.526 802.632 1732.274 C 800.392 1711.513 793.446 1698.594 793.396 1698.606 L 820.074 1698.606 Z " fill="rgb(0,0,0)"/></g></g></g></g></g></svg>