<?xml version="1.0" encoding="UTF-8" standalone="no"?><!-- Generator: Gravit.io --><svg xmlns="http://www.w3.org/2000/svg" xmlns:xlink="http://www.w3.org/1999/xlink" style="isolation:isolate" viewBox="117.105 890.505 823.99 1280.99" width="823.99pt" height="1280.99pt"><defs><clipPath id="_clipPath_JoHLNZCBOSRA0n1mmHQFwtgY6VQHD6q6"><rect x="117.105" y="890.505" width="823.99" height="1280.99"/></clipPath></defs><g clip-path="url(#_clipPath_JoHLNZCBOSRA0n1mmHQFwtgY6VQHD6q6)"><g><g><path d="M 159.454 891.5 L 899.746 891.5 C 922.57 891.5 941.1 910.03 941.1 932.854 L 941.1 2130.146 C 941.1 2152.97 922.57 2171.5 899.746 2171.5 L 159.454 2171.5 C 136.63 2171.5 118.1 2152.97 118.1 2130.146 L 118.1 932.854 C 118.1 910.03 136.63 891.5 159.454 891.5 Z" style="stroke:none;fill:#FFFFFF;stroke-miterlimit:10;"/><path d="M 159.454 891.5 L 899.746 891.5 C 922.57 891.5 941.1 910.03 941.1 932.854 L 941.1 2130.146 C 941.1 2152.97 922.57 2171.5 899.746 2171.5 L 159.454 2171.5 C 136.63 2171.5 118.1 2152.97 118.1 2130.146 L 118.1 932.854 C 118.1 910.03 136.63 891.5 159.454 891.5 Z" style="fill:none;stroke:#000000;stroke-width:0.99000001;stroke-miterlimit:2;"/><g><path d=" M 239.302 1132.334 C 275.877 1092.591 299.898 1049.259 322.871 1007.586 C 343.017 1053.439 371.927 1093.555 403.192 1132.334 C 369.741 1170.792 343.816 1211.916 322.971 1255.148 C 299.864 1210.831 275.536 1170.7 239.302 1132.334 Z " fill="rgb(212,0,0)"/><path d=" M 239.302 1543.859 C 275.877 1504.116 299.898 1460.784 322.871 1419.111 C 343.017 1464.964 371.927 1505.08 403.193 1543.859 C 369.741 1582.317 343.816 1623.441 322.971 1666.673 C 299.864 1622.356 275.536 1582.225 239.302 1543.859 Z " fill="rgb(212,0,0)"/><path d=" M 239.302 1948.611 C 275.877 1908.868 299.898 1865.536 322.871 1823.863 C 343.017 1869.717 371.927 1909.832 403.193 1948.611 C 369.741 1987.07 343.816 2028.193 322.971 2071.425 C 299.864 2027.108 275.536 1986.978 239.302 1948.611 L 239.302 1948.611 Z " fill="rgb(212,0,0)"/><path d=" M 447.363 1338.096 C 483.938 1298.354 507.959 1255.021 530.932 1213.348 C 551.078 1259.202 579.988 1299.317 611.253 1338.096 C 577.802 1376.555 551.877 1417.678 531.032 1460.91 C 507.924 1416.594 483.597 1376.463 447.363 1338.096 Z " fill="rgb(212,0,0)"/><path d=" M 650.502 1132.334 C 687.077 1092.591 711.098 1049.259 734.071 1007.586 C 754.217 1053.439 783.127 1093.555 814.392 1132.334 C 780.941 1170.792 755.016 1211.916 734.171 1255.148 C 711.064 1210.831 686.736 1170.7 650.502 1132.334 Z " fill="rgb(212,0,0)"/><path d=" M 650.502 1543.859 C 687.077 1504.116 711.098 1460.784 734.071 1419.111 C 754.217 1464.964 783.127 1505.08 814.392 1543.859 C 780.941 1582.317 755.016 1623.441 734.171 1666.673 C 711.064 1622.356 686.736 1582.225 650.502 1543.859 Z " fill="rgb(212,0,0)"/><path d=" M 650.502 1948.611 C 687.077 1908.868 711.098 1865.536 734.071 1823.863 C 754.217 1869.717 783.127 1909.832 814.392 1948.611 C 780.941 1987.07 755.016 2028.193 734.171 2071.425 C 711.064 2027.108 686.736 1986.978 650.502 1948.611 L 650.502 1948.611 Z " fill="rgb(212,0,0)"/><path d=" M 844.678 1918.963 C 859.661 1902.683 869.501 1884.932 878.911 1867.861 C 887.164 1886.645 899.007 1903.078 911.814 1918.963 C 898.111 1934.718 887.491 1951.563 878.952 1969.273 C 869.486 1951.119 859.521 1934.68 844.678 1918.963 Z " fill="rgb(212,0,0)"/><path d=" M 148.552 1156.009 C 163.535 1139.728 173.375 1121.977 182.786 1104.906 C 191.038 1123.69 202.882 1140.123 215.689 1156.009 C 201.986 1171.763 191.366 1188.609 182.827 1206.318 C 173.361 1188.164 163.396 1171.725 148.552 1156.009 L 148.552 1156.009 Z " fill="rgb(212,0,0)"/><path d=" M 163.104 1081.928 C 170.965 1036.404 179.359 1002.247 201.373 965.148 L 156.635 965.148 L 156.635 981.118 L 144.743 981.118 L 144.743 951.024 L 210.199 951.024 L 218.267 965.148 C 194.888 993.05 173.48 1083.243 177.273 1081.928 L 163.104 1081.928 Z " fill="rgb(212,0,0)"/><path d=" M 895.096 1980.072 C 887.235 2025.596 878.841 2059.753 856.826 2096.852 L 901.565 2096.852 L 901.565 2080.882 L 913.457 2080.882 L 913.457 2110.976 L 848.001 2110.976 L 839.932 2096.852 C 863.312 2068.95 884.72 1978.757 880.927 1980.072 L 895.096 1980.072 Z " fill="rgb(212,0,0)"/></g></g></g></g></svg>