<?xml version="1.0" encoding="UTF-8" standalone="no"?><!-- Generator: Gravit.io --><svg xmlns="http://www.w3.org/2000/svg" xmlns:xlink="http://www.w3.org/1999/xlink" style="isolation:isolate" viewBox="78.105 779.505 823.99 1280.99" width="823.99pt" height="1280.99pt"><defs><clipPath id="_clipPath_g1LdCXByqk7mSge68J7kgZQMwg1lLqpA"><rect x="78.105" y="779.505" width="823.99" height="1280.99"/></clipPath></defs><g clip-path="url(#_clipPath_g1LdCXByqk7mSge68J7kgZQMwg1lLqpA)"><g><g><g><g><path d="M 120.454 780.5 L 860.746 780.5 C 883.57 780.5 902.1 799.03 902.1 821.854 L 902.1 2019.146 C 902.1 2041.97 883.57 2060.5 860.746 2060.5 L 120.454 2060.5 C 97.63 2060.5 79.1 2041.97 79.1 2019.146 L 79.1 821.854 C 79.1 799.03 97.63 780.5 120.454 780.5 Z" style="stroke:none;fill:#FFFFFF;stroke-miterlimit:10;"/><path d="M 120.454 780.5 L 860.746 780.5 C 883.57 780.5 902.1 799.03 902.1 821.854 L 902.1 2019.146 C 902.1 2041.97 883.57 2060.5 860.746 2060.5 L 120.454 2060.5 C 97.63 2060.5 79.1 2041.97 79.1 2019.146 L 79.1 821.854 C 79.1 799.03 97.63 780.5 120.454 780.5 Z" style="fill:none;stroke:#000000;stroke-width:0.99000001;stroke-miterlimit:2;"/><g><path d=" M 124.104 970.928 C 131.965 925.404 140.359 891.247 162.373 854.148 L 117.635 854.148 L 117.635 870.118 L 105.743 870.118 L 105.743 840.024 L 171.199 840.024 L 179.267 854.148 C 155.888 882.05 134.48 972.243 138.273 970.928 L 124.104 970.928 Z " fill="rgb(212,0,0)"/><path d=" M 856.096 1869.072 C 848.235 1914.596 839.841 1948.753 817.826 1985.852 L 862.565 1985.852 L 862.565 1969.882 L 874.457 1969.882 L 874.457 1999.976 L 809.001 1999.976 L 800.932 1985.852 C 824.312 1957.95 845.72 1867.757 841.927 1869.072 L 856.096 1869.072 Z " fill="rgb(212,0,0)"/></g></g></g><path d=" M 111.147 1034.35 C 105.311 1020.096 104.67 995.74 122.101 992.445 C 135.233 990.563 140.578 997.364 141.64 1007.806 C 142.165 1010.856 143.711 1011.043 144.202 1007.566 C 144.956 996.855 154.478 990.602 161.922 992.173 C 182.298 996.054 181.108 1021.025 174.452 1037.967 C 164.384 1060.46 153.804 1074.656 144.054 1097.292 C 132.853 1073.725 120.063 1054.579 111.147 1034.35 L 111.147 1034.35 Z " fill="rgb(212,0,0)"/><path d=" M 237.822 902.36 C 264.161 900.413 277.892 925.461 280.571 945.202 C 282.169 948.338 283.044 947.455 283.657 945.029 C 284.945 919.684 305.317 898.969 324.185 901.802 C 354.888 902.246 373.549 940.288 368.302 972.486 C 361.893 1011.819 342.864 1035.503 328.456 1059.895 C 312.156 1085.151 290.214 1121.633 283.145 1139.192 C 283.145 1139.192 260.846 1101.407 231.835 1056.969 C 212.436 1027.255 196.909 995.055 195.464 967.334 C 193.813 935.661 205.49 907.27 237.822 902.361 L 237.822 902.36 Z " fill="rgb(212,0,0)"/><path d=" M 649.022 902.36 C 675.361 900.413 689.092 925.461 691.771 945.202 C 693.369 948.338 694.244 947.455 694.857 945.029 C 696.145 919.684 716.517 898.969 735.385 901.802 C 766.088 902.246 784.749 940.288 779.502 972.486 C 773.093 1011.819 754.064 1035.503 739.656 1059.895 C 723.356 1085.151 701.414 1121.633 694.345 1139.192 C 694.345 1139.192 672.046 1101.407 643.035 1056.969 C 623.636 1027.255 608.109 995.055 606.664 967.334 C 605.013 935.661 616.69 907.27 649.022 902.361 L 649.022 902.36 Z " fill="rgb(212,0,0)"/><path d=" M 445.883 1108.123 C 472.222 1106.175 485.953 1131.224 488.632 1150.965 C 490.23 1154.101 491.105 1153.217 491.718 1150.791 C 493.006 1125.446 513.377 1104.732 532.245 1107.564 C 562.949 1108.009 581.61 1146.051 576.363 1178.248 C 569.954 1217.581 550.925 1241.265 536.517 1265.658 C 520.217 1290.913 498.275 1327.395 491.206 1344.954 C 491.206 1344.954 468.907 1307.169 439.896 1262.732 C 420.496 1233.017 404.97 1200.818 403.525 1173.096 C 401.874 1141.424 413.551 1113.032 445.883 1108.123 L 445.883 1108.123 Z " fill="rgb(212,0,0)"/><path d=" M 237.822 1313.885 C 264.161 1311.938 277.892 1336.986 280.571 1356.727 C 282.169 1359.863 283.044 1358.98 283.657 1356.554 C 284.945 1331.209 305.317 1310.494 324.185 1313.327 C 354.888 1313.771 373.549 1351.813 368.302 1384.011 C 361.893 1423.344 342.864 1447.028 328.456 1471.42 C 312.156 1496.676 290.214 1533.158 283.145 1550.717 C 283.145 1550.717 260.846 1512.932 231.835 1468.494 C 212.436 1438.78 196.909 1406.58 195.464 1378.859 C 193.813 1347.186 205.49 1318.795 237.822 1313.885 L 237.822 1313.885 Z " fill="rgb(212,0,0)"/><path d=" M 649.022 1313.885 C 675.361 1311.938 689.092 1336.986 691.771 1356.727 C 693.369 1359.863 694.244 1358.98 694.857 1356.554 C 696.145 1331.209 716.517 1310.494 735.385 1313.327 C 766.088 1313.771 784.749 1351.813 779.502 1384.011 C 773.093 1423.344 754.064 1447.028 739.656 1471.42 C 723.356 1496.676 701.414 1533.158 694.345 1550.717 C 694.345 1550.717 672.046 1512.932 643.035 1468.494 C 623.636 1438.78 608.109 1406.58 606.664 1378.859 C 605.013 1347.186 616.69 1318.795 649.022 1313.885 L 649.022 1313.885 Z " fill="rgb(212,0,0)"/><path d=" M 807.272 1817.83 C 801.436 1832.084 800.795 1856.44 818.226 1859.734 C 831.359 1861.616 836.703 1854.815 837.766 1844.374 C 838.29 1841.324 839.837 1841.137 840.327 1844.613 C 841.081 1855.325 850.603 1861.578 858.048 1860.007 C 878.423 1856.126 877.233 1831.155 870.577 1814.213 C 860.509 1791.719 849.929 1777.524 840.179 1754.887 C 828.978 1778.454 816.188 1797.601 807.272 1817.83 L 807.272 1817.83 Z " fill="rgb(212,0,0)"/><path d=" M 649.022 1954.651 C 675.361 1956.598 689.092 1931.55 691.771 1911.808 C 693.369 1908.673 694.244 1909.556 694.857 1911.982 C 696.145 1937.327 716.517 1958.041 735.385 1955.209 C 766.088 1954.764 784.749 1916.722 779.502 1884.525 C 773.093 1845.192 754.064 1821.508 739.656 1797.116 C 723.356 1771.86 701.414 1735.378 694.345 1717.819 C 694.345 1717.819 672.046 1755.604 643.035 1800.042 C 623.636 1829.756 608.109 1861.955 606.664 1889.677 C 605.013 1921.35 616.69 1949.741 649.022 1954.65 L 649.022 1954.651 Z " fill="rgb(212,0,0)"/><path d=" M 237.822 1954.651 C 264.161 1956.598 277.892 1931.55 280.571 1911.808 C 282.169 1908.673 283.044 1909.556 283.657 1911.982 C 284.945 1937.327 305.317 1958.041 324.185 1955.209 C 354.888 1954.764 373.549 1916.722 368.302 1884.525 C 361.893 1845.192 342.864 1821.508 328.456 1797.116 C 312.156 1771.86 290.214 1735.378 283.145 1717.819 C 283.145 1717.819 260.846 1755.604 231.835 1800.042 C 212.436 1829.756 196.909 1861.955 195.464 1889.677 C 193.813 1921.35 205.49 1949.741 237.822 1954.65 L 237.822 1954.651 Z " fill="rgb(212,0,0)"/></g></g></g></svg>