<?xml version="1.0" encoding="UTF-8" standalone="no"?><!-- Generator: Gravit.io --><svg xmlns="http://www.w3.org/2000/svg" xmlns:xlink="http://www.w3.org/1999/xlink" style="isolation:isolate" viewBox="30.105 812.505 823.99 1280.99" width="823.99pt" height="1280.99pt"><defs><clipPath id="_clipPath_nzRemDJwuZDXSIwHkZEaL5UXReK0hCAT"><rect x="30.105" y="812.505" width="823.99" height="1280.99"/></clipPath></defs><g clip-path="url(#_clipPath_nzRemDJwuZDXSIwHkZEaL5UXReK0hCAT)"><g><g><g><g><path d="M 72.454 813.5 L 812.746 813.5 C 835.57 813.5 854.1 832.03 854.1 854.854 L 854.1 2052.146 C 854.1 2074.97 835.57 2093.5 812.746 2093.5 L 72.454 2093.5 C 49.63 2093.5 31.1 2074.97 31.1 2052.146 L 31.1 854.854 C 31.1 832.03 49.63 813.5 72.454 813.5 Z" style="stroke:none;fill:#FFFFFF;stroke-miterlimit:10;"/><path d="M 72.454 813.5 L 812.746 813.5 C 835.57 813.5 854.1 832.03 854.1 854.854 L 854.1 2052.146 C 854.1 2074.97 835.57 2093.5 812.746 2093.5 L 72.454 2093.5 C 49.63 2093.5 31.1 2074.97 31.1 2052.146 L 31.1 854.854 C 31.1 832.03 49.63 813.5 72.454 813.5 Z" style="fill:none;stroke:#000000;stroke-width:0.99000001;stroke-miterlimit:2;"/><g><path d=" M 76.104 1003.928 C 83.965 958.404 92.359 924.247 114.373 887.148 L 69.635 887.148 L 69.635 903.118 L 57.743 903.118 L 57.743 873.024 L 123.199 873.024 L 131.267 887.148 C 107.888 915.05 86.48 1005.243 90.273 1003.928 L 76.104 1003.928 Z " fill="rgb(0,0,0)"/><path d=" M 808.096 1902.072 C 800.235 1947.596 791.841 1981.753 769.826 2018.852 L 814.565 2018.852 L 814.565 2002.882 L 826.457 2002.882 L 826.457 2032.976 L 761.001 2032.976 L 752.932 2018.852 C 776.312 1990.95 797.72 1900.757 793.927 1902.072 L 808.096 1902.072 Z " fill="rgb(0,0,0)"/></g></g></g><path d=" M 226.355 1100.372 C 226.411 1092.057 220.505 1091.898 220.572 1097.968 C 220.077 1128.463 196.916 1143.478 180.089 1139.916 C 154.148 1134.425 145.869 1105.754 146.116 1088.868 C 146.88 1036.749 194 998.317 236.517 931.503 C 267.671 991.809 319.092 1039.177 322.136 1085.794 C 326.183 1147.772 255.74 1170.89 245.683 1098.654 C 245.034 1093.551 239.638 1091.26 240.056 1098.387 C 241.585 1118.184 239.412 1126.43 259.47 1175.231 L 207.037 1175.231 C 218.65 1152.428 225.565 1124.433 226.355 1100.372 L 226.355 1100.372 Z " fill="rgb(0,0,0)"/><path d=" M 637.555 1100.372 C 637.611 1092.057 631.705 1091.898 631.772 1097.968 C 631.277 1128.463 608.116 1143.478 591.289 1139.916 C 565.348 1134.425 557.069 1105.754 557.316 1088.868 C 558.08 1036.749 605.2 998.317 647.717 931.503 C 678.871 991.809 730.292 1039.177 733.336 1085.794 C 737.383 1147.772 666.94 1170.89 656.883 1098.654 C 656.234 1093.551 650.838 1091.26 651.256 1098.387 C 652.785 1118.184 650.612 1126.43 670.67 1175.231 L 618.237 1175.231 C 629.85 1152.428 636.765 1124.433 637.555 1100.372 L 637.555 1100.372 Z " fill="rgb(0,0,0)"/><path d=" M 434.416 1306.135 C 434.472 1297.819 428.566 1297.66 428.633 1303.73 C 428.138 1334.225 404.977 1349.24 388.15 1345.678 C 362.209 1340.187 353.93 1311.516 354.177 1294.63 C 354.941 1242.511 402.061 1204.079 444.578 1137.265 C 475.732 1197.571 527.153 1244.939 530.197 1291.556 C 534.244 1353.535 463.801 1376.653 453.744 1304.416 C 453.095 1299.314 447.699 1297.023 448.117 1304.149 C 449.646 1323.946 447.473 1332.193 467.531 1380.994 L 415.098 1380.994 C 426.711 1358.191 433.626 1330.195 434.416 1306.135 L 434.416 1306.135 Z " fill="rgb(0,0,0)"/><path d=" M 637.555 1511.897 C 637.611 1503.581 631.705 1503.422 631.772 1509.492 C 631.277 1539.987 608.116 1555.003 591.289 1551.441 C 565.348 1545.95 557.069 1517.278 557.316 1500.393 C 558.08 1448.274 605.2 1409.842 647.717 1343.027 C 678.871 1403.334 730.292 1450.701 733.336 1497.319 C 737.383 1559.297 666.94 1582.415 656.883 1510.179 C 656.234 1505.076 650.838 1502.785 651.256 1509.912 C 652.785 1529.709 650.612 1537.955 670.67 1586.756 L 618.237 1586.756 C 629.85 1563.953 636.765 1535.958 637.555 1511.897 L 637.555 1511.897 Z " fill="rgb(0,0,0)"/><path d=" M 226.355 1511.897 C 226.411 1503.581 220.505 1503.422 220.572 1509.492 C 220.077 1539.987 196.916 1555.003 180.089 1551.441 C 154.148 1545.95 145.869 1517.278 146.116 1500.393 C 146.88 1448.274 194 1409.842 236.517 1343.027 C 267.671 1403.334 319.092 1450.701 322.136 1497.319 C 326.183 1559.297 255.74 1582.415 245.683 1510.179 C 245.034 1505.076 239.638 1502.785 240.056 1509.912 C 241.585 1529.709 239.412 1537.955 259.47 1586.756 L 207.037 1586.756 C 218.65 1563.953 225.565 1535.958 226.355 1511.897 L 226.355 1511.897 Z " fill="rgb(0,0,0)"/><path d=" M 637.595 1822.743 C 637.651 1831.059 631.745 1831.218 631.812 1825.148 C 631.317 1794.653 608.156 1779.638 591.329 1783.199 C 565.388 1788.691 557.109 1817.362 557.356 1834.248 C 558.12 1886.367 605.239 1924.798 647.757 1991.613 C 678.911 1931.307 730.331 1883.939 733.376 1837.321 C 737.423 1775.343 666.98 1752.225 656.923 1824.462 C 656.274 1829.564 650.877 1831.855 651.296 1824.728 C 652.824 1804.931 650.651 1796.685 670.71 1747.884 L 618.277 1747.884 C 629.889 1770.687 636.805 1798.683 637.595 1822.743 L 637.595 1822.743 Z " fill="rgb(0,0,0)"/><path d=" M 226.395 1822.743 C 226.451 1831.059 220.545 1831.218 220.612 1825.148 C 220.117 1794.653 196.956 1779.638 180.129 1783.199 C 154.188 1788.691 145.909 1817.362 146.156 1834.248 C 146.92 1886.367 194.04 1924.798 236.557 1991.613 C 267.711 1931.307 319.131 1883.939 322.176 1837.321 C 326.223 1775.343 255.78 1752.225 245.723 1824.462 C 245.074 1829.564 239.677 1831.855 240.096 1824.728 C 241.624 1804.931 239.451 1796.685 259.51 1747.884 L 207.077 1747.884 C 218.689 1770.687 225.605 1798.683 226.395 1822.743 L 226.395 1822.743 Z " fill="rgb(0,0,0)"/><path d=" M 93.546 1104.525 C 93.583 1100.948 90.245 1102.618 89.793 1103.744 C 85.505 1111.895 79.231 1113.792 73.026 1110.853 C 66.879 1107.942 63.425 1101.492 63.979 1092.29 C 65.123 1078.177 75.17 1062.735 80.035 1054.005 C 84.651 1046.083 89.724 1036.673 95.065 1024.637 C 101.323 1038.443 104.499 1042.373 111.306 1054.979 C 117.301 1066.081 125.657 1076.954 126.302 1090.375 C 126.302 1100.575 122.446 1110.21 113.769 1111.965 C 108.861 1112.958 104.262 1110.152 100.852 1103.603 C 99.813 1101.934 97.722 1102.804 97.757 1105.089 C 98.366 1113.682 101.28 1121.44 108.189 1130.588 L 82.798 1130.588 C 87.996 1124.119 93.3 1115.384 93.546 1104.525 L 93.546 1104.525 Z " fill="rgb(0,0,0)"/><path d=" M 789.671 1813.654 C 789.708 1817.232 786.371 1815.562 785.919 1814.436 C 781.63 1806.285 775.357 1804.388 769.152 1807.326 C 763.005 1810.238 759.55 1816.687 760.105 1825.89 C 761.248 1840.003 771.296 1855.445 776.161 1864.175 C 780.777 1872.097 785.849 1881.507 791.191 1893.543 C 797.448 1879.737 800.624 1875.807 807.431 1863.2 C 813.426 1852.098 821.782 1841.226 822.427 1827.805 C 822.427 1817.604 818.571 1807.97 809.895 1806.215 C 804.986 1805.222 800.387 1808.027 796.977 1814.576 C 795.938 1816.245 793.848 1815.375 793.883 1813.091 C 794.491 1804.497 797.405 1796.739 804.314 1787.592 L 778.923 1787.592 C 784.122 1794.061 789.426 1802.795 789.671 1813.654 L 789.671 1813.654 Z " fill="rgb(0,0,0)"/></g></g></g></svg>