<?xml version="1.0" encoding="UTF-8" standalone="no"?><!-- Generator: Gravit.io --><svg xmlns="http://www.w3.org/2000/svg" xmlns:xlink="http://www.w3.org/1999/xlink" style="isolation:isolate" viewBox="162.102 719.502 823.997 1280.997" width="823.997pt" height="1280.997pt"><defs><clipPath id="_clipPath_xAvGX76ifYEeetCFMKz4mdS2m7BjLlYu"><rect x="162.102" y="719.502" width="823.997" height="1280.997"/></clipPath></defs><g clip-path="url(#_clipPath_xAvGX76ifYEeetCFMKz4mdS2m7BjLlYu)"><g><g><g><g><g><path d="M 204.454 720.5 L 944.746 720.5 C 967.57 720.5 986.1 739.03 986.1 761.854 L 986.1 1959.146 C 986.1 1981.97 967.57 2000.5 944.746 2000.5 L 204.454 2000.5 C 181.63 2000.5 163.1 1981.97 163.1 1959.146 L 163.1 761.854 C 163.1 739.03 181.63 720.5 204.454 720.5 Z" style="stroke:none;fill:#FFFFFF;stroke-miterlimit:10;"/><path d="M 204.454 720.5 L 944.746 720.5 C 967.57 720.5 986.1 739.03 986.1 761.854 L 986.1 1959.146 C 986.1 1981.97 967.57 2000.5 944.746 2000.5 L 204.454 2000.5 C 181.63 2000.5 163.1 1981.97 163.1 1959.146 L 163.1 761.854 C 163.1 739.03 181.63 720.5 204.454 720.5 Z" style="fill:none;stroke:#000000;stroke-width:0.99673343;stroke-miterlimit:2;"/></g></g></g><g><path d=" M 185.059 874.146 C 185.65 856.185 191.588 849.44 203.286 840.036 C 193.956 832.666 190.022 821.823 190.816 812.584 C 192.739 790.225 208.549 779.038 225.786 779.525 C 243.022 780.012 257.878 794.975 259.036 811.223 C 260.044 825.358 256.196 832.169 247.027 839.61 C 257.914 849.633 264.872 856.236 264.608 873.929 C 264.344 891.622 250.577 912.68 226.58 913.327 C 202.584 913.973 184.469 892.108 185.059 874.146 Z  M 252.058 874.206 C 253.088 857.941 239.935 846.967 225.096 846.797 C 210.635 846.63 197.698 860.124 197.696 874.727 C 197.696 890.412 214.521 898.932 225.387 898.978 C 238.595 899.032 251.172 888.214 252.058 874.206 Z  M 247.31 816.023 C 247.597 802.322 236.04 792.503 224.125 792.898 C 213.524 793.25 202.295 802.096 202.289 813.55 C 202.278 827.877 215.053 835.029 225.947 835.299 C 235.83 835.544 247.093 826.372 247.31 816.023 L 247.31 816.023 Z " fill="rgb(0,0,0)"/><path d=" M 957.596 1845.854 C 957.006 1863.815 951.068 1870.56 939.37 1879.964 C 948.7 1887.334 952.634 1898.177 951.839 1907.416 C 949.917 1929.775 934.106 1940.962 916.87 1940.475 C 899.633 1939.988 884.778 1925.025 883.619 1908.777 C 882.612 1894.642 886.46 1887.831 895.629 1880.39 C 884.742 1870.367 877.783 1863.764 878.047 1846.071 C 878.311 1828.377 892.078 1807.32 916.075 1806.673 C 940.072 1806.027 958.186 1827.892 957.596 1845.854 L 957.596 1845.854 Z  M 890.597 1845.794 C 889.568 1862.059 902.72 1873.033 917.56 1873.203 C 932.02 1873.37 944.957 1859.876 944.96 1845.273 C 944.96 1829.588 928.135 1821.068 917.268 1821.022 C 904.061 1820.968 891.484 1831.786 890.597 1845.794 L 890.597 1845.794 Z  M 895.346 1903.977 C 895.059 1917.678 906.616 1927.497 918.531 1927.102 C 929.132 1926.75 940.36 1917.904 940.366 1906.45 C 940.377 1892.123 927.602 1884.971 916.708 1884.701 C 906.826 1884.456 895.563 1893.628 895.346 1903.977 L 895.346 1903.977 Z " fill="rgb(0,0,0)"/><path d=" M 737.889 1068.741 C 748.503 1045.033 756.234 1020.708 757.606 994.697 C 758.866 985.126 753.645 984.965 752.857 991.706 C 737.829 1055.716 657.875 1038.382 660.624 978.174 C 662.855 929.345 706.413 918.84 729.134 934.806 C 738.106 940.688 737.599 937.165 732.702 931.063 C 698.95 889.145 719.392 835.162 765.003 834.174 C 814.331 837.431 827.13 895.216 796.872 929.199 C 793.11 933.282 784.767 946.405 797.326 937.23 C 827.878 913.059 870.278 939.048 869.413 976.313 C 867.818 1045.027 792.583 1050.152 776.494 992.757 C 774.946 986.393 770.487 983.198 771.719 994.006 C 773.949 1013.573 778.564 1043.075 791.766 1068.741 L 737.889 1068.741 Z " fill="rgb(0,0,0)"/><path d=" M 737.889 1480.266 C 748.503 1456.557 756.234 1432.233 757.606 1406.222 C 758.866 1396.65 753.645 1396.49 752.857 1403.231 C 737.829 1467.24 657.875 1449.907 660.624 1389.699 C 662.855 1340.87 706.413 1330.365 729.134 1346.331 C 738.106 1352.213 737.599 1348.69 732.702 1342.588 C 698.95 1300.67 719.392 1246.687 765.003 1245.699 C 814.331 1248.956 827.13 1306.741 796.872 1340.724 C 793.11 1344.807 784.767 1357.929 797.326 1348.755 C 827.878 1324.584 870.278 1350.572 869.413 1387.838 C 867.818 1456.552 792.583 1461.676 776.494 1404.282 C 774.946 1397.918 770.487 1394.723 771.719 1405.531 C 773.949 1425.098 778.564 1454.6 791.766 1480.266 L 737.889 1480.266 Z " fill="rgb(0,0,0)"/><path d=" M 356.184 1480.266 C 366.798 1456.557 374.529 1432.233 375.901 1406.222 C 377.161 1396.65 371.939 1396.49 371.152 1403.231 C 356.123 1467.24 276.17 1449.907 278.919 1389.699 C 281.15 1340.87 324.707 1330.365 347.428 1346.331 C 356.401 1352.213 355.894 1348.69 350.997 1342.588 C 317.245 1300.67 337.687 1246.687 383.298 1245.699 C 432.626 1248.956 445.425 1306.741 415.167 1340.724 C 411.404 1344.807 403.062 1357.929 415.621 1348.755 C 446.173 1324.584 488.573 1350.572 487.708 1387.838 C 486.112 1456.552 410.878 1461.676 394.788 1404.282 C 393.241 1397.918 388.782 1394.723 390.014 1405.531 C 392.244 1425.098 396.859 1454.6 410.061 1480.266 L 356.184 1480.266 Z " fill="rgb(0,0,0)"/><path d=" M 541.199 1274.504 C 551.814 1250.795 559.544 1226.471 560.917 1200.46 C 562.176 1190.888 556.955 1190.727 556.168 1197.469 C 541.139 1261.478 461.186 1244.145 463.934 1183.936 C 466.165 1135.108 509.723 1124.603 532.444 1140.569 C 541.416 1146.45 540.909 1142.927 536.012 1136.826 C 502.26 1094.907 522.703 1040.925 568.313 1039.937 C 617.641 1043.194 630.44 1100.978 600.183 1134.962 C 596.42 1139.044 588.077 1152.167 600.636 1142.992 C 631.188 1118.822 673.588 1144.81 672.723 1182.075 C 671.128 1250.789 595.893 1255.914 579.804 1198.519 C 578.256 1192.156 573.798 1188.96 575.029 1199.768 C 577.26 1219.336 581.874 1248.838 595.076 1274.504 L 541.199 1274.504 Z " fill="rgb(0,0,0)"/><path d=" M 356.184 1068.741 C 366.798 1045.033 374.529 1020.708 375.901 994.697 C 377.161 985.126 371.939 984.965 371.152 991.706 C 356.123 1055.716 276.17 1038.382 278.919 978.174 C 281.15 929.345 324.707 918.84 347.428 934.806 C 356.401 940.688 355.894 937.165 350.997 931.063 C 317.245 889.145 337.687 835.162 383.298 834.174 C 432.626 837.431 445.425 895.216 415.167 929.199 C 411.404 933.282 403.062 946.405 415.621 937.23 C 446.173 913.059 488.573 939.048 487.708 976.313 C 486.112 1045.027 410.878 1050.152 394.788 992.757 C 393.241 986.393 388.782 983.198 390.014 994.006 C 392.244 1013.573 396.859 1043.075 410.061 1068.741 L 356.184 1068.741 Z " fill="rgb(0,0,0)"/><path d=" M 792.092 1650.451 C 781.478 1674.16 773.747 1698.484 772.375 1724.495 C 771.116 1734.067 776.337 1734.227 777.124 1727.486 C 792.153 1663.477 872.106 1680.81 869.357 1741.018 C 867.127 1789.847 823.569 1800.352 800.848 1784.386 C 791.876 1778.505 792.383 1782.028 797.279 1788.129 C 831.031 1830.048 810.589 1884.03 764.979 1885.018 C 715.651 1881.761 702.851 1823.977 733.109 1789.993 C 736.872 1785.91 745.215 1772.788 732.656 1781.963 C 702.104 1806.133 659.704 1780.145 660.569 1742.88 C 662.164 1674.166 737.398 1669.041 753.488 1726.436 C 755.036 1732.799 759.494 1735.995 758.262 1725.186 C 756.032 1705.619 751.418 1676.117 738.216 1650.451 L 792.092 1650.451 Z " fill="rgb(0,0,0)"/><path d=" M 595.403 1448.075 C 584.788 1471.784 577.058 1496.108 575.685 1522.119 C 574.426 1531.691 579.647 1531.851 580.434 1525.11 C 595.463 1461.101 675.416 1478.434 672.668 1538.642 C 670.437 1587.471 626.879 1597.976 604.158 1582.01 C 595.186 1576.128 595.693 1579.651 600.59 1585.753 C 634.342 1627.671 613.899 1681.654 568.289 1682.642 C 518.961 1679.385 506.162 1621.6 536.419 1587.617 C 540.182 1583.534 548.525 1570.412 535.966 1579.587 C 505.414 1603.757 463.014 1577.769 463.879 1540.504 C 465.474 1471.789 540.709 1466.665 556.798 1524.059 C 558.346 1530.423 562.804 1533.619 561.573 1522.81 C 559.342 1503.243 554.728 1473.741 541.526 1448.075 L 595.403 1448.075 Z " fill="rgb(0,0,0)"/><path d=" M 410.387 1650.451 C 399.773 1674.16 392.042 1698.484 390.67 1724.495 C 389.41 1734.067 394.632 1734.227 395.419 1727.486 C 410.448 1663.477 490.401 1680.81 487.652 1741.018 C 485.422 1789.847 441.864 1800.352 419.143 1784.386 C 410.171 1778.505 410.677 1782.028 415.574 1788.129 C 449.326 1830.048 428.884 1884.03 383.273 1885.018 C 333.945 1881.761 321.146 1823.977 351.404 1789.993 C 355.167 1785.91 363.51 1772.788 350.95 1781.963 C 320.399 1806.133 277.998 1780.145 278.863 1742.88 C 280.459 1674.166 355.693 1669.041 371.783 1726.436 C 373.33 1732.799 377.789 1735.995 376.557 1725.186 C 374.327 1705.619 369.713 1676.117 356.511 1650.451 L 410.387 1650.451 Z " fill="rgb(0,0,0)"/><path d=" M 212.216 1037.474 C 216.611 1027.436 220.888 1018.094 223.219 1007.093 C 224.764 996.717 221.603 1000.572 219.808 1007.373 C 217.149 1016.804 209.77 1021.099 202.922 1021.202 C 190.494 1021.389 184.294 1010.511 184.68 998.813 C 183.323 986.504 194.528 977.795 202.973 978.466 C 209.323 978.97 214.859 982.784 218.21 985.753 C 220.409 987.047 222.76 987.619 219.482 984.281 C 213.297 976.757 208.139 972.113 208.252 960.838 C 208.359 950.252 216.486 939.212 227.259 939.558 C 240.721 939.991 246.843 951.422 246.811 962.056 C 246.774 969.808 243.295 976.942 237.921 981.361 C 234.44 984.506 235.416 986.861 239.387 983.885 C 243.202 980.223 247.745 978.62 252.456 978.507 C 265.325 978.283 270.355 990.664 269.618 1002.17 C 268.927 1012.948 260.686 1024.043 249.824 1022.786 C 240.125 1021.549 235.029 1012.483 232.108 1003.177 C 231.141 1000.324 229.616 999.553 229.659 1003.805 C 231.899 1024.566 238.845 1037.485 238.895 1037.473 L 212.216 1037.474 Z " fill="rgb(0,0,0)"/><path d=" M 935.984 1698.605 C 931.589 1708.642 927.312 1717.984 924.981 1728.986 C 923.436 1739.362 926.597 1735.507 928.392 1728.707 C 931.051 1719.276 938.43 1714.981 945.278 1714.878 C 957.706 1714.693 963.906 1725.568 963.52 1737.266 C 964.877 1749.576 953.672 1758.285 945.227 1757.614 C 938.877 1757.109 933.341 1753.295 929.99 1750.327 C 927.791 1749.032 925.44 1748.461 928.718 1751.798 C 934.903 1759.323 940.061 1763.966 939.948 1775.242 C 939.841 1785.827 931.714 1796.867 920.941 1796.521 C 907.479 1796.088 901.357 1784.657 901.389 1774.023 C 901.426 1766.272 904.905 1759.137 910.279 1754.719 C 913.76 1751.574 912.784 1749.219 908.813 1752.195 C 904.998 1755.856 900.455 1757.46 895.744 1757.572 C 882.875 1757.798 877.845 1745.415 878.582 1733.91 C 879.273 1723.131 887.514 1712.037 898.376 1713.293 C 908.075 1714.531 913.171 1723.596 916.092 1732.902 C 917.059 1735.756 918.584 1736.526 918.541 1732.274 C 916.301 1711.513 909.355 1698.595 909.305 1698.606 L 935.984 1698.605 Z " fill="rgb(0,0,0)"/></g></g></g></g></svg>