<?xml version="1.0" encoding="UTF-8" standalone="no"?><!-- Generator: Gravit.io --><svg xmlns="http://www.w3.org/2000/svg" xmlns:xlink="http://www.w3.org/1999/xlink" style="isolation:isolate" viewBox="-2.898 800.502 823.997 1280.997" width="823.997pt" height="1280.997pt"><defs><clipPath id="_clipPath_IoJDziPKPzEJoXWHvi1j7JC3qavCAiC7"><rect x="-2.898" y="800.502" width="823.997" height="1280.997"/></clipPath></defs><g clip-path="url(#_clipPath_IoJDziPKPzEJoXWHvi1j7JC3qavCAiC7)"><g><g><path d="M 39.454 801.5 L 779.746 801.5 C 802.57 801.5 821.1 820.03 821.1 842.854 L 821.1 2040.146 C 821.1 2062.97 802.57 2081.5 779.746 2081.5 L 39.454 2081.5 C 16.63 2081.5 -1.9 2062.97 -1.9 2040.146 L -1.9 842.854 C -1.9 820.03 16.63 801.5 39.454 801.5 Z" style="stroke:none;fill:#FFFFFF;stroke-miterlimit:10;"/><path d="M 39.454 801.5 L 779.746 801.5 C 802.57 801.5 821.1 820.03 821.1 842.854 L 821.1 2040.146 C 821.1 2062.97 802.57 2081.5 779.746 2081.5 L 39.454 2081.5 C 16.63 2081.5 -1.9 2062.97 -1.9 2040.146 L -1.9 842.854 C -1.9 820.03 16.63 801.5 39.454 801.5 Z" style="fill:none;stroke:#000000;stroke-width:0.99673343;stroke-miterlimit:2;"/><g><path d=" M 116.991 1033.425 C 153.567 993.682 177.588 950.35 200.561 908.677 C 220.707 954.53 249.617 994.646 280.882 1033.425 C 247.431 1071.883 221.506 1113.007 200.661 1156.239 C 177.553 1111.922 153.226 1071.791 116.991 1033.425 Z " fill="rgb(212,0,0)"/><path d=" M 116.991 1444.95 C 153.567 1405.207 177.588 1361.874 200.561 1320.202 C 220.707 1366.055 249.617 1406.171 280.882 1444.95 C 247.431 1483.408 221.506 1524.531 200.661 1567.764 C 177.553 1523.447 153.226 1483.316 116.991 1444.95 L 116.991 1444.95 Z " fill="rgb(212,0,0)"/><path d=" M 116.991 1849.702 C 153.567 1809.959 177.588 1766.627 200.561 1724.954 C 220.707 1770.807 249.617 1810.923 280.882 1849.702 C 247.431 1888.16 221.506 1929.284 200.661 1972.516 C 177.553 1928.199 153.226 1888.068 116.991 1849.702 L 116.991 1849.702 Z " fill="rgb(212,0,0)"/><path d=" M 324.128 1239.187 C 360.704 1199.444 384.725 1156.112 407.697 1114.439 C 427.843 1160.293 456.754 1200.408 488.019 1239.187 C 454.568 1277.646 428.642 1318.769 407.797 1362.001 C 384.69 1317.684 360.363 1277.554 324.128 1239.187 Z " fill="rgb(212,0,0)"/><path d=" M 528.191 1033.425 C 564.767 993.682 588.788 950.35 611.761 908.677 C 631.907 954.53 660.817 994.646 692.082 1033.425 C 658.631 1071.883 632.706 1113.007 611.861 1156.239 C 588.753 1111.922 564.426 1071.791 528.191 1033.425 Z " fill="rgb(212,0,0)"/><path d=" M 528.191 1444.95 C 564.767 1405.207 588.788 1361.874 611.761 1320.202 C 631.907 1366.055 660.817 1406.171 692.082 1444.95 C 658.631 1483.408 632.706 1524.531 611.861 1567.764 C 588.753 1523.447 564.426 1483.316 528.191 1444.95 L 528.191 1444.95 Z " fill="rgb(212,0,0)"/><path d=" M 528.191 1849.702 C 564.767 1809.959 588.788 1766.627 611.761 1724.954 C 631.907 1770.807 660.817 1810.923 692.082 1849.702 C 658.631 1888.16 632.706 1929.284 611.861 1972.516 C 588.753 1928.199 564.426 1888.068 528.191 1849.702 L 528.191 1849.702 Z " fill="rgb(212,0,0)"/><path d=" M 324.128 1647.326 C 360.704 1607.583 384.725 1564.251 407.697 1522.578 C 427.843 1568.431 456.754 1608.547 488.019 1647.326 C 454.568 1685.784 428.642 1726.908 407.797 1770.14 C 384.69 1725.823 360.363 1685.692 324.128 1647.326 L 324.128 1647.326 Z " fill="rgb(212,0,0)"/><path d=" M 727.457 1832.863 C 742.44 1816.582 752.28 1798.832 761.691 1781.761 C 769.944 1800.544 781.787 1816.977 794.594 1832.863 C 780.891 1848.617 770.271 1865.463 761.732 1883.173 C 752.266 1865.019 742.301 1848.579 727.457 1832.863 Z " fill="rgb(212,0,0)"/><path d=" M 31.332 1069.908 C 46.315 1053.628 56.155 1035.877 65.566 1018.806 C 73.818 1037.589 85.661 1054.022 98.469 1069.908 C 84.766 1085.662 74.146 1102.508 65.607 1120.218 C 56.141 1102.064 46.175 1085.625 31.332 1069.908 Z " fill="rgb(212,0,0)"/><path d=" M 22.832 955.146 C 23.422 937.185 29.36 930.44 41.058 921.036 C 31.728 913.666 27.794 902.823 28.588 893.584 C 30.511 871.225 46.321 860.038 63.558 860.525 C 80.794 861.012 95.65 875.975 96.808 892.223 C 97.816 906.358 93.968 913.169 84.799 920.611 C 95.686 930.633 102.644 937.236 102.38 954.929 C 102.116 972.623 88.349 993.681 64.353 994.327 C 40.356 994.973 22.241 973.108 22.832 955.146 Z  M 89.83 955.206 C 90.86 938.941 77.707 927.967 62.868 927.797 C 48.407 927.631 35.47 941.124 35.468 955.727 C 35.468 971.412 52.293 979.933 63.16 979.978 C 76.367 980.032 88.944 969.214 89.83 955.206 Z  M 85.082 897.023 C 85.369 883.322 73.812 873.503 61.897 873.898 C 51.296 874.25 40.067 883.097 40.062 894.55 C 40.051 908.877 52.826 916.029 63.719 916.299 C 73.602 916.544 84.865 907.372 85.082 897.023 L 85.082 897.023 Z " fill="rgb(212,0,0)"/><path d=" M 795.368 1926.854 C 794.778 1944.815 788.84 1951.56 777.142 1960.965 C 786.472 1968.334 790.406 1979.177 789.612 1988.416 C 787.689 2010.776 771.879 2021.963 754.642 2021.475 C 737.406 2020.988 722.55 2006.026 721.392 1989.777 C 720.384 1975.642 724.232 1968.831 733.401 1961.39 C 722.514 1951.367 715.555 1944.764 715.82 1927.071 C 716.084 1909.378 729.851 1888.32 753.847 1887.673 C 777.844 1887.027 795.959 1908.893 795.368 1926.854 L 795.368 1926.854 Z  M 728.37 1926.795 C 727.34 1943.059 740.493 1954.033 755.332 1954.204 C 769.793 1954.37 782.729 1940.876 782.732 1926.274 C 782.732 1910.588 765.907 1902.068 755.04 1902.023 C 741.833 1901.968 729.256 1912.786 728.37 1926.795 L 728.37 1926.795 Z  M 733.118 1984.977 C 732.831 1998.678 744.388 2008.497 756.303 2008.102 C 766.904 2007.75 778.133 1998.904 778.138 1987.45 C 778.149 1973.124 765.374 1965.971 754.48 1965.701 C 744.598 1965.456 733.335 1974.628 733.118 1984.977 L 733.118 1984.977 Z " fill="rgb(212,0,0)"/></g></g></g></g></svg>