<?xml version="1.0" encoding="UTF-8" standalone="no"?><!-- Generator: Gravit.io --><svg xmlns="http://www.w3.org/2000/svg" xmlns:xlink="http://www.w3.org/1999/xlink" style="isolation:isolate" viewBox="126.102 899.502 823.997 1280.997" width="823.997pt" height="1280.997pt"><defs><clipPath id="_clipPath_cJcoRFOcQRPDNoW0u1tMKMbxdznEmEdQ"><rect x="126.102" y="899.502" width="823.997" height="1280.997"/></clipPath></defs><g clip-path="url(#_clipPath_cJcoRFOcQRPDNoW0u1tMKMbxdznEmEdQ)"><g><g><g><g><path d="M 168.454 900.5 L 908.746 900.5 C 931.57 900.5 950.1 919.03 950.1 941.854 L 950.1 2139.146 C 950.1 2161.97 931.57 2180.5 908.746 2180.5 L 168.454 2180.5 C 145.63 2180.5 127.1 2161.97 127.1 2139.146 L 127.1 941.854 C 127.1 919.03 145.63 900.5 168.454 900.5 Z" style="stroke:none;fill:#FFFFFF;stroke-miterlimit:10;"/><path d="M 168.454 900.5 L 908.746 900.5 C 931.57 900.5 950.1 919.03 950.1 941.854 L 950.1 2139.146 C 950.1 2161.97 931.57 2180.5 908.746 2180.5 L 168.454 2180.5 C 145.63 2180.5 127.1 2161.97 127.1 2139.146 L 127.1 941.854 C 127.1 919.03 145.63 900.5 168.454 900.5 Z" style="fill:none;stroke:#000000;stroke-width:0.99673343;stroke-miterlimit:2;"/><g><path d=" M 151.832 1054.146 C 152.422 1036.185 158.36 1029.44 170.058 1020.036 C 160.728 1012.666 156.794 1001.823 157.588 992.584 C 159.511 970.225 175.321 959.038 192.558 959.525 C 209.794 960.012 224.65 974.975 225.808 991.223 C 226.816 1005.358 222.968 1012.169 213.799 1019.611 C 224.686 1029.633 231.644 1036.236 231.38 1053.929 C 231.116 1071.623 217.349 1092.681 193.353 1093.327 C 169.356 1093.973 151.241 1072.108 151.832 1054.146 Z  M 218.83 1054.206 C 219.86 1037.941 206.707 1026.967 191.868 1026.797 C 177.407 1026.631 164.47 1040.124 164.468 1054.727 C 164.468 1070.412 181.293 1078.933 192.16 1078.978 C 205.367 1079.032 217.944 1068.214 218.83 1054.206 Z  M 214.082 996.023 C 214.369 982.322 202.812 972.503 190.897 972.898 C 180.296 973.25 169.067 982.097 169.062 993.55 C 169.051 1007.877 181.826 1015.029 192.719 1015.299 C 202.602 1015.544 213.865 1006.372 214.082 996.023 L 214.082 996.023 Z " fill="rgb(212,0,0)"/><path d=" M 924.368 2025.854 C 923.778 2043.815 917.84 2050.56 906.142 2059.965 C 915.472 2067.334 919.406 2078.177 918.612 2087.416 C 916.689 2109.776 900.879 2120.963 883.642 2120.475 C 866.406 2119.988 851.55 2105.026 850.392 2088.777 C 849.384 2074.642 853.232 2067.831 862.401 2060.39 C 851.514 2050.367 844.555 2043.764 844.82 2026.071 C 845.084 2008.378 858.851 1987.32 882.847 1986.673 C 906.844 1986.027 924.959 2007.893 924.368 2025.854 L 924.368 2025.854 Z  M 857.37 2025.795 C 856.34 2042.059 869.493 2053.033 884.332 2053.204 C 898.793 2053.37 911.729 2039.876 911.732 2025.274 C 911.732 2009.588 894.907 2001.068 884.04 2001.023 C 870.833 2000.968 858.256 2011.786 857.37 2025.795 L 857.37 2025.795 Z  M 862.118 2083.977 C 861.831 2097.678 873.388 2107.497 885.303 2107.102 C 895.904 2106.75 907.133 2097.904 907.138 2086.45 C 907.149 2072.124 894.374 2064.971 883.48 2064.701 C 873.598 2064.456 862.335 2073.628 862.118 2083.977 L 862.118 2083.977 Z " fill="rgb(212,0,0)"/></g></g></g><path d=" M 161.927 1158.249 C 156.09 1143.995 155.45 1119.639 172.88 1116.345 C 186.013 1114.463 191.358 1121.264 192.42 1131.705 C 192.944 1134.755 194.491 1134.942 194.982 1131.466 C 195.735 1120.754 205.258 1114.501 212.702 1116.072 C 233.078 1119.953 231.888 1144.924 225.232 1161.866 C 215.163 1184.36 204.583 1198.555 194.834 1221.192 C 183.633 1197.625 170.843 1178.478 161.927 1158.249 L 161.927 1158.249 Z " fill="rgb(212,0,0)"/><path d=" M 290.885 1013.451 C 317.224 1011.504 330.955 1036.552 333.635 1056.293 C 335.232 1059.429 336.107 1058.546 336.72 1056.12 C 338.008 1030.775 358.38 1010.06 377.248 1012.893 C 407.951 1013.337 426.612 1051.379 421.365 1083.577 C 414.956 1122.91 395.928 1146.594 381.519 1170.986 C 365.219 1196.242 343.277 1232.724 336.208 1250.283 C 336.208 1250.283 313.909 1212.498 284.898 1168.06 C 265.499 1138.346 249.972 1106.146 248.527 1078.425 C 246.876 1046.752 258.553 1018.361 290.885 1013.451 L 290.885 1013.451 Z " fill="rgb(212,0,0)"/><path d=" M 694.712 1013.451 C 721.05 1011.504 734.781 1036.552 737.461 1056.293 C 739.059 1059.429 739.934 1058.546 740.546 1056.12 C 741.834 1030.775 762.206 1010.06 781.074 1012.893 C 811.778 1013.337 830.439 1051.379 825.192 1083.577 C 818.782 1122.91 799.754 1146.594 785.346 1170.986 C 769.045 1196.242 747.103 1232.724 740.034 1250.283 C 740.034 1250.283 717.735 1212.498 688.724 1168.06 C 669.325 1138.346 653.799 1106.146 652.354 1078.425 C 650.702 1046.752 662.379 1018.361 694.712 1013.451 L 694.712 1013.451 Z " fill="rgb(212,0,0)"/><path d=" M 490.648 1219.214 C 516.987 1217.266 530.718 1242.315 533.398 1262.056 C 534.995 1265.192 535.87 1264.308 536.483 1261.882 C 537.771 1236.537 558.143 1215.823 577.011 1218.655 C 607.714 1219.1 626.375 1257.142 621.128 1289.339 C 614.719 1328.672 595.691 1352.356 581.282 1376.748 C 564.982 1402.004 543.04 1438.486 535.971 1456.045 C 535.971 1456.045 513.672 1418.26 484.661 1373.823 C 465.262 1344.108 449.735 1311.909 448.29 1284.187 C 446.639 1252.515 458.316 1224.123 490.648 1219.214 L 490.648 1219.214 Z " fill="rgb(212,0,0)"/><path d=" M 290.885 1424.976 C 317.224 1423.029 330.955 1448.077 333.635 1467.818 C 335.232 1470.954 336.107 1470.07 336.72 1467.645 C 338.008 1442.299 358.38 1421.585 377.248 1424.418 C 407.951 1424.862 426.612 1462.904 421.365 1495.102 C 414.956 1534.434 395.928 1558.119 381.519 1582.511 C 365.219 1607.767 343.277 1644.249 336.208 1661.807 C 336.208 1661.807 313.909 1624.022 284.898 1579.585 C 265.499 1549.87 249.972 1517.671 248.527 1489.95 C 246.876 1458.277 258.553 1429.886 290.885 1424.976 L 290.885 1424.976 Z " fill="rgb(212,0,0)"/><path d=" M 694.712 1424.976 C 721.05 1423.029 734.781 1448.077 737.461 1467.818 C 739.059 1470.954 739.934 1470.07 740.546 1467.645 C 741.834 1442.299 762.206 1421.585 781.074 1424.418 C 811.778 1424.862 830.439 1462.904 825.192 1495.102 C 818.782 1534.434 799.754 1558.119 785.346 1582.511 C 769.045 1607.767 747.103 1644.249 740.034 1661.807 C 740.034 1661.807 717.735 1624.022 688.724 1579.585 C 669.325 1549.87 653.799 1517.671 652.354 1489.95 C 650.702 1458.277 662.379 1429.886 694.712 1424.976 L 694.712 1424.976 Z " fill="rgb(212,0,0)"/><path d=" M 694.712 2065.741 C 721.05 2067.689 734.781 2042.641 737.461 2022.899 C 739.059 2019.763 739.934 2020.647 740.546 2023.073 C 741.834 2048.418 762.206 2069.132 781.074 2066.3 C 811.778 2065.855 830.439 2027.813 825.192 1995.616 C 818.782 1956.283 799.754 1932.599 785.346 1908.207 C 769.045 1882.951 747.103 1846.469 740.034 1828.91 C 740.034 1828.91 717.735 1866.695 688.724 1911.133 C 669.325 1940.847 653.799 1973.046 652.354 2000.768 C 650.702 2032.44 662.379 2060.832 694.712 2065.741 L 694.712 2065.741 Z " fill="rgb(212,0,0)"/><path d=" M 490.648 1863.365 C 516.987 1865.313 530.718 1840.264 533.398 1820.523 C 534.995 1817.387 535.87 1818.271 536.483 1820.697 C 537.771 1846.042 558.143 1866.756 577.011 1863.924 C 607.714 1863.479 626.375 1825.437 621.128 1793.24 C 614.719 1753.907 595.691 1730.223 581.282 1705.831 C 564.982 1680.575 543.04 1644.093 535.971 1626.534 C 535.971 1626.534 513.672 1664.319 484.661 1708.756 C 465.262 1738.471 449.735 1770.67 448.29 1798.392 C 446.639 1830.064 458.316 1858.456 490.648 1863.365 L 490.648 1863.365 Z " fill="rgb(212,0,0)"/><path d=" M 290.885 2065.741 C 317.224 2067.689 330.955 2042.641 333.635 2022.899 C 335.232 2019.763 336.107 2020.647 336.72 2023.073 C 338.008 2048.418 358.38 2069.132 377.248 2066.3 C 407.951 2065.855 426.612 2027.813 421.365 1995.616 C 414.956 1956.283 395.928 1932.599 381.519 1908.207 C 365.219 1882.951 343.277 1846.469 336.208 1828.91 C 336.208 1828.91 313.909 1866.695 284.898 1911.133 C 265.499 1940.847 249.972 1973.046 248.527 2000.768 C 246.876 2032.44 258.553 2060.832 290.885 2065.741 L 290.885 2065.741 Z " fill="rgb(212,0,0)"/><path d=" M 858.052 1941.729 C 852.216 1955.983 851.575 1980.339 869.006 1983.634 C 882.139 1985.516 887.483 1978.715 888.546 1968.273 C 889.07 1965.223 890.616 1965.036 891.107 1968.513 C 891.861 1979.224 901.383 1985.477 908.827 1983.906 C 929.203 1980.025 928.013 1955.054 921.357 1938.112 C 911.289 1915.619 900.709 1901.423 890.959 1878.787 C 879.758 1902.354 866.968 1921.5 858.052 1941.729 L 858.052 1941.729 Z " fill="rgb(212,0,0)"/></g></g></g></svg>