<?xml version="1.0" encoding="UTF-8" standalone="no"?><!-- Generator: Gravit.io --><svg xmlns="http://www.w3.org/2000/svg" xmlns:xlink="http://www.w3.org/1999/xlink" style="isolation:isolate" viewBox="-86.898 875.502 823.997 1280.997" width="823.997pt" height="1280.997pt"><defs><clipPath id="_clipPath_OQ8od69VftmjEEI6ugQXL58Mn5aUoP0S"><rect x="-86.898" y="875.502" width="823.997" height="1280.997"/></clipPath></defs><g clip-path="url(#_clipPath_OQ8od69VftmjEEI6ugQXL58Mn5aUoP0S)"><g><g><g><g><path d="M -44.546 876.5 L 695.746 876.5 C 718.57 876.5 737.1 895.03 737.1 917.854 L 737.1 2115.146 C 737.1 2137.97 718.57 2156.5 695.746 2156.5 L -44.546 2156.5 C -67.37 2156.5 -85.9 2137.97 -85.9 2115.146 L -85.9 917.854 C -85.9 895.03 -67.37 876.5 -44.546 876.5 Z" style="stroke:none;fill:#FFFFFF;stroke-miterlimit:10;"/><path d="M -44.546 876.5 L 695.746 876.5 C 718.57 876.5 737.1 895.03 737.1 917.854 L 737.1 2115.146 C 737.1 2137.97 718.57 2156.5 695.746 2156.5 L -44.546 2156.5 C -67.37 2156.5 -85.9 2137.97 -85.9 2115.146 L -85.9 917.854 C -85.9 895.03 -67.37 876.5 -44.546 876.5 Z" style="fill:none;stroke:#000000;stroke-width:0.99673343;stroke-miterlimit:2;"/><g><path d=" M -61.168 1030.146 C -60.578 1012.185 -54.64 1005.44 -42.942 996.036 C -52.272 988.666 -56.206 977.823 -55.412 968.584 C -53.489 946.225 -37.679 935.038 -20.442 935.525 C -3.206 936.012 11.65 950.975 12.808 967.223 C 13.816 981.358 9.968 988.169 0.799 995.611 C 11.686 1005.633 18.644 1012.236 18.38 1029.929 C 18.116 1047.623 4.349 1068.681 -19.647 1069.327 C -43.644 1069.973 -61.759 1048.108 -61.168 1030.146 Z  M 5.83 1030.206 C 6.86 1013.941 -6.293 1002.967 -21.132 1002.797 C -35.593 1002.631 -48.53 1016.124 -48.532 1030.727 C -48.532 1046.412 -31.707 1054.933 -20.84 1054.978 C -7.633 1055.032 4.944 1044.214 5.83 1030.206 Z  M 1.082 972.023 C 1.369 958.322 -10.188 948.503 -22.103 948.898 C -32.704 949.25 -43.933 958.097 -43.938 969.55 C -43.949 983.877 -31.174 991.029 -20.281 991.299 C -10.398 991.544 0.865 982.372 1.082 972.023 L 1.082 972.023 Z " fill="rgb(0,0,0)"/><path d=" M 711.368 2001.854 C 710.778 2019.815 704.84 2026.56 693.142 2035.965 C 702.472 2043.334 706.406 2054.177 705.612 2063.416 C 703.689 2085.776 687.879 2096.963 670.642 2096.475 C 653.406 2095.988 638.55 2081.026 637.392 2064.777 C 636.384 2050.642 640.232 2043.831 649.401 2036.39 C 638.514 2026.367 631.555 2019.764 631.82 2002.071 C 632.084 1984.378 645.851 1963.32 669.847 1962.673 C 693.844 1962.027 711.959 1983.893 711.368 2001.854 L 711.368 2001.854 Z  M 644.37 2001.795 C 643.34 2018.059 656.493 2029.033 671.332 2029.204 C 685.793 2029.37 698.729 2015.876 698.732 2001.274 C 698.732 1985.588 681.907 1977.068 671.04 1977.023 C 657.833 1976.968 645.256 1987.786 644.37 2001.795 L 644.37 2001.795 Z  M 649.118 2059.977 C 648.831 2073.678 660.388 2083.497 672.303 2083.102 C 682.904 2082.75 694.133 2073.904 694.138 2062.45 C 694.149 2048.124 681.374 2040.971 670.48 2040.701 C 660.598 2040.456 649.335 2049.628 649.118 2059.977 L 649.118 2059.977 Z " fill="rgb(0,0,0)"/></g></g></g><path d=" M 107.045 1154.463 C 107.101 1146.148 101.195 1145.989 101.262 1152.058 C 100.767 1182.553 77.606 1197.569 60.779 1194.007 C 34.838 1188.516 26.559 1159.844 26.806 1142.959 C 27.57 1090.84 74.69 1052.408 117.207 985.593 C 148.361 1045.9 199.781 1093.267 202.826 1139.885 C 206.873 1201.863 136.43 1224.981 126.373 1152.745 C 125.724 1147.642 120.327 1145.351 120.746 1152.478 C 122.274 1172.275 120.101 1180.521 140.16 1229.322 L 87.727 1229.322 C 99.34 1206.519 106.255 1178.524 107.045 1154.463 L 107.045 1154.463 Z " fill="rgb(0,0,0)"/><path d=" M 518.245 1154.463 C 518.3 1146.148 512.395 1145.989 512.462 1152.058 C 511.967 1182.553 488.805 1197.569 471.978 1194.007 C 446.038 1188.516 437.758 1159.844 438.006 1142.959 C 438.77 1090.84 485.889 1052.408 528.407 985.593 C 559.561 1045.9 610.981 1093.267 614.025 1139.885 C 618.072 1201.863 547.63 1224.981 537.572 1152.745 C 536.923 1147.642 531.527 1145.351 531.946 1152.478 C 533.474 1172.275 531.301 1180.521 551.359 1229.322 L 498.927 1229.322 C 510.539 1206.519 517.454 1178.524 518.245 1154.463 L 518.245 1154.463 Z " fill="rgb(0,0,0)"/><path d=" M 314.182 1360.226 C 314.237 1351.91 308.331 1351.751 308.398 1357.821 C 307.903 1388.316 284.742 1403.331 267.915 1399.769 C 241.974 1394.278 233.695 1365.607 233.942 1348.721 C 234.706 1296.602 281.826 1258.17 324.344 1191.356 C 355.497 1251.662 406.918 1299.03 409.962 1345.647 C 414.009 1407.625 343.567 1430.744 333.509 1358.507 C 332.86 1353.404 327.464 1351.114 327.883 1358.24 C 329.411 1378.037 327.238 1386.283 347.296 1435.084 L 294.863 1435.084 C 306.476 1412.281 313.391 1384.286 314.182 1360.226 L 314.182 1360.226 Z " fill="rgb(0,0,0)"/><path d=" M 107.045 1565.988 C 107.101 1557.672 101.195 1557.513 101.262 1563.583 C 100.767 1594.078 77.606 1609.093 60.779 1605.532 C 34.838 1600.041 26.559 1571.369 26.806 1554.484 C 27.57 1502.365 74.69 1463.933 117.207 1397.118 C 148.361 1457.424 199.781 1504.792 202.826 1551.41 C 206.873 1613.388 136.43 1636.506 126.373 1564.269 C 125.724 1559.167 120.327 1556.876 120.746 1564.003 C 122.274 1583.8 120.101 1592.046 140.16 1640.847 L 87.727 1640.847 C 99.34 1618.044 106.255 1590.048 107.045 1565.988 L 107.045 1565.988 Z " fill="rgb(0,0,0)"/><path d=" M 518.245 1565.988 C 518.3 1557.672 512.395 1557.513 512.462 1563.583 C 511.967 1594.078 488.805 1609.093 471.978 1605.532 C 446.038 1600.041 437.758 1571.369 438.006 1554.484 C 438.77 1502.365 485.889 1463.933 528.407 1397.118 C 559.561 1457.424 610.981 1504.792 614.025 1551.41 C 618.072 1613.388 547.63 1636.506 537.572 1564.269 C 536.923 1559.167 531.527 1556.876 531.946 1564.003 C 533.474 1583.8 531.301 1592.046 551.359 1640.847 L 498.927 1640.847 C 510.539 1618.044 517.454 1590.048 518.245 1565.988 L 518.245 1565.988 Z " fill="rgb(0,0,0)"/><path d=" M 518.285 1876.834 C 518.34 1885.15 512.435 1885.309 512.502 1879.239 C 512.006 1848.744 488.845 1833.728 472.018 1837.29 C 446.078 1842.781 437.798 1871.453 438.045 1888.338 C 438.809 1940.457 485.929 1978.889 528.447 2045.704 C 559.601 1985.397 611.021 1938.03 614.065 1891.412 C 618.112 1829.434 547.67 1806.316 537.612 1878.552 C 536.963 1883.655 531.567 1885.946 531.986 1878.819 C 533.514 1859.022 531.341 1850.776 551.399 1801.975 L 498.967 1801.975 C 510.579 1824.778 517.494 1852.773 518.285 1876.834 L 518.285 1876.834 Z " fill="rgb(0,0,0)"/><path d=" M 314.221 1674.458 C 314.277 1682.773 308.371 1682.932 308.438 1676.863 C 307.943 1646.368 284.782 1631.352 267.955 1634.914 C 242.014 1640.405 233.735 1669.077 233.982 1685.962 C 234.746 1738.081 281.866 1776.513 324.383 1843.328 C 355.537 1783.021 406.958 1735.654 410.002 1689.036 C 414.049 1627.058 343.606 1603.94 333.549 1676.176 C 332.9 1681.279 327.504 1683.57 327.922 1676.443 C 329.451 1656.646 327.278 1648.4 347.336 1599.599 L 294.903 1599.599 C 306.516 1622.402 313.431 1650.397 314.221 1674.458 L 314.221 1674.458 Z " fill="rgb(0,0,0)"/><path d=" M 107.085 1876.834 C 107.14 1885.15 101.235 1885.309 101.302 1879.239 C 100.807 1848.744 77.646 1833.728 60.819 1837.29 C 34.878 1842.781 26.598 1871.453 26.846 1888.338 C 27.61 1940.457 74.729 1978.889 117.247 2045.704 C 148.401 1985.397 199.821 1938.03 202.865 1891.412 C 206.912 1829.434 136.47 1806.316 126.412 1878.552 C 125.764 1883.655 120.367 1885.946 120.786 1878.819 C 122.314 1859.022 120.141 1850.776 140.2 1801.975 L 87.767 1801.975 C 99.379 1824.778 106.295 1852.773 107.085 1876.834 L 107.085 1876.834 Z " fill="rgb(0,0,0)"/><path d=" M -20.675 1171.425 C -20.638 1167.847 -23.976 1169.517 -24.427 1170.643 C -28.716 1178.794 -34.989 1180.691 -41.195 1177.753 C -47.342 1174.842 -50.796 1168.392 -50.242 1159.189 C -49.098 1145.076 -39.051 1129.634 -34.186 1120.904 C -29.57 1112.982 -24.497 1103.572 -19.156 1091.536 C -12.898 1105.343 -9.722 1109.273 -2.914 1121.879 C 3.08 1132.981 11.436 1143.853 12.082 1157.274 C 12.082 1167.475 8.225 1177.109 -0.451 1178.864 C -5.36 1179.857 -9.958 1177.052 -13.369 1170.503 C -14.408 1168.834 -16.498 1169.704 -16.463 1171.988 C -15.854 1180.582 -12.941 1188.34 -6.032 1197.488 L -31.423 1197.488 C -26.224 1191.018 -20.92 1182.284 -20.675 1171.425 L -20.675 1171.425 Z " fill="rgb(0,0,0)"/><path d=" M 675.451 1880.554 C 675.488 1884.131 672.15 1882.461 671.698 1881.335 C 667.41 1873.184 661.136 1871.287 654.931 1874.226 C 648.784 1877.137 645.33 1883.587 645.884 1892.79 C 647.028 1906.902 657.075 1922.344 661.94 1931.074 C 666.556 1938.997 671.629 1948.406 676.97 1960.442 C 683.227 1946.636 686.403 1942.706 693.211 1930.1 C 699.206 1918.998 707.562 1908.125 708.207 1894.704 C 708.207 1884.504 704.351 1874.869 695.674 1873.114 C 690.765 1872.121 686.167 1874.927 682.756 1881.476 C 681.717 1883.145 679.627 1882.275 679.662 1879.99 C 680.271 1871.397 683.184 1863.639 690.094 1854.491 L 664.703 1854.491 C 669.901 1860.96 675.205 1869.695 675.451 1880.554 L 675.451 1880.554 Z " fill="rgb(0,0,0)"/></g></g></g></svg>