<?xml version="1.0" encoding="UTF-8" standalone="no"?><!-- Generator: Gravit.io --><svg xmlns="http://www.w3.org/2000/svg" xmlns:xlink="http://www.w3.org/1999/xlink" style="isolation:isolate" viewBox="-74.898 458.502 823.997 1280.997" width="823.997pt" height="1280.997pt"><defs><clipPath id="_clipPath_1tpJ9GfgqqD2nimwjfNwwhukyTiWLoxx"><rect x="-74.898" y="458.502" width="823.997" height="1280.997"/></clipPath></defs><g clip-path="url(#_clipPath_1tpJ9GfgqqD2nimwjfNwwhukyTiWLoxx)"><g><g><g><g><g><path d="M -32.546 459.5 L 707.746 459.5 C 730.57 459.5 749.1 478.03 749.1 500.854 L 749.1 1698.146 C 749.1 1720.97 730.57 1739.5 707.746 1739.5 L -32.546 1739.5 C -55.37 1739.5 -73.9 1720.97 -73.9 1698.146 L -73.9 500.854 C -73.9 478.03 -55.37 459.5 -32.546 459.5 Z" style="stroke:none;fill:#FFFFFF;stroke-miterlimit:10;"/><path d="M -32.546 459.5 L 707.746 459.5 C 730.57 459.5 749.1 478.03 749.1 500.854 L 749.1 1698.146 C 749.1 1720.97 730.57 1739.5 707.746 1739.5 L -32.546 1739.5 C -55.37 1739.5 -73.9 1720.97 -73.9 1698.146 L -73.9 500.854 C -73.9 478.03 -55.37 459.5 -32.546 459.5 Z" style="fill:none;stroke:#000000;stroke-width:0.99673343;stroke-miterlimit:2;"/><g/></g></g><g><g><path d=" M -44.071 620.536 L -32.912 616.669 C -28.703 628.966 -20.193 632.592 -11.191 631.813 C 4.965 630.414 10.327 610.678 11.539 593.228 C 5.244 600.51 -4.219 604.211 -12.276 603.85 C -38.019 602.334 -44.608 579.817 -44.848 556.226 C -45.563 536.332 -38.036 521.926 -25.129 515.326 C -18.3 511.975 -2.659 511.974 4.216 515.936 C 20.003 525.034 25.846 540.766 24.786 578.296 C 24.802 609.181 18.796 645.156 -11.483 645.927 C -28.987 648.571 -42.277 633.694 -44.071 620.536 L -44.071 620.536 Z  M -0.244 586.695 C 5.009 583.06 7.973 579.65 10.328 574.536 C 12.261 570.338 12.915 568.16 12.364 559.468 C 10.945 537.074 0.2 524.38 -15.378 526.902 C -24.066 528.308 -28.809 533.627 -31.536 543.518 C -36.57 561.783 -30.188 583.162 -18.232 588.087 C -12.839 590.308 -4.536 589.666 -0.244 586.695 L -0.244 586.695 Z " fill="rgb(0,0,0)"/><path d=" M 715.544 1577.464 L 704.385 1581.33 C 700.176 1569.034 691.666 1565.408 682.664 1566.187 C 666.508 1567.586 661.146 1587.322 659.935 1604.772 C 666.23 1597.489 675.693 1593.789 683.75 1594.15 C 709.492 1595.666 716.081 1618.183 716.321 1641.774 C 717.036 1661.668 709.509 1676.074 696.603 1682.674 C 689.774 1686.025 674.133 1686.026 667.258 1682.064 C 651.471 1672.966 645.628 1657.234 646.688 1619.704 C 646.671 1588.819 652.677 1552.844 682.957 1552.073 C 700.46 1549.429 713.751 1564.305 715.544 1577.464 L 715.544 1577.464 Z  M 671.718 1611.305 C 666.465 1614.94 663.5 1618.35 661.146 1623.464 C 659.213 1627.662 658.559 1629.84 659.11 1638.532 C 660.529 1660.926 671.273 1673.62 686.851 1671.098 C 695.539 1669.692 700.283 1664.373 703.009 1654.482 C 708.044 1636.217 701.662 1614.838 689.705 1609.913 C 684.312 1607.692 676.01 1608.334 671.718 1611.305 L 671.718 1611.305 Z " fill="rgb(0,0,0)"/><path d=" M 497.181 1080.19 C 507.795 1056.481 515.526 1032.157 516.898 1006.146 C 518.158 996.574 512.936 996.414 512.149 1003.155 C 497.12 1067.164 417.167 1049.831 419.916 989.623 C 422.146 940.794 465.704 930.289 488.425 946.255 C 497.397 952.137 496.891 948.614 491.994 942.512 C 458.242 900.593 478.684 846.611 524.295 845.623 C 573.623 848.88 586.422 906.664 556.164 940.648 C 552.401 944.731 544.058 957.853 556.618 948.678 C 587.169 924.508 629.57 950.496 628.705 987.761 C 627.109 1056.475 551.875 1061.6 535.785 1004.205 C 534.238 997.842 529.779 994.646 531.011 1005.455 C 533.241 1025.022 537.855 1054.524 551.057 1080.19 L 497.181 1080.19 Z " fill="rgb(0,0,0)"/><path d=" M 309.817 1191.653 C 320.431 1167.945 328.162 1143.62 329.534 1117.609 C 330.794 1108.038 325.572 1107.877 324.785 1114.618 C 309.756 1178.628 229.803 1161.294 232.552 1101.086 C 234.782 1052.257 278.34 1041.753 301.061 1057.718 C 310.034 1063.6 309.527 1060.077 304.63 1053.975 C 270.878 1012.057 291.32 958.074 336.931 957.086 C 386.259 960.343 399.058 1018.128 368.8 1052.111 C 365.037 1056.194 356.695 1069.317 369.254 1060.142 C 399.805 1035.971 442.206 1061.96 441.341 1099.225 C 439.745 1167.939 364.511 1173.064 348.421 1115.669 C 346.874 1109.305 342.415 1106.11 343.647 1116.918 C 345.877 1136.485 350.491 1165.987 363.694 1191.653 L 309.817 1191.653 Z " fill="rgb(0,0,0)"/><path d=" M 122.849 1080.19 C 133.463 1056.481 141.194 1032.157 142.566 1006.146 C 143.826 996.574 138.604 996.414 137.817 1003.155 C 122.788 1067.164 42.835 1049.831 45.584 989.623 C 47.814 940.794 91.372 930.289 114.093 946.255 C 123.066 952.137 122.559 948.614 117.662 942.512 C 83.91 900.593 104.352 846.611 149.963 845.623 C 199.291 848.88 212.09 906.664 181.832 940.648 C 178.069 944.731 169.727 957.853 182.286 948.678 C 212.837 924.508 255.238 950.496 254.373 987.761 C 252.777 1056.475 177.543 1061.6 161.453 1004.205 C 159.906 997.842 155.447 994.646 156.679 1005.455 C 158.909 1025.022 163.523 1054.524 176.726 1080.19 L 122.849 1080.19 Z " fill="rgb(0,0,0)"/><path d=" M 497.181 812.004 C 507.795 788.296 515.526 763.971 516.898 737.96 C 518.158 728.389 512.936 728.228 512.149 734.969 C 497.12 798.979 417.167 781.646 419.916 721.437 C 422.146 672.608 465.704 662.104 488.425 678.069 C 497.397 683.951 496.891 680.428 491.994 674.326 C 458.242 632.408 478.684 578.425 524.295 577.437 C 573.623 580.694 586.422 638.479 556.164 672.462 C 552.401 676.545 544.058 689.668 556.618 680.493 C 587.169 656.322 629.57 682.311 628.705 719.576 C 627.109 788.29 551.875 793.415 535.785 736.02 C 534.238 729.656 529.779 726.461 531.011 737.269 C 533.241 756.836 537.855 786.338 551.057 812.004 L 497.181 812.004 Z " fill="rgb(0,0,0)"/><path d=" M 122.849 812.004 C 133.463 788.296 141.194 763.971 142.566 737.96 C 143.826 728.389 138.604 728.228 137.817 734.969 C 122.788 798.979 42.835 781.646 45.584 721.437 C 47.814 672.608 91.372 662.104 114.093 678.069 C 123.066 683.951 122.559 680.428 117.662 674.326 C 83.91 632.408 104.352 578.425 149.963 577.437 C 199.291 580.694 212.09 638.479 181.832 672.462 C 178.069 676.545 169.727 689.668 182.286 680.493 C 212.837 656.322 255.238 682.311 254.373 719.576 C 252.777 788.29 177.543 793.415 161.453 736.02 C 159.906 729.656 155.447 726.461 156.679 737.269 C 158.909 756.836 163.523 786.338 176.726 812.004 L 122.849 812.004 Z " fill="rgb(0,0,0)"/><path d=" M 177.052 1387.499 C 166.438 1411.207 158.707 1435.532 157.335 1461.543 C 156.075 1471.115 161.297 1471.275 162.084 1464.534 C 177.113 1400.525 257.066 1417.858 254.317 1478.066 C 252.087 1526.895 208.529 1537.4 185.808 1521.434 C 176.835 1515.552 177.342 1519.075 182.239 1525.177 C 215.991 1567.095 195.549 1621.078 149.938 1622.066 C 100.61 1618.809 87.811 1561.024 118.069 1527.041 C 121.832 1522.958 130.174 1509.836 117.615 1519.01 C 87.064 1543.181 44.663 1517.193 45.528 1479.927 C 47.124 1411.213 122.358 1406.088 138.448 1463.483 C 139.995 1469.847 144.454 1473.042 143.222 1462.234 C 140.992 1442.667 136.378 1413.165 123.175 1387.499 L 177.052 1387.499 Z " fill="rgb(0,0,0)"/><path d=" M 551.384 1387.499 C 540.77 1411.207 533.039 1435.532 531.667 1461.543 C 530.407 1471.115 535.629 1471.275 536.416 1464.534 C 551.445 1400.525 631.398 1417.858 628.649 1478.066 C 626.418 1526.895 582.861 1537.4 560.14 1521.434 C 551.167 1515.552 551.674 1519.075 556.571 1525.177 C 590.323 1567.095 569.881 1621.078 524.27 1622.066 C 474.942 1618.809 462.143 1561.024 492.401 1527.041 C 496.163 1522.958 504.506 1509.836 491.947 1519.01 C 461.395 1543.181 418.995 1517.193 419.86 1479.927 C 421.456 1411.213 496.69 1406.088 512.78 1463.483 C 514.327 1469.847 518.786 1473.042 517.554 1462.234 C 515.324 1442.667 510.709 1413.165 497.507 1387.499 L 551.384 1387.499 Z " fill="rgb(0,0,0)"/><path d=" M 551.384 1120.238 C 540.77 1143.947 533.039 1168.271 531.667 1194.282 C 530.407 1203.854 535.629 1204.014 536.416 1197.273 C 551.445 1133.264 631.398 1150.597 628.649 1210.805 C 626.418 1259.634 582.861 1270.139 560.14 1254.173 C 551.167 1248.291 551.674 1251.814 556.571 1257.916 C 590.323 1299.834 569.881 1353.817 524.27 1354.805 C 474.942 1351.548 462.143 1293.763 492.401 1259.78 C 496.163 1255.697 504.506 1242.575 491.947 1251.749 C 461.395 1275.92 418.995 1249.932 419.86 1212.666 C 421.456 1143.952 496.69 1138.828 512.78 1196.222 C 514.327 1202.586 518.786 1205.781 517.554 1194.973 C 515.324 1175.406 510.709 1145.904 497.507 1120.238 L 551.384 1120.238 Z " fill="rgb(0,0,0)"/><path d=" M 177.052 1120.238 C 166.438 1143.947 158.707 1168.271 157.335 1194.282 C 156.075 1203.854 161.297 1204.014 162.084 1197.273 C 177.113 1133.264 257.066 1150.597 254.317 1210.805 C 252.087 1259.634 208.529 1270.139 185.808 1254.173 C 176.835 1248.291 177.342 1251.814 182.239 1257.916 C 215.991 1299.834 195.549 1353.817 149.938 1354.805 C 100.61 1351.548 87.811 1293.763 118.069 1259.78 C 121.832 1255.697 130.174 1242.575 117.615 1251.749 C 87.064 1275.92 44.663 1249.932 45.528 1212.666 C 47.124 1143.952 122.358 1138.828 138.448 1196.222 C 139.995 1202.586 144.454 1205.781 143.222 1194.973 C 140.992 1175.406 136.378 1145.904 123.175 1120.238 L 177.052 1120.238 Z " fill="rgb(0,0,0)"/><path d=" M -25.874 757.652 C -21.479 747.614 -17.202 738.272 -14.872 727.271 C -13.326 716.895 -16.488 720.75 -18.283 727.551 C -20.942 736.982 -28.321 741.277 -35.169 741.38 C -47.597 741.567 -53.797 730.689 -53.41 718.991 C -54.768 706.682 -43.563 697.973 -35.118 698.644 C -28.768 699.148 -23.231 702.962 -19.88 705.931 C -17.682 707.225 -15.331 707.797 -18.609 704.459 C -24.794 696.935 -29.952 692.291 -29.839 681.016 C -29.732 670.43 -21.604 659.39 -10.832 659.736 C 2.63 660.169 8.752 671.6 8.72 682.234 C 8.683 689.986 5.205 697.12 -0.17 701.539 C -3.651 704.684 -2.675 707.039 1.296 704.063 C 5.112 700.401 9.655 698.798 14.365 698.685 C 27.234 698.461 32.265 710.842 31.528 722.348 C 30.837 733.126 22.595 744.221 11.733 742.964 C 2.034 741.727 -3.062 732.661 -5.982 723.355 C -6.949 720.502 -8.475 719.731 -8.432 723.983 C -6.192 744.744 0.754 757.663 0.804 757.651 L -25.874 757.652 Z " fill="rgb(0,0,0)"/><path d=" M 700.075 1433.642 C 695.68 1443.679 691.402 1453.021 689.072 1464.023 C 687.527 1474.399 690.688 1470.544 692.483 1463.743 C 695.142 1454.312 702.521 1450.017 709.369 1449.914 C 721.797 1449.727 727.997 1460.604 727.611 1472.302 C 728.968 1484.612 717.763 1493.321 709.318 1492.65 C 702.968 1492.145 697.431 1488.331 694.081 1485.363 C 691.882 1484.069 689.531 1483.497 692.809 1486.835 C 698.994 1494.359 704.152 1499.003 704.039 1510.278 C 703.932 1520.864 695.805 1531.904 685.032 1531.557 C 671.57 1531.124 665.448 1519.693 665.48 1509.06 C 665.517 1501.308 668.996 1494.173 674.37 1489.755 C 677.851 1486.61 676.875 1484.255 672.904 1487.231 C 669.088 1490.893 664.546 1492.496 659.835 1492.608 C 646.966 1492.833 641.935 1480.451 642.672 1468.946 C 643.363 1458.167 651.605 1447.073 662.467 1448.329 C 672.166 1449.567 677.262 1458.633 680.182 1467.939 C 681.149 1470.792 682.675 1471.563 682.632 1467.31 C 680.392 1446.549 673.446 1433.631 673.396 1433.642 L 700.075 1433.642 Z " fill="rgb(0,0,0)"/></g></g></g></g></g></g></svg>