<?xml version="1.0" encoding="UTF-8" standalone="no"?><!-- Generator: Gravit.io --><svg xmlns="http://www.w3.org/2000/svg" xmlns:xlink="http://www.w3.org/1999/xlink" style="isolation:isolate" viewBox="87.102 851.502 823.997 1280.997" width="823.997pt" height="1280.997pt"><defs><clipPath id="_clipPath_LCbKoEamU5HU2MZtrlJziLlb5pyeoP8m"><rect x="87.102" y="851.502" width="823.997" height="1280.997"/></clipPath></defs><g clip-path="url(#_clipPath_LCbKoEamU5HU2MZtrlJziLlb5pyeoP8m)"><g><g><path d="M 129.454 852.5 L 869.746 852.5 C 892.57 852.5 911.1 871.03 911.1 893.854 L 911.1 2091.146 C 911.1 2113.97 892.57 2132.5 869.746 2132.5 L 129.454 2132.5 C 106.63 2132.5 88.1 2113.97 88.1 2091.146 L 88.1 893.854 C 88.1 871.03 106.63 852.5 129.454 852.5 Z" style="stroke:none;fill:#FFFFFF;stroke-miterlimit:10;"/><path d="M 129.454 852.5 L 869.746 852.5 C 892.57 852.5 911.1 871.03 911.1 893.854 L 911.1 2091.146 C 911.1 2113.97 892.57 2132.5 869.746 2132.5 L 129.454 2132.5 C 106.63 2132.5 88.1 2113.97 88.1 2091.146 L 88.1 893.854 C 88.1 871.03 106.63 852.5 129.454 852.5 Z" style="fill:none;stroke:#000000;stroke-width:0.99673343;stroke-miterlimit:2;"/><g><g><path d=" M 208.066 1088.688 C 244.641 1048.945 268.663 1005.613 291.635 963.94 C 311.781 1009.793 340.691 1049.909 371.957 1088.688 C 338.505 1127.146 312.58 1168.27 291.735 1211.502 C 268.628 1167.185 244.3 1127.054 208.066 1088.688 Z " fill="rgb(212,0,0)"/><path d=" M 208.066 1356.873 C 244.641 1317.13 268.663 1273.798 291.635 1232.125 C 311.781 1277.979 340.691 1318.094 371.957 1356.873 C 338.505 1395.332 312.58 1436.455 291.735 1479.687 C 268.628 1435.37 244.3 1395.24 208.066 1356.873 Z " fill="rgb(212,0,0)"/><path d=" M 208.066 1631.488 C 244.641 1591.745 268.663 1548.413 291.635 1506.74 C 311.781 1552.594 340.691 1592.709 371.957 1631.488 C 338.505 1669.947 312.58 1711.07 291.735 1754.302 C 268.628 1709.986 244.301 1669.855 208.066 1631.488 L 208.066 1631.488 Z " fill="rgb(212,0,0)"/><path d=" M 208.066 1898.749 C 244.641 1859.007 268.663 1815.674 291.635 1774.001 C 311.781 1819.855 340.691 1859.97 371.957 1898.749 C 338.505 1937.208 312.58 1978.331 291.735 2021.563 C 268.628 1977.247 244.301 1937.116 208.066 1898.749 Z " fill="rgb(212,0,0)"/><path d=" M 416.165 1492.903 C 452.741 1453.16 476.762 1409.828 499.735 1368.155 C 519.881 1414.009 548.791 1454.124 580.056 1492.903 C 546.605 1531.362 520.68 1572.485 499.835 1615.717 C 476.727 1571.401 452.4 1531.27 416.165 1492.903 L 416.165 1492.903 Z " fill="rgb(212,0,0)"/><path d=" M 619.266 1088.688 C 655.841 1048.945 679.863 1005.613 702.835 963.94 C 722.981 1009.793 751.891 1049.909 783.157 1088.688 C 749.705 1127.146 723.78 1168.27 702.935 1211.502 C 679.828 1167.185 655.5 1127.054 619.266 1088.688 Z " fill="rgb(212,0,0)"/><path d=" M 619.266 1356.873 C 655.841 1317.13 679.863 1273.798 702.835 1232.125 C 722.981 1277.979 751.891 1318.094 783.157 1356.873 C 749.705 1395.332 723.78 1436.455 702.935 1479.687 C 679.828 1435.37 655.5 1395.24 619.266 1356.873 Z " fill="rgb(212,0,0)"/><path d=" M 619.266 1631.488 C 655.841 1591.745 679.863 1548.413 702.835 1506.74 C 722.981 1552.594 751.891 1592.709 783.157 1631.488 C 749.705 1669.947 723.78 1711.07 702.935 1754.302 C 679.828 1709.986 655.5 1669.855 619.266 1631.488 L 619.266 1631.488 Z " fill="rgb(212,0,0)"/><path d=" M 619.266 1898.749 C 655.841 1859.007 679.863 1815.674 702.835 1774.001 C 722.981 1819.855 751.891 1859.97 783.157 1898.749 C 749.705 1937.208 723.78 1978.331 702.935 2021.563 C 679.828 1977.247 655.5 1937.116 619.266 1898.749 Z " fill="rgb(212,0,0)"/><path d=" M 813.776 1865.041 C 828.759 1848.76 838.599 1831.01 848.01 1813.939 C 856.262 1832.722 868.105 1849.155 880.913 1865.041 C 867.21 1880.795 856.59 1897.641 848.051 1915.351 C 838.585 1897.197 828.619 1880.757 813.776 1865.041 L 813.776 1865.041 Z " fill="rgb(212,0,0)"/><path d=" M 117.651 1102.086 C 132.634 1085.806 142.474 1068.055 151.884 1050.984 C 160.137 1069.767 171.98 1086.2 184.788 1102.086 C 171.084 1117.84 160.464 1134.686 151.925 1152.396 C 142.459 1134.242 132.494 1117.803 117.651 1102.086 Z " fill="rgb(212,0,0)"/><path d=" M 118.111 1013.536 L 129.27 1009.669 C 133.479 1021.966 141.989 1025.592 150.991 1024.813 C 167.147 1023.414 172.509 1003.678 173.72 986.228 C 167.425 993.51 157.963 997.211 149.905 996.85 C 124.163 995.334 117.574 972.817 117.334 949.226 C 116.619 929.332 124.146 914.926 137.053 908.326 C 143.881 904.975 159.522 904.974 166.397 908.936 C 182.185 918.034 188.027 933.766 186.967 971.296 C 186.984 1002.181 180.978 1038.156 150.699 1038.927 C 133.195 1041.571 119.905 1026.694 118.111 1013.536 L 118.111 1013.536 Z  M 161.937 979.695 C 167.19 976.06 170.155 972.65 172.51 967.536 C 174.442 963.338 175.096 961.16 174.546 952.468 C 173.126 930.074 162.382 917.38 146.804 919.902 C 138.116 921.308 133.372 926.627 130.646 936.518 C 125.611 954.783 131.993 976.162 143.95 981.087 C 149.343 983.308 157.645 982.666 161.937 979.695 L 161.937 979.695 Z " fill="rgb(212,0,0)"/><path d=" M 877.726 1970.464 L 866.567 1974.33 C 862.358 1962.034 853.848 1958.408 844.846 1959.187 C 828.69 1960.586 823.328 1980.322 822.116 1997.772 C 828.411 1990.489 837.874 1986.789 845.932 1987.15 C 871.674 1988.666 878.263 2011.183 878.503 2034.774 C 879.218 2054.668 871.691 2069.074 858.784 2075.674 C 851.956 2079.025 836.315 2079.026 829.439 2075.064 C 813.652 2065.966 807.81 2050.234 808.869 2012.704 C 808.853 1981.819 814.859 1945.844 845.138 1945.073 C 862.642 1942.429 875.932 1957.305 877.726 1970.464 L 877.726 1970.464 Z  M 833.9 2004.305 C 828.647 2007.94 825.682 2011.35 823.327 2016.464 C 821.394 2020.662 820.74 2022.84 821.291 2031.532 C 822.711 2053.926 833.455 2066.62 849.033 2064.098 C 857.721 2062.692 862.464 2057.373 865.191 2047.482 C 870.226 2029.217 863.843 2007.838 851.887 2002.913 C 846.494 2000.692 838.192 2001.334 833.9 2004.305 L 833.9 2004.305 Z " fill="rgb(212,0,0)"/></g></g></g></g></g></svg>