<?xml version="1.0" encoding="UTF-8" standalone="no"?><!-- Generator: Gravit.io --><svg xmlns="http://www.w3.org/2000/svg" xmlns:xlink="http://www.w3.org/1999/xlink" style="isolation:isolate" viewBox="-2.898 908.502 823.997 1280.997" width="823.997pt" height="1280.997pt"><defs><clipPath id="_clipPath_pmpWDegb3KOOoy0RiWsBqVT5GHt0qcLQ"><rect x="-2.898" y="908.502" width="823.997" height="1280.997"/></clipPath></defs><g clip-path="url(#_clipPath_pmpWDegb3KOOoy0RiWsBqVT5GHt0qcLQ)"><g><g><g><g><path d="M 39.454 909.5 L 779.746 909.5 C 802.57 909.5 821.1 928.03 821.1 950.854 L 821.1 2148.146 C 821.1 2170.97 802.57 2189.5 779.746 2189.5 L 39.454 2189.5 C 16.63 2189.5 -1.9 2170.97 -1.9 2148.146 L -1.9 950.854 C -1.9 928.03 16.63 909.5 39.454 909.5 Z" style="stroke:none;fill:#FFFFFF;stroke-miterlimit:10;"/><path d="M 39.454 909.5 L 779.746 909.5 C 802.57 909.5 821.1 928.03 821.1 950.854 L 821.1 2148.146 C 821.1 2170.97 802.57 2189.5 779.746 2189.5 L 39.454 2189.5 C 16.63 2189.5 -1.9 2170.97 -1.9 2148.146 L -1.9 950.854 C -1.9 928.03 16.63 909.5 39.454 909.5 Z" style="fill:none;stroke:#000000;stroke-width:0.99673343;stroke-miterlimit:2;"/><g><g><path d=" M 28.111 1070.536 L 39.27 1066.669 C 43.479 1078.966 51.989 1082.592 60.991 1081.813 C 77.147 1080.414 82.509 1060.678 83.72 1043.228 C 77.425 1050.51 67.963 1054.211 59.905 1053.85 C 34.163 1052.334 27.574 1029.817 27.334 1006.226 C 26.619 986.332 34.146 971.926 47.053 965.326 C 53.881 961.975 69.522 961.974 76.397 965.936 C 92.185 975.034 98.027 990.766 96.967 1028.296 C 96.984 1059.181 90.978 1095.156 60.699 1095.927 C 43.195 1098.571 29.905 1083.694 28.111 1070.536 L 28.111 1070.536 Z  M 71.937 1036.695 C 77.19 1033.06 80.155 1029.65 82.51 1024.536 C 84.442 1020.338 85.096 1018.16 84.546 1009.468 C 83.126 987.074 72.382 974.38 56.804 976.902 C 48.116 978.308 43.372 983.627 40.646 993.518 C 35.611 1011.783 41.993 1033.162 53.95 1038.087 C 59.343 1040.308 67.645 1039.666 71.937 1036.695 L 71.937 1036.695 Z " fill="rgb(212,0,0)"/><path d=" M 787.726 2027.464 L 776.567 2031.33 C 772.358 2019.034 763.848 2015.408 754.846 2016.187 C 738.69 2017.586 733.328 2037.322 732.116 2054.772 C 738.411 2047.489 747.874 2043.789 755.932 2044.15 C 781.674 2045.666 788.263 2068.183 788.503 2091.774 C 789.218 2111.668 781.691 2126.074 768.784 2132.674 C 761.956 2136.025 746.315 2136.026 739.439 2132.064 C 723.652 2122.966 717.81 2107.234 718.869 2069.704 C 718.853 2038.819 724.859 2002.844 755.138 2002.073 C 772.642 1999.429 785.932 2014.305 787.726 2027.464 L 787.726 2027.464 Z  M 743.9 2061.305 C 738.647 2064.94 735.682 2068.35 733.327 2073.464 C 731.394 2077.662 730.74 2079.84 731.291 2088.532 C 732.711 2110.926 743.455 2123.62 759.033 2121.098 C 767.721 2119.692 772.464 2114.373 775.191 2104.482 C 780.226 2086.217 773.843 2064.838 761.887 2059.913 C 756.494 2057.692 748.192 2058.334 743.9 2061.305 L 743.9 2061.305 Z " fill="rgb(212,0,0)"/></g></g></g></g><path d=" M 29.245 1148.427 C 23.409 1134.173 22.769 1109.817 40.199 1106.523 C 53.332 1104.641 58.676 1111.442 59.739 1121.883 C 60.263 1124.933 61.81 1125.12 62.301 1121.644 C 63.054 1110.932 72.576 1104.679 80.021 1106.25 C 100.396 1110.131 99.207 1135.102 92.55 1152.044 C 82.482 1174.538 71.902 1188.733 62.153 1211.37 C 50.951 1187.803 38.162 1168.656 29.245 1148.427 L 29.245 1148.427 Z " fill="rgb(212,0,0)"/><path d=" M 162.96 1026.714 C 189.299 1024.767 203.03 1049.815 205.709 1069.556 C 207.307 1072.692 208.182 1071.809 208.795 1069.383 C 210.083 1044.038 230.454 1023.323 249.322 1026.156 C 280.026 1026.6 298.687 1064.642 293.44 1096.84 C 287.031 1136.173 268.002 1159.857 253.594 1184.249 C 237.293 1209.505 215.352 1245.987 208.283 1263.545 C 208.283 1263.545 185.984 1225.76 156.973 1181.323 C 137.573 1151.609 122.047 1119.409 120.602 1091.688 C 118.951 1060.015 130.627 1031.624 162.96 1026.714 L 162.96 1026.714 Z " fill="rgb(212,0,0)"/><path d=" M 566.786 1026.714 C 593.125 1024.767 606.856 1049.815 609.535 1069.556 C 611.133 1072.692 612.008 1071.809 612.621 1069.383 C 613.909 1044.038 634.28 1023.323 653.148 1026.156 C 683.852 1026.6 702.513 1064.642 697.266 1096.84 C 690.857 1136.173 671.828 1159.857 657.42 1184.249 C 641.119 1209.505 619.178 1245.987 612.109 1263.545 C 612.109 1263.545 589.81 1225.76 560.799 1181.323 C 541.399 1151.609 525.873 1119.409 524.428 1091.688 C 522.777 1060.015 534.453 1031.624 566.786 1026.714 L 566.786 1026.714 Z " fill="rgb(212,0,0)"/><path d=" M 566.786 1294.9 C 593.125 1292.952 606.856 1318 609.535 1337.742 C 611.133 1340.878 612.008 1339.994 612.621 1337.568 C 613.909 1312.223 634.28 1291.509 653.148 1294.341 C 683.852 1294.786 702.513 1332.828 697.266 1365.025 C 690.857 1404.358 671.828 1428.042 657.42 1452.434 C 641.119 1477.69 619.178 1514.172 612.109 1531.731 C 612.109 1531.731 589.81 1493.946 560.799 1449.508 C 541.399 1419.794 525.873 1387.595 524.428 1359.873 C 522.777 1328.201 534.453 1299.809 566.786 1294.9 L 566.786 1294.9 Z " fill="rgb(212,0,0)"/><path d=" M 364.675 1430.993 C 391.014 1429.046 404.745 1454.094 407.424 1473.836 C 409.022 1476.971 409.897 1476.088 410.51 1473.662 C 411.798 1448.317 432.17 1427.603 451.038 1430.435 C 481.741 1430.88 500.402 1468.922 495.155 1501.119 C 488.746 1540.452 469.717 1564.136 455.309 1588.528 C 439.009 1613.784 417.067 1650.266 409.998 1667.825 C 409.998 1667.825 387.699 1630.04 358.688 1585.602 C 339.289 1555.888 323.762 1523.689 322.317 1495.967 C 320.666 1464.295 332.343 1435.903 364.675 1430.994 L 364.675 1430.993 Z " fill="rgb(212,0,0)"/><path d=" M 162.96 1294.9 C 189.299 1292.952 203.03 1318 205.709 1337.742 C 207.307 1340.878 208.182 1339.994 208.795 1337.568 C 210.083 1312.223 230.454 1291.509 249.322 1294.341 C 280.026 1294.786 298.687 1332.828 293.44 1365.025 C 287.031 1404.358 268.002 1428.042 253.594 1452.434 C 237.293 1477.69 215.352 1514.172 208.283 1531.731 C 208.283 1531.731 185.984 1493.946 156.973 1449.508 C 137.573 1419.794 122.047 1387.595 120.602 1359.873 C 118.951 1328.201 130.627 1299.809 162.96 1294.9 L 162.96 1294.9 Z " fill="rgb(212,0,0)"/><path d=" M 566.786 1805.528 C 593.125 1807.475 606.856 1782.427 609.535 1762.686 C 611.133 1759.55 612.008 1760.433 612.621 1762.859 C 613.909 1788.204 634.28 1808.919 653.148 1806.086 C 683.852 1805.642 702.513 1767.6 697.266 1735.402 C 690.857 1696.069 671.828 1672.385 657.42 1647.993 C 641.119 1622.737 619.178 1586.255 612.109 1568.696 C 612.109 1568.696 589.81 1606.482 560.799 1650.919 C 541.399 1680.633 525.873 1712.833 524.428 1740.554 C 522.777 1772.227 534.453 1800.618 566.786 1805.528 L 566.786 1805.528 Z " fill="rgb(212,0,0)"/><path d=" M 566.786 2072.789 C 593.125 2074.736 606.856 2049.688 609.535 2029.947 C 611.133 2026.811 612.008 2027.695 612.621 2030.12 C 613.909 2055.466 634.28 2076.18 653.148 2073.347 C 683.852 2072.903 702.513 2034.861 697.266 2002.663 C 690.857 1963.331 671.828 1939.646 657.42 1915.254 C 641.119 1889.998 619.178 1853.516 612.109 1835.958 C 612.109 1835.958 589.81 1873.743 560.799 1918.18 C 541.399 1947.895 525.873 1980.094 524.428 2007.815 C 522.777 2039.488 534.453 2067.879 566.786 2072.789 L 566.786 2072.789 Z " fill="rgb(212,0,0)"/><path d=" M 162.96 2072.789 C 189.299 2074.736 203.03 2049.688 205.709 2029.947 C 207.307 2026.811 208.182 2027.695 208.795 2030.12 C 210.083 2055.466 230.454 2076.18 249.322 2073.347 C 280.026 2072.903 298.687 2034.861 293.44 2002.663 C 287.031 1963.331 268.002 1939.646 253.594 1915.254 C 237.293 1889.998 215.352 1853.516 208.283 1835.958 C 208.283 1835.958 185.984 1873.743 156.973 1918.18 C 137.573 1947.895 122.047 1980.094 120.602 2007.815 C 118.951 2039.488 130.627 2067.879 162.96 2072.789 L 162.96 2072.789 Z " fill="rgb(212,0,0)"/><path d=" M 162.96 1805.528 C 189.299 1807.475 203.03 1782.427 205.709 1762.686 C 207.307 1759.55 208.182 1760.433 208.795 1762.859 C 210.083 1788.204 230.454 1808.919 249.322 1806.086 C 280.026 1805.642 298.687 1767.6 293.44 1735.402 C 287.031 1696.069 268.002 1672.385 253.594 1647.993 C 237.293 1622.737 215.352 1586.255 208.283 1568.696 C 208.283 1568.696 185.984 1606.482 156.973 1650.919 C 137.573 1680.633 122.047 1712.833 120.602 1740.554 C 118.951 1772.227 130.627 1800.618 162.96 1805.528 L 162.96 1805.528 Z " fill="rgb(212,0,0)"/><path d=" M 725.371 1931.907 C 719.534 1946.161 718.894 1970.517 736.325 1973.812 C 749.457 1975.694 754.802 1968.893 755.864 1958.451 C 756.389 1955.401 757.935 1955.214 758.426 1958.691 C 759.179 1969.402 768.702 1975.655 776.146 1974.084 C 796.522 1970.203 795.332 1945.232 788.676 1928.29 C 778.607 1905.797 768.027 1891.601 758.278 1868.965 C 747.077 1892.532 734.287 1911.678 725.371 1931.907 L 725.371 1931.907 Z " fill="rgb(212,0,0)"/></g></g></g></svg>