<?xml version="1.0" encoding="UTF-8" standalone="no"?><!-- Generator: Gravit.io --><svg xmlns="http://www.w3.org/2000/svg" xmlns:xlink="http://www.w3.org/1999/xlink" style="isolation:isolate" viewBox="81.102 803.502 823.997 1280.997" width="823.997pt" height="1280.997pt"><defs><clipPath id="_clipPath_5QBGX6FXM5IB7YPKuvjwZXYGfgiwZSlx"><rect x="81.102" y="803.502" width="823.997" height="1280.997"/></clipPath></defs><g clip-path="url(#_clipPath_5QBGX6FXM5IB7YPKuvjwZXYGfgiwZSlx)"><g><g><g><g><path d="M 123.454 804.5 L 863.746 804.5 C 886.57 804.5 905.1 823.03 905.1 845.854 L 905.1 2043.146 C 905.1 2065.97 886.57 2084.5 863.746 2084.5 L 123.454 2084.5 C 100.63 2084.5 82.1 2065.97 82.1 2043.146 L 82.1 845.854 C 82.1 823.03 100.63 804.5 123.454 804.5 Z" style="stroke:none;fill:#FFFFFF;stroke-miterlimit:10;"/><path d="M 123.454 804.5 L 863.746 804.5 C 886.57 804.5 905.1 823.03 905.1 845.854 L 905.1 2043.146 C 905.1 2065.97 886.57 2084.5 863.746 2084.5 L 123.454 2084.5 C 100.63 2084.5 82.1 2065.97 82.1 2043.146 L 82.1 845.854 C 82.1 823.03 100.63 804.5 123.454 804.5 Z" style="fill:none;stroke:#000000;stroke-width:0.99673343;stroke-miterlimit:2;"/><g><g><path d=" M 112.111 965.536 L 123.27 961.669 C 127.479 973.966 135.989 977.592 144.991 976.813 C 161.147 975.414 166.509 955.678 167.72 938.228 C 161.425 945.51 151.963 949.211 143.905 948.85 C 118.163 947.334 111.574 924.817 111.334 901.226 C 110.619 881.332 118.146 866.926 131.053 860.326 C 137.881 856.975 153.522 856.974 160.397 860.936 C 176.185 870.034 182.027 885.766 180.967 923.296 C 180.984 954.181 174.978 990.156 144.699 990.927 C 127.195 993.571 113.905 978.694 112.111 965.536 L 112.111 965.536 Z  M 155.937 931.695 C 161.19 928.06 164.155 924.65 166.51 919.536 C 168.442 915.338 169.096 913.16 168.546 904.468 C 167.126 882.074 156.382 869.38 140.804 871.902 C 132.116 873.308 127.372 878.627 124.646 888.518 C 119.611 906.783 125.993 928.162 137.95 933.087 C 143.343 935.308 151.645 934.666 155.937 931.695 L 155.937 931.695 Z " fill="rgb(0,0,0)"/><path d=" M 871.726 1922.464 L 860.567 1926.33 C 856.358 1914.034 847.848 1910.408 838.846 1911.187 C 822.69 1912.586 817.328 1932.322 816.116 1949.772 C 822.411 1942.489 831.874 1938.789 839.932 1939.15 C 865.674 1940.666 872.263 1963.183 872.503 1986.774 C 873.218 2006.668 865.691 2021.074 852.784 2027.674 C 845.956 2031.025 830.315 2031.026 823.439 2027.064 C 807.652 2017.966 801.81 2002.234 802.869 1964.704 C 802.853 1933.819 808.859 1897.844 839.138 1897.073 C 856.642 1894.429 869.932 1909.305 871.726 1922.464 L 871.726 1922.464 Z  M 827.9 1956.305 C 822.647 1959.94 819.682 1963.35 817.327 1968.464 C 815.394 1972.662 814.74 1974.84 815.291 1983.532 C 816.711 2005.926 827.455 2018.62 843.033 2016.098 C 851.721 2014.692 856.464 2009.373 859.191 1999.482 C 864.226 1981.217 857.843 1959.838 845.887 1954.913 C 840.494 1952.692 832.192 1953.334 827.9 1956.305 L 827.9 1956.305 Z " fill="rgb(0,0,0)"/></g></g></g></g><path d=" M 276.12 1086.726 C 276.175 1078.411 270.269 1078.252 270.337 1084.322 C 269.841 1114.816 246.68 1129.832 229.853 1126.27 C 203.912 1120.779 195.633 1092.107 195.88 1075.222 C 196.644 1023.103 243.764 984.671 286.282 917.857 C 317.436 978.163 368.856 1025.531 371.9 1072.148 C 375.947 1134.126 305.505 1157.244 295.447 1085.008 C 294.798 1079.905 289.402 1077.614 289.821 1084.741 C 291.349 1104.538 289.176 1112.784 309.234 1161.585 L 256.802 1161.585 C 268.414 1138.782 275.329 1110.787 276.12 1086.726 L 276.12 1086.726 Z " fill="rgb(0,0,0)"/><path d=" M 687.32 1086.726 C 687.375 1078.411 681.469 1078.252 681.537 1084.322 C 681.041 1114.816 657.88 1129.832 641.053 1126.27 C 615.112 1120.779 606.833 1092.107 607.08 1075.222 C 607.844 1023.103 654.964 984.671 697.482 917.857 C 728.635 978.163 780.056 1025.531 783.1 1072.148 C 787.147 1134.126 716.705 1157.244 706.647 1085.008 C 705.998 1079.905 700.602 1077.614 701.021 1084.741 C 702.549 1104.538 700.376 1112.784 720.434 1161.585 L 668.002 1161.585 C 679.614 1138.782 686.529 1110.787 687.32 1086.726 L 687.32 1086.726 Z " fill="rgb(0,0,0)"/><path d=" M 687.32 1354.912 C 687.375 1346.596 681.469 1346.437 681.537 1352.507 C 681.041 1383.002 657.88 1398.017 641.053 1394.455 C 615.112 1388.964 606.833 1360.293 607.08 1343.407 C 607.844 1291.288 654.964 1252.856 697.482 1186.042 C 728.635 1246.348 780.056 1293.716 783.1 1340.333 C 787.147 1402.312 716.705 1425.43 706.647 1353.193 C 705.998 1348.091 700.602 1345.8 701.021 1352.926 C 702.549 1372.723 700.376 1380.969 720.434 1429.77 L 668.002 1429.77 C 679.614 1406.967 686.529 1378.972 687.32 1354.912 L 687.32 1354.912 Z " fill="rgb(0,0,0)"/><path d=" M 276.12 1354.912 C 276.175 1346.596 270.269 1346.437 270.337 1352.507 C 269.841 1383.002 246.68 1398.017 229.853 1394.455 C 203.912 1388.964 195.633 1360.293 195.88 1343.407 C 196.644 1291.288 243.764 1252.856 286.282 1186.042 C 317.436 1246.348 368.856 1293.716 371.9 1340.333 C 375.947 1402.312 305.505 1425.43 295.447 1353.193 C 294.798 1348.091 289.402 1345.8 289.821 1352.926 C 291.349 1372.723 289.176 1380.969 309.234 1429.77 L 256.802 1429.77 C 268.414 1406.967 275.329 1378.972 276.12 1354.912 L 276.12 1354.912 Z " fill="rgb(0,0,0)"/><path d=" M 687.359 1802.882 C 687.415 1811.197 681.509 1811.356 681.576 1805.286 C 681.081 1774.791 657.92 1759.776 641.093 1763.338 C 615.152 1768.829 606.873 1797.5 607.12 1814.386 C 607.884 1866.505 655.004 1904.937 697.521 1971.751 C 728.675 1911.445 780.096 1864.077 783.14 1817.46 C 787.187 1755.482 716.744 1732.364 706.687 1804.6 C 706.038 1809.703 700.642 1811.994 701.06 1804.867 C 702.589 1785.07 700.416 1776.824 720.474 1728.023 L 668.041 1728.023 C 679.654 1750.826 686.569 1778.821 687.359 1802.881 L 687.359 1802.882 Z " fill="rgb(0,0,0)"/><path d=" M 687.359 1535.621 C 687.415 1543.936 681.509 1544.095 681.576 1538.025 C 681.081 1507.53 657.92 1492.515 641.093 1496.077 C 615.152 1501.568 606.873 1530.24 607.12 1547.125 C 607.884 1599.244 655.004 1637.676 697.521 1704.49 C 728.675 1644.184 780.096 1596.816 783.14 1550.199 C 787.187 1488.221 716.744 1465.103 706.687 1537.339 C 706.038 1542.442 700.642 1544.733 701.06 1537.606 C 702.589 1517.809 700.416 1509.563 720.474 1460.762 L 668.041 1460.762 C 679.654 1483.565 686.569 1511.56 687.359 1535.621 L 687.359 1535.621 Z " fill="rgb(0,0,0)"/><path d=" M 484.259 1397.035 C 484.314 1405.351 478.409 1405.51 478.476 1399.44 C 477.981 1368.945 454.82 1353.93 437.993 1357.492 C 412.052 1362.983 403.772 1391.654 404.02 1408.54 C 404.784 1460.659 451.903 1499.091 494.421 1565.905 C 525.575 1505.599 576.995 1458.231 580.039 1411.614 C 584.086 1349.635 513.644 1326.517 503.586 1398.754 C 502.938 1403.857 497.541 1406.147 497.96 1399.021 C 499.488 1379.224 497.315 1370.978 517.374 1322.177 L 464.941 1322.177 C 476.553 1344.98 483.469 1372.975 484.259 1397.035 L 484.259 1397.035 Z " fill="rgb(0,0,0)"/><path d=" M 276.159 1535.621 C 276.215 1543.936 270.309 1544.095 270.376 1538.025 C 269.881 1507.53 246.72 1492.515 229.893 1496.077 C 203.952 1501.568 195.673 1530.24 195.92 1547.125 C 196.684 1599.244 243.804 1637.676 286.321 1704.49 C 317.475 1644.184 368.896 1596.816 371.94 1550.199 C 375.987 1488.221 305.544 1465.103 295.487 1537.339 C 294.838 1542.442 289.442 1544.733 289.86 1537.606 C 291.389 1517.809 289.216 1509.563 309.274 1460.762 L 256.841 1460.762 C 268.454 1483.565 275.369 1511.56 276.159 1535.621 L 276.159 1535.621 Z " fill="rgb(0,0,0)"/><path d=" M 276.159 1802.882 C 276.215 1811.197 270.309 1811.356 270.376 1805.286 C 269.881 1774.791 246.72 1759.776 229.893 1763.338 C 203.952 1768.829 195.673 1797.5 195.92 1814.386 C 196.684 1866.505 243.804 1904.937 286.321 1971.751 C 317.475 1911.445 368.896 1864.077 371.94 1817.46 C 375.987 1755.482 305.544 1732.364 295.487 1804.6 C 294.838 1809.703 289.442 1811.994 289.86 1804.867 C 291.389 1785.07 289.216 1776.824 309.274 1728.023 L 256.841 1728.023 C 268.454 1750.826 275.369 1778.821 276.159 1802.881 L 276.159 1802.882 Z " fill="rgb(0,0,0)"/><path d=" M 143.644 1080.603 C 143.681 1077.025 140.343 1078.695 139.891 1079.821 C 135.603 1087.972 129.329 1089.869 123.124 1086.931 C 116.977 1084.019 113.523 1077.57 114.077 1068.367 C 115.221 1054.254 125.268 1038.812 130.133 1030.082 C 134.749 1022.16 139.822 1012.75 145.163 1000.714 C 151.421 1014.52 154.597 1018.45 161.404 1031.057 C 167.399 1042.159 175.755 1053.031 176.4 1066.452 C 176.4 1076.653 172.544 1086.287 163.867 1088.042 C 158.959 1089.035 154.36 1086.23 150.95 1079.681 C 149.911 1078.012 147.82 1078.882 147.855 1081.166 C 148.464 1089.76 151.378 1097.518 158.287 1106.665 L 132.896 1106.665 C 138.094 1100.196 143.398 1091.462 143.644 1080.603 L 143.644 1080.603 Z " fill="rgb(0,0,0)"/><path d=" M 839.77 1789.732 C 839.806 1793.309 836.469 1791.639 836.017 1790.513 C 831.729 1782.362 825.455 1780.465 819.25 1783.404 C 813.103 1786.315 809.649 1792.765 810.203 1801.967 C 811.346 1816.08 821.394 1831.522 826.259 1840.252 C 830.875 1848.174 835.947 1857.584 841.289 1869.62 C 847.546 1855.814 850.722 1851.884 857.53 1839.278 C 863.524 1828.176 871.881 1817.303 872.526 1803.882 C 872.526 1793.682 868.669 1784.047 859.993 1782.292 C 855.084 1781.299 850.486 1784.105 847.075 1790.654 C 846.036 1792.323 843.946 1791.453 843.981 1789.168 C 844.59 1780.575 847.503 1772.817 854.412 1763.669 L 829.021 1763.669 C 834.22 1770.138 839.524 1778.873 839.77 1789.732 L 839.77 1789.732 Z " fill="rgb(0,0,0)"/></g></g></g></svg>