<?xml version="1.0" encoding="UTF-8" standalone="no"?><!-- Generator: Gravit.io --><svg xmlns="http://www.w3.org/2000/svg" xmlns:xlink="http://www.w3.org/1999/xlink" style="isolation:isolate" viewBox="123.102 926.502 823.997 1280.997" width="823.997pt" height="1280.997pt"><defs><clipPath id="_clipPath_BpfL4vq2qJvJ5dF1ty1HddqrvZf7RoLZ"><rect x="123.102" y="926.502" width="823.997" height="1280.997"/></clipPath></defs><g clip-path="url(#_clipPath_BpfL4vq2qJvJ5dF1ty1HddqrvZf7RoLZ)"><g><g><g><g><g><path d="M 165.454 927.5 L 905.746 927.5 C 928.57 927.5 947.1 946.03 947.1 968.854 L 947.1 2166.146 C 947.1 2188.97 928.57 2207.5 905.746 2207.5 L 165.454 2207.5 C 142.63 2207.5 124.1 2188.97 124.1 2166.146 L 124.1 968.854 C 124.1 946.03 142.63 927.5 165.454 927.5 Z" style="stroke:none;fill:#FFFFFF;stroke-miterlimit:10;"/><path d="M 165.454 927.5 L 905.746 927.5 C 928.57 927.5 947.1 946.03 947.1 968.854 L 947.1 2166.146 C 947.1 2188.97 928.57 2207.5 905.746 2207.5 L 165.454 2207.5 C 142.63 2207.5 124.1 2188.97 124.1 2166.146 L 124.1 968.854 C 124.1 946.03 142.63 927.5 165.454 927.5 Z" style="fill:none;stroke:#000000;stroke-width:0.99673343;stroke-miterlimit:2;"/></g></g><g><path d=" M 150.275 1116.102 L 150.275 1104.866 L 160.085 1104.866 L 180.968 984.706 L 192.85 984.706 L 215.867 1104.866 L 223.785 1104.866 L 223.785 1116.102 L 196.806 1116.102 L 196.806 1104.866 L 204.094 1104.866 L 201.19 1086.452 L 173.961 1086.452 L 171.858 1104.866 L 179.146 1104.866 L 179.146 1116.102 L 150.275 1116.102 Z  M 198.86 1073.344 L 187.031 1009.016 L 175.945 1073.344 L 198.86 1073.344 Z " fill="rgb(0,0,0)"/><path d=" M 919.925 2017.897 L 919.925 2029.133 L 910.114 2029.133 L 889.231 2149.294 L 877.349 2149.294 L 854.333 2029.133 L 846.414 2029.133 L 846.414 2017.897 L 873.394 2017.897 L 873.394 2029.133 L 866.106 2029.133 L 869.01 2047.547 L 896.239 2047.547 L 898.341 2029.133 L 891.053 2029.133 L 891.053 2017.897 L 919.925 2017.897 Z  M 871.34 2060.656 L 883.169 2124.983 L 894.254 2060.656 L 871.34 2060.656 Z " fill="rgb(0,0,0)"/><path d=" M 507.999 1684.284 C 518.613 1660.574 526.344 1636.25 527.716 1610.239 C 528.975 1600.668 523.754 1600.507 522.967 1607.248 C 507.938 1671.258 427.985 1653.925 430.734 1593.716 C 432.964 1544.887 476.522 1534.383 499.243 1550.348 C 508.215 1556.23 507.708 1552.707 502.812 1546.605 C 469.06 1504.687 489.502 1450.704 535.113 1449.716 C 584.441 1452.973 597.24 1510.758 566.982 1544.741 C 563.219 1548.824 554.876 1561.947 567.435 1552.772 C 597.987 1528.601 640.387 1554.59 639.523 1591.855 C 637.927 1660.569 562.693 1665.694 546.603 1608.299 C 545.055 1601.935 540.597 1598.74 541.829 1609.548 C 544.059 1629.115 548.673 1658.617 561.875 1684.284 L 507.999 1684.284 Z " fill="rgb(0,0,0)"/><path d=" M 171.193 1235.623 C 175.588 1225.586 179.865 1216.244 182.196 1205.242 C 183.741 1194.867 180.58 1198.721 178.785 1205.522 C 176.126 1214.953 168.747 1219.249 161.899 1219.352 C 149.471 1219.539 143.271 1208.661 143.657 1196.963 C 142.3 1184.654 153.505 1175.945 161.95 1176.616 C 168.3 1177.12 173.836 1180.934 177.187 1183.903 C 179.386 1185.197 181.737 1185.769 178.459 1182.431 C 172.274 1174.907 167.116 1170.263 167.229 1158.988 C 167.336 1148.402 175.463 1137.362 186.236 1137.708 C 199.698 1138.141 205.82 1149.572 205.788 1160.206 C 205.751 1167.958 202.272 1175.092 196.898 1179.511 C 193.417 1182.656 194.393 1185.011 198.364 1182.035 C 202.18 1178.373 206.722 1176.77 211.433 1176.657 C 224.302 1176.433 229.332 1188.814 228.595 1200.32 C 227.904 1211.098 219.663 1222.193 208.801 1220.936 C 199.102 1219.699 194.006 1210.633 191.086 1201.327 C 190.119 1198.474 188.593 1197.703 188.636 1201.955 C 190.876 1222.716 197.822 1235.635 197.872 1235.623 L 171.193 1235.623 Z " fill="rgb(0,0,0)"/><path d=" M 895.537 1899.955 C 891.142 1909.993 886.865 1919.334 884.535 1930.336 C 882.989 1940.712 886.151 1936.857 887.946 1930.056 C 890.605 1920.625 897.984 1916.33 904.831 1916.227 C 917.26 1916.04 923.46 1926.918 923.073 1938.616 C 924.431 1950.925 913.226 1959.634 904.781 1958.963 C 898.431 1958.459 892.894 1954.644 889.543 1951.676 C 887.345 1950.382 884.994 1949.81 888.272 1953.148 C 894.457 1960.672 899.615 1965.316 899.502 1976.591 C 899.395 1987.177 891.267 1998.217 880.495 1997.871 C 867.032 1997.438 860.911 1986.007 860.943 1975.373 C 860.979 1967.621 864.458 1960.487 869.833 1956.068 C 873.314 1952.923 872.338 1950.568 868.367 1953.544 C 864.551 1957.206 860.008 1958.809 855.298 1958.922 C 842.429 1959.146 837.398 1946.765 838.135 1935.259 C 838.826 1924.481 847.068 1913.386 857.93 1914.643 C 867.629 1915.88 872.725 1924.946 875.645 1934.252 C 876.612 1937.105 878.138 1937.876 878.095 1933.623 C 875.855 1912.862 868.909 1899.944 868.859 1899.956 L 895.537 1899.955 Z " fill="rgb(0,0,0)"/></g></g></g></g></g></svg>