<?xml version="1.0" encoding="UTF-8" standalone="no"?><!-- Generator: Gravit.io --><svg xmlns="http://www.w3.org/2000/svg" xmlns:xlink="http://www.w3.org/1999/xlink" style="isolation:isolate" viewBox="111.102 944.502 823.997 1280.997" width="823.997pt" height="1280.997pt"><defs><clipPath id="_clipPath_2jERyg0hUBrWGEGq3uHWDWjLS0WE8TGF"><rect x="111.102" y="944.502" width="823.997" height="1280.997"/></clipPath></defs><g clip-path="url(#_clipPath_2jERyg0hUBrWGEGq3uHWDWjLS0WE8TGF)"><g><g><path d="M 153.454 945.5 L 893.746 945.5 C 916.57 945.5 935.1 964.03 935.1 986.854 L 935.1 2184.146 C 935.1 2206.97 916.57 2225.5 893.746 2225.5 L 153.454 2225.5 C 130.63 2225.5 112.1 2206.97 112.1 2184.146 L 112.1 986.854 C 112.1 964.03 130.63 945.5 153.454 945.5 Z" style="stroke:none;fill:#FFFFFF;stroke-miterlimit:10;"/><path d="M 153.454 945.5 L 893.746 945.5 C 916.57 945.5 935.1 964.03 935.1 986.854 L 935.1 2184.146 C 935.1 2206.97 916.57 2225.5 893.746 2225.5 L 153.454 2225.5 C 130.63 2225.5 112.1 2206.97 112.1 2184.146 L 112.1 986.854 C 112.1 964.03 130.63 945.5 153.454 945.5 Z" style="fill:none;stroke:#000000;stroke-width:0.99673343;stroke-miterlimit:2;"/><g><path d=" M 440.621 1585.538 C 477.197 1545.795 501.218 1502.463 524.19 1460.79 C 544.336 1506.644 573.247 1546.759 604.512 1585.538 C 571.061 1623.997 545.135 1665.12 524.291 1708.352 C 501.183 1664.036 476.856 1623.905 440.621 1585.538 Z " fill="rgb(212,0,0)"/><path d=" M 835.057 1967.313 C 850.04 1951.033 859.88 1933.282 869.291 1916.211 C 877.543 1934.994 889.386 1951.427 902.194 1967.313 C 888.491 1983.067 877.871 1999.913 869.332 2017.623 C 859.866 1999.469 849.9 1983.03 835.057 1967.313 L 835.057 1967.313 Z " fill="rgb(212,0,0)"/><path d=" M 140.537 1205.058 C 155.52 1188.778 165.36 1171.027 174.77 1153.956 C 183.023 1172.74 194.866 1189.173 207.674 1205.058 C 193.97 1220.812 183.35 1237.658 174.811 1255.368 C 165.345 1237.214 155.38 1220.775 140.537 1205.058 L 140.537 1205.058 Z " fill="rgb(212,0,0)"/><path d=" M 138.275 1134.102 L 138.275 1122.866 L 148.085 1122.866 L 168.968 1002.706 L 180.85 1002.706 L 203.867 1122.866 L 211.785 1122.866 L 211.785 1134.102 L 184.806 1134.102 L 184.806 1122.866 L 192.094 1122.866 L 189.19 1104.452 L 161.961 1104.452 L 159.858 1122.866 L 167.146 1122.866 L 167.146 1134.102 L 138.275 1134.102 Z  M 186.86 1091.344 L 175.031 1027.016 L 163.945 1091.344 L 186.86 1091.344 Z " fill="rgb(212,0,0)"/><path d=" M 907.925 2035.897 L 907.925 2047.133 L 898.114 2047.133 L 877.231 2167.294 L 865.349 2167.294 L 842.333 2047.133 L 834.414 2047.133 L 834.414 2035.897 L 861.394 2035.897 L 861.394 2047.133 L 854.106 2047.133 L 857.01 2065.547 L 884.239 2065.547 L 886.341 2047.133 L 879.053 2047.133 L 879.053 2035.897 L 907.925 2035.897 Z  M 859.34 2078.656 L 871.169 2142.983 L 882.254 2078.656 L 859.34 2078.656 Z " fill="rgb(212,0,0)"/></g></g></g></g></svg>