<?xml version="1.0" encoding="UTF-8" standalone="no"?><!-- Generator: Gravit.io --><svg xmlns="http://www.w3.org/2000/svg" xmlns:xlink="http://www.w3.org/1999/xlink" style="isolation:isolate" viewBox="114.102 1121.502 823.997 1280.997" width="823.997pt" height="1280.997pt"><defs><clipPath id="_clipPath_DFiY1OXb8ORXlxNGNmxDwXUZ79fYVKiP"><rect x="114.102" y="1121.502" width="823.997" height="1280.997"/></clipPath></defs><g clip-path="url(#_clipPath_DFiY1OXb8ORXlxNGNmxDwXUZ79fYVKiP)"><g><g><g><g><path d="M 156.454 1122.5 L 896.746 1122.5 C 919.57 1122.5 938.1 1141.03 938.1 1163.854 L 938.1 2361.146 C 938.1 2383.97 919.57 2402.5 896.746 2402.5 L 156.454 2402.5 C 133.63 2402.5 115.1 2383.97 115.1 2361.146 L 115.1 1163.854 C 115.1 1141.03 133.63 1122.5 156.454 1122.5 Z" style="stroke:none;fill:#FFFFFF;stroke-miterlimit:10;"/><path d="M 156.454 1122.5 L 896.746 1122.5 C 919.57 1122.5 938.1 1141.03 938.1 1163.854 L 938.1 2361.146 C 938.1 2383.97 919.57 2402.5 896.746 2402.5 L 156.454 2402.5 C 133.63 2402.5 115.1 2383.97 115.1 2361.146 L 115.1 1163.854 C 115.1 1141.03 133.63 1122.5 156.454 1122.5 Z" style="fill:none;stroke:#000000;stroke-width:0.99673343;stroke-miterlimit:2;"/><g><path d=" M 141.275 1311.102 L 141.275 1299.866 L 151.085 1299.866 L 171.968 1179.706 L 183.85 1179.706 L 206.867 1299.866 L 214.785 1299.866 L 214.785 1311.102 L 187.806 1311.102 L 187.806 1299.866 L 195.094 1299.866 L 192.19 1281.452 L 164.961 1281.452 L 162.858 1299.866 L 170.146 1299.866 L 170.146 1311.102 L 141.275 1311.102 Z  M 189.86 1268.344 L 178.031 1204.016 L 166.945 1268.344 L 189.86 1268.344 Z " fill="rgb(212,0,0)"/><path d=" M 910.925 2212.897 L 910.925 2224.133 L 901.114 2224.133 L 880.231 2344.294 L 868.349 2344.294 L 845.333 2224.133 L 837.414 2224.133 L 837.414 2212.897 L 864.394 2212.897 L 864.394 2224.133 L 857.106 2224.133 L 860.01 2242.547 L 887.239 2242.547 L 889.341 2224.133 L 882.053 2224.133 L 882.053 2212.897 L 910.925 2212.897 Z  M 862.34 2255.656 L 874.169 2319.983 L 885.254 2255.656 L 862.34 2255.656 Z " fill="rgb(212,0,0)"/></g></g></g><path d=" M 145.131 1371.399 C 139.295 1357.145 138.655 1332.79 156.085 1329.495 C 169.218 1327.613 174.562 1334.414 175.625 1344.855 C 176.149 1347.905 177.696 1348.092 178.186 1344.616 C 178.94 1333.904 188.462 1327.651 195.907 1329.222 C 216.282 1333.103 215.092 1358.074 208.436 1375.016 C 198.368 1397.51 187.788 1411.706 178.039 1434.342 C 166.837 1410.775 154.047 1391.628 145.131 1371.399 L 145.131 1371.399 Z " fill="rgb(212,0,0)"/><path d=" M 481.675 1643.993 C 508.013 1642.046 521.744 1667.094 524.424 1686.835 C 526.022 1689.971 526.897 1689.088 527.51 1686.662 C 528.797 1661.317 549.169 1640.602 568.037 1643.435 C 598.741 1643.879 617.402 1681.921 612.155 1714.119 C 605.745 1753.452 586.717 1777.136 572.309 1801.528 C 556.008 1826.784 534.067 1863.266 526.997 1880.825 C 526.997 1880.825 504.699 1843.04 475.687 1798.602 C 456.288 1768.888 440.762 1736.688 439.317 1708.967 C 437.665 1677.294 449.342 1648.903 481.675 1643.994 L 481.675 1643.993 Z " fill="rgb(212,0,0)"/><path d=" M 839.652 2154.18 C 833.815 2168.434 833.175 2192.789 850.606 2196.084 C 863.738 2197.966 869.083 2191.165 870.145 2180.724 C 870.67 2177.673 872.216 2177.487 872.707 2180.963 C 873.46 2191.675 882.983 2197.927 890.427 2196.357 C 910.803 2192.476 909.613 2167.505 902.957 2150.563 C 892.888 2128.069 882.308 2113.873 872.559 2091.237 C 861.358 2114.804 848.568 2133.95 839.652 2154.179 L 839.652 2154.18 Z " fill="rgb(212,0,0)"/></g></g></g></svg>