<?xml version="1.0" encoding="UTF-8" standalone="no"?><!-- Generator: Gravit.io --><svg xmlns="http://www.w3.org/2000/svg" xmlns:xlink="http://www.w3.org/1999/xlink" style="isolation:isolate" viewBox="78.102 959.502 823.997 1280.997" width="823.997pt" height="1280.997pt"><defs><clipPath id="_clipPath_9lWV0tnRkEJSyFNrtXyhG7OHdWpes6Qi"><rect x="78.102" y="959.502" width="823.997" height="1280.997"/></clipPath></defs><g clip-path="url(#_clipPath_9lWV0tnRkEJSyFNrtXyhG7OHdWpes6Qi)"><g><g><g><g><g><path d="M 120.454 960.5 L 860.746 960.5 C 883.57 960.5 902.1 979.03 902.1 1001.854 L 902.1 2199.146 C 902.1 2221.97 883.57 2240.5 860.746 2240.5 L 120.454 2240.5 C 97.63 2240.5 79.1 2221.97 79.1 2199.146 L 79.1 1001.854 C 79.1 979.03 97.63 960.5 120.454 960.5 Z" style="stroke:none;fill:#FFFFFF;stroke-miterlimit:10;"/><path d="M 120.454 960.5 L 860.746 960.5 C 883.57 960.5 902.1 979.03 902.1 1001.854 L 902.1 2199.146 C 902.1 2221.97 883.57 2240.5 860.746 2240.5 L 120.454 2240.5 C 97.63 2240.5 79.1 2221.97 79.1 2199.146 L 79.1 1001.854 C 79.1 979.03 97.63 960.5 120.454 960.5 Z" style="fill:none;stroke:#000000;stroke-width:0.99673343;stroke-miterlimit:2;"/><g><path d=" M 105.275 1149.102 L 105.275 1137.866 L 115.085 1137.866 L 135.968 1017.706 L 147.85 1017.706 L 170.867 1137.866 L 178.785 1137.866 L 178.785 1149.102 L 151.806 1149.102 L 151.806 1137.866 L 159.094 1137.866 L 156.19 1119.452 L 128.961 1119.452 L 126.858 1137.866 L 134.146 1137.866 L 134.146 1149.102 L 105.275 1149.102 Z  M 153.86 1106.344 L 142.031 1042.016 L 130.945 1106.344 L 153.86 1106.344 Z " fill="rgb(0,0,0)"/><path d=" M 874.925 2050.897 L 874.925 2062.133 L 865.114 2062.133 L 844.231 2182.294 L 832.349 2182.294 L 809.333 2062.133 L 801.414 2062.133 L 801.414 2050.897 L 828.394 2050.897 L 828.394 2062.133 L 821.106 2062.133 L 824.01 2080.547 L 851.239 2080.547 L 853.341 2062.133 L 846.053 2062.133 L 846.053 2050.897 L 874.925 2050.897 Z  M 826.34 2093.656 L 838.169 2157.983 L 849.254 2093.656 L 826.34 2093.656 Z " fill="rgb(0,0,0)"/></g></g></g><path d=" M 485.35 1646.577 C 485.405 1638.261 479.499 1638.102 479.566 1644.172 C 479.071 1674.667 455.91 1689.682 439.083 1686.12 C 413.142 1680.629 404.863 1651.958 405.11 1635.072 C 405.874 1582.953 452.994 1544.521 495.511 1477.707 C 526.665 1538.013 578.086 1585.381 581.13 1631.998 C 585.177 1693.977 514.734 1717.095 504.677 1644.858 C 504.028 1639.755 498.632 1637.465 499.05 1644.591 C 500.579 1664.388 498.406 1672.634 518.464 1721.435 L 466.031 1721.435 C 477.644 1698.632 484.559 1670.637 485.35 1646.577 L 485.35 1646.577 Z " fill="rgb(0,0,0)"/><path d=" M 143.205 1246.575 C 143.242 1242.997 139.904 1244.667 139.452 1245.793 C 135.164 1253.944 128.891 1255.841 122.685 1252.903 C 116.538 1249.991 113.084 1243.542 113.638 1234.339 C 114.782 1220.226 124.829 1204.784 129.694 1196.054 C 134.31 1188.132 139.383 1178.722 144.724 1166.686 C 150.982 1180.493 154.157 1184.423 160.965 1197.029 C 166.96 1208.131 175.316 1219.003 175.961 1232.424 C 175.961 1242.625 172.105 1252.259 163.428 1254.014 C 158.52 1255.007 153.921 1252.202 150.51 1245.653 C 149.472 1243.984 147.381 1244.854 147.416 1247.138 C 148.025 1255.732 150.939 1263.49 157.848 1272.637 L 132.457 1272.637 C 137.656 1266.168 142.959 1257.434 143.205 1246.575 L 143.205 1246.575 Z " fill="rgb(0,0,0)"/><path d=" M 837.725 1955.004 C 837.762 1958.582 834.425 1956.912 833.973 1955.785 C 829.684 1947.634 823.411 1945.738 817.206 1948.676 C 811.059 1951.587 807.605 1958.037 808.159 1967.24 C 809.302 1981.352 819.35 1996.794 824.215 2005.525 C 828.831 2013.447 833.903 2022.857 839.245 2034.893 C 845.502 2021.086 848.678 2017.156 855.485 2004.55 C 861.48 1993.448 869.836 1982.576 870.482 1969.155 C 870.482 1958.954 866.625 1949.32 857.949 1947.565 C 853.04 1946.572 848.441 1949.377 845.031 1955.926 C 843.992 1957.595 841.902 1956.725 841.937 1954.44 C 842.546 1945.847 845.459 1938.089 852.368 1928.941 L 826.977 1928.941 C 832.176 1935.411 837.48 1944.145 837.725 1955.004 L 837.725 1955.004 Z " fill="rgb(0,0,0)"/></g></g></g></g></svg>