<?xml version="1.0" encoding="UTF-8" standalone="no"?><!-- Generator: Gravit.io --><svg xmlns="http://www.w3.org/2000/svg" xmlns:xlink="http://www.w3.org/1999/xlink" style="isolation:isolate" viewBox="-87.85 -367.319 50 50" width="50pt" height="50pt"><defs><clipPath id="_clipPath_iFE87AIu0mPaBNGJZ5rWa7B0AUyPId8R"><rect x="-87.85" y="-367.319" width="50" height="50"/></clipPath></defs><g clip-path="url(#_clipPath_iFE87AIu0mPaBNGJZ5rWa7B0AUyPId8R)"><path d=" M -62.85 -317.319 C -76.657 -317.319 -87.85 -328.512 -87.85 -342.319 C -87.85 -356.126 -76.657 -367.319 -62.85 -367.319 C -49.043 -367.319 -37.85 -356.126 -37.85 -342.319 C -37.85 -328.512 -49.043 -317.319 -62.85 -317.319 Z  M -77.005 -336.681 C -78.124 -337.812 -78.124 -339.633 -77.005 -340.765 L -75.533 -342.228 C -75.028 -342.738 -74.337 -343.022 -73.618 -343.014 C -72.9 -343.006 -72.216 -342.707 -71.722 -342.185 L -69.122 -339.488 C -68.871 -339.224 -68.523 -339.074 -68.159 -339.074 C -67.795 -339.074 -67.446 -339.224 -67.196 -339.488 L -53.946 -353.146 C -53.448 -353.671 -52.758 -353.971 -52.034 -353.975 C -51.31 -353.979 -50.616 -353.688 -50.113 -353.169 L -48.683 -351.724 C -47.593 -350.598 -47.593 -348.811 -48.683 -347.685 L -66.274 -329.81 C -66.77 -329.296 -67.452 -329.004 -68.166 -329 C -68.879 -328.995 -69.565 -329.278 -70.068 -329.785 L -77.005 -336.681 Z " fill-rule="evenodd" fill="rgb(51,145,1)"/></g></svg>