<?xml version="1.0" encoding="UTF-8" standalone="no"?><!-- Generator: Gravit.io --><svg xmlns="http://www.w3.org/2000/svg" xmlns:xlink="http://www.w3.org/1999/xlink" style="isolation:isolate" viewBox="516.975 196.868 50 50" width="50pt" height="50pt"><defs><clipPath id="_clipPath_X1lQtcHoOzu6UYwt3Km093oTbV0JviZv"><rect x="516.975" y="196.868" width="50" height="50"/></clipPath></defs><g clip-path="url(#_clipPath_X1lQtcHoOzu6UYwt3Km093oTbV0JviZv)"><g><path d=" M 541.975 196.868 L 541.736 196.975 C 528.176 205.998 520.015 216.826 517.375 227.547 C 514.135 240.605 531.415 243.789 538.616 231.37 C 539.215 230.307 539.815 229.459 540.894 228.928 C 538.975 237.315 535.496 243.683 529.255 246.868 C 537.655 246.868 546.175 246.868 554.697 246.868 C 548.336 243.683 544.856 237.315 543.056 228.928 C 544.016 229.459 544.615 230.307 545.216 231.37 C 552.535 243.789 569.816 240.605 566.575 227.547 C 563.816 216.826 555.655 205.998 542.096 196.975 L 541.975 196.868 Z " fill-rule="evenodd" fill="rgb(1,1,1)"/><path d=" M 547.19 243.344 C 545.148 240.743 543.399 237.703 541.949 234.179 L 541.949 234.149 C 541.942 234.134 541.936 234.119 541.93 234.104 C 541.927 234.109 541.925 234.114 541.922 234.119 C 541.921 234.114 541.918 234.109 541.916 234.104 C 541.91 234.119 541.903 234.134 541.897 234.149 L 541.897 234.179 C 540.447 237.703 538.697 240.743 536.655 243.344 C 536.561 243.414 535.699 245.092 539.571 243.953 C 539.571 243.953 539.623 244.892 541.915 244.896 L 541.915 244.896 C 541.918 244.896 541.92 244.896 541.922 244.896 C 541.925 244.896 541.928 244.896 541.93 244.896 L 541.93 244.896 C 544.223 244.892 544.531 243.953 544.531 243.953 C 548.404 245.092 547.284 243.414 547.19 243.344 Z " fill-rule="evenodd" fill="rgb(255,255,255)"/><path d=" M 526.606 226.61 C 526.653 226.776 526.653 226.723 526.606 226.61 L 526.606 226.61 Z  M 557.215 226.671 C 557.168 226.784 557.168 226.837 557.215 226.671 L 557.215 226.671 Z  M 565.671 227.013 C 563.134 217.647 556.421 208.319 545.693 200.398 C 543.88 198.985 542.846 198.326 542.317 198.029 C 542.301 198.018 542.285 198.006 542.269 197.995 L 542.253 197.989 C 542.262 197.994 542.271 198.001 542.28 198.007 C 541.975 197.837 541.852 197.795 541.852 197.795 C 541.852 197.795 541.763 197.825 541.537 197.949 C 541.547 197.941 541.558 197.934 541.568 197.927 L 541.552 197.934 C 541.535 197.945 541.519 197.957 541.502 197.968 C 541.101 198.192 540.307 198.691 538.875 199.785 C 527.707 207.821 520.746 217.367 518.15 226.952 C 515.389 237.076 525.026 241.338 532.563 236.441 C 532.838 236.263 533.998 235.158 533.525 234.362 C 533 233.478 531.691 233.012 530.257 233.455 C 528.823 233.897 527.96 235.02 528.332 235.964 C 528.651 236.776 529.782 237.186 531.005 237.004 C 524.407 239.37 517.522 235.509 519.016 227.386 C 520.254 231.568 525.065 232.154 525.562 229.725 C 525.706 229.02 524.678 228.427 523.588 228.427 C 522.498 228.427 521.614 229.008 521.614 229.725 C 521.614 230.014 521.762 230.278 522.005 230.494 C 519.709 229.693 519.564 224.856 520.024 223.831 C 519.987 223.994 519.946 224.159 519.916 224.321 C 519.916 224.321 519.954 225.542 520.845 226.231 C 520.845 226.231 525.292 224.761 526.503 226.421 C 526.549 226.484 526.583 226.553 526.606 226.61 C 526.592 226.559 526.575 226.496 526.551 226.4 C 525.841 223.485 524.316 213.915 532.086 205.645 C 532.328 205.409 532.577 205.174 532.825 204.94 C 533.955 204.598 538.992 203.298 541.006 206.455 C 539.623 204.721 536.977 205.351 537.513 207.514 C 537.98 209.409 539.422 211.323 541.819 212.917 L 541.862 212.936 L 541.883 212.917 C 544.28 211.322 545.723 209.409 546.21 207.514 C 546.762 205.289 543.947 204.693 542.585 206.62 C 544.526 203.29 549.676 204.562 550.918 204.927 C 551.193 205.186 551.468 205.445 551.735 205.706 C 559.505 213.977 557.98 223.547 557.27 226.462 C 557.246 226.558 557.229 226.621 557.215 226.671 C 557.238 226.614 557.272 226.546 557.318 226.482 C 558.529 224.822 562.975 226.293 562.975 226.293 C 563.867 225.604 563.905 224.382 563.905 224.382 C 563.875 224.22 563.834 224.056 563.797 223.893 C 564.256 224.918 564.113 229.755 561.816 230.555 C 562.059 230.339 562.207 230.075 562.207 229.787 C 562.207 229.07 561.323 228.488 560.233 228.488 C 559.142 228.488 558.115 229.081 558.259 229.787 C 558.756 232.215 563.567 231.629 564.805 227.447 C 566.298 235.571 559.413 239.432 552.816 237.065 C 554.039 237.248 555.169 236.838 555.489 236.025 C 555.861 235.082 554.999 233.958 553.565 233.516 C 552.13 233.073 550.821 233.539 550.295 234.424 C 549.822 235.219 550.983 236.324 551.257 236.503 C 558.795 241.4 568.432 237.138 565.671 227.013 Z  M 525.276 223.656 C 525.333 224.234 525.412 224.75 525.494 225.215 C 525.438 225.209 525.381 225.206 525.324 225.201 C 524.148 224.858 521.703 223.957 522.067 222.512 C 522.122 222.667 522.24 222.796 522.424 222.873 C 522.891 223.07 523.593 222.858 523.991 222.4 C 524.387 221.943 524.332 221.41 523.862 221.215 C 522.28 220.56 520.403 223.515 523.963 225.166 C 522.885 225.208 521.781 225.392 520.828 225.621 C 520.557 225.257 520.452 224.817 520.429 224.579 C 520.428 224.572 520.428 224.568 520.427 224.561 C 521.251 221.051 523.576 216.825 526.42 213.489 C 524.868 217.374 525.047 221.318 525.276 223.656 Z  M 528.558 209.421 C 529.003 208.906 529.429 208.428 529.836 207.981 C 529.398 208.458 528.972 208.938 528.558 209.421 Z  M 543.123 203.915 C 542.637 204.202 542.215 204.547 541.848 204.938 C 541.477 204.539 541.052 204.188 540.557 203.898 C 539.575 203.321 538.48 203.046 537.408 202.947 C 539.782 200.981 541.151 200.001 541.864 199.537 C 542.598 200 543.999 200.98 546.382 202.946 C 545.272 203.041 544.137 203.317 543.123 203.915 Z  M 553.985 208.042 C 554.392 208.489 554.817 208.967 555.263 209.482 C 554.849 208.999 554.423 208.519 553.985 208.042 Z  M 563.393 224.64 C 563.369 224.878 563.264 225.318 562.992 225.682 C 562.04 225.453 560.936 225.27 559.858 225.227 C 563.417 223.576 561.541 220.622 559.959 221.276 C 559.489 221.471 559.433 222.003 559.83 222.461 C 560.228 222.919 560.929 223.131 561.397 222.934 C 561.58 222.857 561.699 222.728 561.753 222.573 C 562.118 224.019 559.673 224.92 558.496 225.262 C 558.44 225.268 558.382 225.27 558.327 225.277 C 558.409 224.811 558.487 224.296 558.544 223.717 C 558.774 221.38 558.953 217.435 557.401 213.55 C 560.245 216.886 562.57 221.112 563.394 224.622 C 563.393 224.628 563.393 224.633 563.393 224.64 Z " fill-rule="evenodd" fill="rgb(255,255,255)"/></g></g></svg>