<?xml version="1.0" encoding="UTF-8" standalone="no"?><!-- Generator: Gravit.io --><svg xmlns="http://www.w3.org/2000/svg" xmlns:xlink="http://www.w3.org/1999/xlink" style="isolation:isolate" viewBox="543.971 197.351 50 50" width="50pt" height="50pt"><defs><clipPath id="_clipPath_n5RnnzhXUIKw4tSaqGgvz5mtSfgQSc4u"><rect x="543.971" y="197.351" width="50" height="50"/></clipPath></defs><g clip-path="url(#_clipPath_n5RnnzhXUIKw4tSaqGgvz5mtSfgQSc4u)"><path d=" M 567.032 247.349 C 563.312 247.347 560.237 247.322 560.199 247.293 C 560.16 247.264 560.463 247.039 560.872 246.793 C 562.359 245.899 563.641 244.408 565.121 241.852 C 566.138 240.095 566.465 239.391 566.802 238.229 C 567.343 236.369 567.325 235.097 566.752 234.56 L 566.477 234.303 L 565.369 235.212 C 564.138 236.222 562.536 237.082 560.748 237.693 C 558.79 238.361 557.523 238.575 555.373 238.6 C 553.676 238.62 553.311 238.586 552.099 238.291 C 549.039 237.547 546.559 235.843 545.115 233.492 C 544.244 232.075 544.022 231.291 543.98 229.488 C 543.946 228.029 543.987 227.746 544.411 226.475 C 545.075 224.49 546.433 222.035 547.817 220.321 C 549.498 218.238 553.375 214.372 557.472 210.692 C 560.844 207.664 562.202 206.315 564.554 203.66 C 567.056 200.834 568.05 199.48 568.523 198.247 C 568.713 197.754 568.902 197.351 568.944 197.351 C 568.986 197.351 569.231 197.84 569.489 198.439 C 570.514 200.82 573.165 204.079 577.009 207.683 C 577.693 208.325 579.686 210.153 581.437 211.745 C 587.173 216.959 589.594 219.584 591.733 222.907 C 593.389 225.481 594.043 227.464 593.965 229.681 C 593.865 232.515 592.703 234.517 590.009 236.495 C 588.899 237.309 587.197 238.081 585.845 238.383 C 585.426 238.476 584.294 238.596 583.328 238.649 C 580.437 238.809 578.282 238.367 575.279 236.997 C 573.87 236.355 572.278 235.318 571.839 234.756 C 571.483 234.301 571.211 234.33 570.944 234.851 C 570.495 235.726 570.423 236.514 570.696 237.566 C 571.548 240.845 574.271 245.045 576.61 246.686 L 577.555 247.349 L 575.675 247.35 C 574.641 247.351 570.751 247.35 567.032 247.349 L 567.032 247.349 Z  M 573.206 245.615 C 572.473 245.157 570.885 243.391 570.099 242.158 C 569.281 240.876 569.031 239.935 569.262 239.008 C 569.357 238.628 569.47 238.177 569.512 238.006 C 569.562 237.806 569.455 237.494 569.214 237.136 L 568.837 236.578 L 568.415 237.205 L 567.993 237.833 L 568.272 238.411 C 568.683 239.264 568.585 240.502 568.032 241.435 C 567.333 242.614 564.991 245.329 564.388 245.659 C 563.682 246.046 563.996 246.034 565.341 245.621 C 566.311 245.324 566.621 245.288 568.332 245.275 C 570.299 245.261 572.093 245.46 572.876 245.78 C 573.604 246.077 573.794 245.982 573.206 245.615 L 573.206 245.615 Z  M 570.386 244.848 C 569.478 244.693 567.188 244.738 566.34 244.927 C 565.963 245.011 565.964 245.007 566.423 244.602 C 567.054 244.045 567.452 243.454 568.199 241.97 C 568.774 240.829 568.848 240.738 568.983 241.007 C 569.065 241.17 569.392 241.854 569.709 242.528 C 570.263 243.708 570.609 244.201 571.277 244.768 C 571.627 245.065 571.647 245.063 570.386 244.848 L 570.386 244.848 Z  M 585.505 236.779 C 587.633 236.145 589.606 234.663 590.643 232.921 C 591.296 231.825 591.528 231.163 591.725 229.833 C 592.003 227.968 591.599 226.294 590.301 223.92 C 588.585 220.781 586.173 218.201 581.131 214.11 C 573.467 207.89 571.568 205.954 569.765 202.525 C 569.456 201.938 569.153 201.231 569.09 200.953 C 569.028 200.674 568.931 200.449 568.876 200.451 C 568.82 200.454 568.599 200.905 568.384 201.455 C 567.094 204.761 564.185 207.946 557.417 213.465 C 552.7 217.312 551.966 217.995 550.032 220.331 C 547.505 223.384 546.341 225.84 546.211 228.393 C 546.005 232.419 548.706 235.86 552.818 236.81 C 555.332 237.391 558.783 236.92 561.503 235.625 C 563.687 234.585 564.8 233.726 565.641 232.432 C 565.911 232.016 566.157 231.652 566.187 231.623 C 566.217 231.595 566.491 231.752 566.796 231.974 C 567.329 232.362 568.264 233.602 568.652 234.435 L 568.838 234.836 L 569.34 233.9 C 569.673 233.278 570.115 232.726 570.657 232.254 L 571.474 231.545 L 572.019 232.393 C 573.264 234.329 576.739 236.243 580.277 236.943 C 581.79 237.242 584.202 237.166 585.505 236.779 Z  M 581.458 236.686 C 580.17 236.567 579.362 236.374 578.018 235.866 C 574.484 234.53 572.621 233.045 572.259 231.276 C 572.196 230.965 572.072 230.711 571.985 230.712 C 571.466 230.718 569.801 232.224 569.228 233.206 C 569.098 233.428 568.932 233.611 568.859 233.612 C 568.786 233.613 568.574 233.387 568.388 233.11 C 567.85 232.309 566.846 231.28 566.291 230.959 C 565.731 230.636 565.734 230.635 565.468 231.325 C 565.184 232.063 564.601 232.953 564.034 233.517 C 563.455 234.091 561.004 235.455 559.746 235.903 C 556.919 236.908 553.59 236.919 551.353 235.929 C 549.437 235.081 548.002 233.51 547.288 231.477 C 546.279 228.605 546.84 225.9 549.118 222.663 C 551.215 219.682 552.511 218.34 556.373 215.146 C 562.775 209.85 565.995 206.589 567.859 203.513 C 568.634 202.234 568.806 202.3 568.368 203.706 C 567.62 206.109 562.597 211.928 554.926 219.28 C 552.859 221.262 550.631 224.175 549.948 225.791 C 549.01 228.011 548.874 229.798 549.506 231.626 C 550.403 234.225 552.257 235.725 554.969 236.047 C 558.904 236.514 562.423 234.288 564.753 229.858 L 565.315 228.789 L 566.087 229.691 C 566.924 230.67 568.625 232.064 568.977 232.06 C 569.248 232.057 571.238 230.387 571.894 229.613 C 572.159 229.3 572.414 229.042 572.46 229.04 C 572.506 229.038 572.639 229.236 572.756 229.481 C 572.874 229.725 573.244 230.345 573.579 230.858 C 575.953 234.494 579.1 236.276 582.741 236.048 C 584.359 235.946 585.53 235.409 586.661 234.247 C 587.887 232.988 588.467 231.811 588.664 230.18 C 588.883 228.369 588.298 226.372 586.862 224.026 C 586.057 222.711 583.675 220.03 581.784 218.311 C 578.087 214.951 571.969 208.26 570.288 205.74 C 569.852 205.087 569.29 203.654 569.152 202.846 C 569.041 202.193 569.211 202.326 569.659 203.242 C 570.389 204.736 572.191 206.968 574.186 208.851 C 575.437 210.031 576.817 211.219 580.281 214.1 C 582.513 215.957 583.927 217.234 585.529 218.838 C 588.267 221.581 590.518 225.216 591.06 227.77 C 591.588 230.264 590.312 233.385 588.089 235.033 C 587.222 235.676 585.5 236.375 584.224 236.602 C 583.138 236.795 582.756 236.807 581.458 236.686 L 581.458 236.686 Z  M 580.108 235.349 C 578.812 234.981 577.731 234.435 576.871 233.715 C 575.341 232.434 573.75 230.28 573.023 228.506 C 572.642 227.577 572.508 227.442 572.358 227.833 C 572.047 228.638 569.339 231.698 568.934 231.702 C 568.646 231.705 567.393 230.436 566.199 228.934 C 565.581 228.156 565.055 227.505 565.03 227.486 C 565.006 227.468 564.846 227.886 564.675 228.416 C 563.895 230.838 561.565 233.745 559.533 234.832 C 556.665 236.368 552.415 235.691 551.119 233.493 C 550.774 232.908 550.479 231.679 550.683 231.676 C 550.753 231.675 550.811 231.73 550.813 231.797 C 550.818 232.062 551.688 232.895 552.281 233.202 C 554.607 234.407 556.85 234.211 559.438 232.576 C 561.46 231.298 563.333 228.414 562.616 227.683 C 562.43 227.493 562.414 227.522 562.473 227.94 C 562.561 228.56 562.215 228.973 561.291 229.352 C 560.892 229.516 560.499 229.745 560.419 229.862 C 560.284 230.056 560.235 230.047 559.827 229.751 C 559.582 229.573 559.22 229.43 559.023 229.432 C 558.67 229.436 558.668 229.44 558.954 229.679 C 559.3 229.969 559.359 230.917 559.074 231.611 C 558.844 232.17 557.675 233.154 556.872 233.465 C 555.525 233.986 553.383 233.64 552.293 232.725 C 550.731 231.415 551.344 229.216 553.527 228.295 C 554.576 227.853 556.065 228.02 556.853 228.667 C 557.222 228.971 557.225 228.986 556.982 229.401 C 556.641 229.98 556.401 230.017 555.825 229.581 C 555.373 229.238 555.269 229.213 554.569 229.273 C 553.246 229.388 552.426 230.33 552.795 231.314 C 553.006 231.878 554.111 232.65 554.849 232.749 C 556.786 233.009 558.597 231.34 558.107 229.745 C 557.954 229.248 557.98 229.076 558.326 228.265 C 559.087 226.486 558.661 223.735 557.449 222.591 C 557.209 222.365 557.205 222.368 557.355 222.68 C 557.516 223.018 557.44 223.366 557.204 223.369 C 557.129 223.37 557.066 223.314 557.065 223.246 C 557.064 223.177 556.777 223.024 556.427 222.907 C 555.63 222.64 555.016 222.781 554.679 223.31 C 554.458 223.656 554.46 223.67 554.727 223.581 C 555.358 223.37 555.582 223.367 556.155 223.561 C 557.267 223.937 557.937 224.993 557.957 226.402 C 557.969 227.255 557.731 228.254 557.515 228.257 C 557.47 228.257 557.173 228.101 556.855 227.91 C 556.087 227.449 555.603 227.324 554.651 227.338 C 553.062 227.362 551.516 228.282 550.673 229.705 C 550.401 230.165 550.178 230.678 550.179 230.844 C 550.18 231.131 550.171 231.134 549.995 230.909 C 549.739 230.583 549.756 228.719 550.024 227.688 C 550.698 225.095 553.348 221.336 556.378 218.676 L 557.193 217.96 L 557.303 219.083 C 557.39 219.963 557.501 220.334 557.819 220.802 C 558.314 221.529 559.392 222.306 560.173 222.497 C 561.027 222.706 562.379 222.581 562.953 222.239 C 563.55 221.884 563.973 221.15 563.827 220.723 C 563.751 220.499 563.774 220.42 563.908 220.454 C 564.232 220.534 564.676 221.073 564.83 221.572 C 564.987 222.081 564.841 223.213 564.565 223.631 C 564.289 224.048 563.4 224.503 562.485 224.694 C 561.09 224.986 560.805 225.112 560.55 225.548 C 560.252 226.057 560.397 226.743 560.839 226.921 C 561.137 227.041 561.14 227.036 560.895 226.772 C 560.57 226.421 560.574 226.362 560.938 226.069 C 561.197 225.861 561.445 225.825 562.728 225.807 C 564.61 225.782 565.31 225.556 565.852 224.8 C 566.444 223.973 566.579 223.375 566.364 222.523 C 566.026 221.179 565.118 220.068 564.015 219.648 C 563.096 219.298 562.358 219.29 561.829 219.626 C 561.349 219.93 561.3 220.166 561.758 219.968 C 562.223 219.766 562.774 219.991 563.057 220.498 C 563.256 220.855 563.259 220.968 563.083 221.312 C 562.499 222.451 560.789 222.559 559.28 221.553 C 558.316 220.91 557.888 220.209 557.877 219.253 C 557.861 217.922 558.717 216.821 560.217 216.244 C 560.814 216.014 562.139 215.986 562.895 216.188 C 565.007 216.75 566.943 218.842 567.652 221.331 C 567.915 222.252 568.58 226.232 568.593 226.963 C 568.598 227.26 568.479 227.635 568.305 227.865 C 567.927 228.366 567.933 228.69 568.324 228.874 C 568.494 228.954 568.635 229.141 568.638 229.289 C 568.641 229.449 568.736 229.557 568.872 229.556 C 569.008 229.554 569.099 229.444 569.096 229.284 C 569.093 229.135 569.227 228.946 569.393 228.862 C 569.761 228.677 569.772 228.347 569.429 227.848 C 569.22 227.542 569.186 227.263 569.249 226.335 C 569.348 224.849 569.79 222.436 570.165 221.33 C 570.958 218.991 572.651 217.006 574.404 216.36 C 575.832 215.833 577.741 216.184 578.866 217.18 C 579.581 217.813 579.776 218.299 579.728 219.336 C 579.695 220.065 579.609 220.305 579.169 220.896 C 578.467 221.838 577.468 222.332 576.38 222.272 C 575.749 222.238 575.541 222.161 575.111 221.806 C 574.706 221.47 574.595 221.278 574.588 220.896 C 574.576 220.258 575.134 219.771 575.799 219.839 C 576.351 219.896 576.374 219.757 575.857 219.501 C 575.241 219.196 574.132 219.348 573.244 219.86 C 572.455 220.315 571.637 221.285 571.381 222.071 C 571.155 222.763 571.334 224.033 571.749 224.677 C 572.32 225.564 572.794 225.742 574.716 225.79 C 576.157 225.825 576.397 225.862 576.705 226.096 C 577.011 226.328 577.03 226.393 576.86 226.614 C 576.698 226.823 576.699 226.857 576.866 226.812 C 577.159 226.732 577.347 226.202 577.217 225.822 C 577.023 225.254 576.366 224.873 575.325 224.726 C 574.806 224.653 574.2 224.484 573.977 224.352 C 572.782 223.64 572.456 221.691 573.375 220.751 C 573.794 220.322 573.964 220.349 573.874 220.83 C 573.777 221.343 574.132 221.866 574.862 222.288 C 575.3 222.54 575.625 222.618 576.358 222.644 C 577.539 222.685 578.228 222.459 579.133 221.73 C 580.108 220.946 580.433 220.276 580.424 219.073 C 580.419 218.532 580.465 218.089 580.526 218.088 C 580.714 218.085 582.817 220.201 584.156 221.743 C 586.998 225.013 588.21 227.63 587.996 230.03 C 587.9 231.11 587.687 231.378 587.527 230.62 C 587.317 229.627 585.954 228.179 584.711 227.63 C 584.171 227.391 583.818 227.33 582.999 227.331 C 581.888 227.333 581.231 227.529 580.506 228.074 L 580.105 228.376 L 579.895 228.097 C 579.761 227.92 579.68 227.431 579.67 226.746 C 579.653 225.495 579.977 224.758 580.867 224.023 C 581.572 223.441 582.161 223.327 582.755 223.659 L 583.2 223.909 L 583.194 223.566 C 583.179 222.8 581.828 222.517 580.881 223.081 L 580.4 223.368 L 580.461 223.007 C 580.54 222.538 580.277 222.613 579.769 223.205 C 579.179 223.892 578.928 224.628 578.864 225.861 C 578.815 226.799 578.866 227.149 579.153 227.885 C 579.345 228.375 579.502 228.923 579.502 229.104 C 579.503 229.284 579.496 229.741 579.486 230.118 C 579.457 231.256 580.102 232.11 581.303 232.526 C 583.07 233.138 584.888 232.273 584.86 230.833 C 584.847 230.157 584.502 229.729 583.726 229.427 C 583.152 229.203 582.19 229.287 581.763 229.597 C 581.478 229.805 581.451 229.8 580.984 229.446 C 580.507 229.085 580.504 229.074 580.76 228.76 C 581.299 228.096 583.205 227.735 584.167 228.115 C 584.395 228.206 584.84 228.482 585.155 228.73 C 586.681 229.929 586.798 231.553 585.449 232.787 C 584.363 233.78 583.238 234.005 581.515 233.574 C 580.273 233.263 579.502 232.786 579.018 232.027 C 578.335 230.958 578.332 230.574 578.997 229.527 C 579.16 229.271 578.331 229.496 577.932 229.817 C 577.579 230.101 577.439 230.151 577.339 230.032 C 577.267 229.946 577.207 229.838 577.205 229.791 C 577.203 229.745 576.861 229.539 576.446 229.333 C 575.384 228.808 574.949 228.058 575.332 227.415 C 575.483 227.161 575.48 227.16 575.255 227.387 C 574.743 227.902 574.933 228.74 575.875 230.123 C 577.487 232.488 580 233.935 582.647 234.024 C 583.718 234.06 583.935 234.029 584.679 233.734 C 585.536 233.394 586.385 232.712 586.874 231.971 L 587.152 231.55 L 587.165 231.967 C 587.194 232.865 585.93 234.506 584.735 235.125 C 584.036 235.486 583.864 235.521 582.517 235.567 C 581.285 235.61 580.908 235.576 580.108 235.349 L 580.108 235.349 Z  M 581.728 232.186 C 581.29 232.125 580.607 231.604 580.338 231.126 C 580.124 230.747 580.022 229.784 580.195 229.782 C 580.525 229.778 581.175 230.232 581.431 230.646 C 581.699 231.079 581.794 231.135 582.252 231.13 C 582.875 231.122 583.198 230.818 582.923 230.496 C 582.827 230.382 582.602 230.295 582.424 230.302 C 582.067 230.317 581.996 230.126 582.276 229.901 C 582.47 229.745 583.13 229.701 583.535 229.817 C 583.871 229.913 584.242 230.479 584.25 230.905 C 584.258 231.316 583.804 231.822 583.198 232.075 C 582.774 232.253 582.403 232.281 581.728 232.186 L 581.728 232.186 Z  M 554.11 231.859 C 553.394 231.358 553.243 230.799 553.673 230.243 C 554.017 229.8 554.596 229.632 555.14 229.817 C 555.595 229.973 555.659 230.312 555.217 230.227 C 554.998 230.185 554.866 230.256 554.739 230.482 C 554.592 230.746 554.608 230.832 554.846 231.031 C 555 231.161 555.283 231.265 555.474 231.263 C 555.865 231.258 556.445 230.74 556.438 230.4 C 556.436 230.278 556.528 230.177 556.644 230.175 C 556.76 230.174 556.939 230.091 557.041 229.992 C 557.352 229.691 557.496 229.783 557.505 230.289 C 557.526 231.376 556.769 232.093 555.497 232.191 C 554.731 232.249 554.635 232.226 554.11 231.859 Z  M 568.667 223.087 C 568.659 222.808 568.551 222.447 568.428 222.284 C 568.113 221.869 568.134 221.674 568.543 221.227 L 568.901 220.836 L 569.257 221.271 C 569.578 221.663 569.594 221.744 569.419 222.08 C 569.312 222.286 569.199 222.709 569.168 223.021 C 569.092 223.773 568.689 223.826 568.667 223.087 L 568.667 223.087 Z  M 567.864 220.144 C 567.534 218.93 566.535 217.598 565.18 216.566 C 563.75 215.477 562.579 215.004 561.632 215.134 C 561.128 215.203 561.037 215.183 561.038 215.005 C 561.04 214.674 561.381 214.26 561.864 214.004 C 562.739 213.538 563.386 213.721 564.782 214.829 C 566.819 216.446 568.282 218.653 568.311 220.153 C 568.326 220.972 568.088 220.968 567.864 220.144 L 567.864 220.144 Z  M 569.383 220.215 C 569.359 218.768 570.651 216.602 572.456 215.062 C 574.236 213.545 575.432 213.307 576.434 214.271 C 576.613 214.444 576.761 214.7 576.764 214.841 C 576.768 215.074 576.689 215.098 575.89 215.103 C 574.663 215.112 573.746 215.506 572.353 216.623 C 571.007 217.702 570.082 218.966 569.82 220.081 C 569.722 220.498 569.586 220.839 569.518 220.84 C 569.449 220.841 569.388 220.56 569.383 220.215 L 569.383 220.215 Z  M 568.733 218.297 C 568.713 217.252 568.422 216.054 567.474 213.11 C 566.559 210.269 566.679 208.731 567.964 206.84 C 568.249 206.42 568.561 205.843 568.658 205.559 L 568.833 205.041 L 569.031 205.516 C 569.139 205.777 569.48 206.398 569.788 206.894 C 570.987 208.829 571.148 210.159 570.45 212.363 C 569.842 214.285 569.347 216.211 569.112 217.568 C 568.887 218.869 568.749 219.134 568.733 218.297 L 568.733 218.297 Z  M 566.933 215.959 C 566.696 215.688 566.099 215.091 565.606 214.632 C 564.51 213.612 564.059 212.956 563.928 212.192 C 563.755 211.178 564.303 210.543 565.225 210.69 C 566.116 210.832 566.533 211.687 566.977 214.281 C 567.159 215.349 567.35 216.274 567.401 216.336 C 567.452 216.399 567.465 216.45 567.429 216.45 C 567.393 216.451 567.17 216.229 566.933 215.959 L 566.933 215.959 Z  M 570.446 216.117 C 570.479 215.92 570.572 215.221 570.653 214.564 C 570.914 212.444 571.406 211.275 572.238 210.798 C 572.796 210.477 573.045 210.475 573.416 210.787 C 573.646 210.979 573.714 211.211 573.721 211.827 C 573.733 212.834 573.51 213.204 572.035 214.629 C 571.394 215.248 570.762 215.916 570.629 216.115 L 570.387 216.476 L 570.446 216.117 Z  M 563.367 213.266 C 562.93 213.051 562.633 213.049 561.982 213.253 C 561.751 213.325 561.759 213.275 562.048 212.865 C 562.231 212.606 562.611 212.181 562.894 211.92 L 563.409 211.447 L 563.419 211.989 C 563.425 212.286 563.534 212.75 563.661 213.02 C 563.788 213.289 563.879 213.505 563.861 213.501 C 563.844 213.496 563.621 213.39 563.367 213.266 L 563.367 213.266 Z  M 574.051 212.962 C 574.109 212.705 574.196 212.23 574.243 211.906 L 574.329 211.316 L 574.734 211.781 C 574.957 212.036 575.258 212.418 575.404 212.629 L 575.667 213.014 L 575.163 213.02 C 574.885 213.023 574.498 213.117 574.301 213.227 L 573.944 213.429 L 574.051 212.962 Z  M 565.847 210.023 C 565.646 209.896 565.352 209.794 565.193 209.796 C 565.035 209.798 564.904 209.776 564.904 209.748 C 564.902 209.657 566.089 208.253 566.226 208.185 C 566.299 208.148 566.313 208.327 566.257 208.588 C 566.202 208.847 566.195 209.329 566.242 209.659 C 566.289 209.99 566.301 210.258 566.27 210.257 C 566.238 210.255 566.048 210.15 565.847 210.023 L 565.847 210.023 Z  M 571.515 209.235 C 571.518 208.716 571.536 208.291 571.554 208.291 C 571.615 208.289 572.846 209.694 572.848 209.767 C 572.849 209.807 572.778 209.807 572.69 209.766 C 572.602 209.725 572.301 209.801 572.02 209.935 L 571.509 210.179 L 571.515 209.235 Z " fill="rgb(0,0,0)"/></g></svg>