<?xml version="1.0" encoding="UTF-8" standalone="no"?><!-- Generator: Gravit.io --><svg xmlns="http://www.w3.org/2000/svg" xmlns:xlink="http://www.w3.org/1999/xlink" style="isolation:isolate" viewBox="94 -196.5 50 50" width="50pt" height="50pt"><defs><clipPath id="_clipPath_PLCR4KHuWArp68mgYS40jTV6YzEBwAV4"><rect x="94" y="-196.5" width="50" height="50"/></clipPath></defs><g clip-path="url(#_clipPath_PLCR4KHuWArp68mgYS40jTV6YzEBwAV4)"><g><path d=" M 100.856 -196.308 C 100.797 -196.184 100.807 -194.878 100.866 -193.042 C 100.963 -189.787 100.954 -189.63 100.524 -189.63 C 100.427 -189.63 100.075 -189.787 99.762 -189.967 C 99.108 -190.35 98.786 -190.294 98.786 -189.821 C 98.786 -189.686 99.049 -188.165 99.371 -186.443 L 99.957 -183.301 L 99.957 -180.362 L 99.957 -177.411 L 100.348 -176.082 C 101.237 -173.031 102.634 -170.813 104.567 -169.371 L 105.201 -168.898 L 105.123 -168.425 C 105.084 -168.166 105.045 -167.919 105.036 -167.873 C 105.036 -167.817 104.567 -167.783 103.991 -167.783 C 103.405 -167.783 102.643 -167.705 102.272 -167.615 C 101.403 -167.4 100.338 -166.747 99.723 -166.038 C 99.039 -165.272 95.006 -159.112 94.606 -158.245 C 94.43 -157.862 94.225 -157.198 94.147 -156.781 C 93.951 -155.745 93.951 -152.344 94.147 -151.308 C 94.459 -149.574 95.573 -147.93 96.949 -147.142 C 97.35 -146.917 97.73 -146.725 97.789 -146.725 C 97.877 -146.725 97.906 -147.277 97.906 -148.786 C 97.906 -149.912 97.955 -151.027 98.004 -151.253 C 98.15 -151.86 98.6 -152.243 99.166 -152.243 C 99.42 -152.243 99.713 -152.164 99.84 -152.063 C 100.299 -151.691 100.347 -151.41 100.347 -148.865 L 100.347 -146.5 L 108.697 -146.5 L 117.046 -146.5 L 117.046 -148.752 C 117.046 -151.218 117.105 -151.567 117.583 -151.996 C 117.906 -152.289 118.482 -152.322 118.902 -152.074 C 119.439 -151.759 119.487 -151.478 119.487 -148.865 C 119.487 -146.173 119.4 -146.376 120.395 -146.681 C 121.255 -146.939 122.026 -147.424 122.69 -148.133 L 123.276 -148.753 L 127.924 -148.753 L 132.573 -148.753 L 132.573 -150.431 C 132.573 -151.343 132.622 -152.255 132.68 -152.446 C 132.895 -153.167 133.666 -153.381 134.154 -152.84 L 134.428 -152.536 L 134.428 -150.689 L 134.428 -148.832 L 134.857 -148.888 C 135.961 -149.035 137.23 -150.149 137.768 -151.444 C 138.051 -152.12 138.08 -152.311 138.119 -153.494 L 138.158 -154.8 L 137.484 -154.868 C 134.428 -155.194 131.43 -157.492 129.867 -160.69 C 128.07 -164.361 128.217 -168.967 130.238 -172.503 C 130.944 -173.729 131.969 -174.957 132.897 -175.666 L 133.56 -176.172 L 133.522 -178.03 C 133.493 -179.618 133.453 -179.978 133.268 -180.541 C 132.857 -181.746 132.096 -182.625 131.002 -183.131 C 130.514 -183.356 130.269 -183.379 127.779 -183.413 L 125.084 -183.458 L 124.468 -184.348 C 123.814 -185.294 123.56 -185.429 123.374 -184.956 C 123.16 -184.404 122.964 -184.483 121.832 -185.576 C 121.06 -186.307 120.689 -186.589 120.533 -186.566 L 120.318 -186.533 L 120.357 -184.033 C 120.396 -181.173 120.406 -181.184 119.625 -181.623 C 118.677 -182.153 118.638 -182.006 119.117 -179.551 C 119.498 -177.591 119.517 -177.434 119.586 -174.765 C 119.654 -172.029 119.654 -171.995 119.967 -170.993 C 120.709 -168.639 121.695 -167.141 123.385 -165.869 C 123.57 -165.722 123.599 -165.632 123.541 -165.295 L 123.472 -164.878 L 122.369 -164.833 C 121.324 -164.788 121.216 -164.765 120.513 -164.36 C 120.103 -164.123 119.752 -163.955 119.742 -163.977 C 119.508 -164.371 118.287 -165.981 117.955 -166.319 C 117.037 -167.243 115.679 -167.772 114.205 -167.783 L 113.453 -167.783 L 113.345 -168.278 C 113.179 -169.033 113.199 -169.089 113.687 -169.415 C 114.273 -169.81 115.484 -171.15 116.08 -172.039 C 116.725 -173.031 117.37 -174.506 117.829 -176.083 L 118.219 -177.412 L 118.219 -182.479 L 118.219 -187.546 L 117.975 -188.324 C 117.448 -190.058 116.345 -191.331 114.811 -191.95 C 114.186 -192.208 114.078 -192.22 110.69 -192.22 L 107.213 -192.22 L 106.354 -193.458 C 105.641 -194.494 105.446 -194.697 105.231 -194.697 C 105.026 -194.697 104.938 -194.618 104.84 -194.359 C 104.674 -193.886 104.401 -193.729 104.127 -193.943 C 104.01 -194.033 103.346 -194.641 102.653 -195.305 C 101.384 -196.521 101.032 -196.713 100.856 -196.308 Z " fill="rgb(0,0,0)"/><path d=" M 135.494 -171.162 C 134.576 -170.452 131.071 -167.265 130.885 -166.984 C 130.788 -166.815 130.68 -166.454 130.651 -166.184 C 130.563 -165.284 130.729 -165.069 133.385 -162.727 C 134.713 -161.556 135.934 -160.565 136.09 -160.52 C 136.491 -160.419 136.979 -160.621 137.321 -161.038 C 137.584 -161.364 137.604 -161.443 137.653 -162.58 L 137.702 -163.785 L 140.338 -163.842 C 142.692 -163.886 143.004 -163.92 143.239 -164.112 C 144.079 -164.765 144.264 -166.623 143.59 -167.512 C 143.425 -167.726 143.2 -167.963 143.083 -168.042 C 142.946 -168.132 142.057 -168.199 140.29 -168.233 L 137.702 -168.289 L 137.653 -169.415 C 137.624 -170.035 137.546 -170.654 137.487 -170.789 C 137.086 -171.578 136.236 -171.736 135.494 -171.162 Z " fill="rgb(0,0,0)"/></g></g></svg>