<?xml version="1.0" encoding="UTF-8" standalone="no"?><!-- Generator: Gravit.io --><svg xmlns="http://www.w3.org/2000/svg" xmlns:xlink="http://www.w3.org/1999/xlink" style="isolation:isolate" viewBox="-87.85 -367.319 45 50" width="45pt" height="50pt"><defs><clipPath id="_clipPath_OgxlgGphnCtD6ox2KEPoG5qNP1wwvzu8"><rect x="-87.85" y="-367.319" width="45" height="50"/></clipPath></defs><g clip-path="url(#_clipPath_OgxlgGphnCtD6ox2KEPoG5qNP1wwvzu8)"><g><path d=" M -78.299 -367.192 C -78.533 -367.036 -78.545 -366.342 -78.369 -362.729 C -78.299 -361.586 -78.311 -360.757 -78.369 -360.659 C -78.581 -360.326 -78.99 -360.346 -79.869 -360.727 C -80.667 -361.078 -80.713 -361.078 -80.995 -360.932 C -81.159 -360.844 -81.288 -360.688 -81.288 -360.59 C -81.288 -360.483 -80.96 -359.184 -80.561 -357.68 L -79.847 -354.965 L -79.765 -351.596 L -79.694 -348.226 L -79.143 -346.869 C -77.878 -343.773 -75.979 -341.576 -73.354 -340.199 C -72.487 -339.74 -72.475 -339.73 -72.545 -339.388 C -72.58 -339.202 -72.616 -338.949 -72.616 -338.841 C -72.616 -338.636 -72.686 -338.626 -74.397 -338.577 C -76.893 -338.499 -78.088 -338.177 -79.576 -337.171 C -80.502 -336.557 -86.619 -329.887 -87.147 -328.93 C -87.721 -327.875 -87.85 -327.182 -87.85 -324.887 C -87.85 -322.016 -87.569 -321.118 -86.28 -319.692 C -85.471 -318.803 -83.913 -317.895 -82.787 -317.661 L -82.471 -317.592 L -82.436 -319.887 C -82.401 -322.036 -82.389 -322.201 -82.155 -322.455 C -81.745 -322.915 -81.334 -323.11 -80.784 -323.11 C -80.116 -323.11 -79.577 -322.837 -79.296 -322.348 C -79.085 -321.977 -79.061 -321.733 -79.061 -319.634 L -79.061 -317.319 L -67.577 -317.319 L -56.092 -317.319 L -56.092 -319.692 C -56.092 -321.791 -56.069 -322.094 -55.882 -322.397 C -55.588 -322.866 -54.756 -323.217 -54.147 -323.12 C -53.55 -323.032 -52.94 -322.544 -52.811 -322.055 C -52.752 -321.841 -52.694 -320.688 -52.694 -319.507 L -52.694 -317.339 L -51.897 -317.466 C -49.8 -317.798 -47.807 -319.038 -46.87 -320.581 C -46.132 -321.792 -46.097 -321.977 -46.038 -324.477 C -46.003 -326.392 -46.026 -326.928 -46.19 -327.524 C -46.425 -328.433 -46.999 -329.39 -47.749 -330.151 L -48.312 -330.737 L -50.292 -330.747 C -52.577 -330.757 -53.398 -330.903 -55.109 -331.567 C -56.374 -332.065 -57.336 -332.641 -58.355 -333.501 C -59.398 -334.38 -59.878 -334.956 -60.5 -336.02 C -61.343 -337.495 -61.543 -338.296 -61.531 -340.122 C -61.519 -341.987 -61.332 -342.71 -60.429 -344.223 C -59.363 -346.04 -57.641 -347.495 -55.484 -348.433 L -54.453 -348.872 L -54.453 -353.403 C -54.453 -356.294 -54.5 -358.12 -54.582 -358.452 C -54.652 -358.735 -54.922 -359.341 -55.179 -359.799 C -56.023 -361.274 -57.758 -362.455 -59.679 -362.866 C -60.277 -362.993 -61.191 -363.022 -65.023 -363.022 L -69.64 -363.022 L -70.799 -364.243 C -71.432 -364.917 -72.053 -365.483 -72.17 -365.522 C -72.464 -365.6 -72.745 -365.434 -72.955 -365.063 C -73.096 -364.809 -73.225 -364.721 -73.494 -364.701 C -73.799 -364.682 -74.139 -364.867 -75.779 -365.991 C -76.846 -366.723 -77.795 -367.319 -77.901 -367.319 C -77.995 -367.319 -78.17 -367.26 -78.299 -367.192 Z " fill="rgb(0,0,0)"/><path d=" M -56.502 -345.991 C -57.581 -345.6 -58.132 -344.467 -57.686 -343.578 C -57.592 -343.393 -56.619 -342.504 -55.518 -341.586 L -53.514 -339.926 L -55.506 -338.266 C -56.725 -337.25 -57.557 -336.459 -57.674 -336.244 C -58.155 -335.287 -57.592 -334.184 -56.42 -333.774 C -55.905 -333.598 -55.612 -333.588 -54.979 -333.735 C -54.604 -333.822 -54.1 -334.174 -52.424 -335.561 L -50.35 -337.28 L -48.264 -335.561 C -46.201 -333.852 -45.838 -333.627 -45.077 -333.627 C -43.964 -333.627 -42.862 -334.545 -42.85 -335.463 C -42.85 -336.098 -43.178 -336.479 -45.229 -338.188 L -47.244 -339.877 L -45.17 -341.606 C -43.05 -343.393 -42.85 -343.637 -42.85 -344.37 C -42.862 -344.955 -43.588 -345.805 -44.291 -346.02 C -44.76 -346.176 -45.486 -346.157 -45.99 -345.981 C -46.248 -345.884 -47.197 -345.19 -48.416 -344.174 L -50.408 -342.514 L -52.342 -344.135 C -53.502 -345.112 -54.463 -345.834 -54.745 -345.942 C -55.295 -346.157 -55.999 -346.176 -56.502 -345.991 Z " fill="rgb(0,0,0)"/></g></g></svg>