<?xml version="1.0" encoding="UTF-8" standalone="no"?><!-- Generator: Gravit.io --><svg xmlns="http://www.w3.org/2000/svg" xmlns:xlink="http://www.w3.org/1999/xlink" style="isolation:isolate" viewBox="0 0 800 800" width="800pt" height="800pt"><defs><clipPath id="_clipPath_makje1zRqH1r5uCYAgBeATfCCH3Ify3f"><rect width="800" height="800"/></clipPath></defs><g clip-path="url(#_clipPath_makje1zRqH1r5uCYAgBeATfCCH3Ify3f)"><mask id="_mask_WaKqtkJwDquXXCZNEA2NPirXzQE4IEN8"><path d=" M 800 399.6 C 800 179 620.8 0 400 0 C 179.2 0 0 179 0 399.6 C 0 521.1 55.2 630.6 141.6 704.1 C 142.4 704.9 143.2 704.9 143.2 705.7 C 150.4 711.3 157.6 716.9 165.6 722.5 C 169.6 724.9 172.8 728.05 176.8 731.25 C 242.903 776.068 320.935 800.018 400.8 800 C 480.665 800.018 558.697 776.068 624.8 731.25 C 628.8 728.85 632 725.7 636 723.25 C 643.2 717.7 651.2 712.1 658.4 706.5 C 659.2 705.7 660 705.7 660 704.9 C 744.8 630.55 800 521.1 800 399.6 Z  M 400 749.65 C 324.8 749.65 256 725.65 199.2 685.7 C 200 679.3 201.6 672.95 203.2 666.55 C 207.967 649.205 214.958 632.55 224 617 C 232.8 601.8 243.2 588.2 256 576.2 C 268 564.2 282.4 553.05 296.8 544.25 C 312 535.45 328 529.05 345.6 524.25 C 363.337 519.469 381.63 517.065 400 517.1 C 454.533 516.714 507.061 537.632 546.4 575.4 C 564.8 593.8 579.2 615.4 589.6 640.15 C 595.2 654.55 599.2 669.75 601.6 685.7 C 542.559 727.208 472.172 749.536 400 749.65 Z  M 277.6 379.65 C 270.551 363.511 267.006 346.06 267.2 328.45 C 267.2 310.9 270.4 293.3 277.6 277.3 C 284.8 261.3 294.4 246.95 306.4 234.95 C 318.4 222.95 332.8 213.4 348.8 206.2 C 364.8 199 382.4 195.8 400 195.8 C 418.4 195.8 435.2 199 451.2 206.2 C 467.2 213.4 481.6 223 493.6 234.95 C 505.6 246.95 515.2 261.35 522.4 277.3 C 529.6 293.3 532.8 310.9 532.8 328.45 C 532.8 346.85 529.6 363.65 522.4 379.6 C 515.451 395.363 505.692 409.731 493.6 422 C 481.326 434.075 466.959 443.816 451.2 450.75 C 418.141 464.336 381.059 464.336 348 450.75 C 332.241 443.816 317.874 434.075 305.6 422 C 293.491 409.909 283.965 395.484 277.6 379.6 L 277.6 379.65 Z  M 648.8 644.95 C 648.8 643.35 648 642.55 648 640.95 C 640.132 615.921 628.535 592.221 613.6 570.65 C 598.651 548.919 580.28 529.754 559.2 513.9 C 543.101 501.789 525.651 491.587 507.2 483.5 C 515.594 477.962 523.372 471.542 530.4 464.35 C 542.327 452.575 552.802 439.415 561.6 425.15 C 579.318 396.04 588.468 362.525 588 328.45 C 588.247 303.226 583.348 278.216 573.6 254.95 C 563.976 232.532 550.124 212.178 532.8 195 C 515.502 178.002 495.144 164.43 472.8 155 C 449.495 145.27 424.453 140.387 399.2 140.65 C 373.943 140.403 348.901 145.303 325.6 155.05 C 303.063 164.459 282.656 178.319 265.6 195.8 C 248.602 213.079 235.03 233.421 225.6 255.75 C 215.852 279.016 210.953 304.026 211.2 329.25 C 211.2 346.85 213.6 363.65 218.4 379.6 C 223.2 396.4 229.6 411.6 238.4 425.95 C 246.4 440.35 257.6 453.15 269.6 465.15 C 276.8 472.35 284.8 478.7 293.6 484.3 C 275.092 492.603 257.636 503.076 241.6 515.5 C 220.8 531.5 202.4 550.65 187.2 571.45 C 172.113 592.932 160.504 616.656 152.8 641.75 C 152 643.35 152 644.95 152 645.75 C 88.8 581.8 49.6 495.5 49.6 399.6 C 49.6 207 207.2 49.55 400 49.55 C 592.8 49.55 750.4 207 750.4 399.6 C 750.295 491.598 713.766 579.811 648.8 644.95 L 648.8 644.95 Z " fill="white" stroke="none"/></mask><path d=" M 800 399.6 C 800 179 620.8 0 400 0 C 179.2 0 0 179 0 399.6 C 0 521.1 55.2 630.6 141.6 704.1 C 142.4 704.9 143.2 704.9 143.2 705.7 C 150.4 711.3 157.6 716.9 165.6 722.5 C 169.6 724.9 172.8 728.05 176.8 731.25 C 242.903 776.068 320.935 800.018 400.8 800 C 480.665 800.018 558.697 776.068 624.8 731.25 C 628.8 728.85 632 725.7 636 723.25 C 643.2 717.7 651.2 712.1 658.4 706.5 C 659.2 705.7 660 705.7 660 704.9 C 744.8 630.55 800 521.1 800 399.6 Z  M 400 749.65 C 324.8 749.65 256 725.65 199.2 685.7 C 200 679.3 201.6 672.95 203.2 666.55 C 207.967 649.205 214.958 632.55 224 617 C 232.8 601.8 243.2 588.2 256 576.2 C 268 564.2 282.4 553.05 296.8 544.25 C 312 535.45 328 529.05 345.6 524.25 C 363.337 519.469 381.63 517.065 400 517.1 C 454.533 516.714 507.061 537.632 546.4 575.4 C 564.8 593.8 579.2 615.4 589.6 640.15 C 595.2 654.55 599.2 669.75 601.6 685.7 C 542.559 727.208 472.172 749.536 400 749.65 Z  M 277.6 379.65 C 270.551 363.511 267.006 346.06 267.2 328.45 C 267.2 310.9 270.4 293.3 277.6 277.3 C 284.8 261.3 294.4 246.95 306.4 234.95 C 318.4 222.95 332.8 213.4 348.8 206.2 C 364.8 199 382.4 195.8 400 195.8 C 418.4 195.8 435.2 199 451.2 206.2 C 467.2 213.4 481.6 223 493.6 234.95 C 505.6 246.95 515.2 261.35 522.4 277.3 C 529.6 293.3 532.8 310.9 532.8 328.45 C 532.8 346.85 529.6 363.65 522.4 379.6 C 515.451 395.363 505.692 409.731 493.6 422 C 481.326 434.075 466.959 443.816 451.2 450.75 C 418.141 464.336 381.059 464.336 348 450.75 C 332.241 443.816 317.874 434.075 305.6 422 C 293.491 409.909 283.965 395.484 277.6 379.6 L 277.6 379.65 Z  M 648.8 644.95 C 648.8 643.35 648 642.55 648 640.95 C 640.132 615.921 628.535 592.221 613.6 570.65 C 598.651 548.919 580.28 529.754 559.2 513.9 C 543.101 501.789 525.651 491.587 507.2 483.5 C 515.594 477.962 523.372 471.542 530.4 464.35 C 542.327 452.575 552.802 439.415 561.6 425.15 C 579.318 396.04 588.468 362.525 588 328.45 C 588.247 303.226 583.348 278.216 573.6 254.95 C 563.976 232.532 550.124 212.178 532.8 195 C 515.502 178.002 495.144 164.43 472.8 155 C 449.495 145.27 424.453 140.387 399.2 140.65 C 373.943 140.403 348.901 145.303 325.6 155.05 C 303.063 164.459 282.656 178.319 265.6 195.8 C 248.602 213.079 235.03 233.421 225.6 255.75 C 215.852 279.016 210.953 304.026 211.2 329.25 C 211.2 346.85 213.6 363.65 218.4 379.6 C 223.2 396.4 229.6 411.6 238.4 425.95 C 246.4 440.35 257.6 453.15 269.6 465.15 C 276.8 472.35 284.8 478.7 293.6 484.3 C 275.092 492.603 257.636 503.076 241.6 515.5 C 220.8 531.5 202.4 550.65 187.2 571.45 C 172.113 592.932 160.504 616.656 152.8 641.75 C 152 643.35 152 644.95 152 645.75 C 88.8 581.8 49.6 495.5 49.6 399.6 C 49.6 207 207.2 49.55 400 49.55 C 592.8 49.55 750.4 207 750.4 399.6 C 750.295 491.598 713.766 579.811 648.8 644.95 L 648.8 644.95 Z " fill="rgb(0,189,0)"/><path d=" M 800 399.6 C 800 179 620.8 0 400 0 C 179.2 0 0 179 0 399.6 C 0 521.1 55.2 630.6 141.6 704.1 C 142.4 704.9 143.2 704.9 143.2 705.7 C 150.4 711.3 157.6 716.9 165.6 722.5 C 169.6 724.9 172.8 728.05 176.8 731.25 C 242.903 776.068 320.935 800.018 400.8 800 C 480.665 800.018 558.697 776.068 624.8 731.25 C 628.8 728.85 632 725.7 636 723.25 C 643.2 717.7 651.2 712.1 658.4 706.5 C 659.2 705.7 660 705.7 660 704.9 C 744.8 630.55 800 521.1 800 399.6 Z  M 400 749.65 C 324.8 749.65 256 725.65 199.2 685.7 C 200 679.3 201.6 672.95 203.2 666.55 C 207.967 649.205 214.958 632.55 224 617 C 232.8 601.8 243.2 588.2 256 576.2 C 268 564.2 282.4 553.05 296.8 544.25 C 312 535.45 328 529.05 345.6 524.25 C 363.337 519.469 381.63 517.065 400 517.1 C 454.533 516.714 507.061 537.632 546.4 575.4 C 564.8 593.8 579.2 615.4 589.6 640.15 C 595.2 654.55 599.2 669.75 601.6 685.7 C 542.559 727.208 472.172 749.536 400 749.65 Z  M 277.6 379.65 C 270.551 363.511 267.006 346.06 267.2 328.45 C 267.2 310.9 270.4 293.3 277.6 277.3 C 284.8 261.3 294.4 246.95 306.4 234.95 C 318.4 222.95 332.8 213.4 348.8 206.2 C 364.8 199 382.4 195.8 400 195.8 C 418.4 195.8 435.2 199 451.2 206.2 C 467.2 213.4 481.6 223 493.6 234.95 C 505.6 246.95 515.2 261.35 522.4 277.3 C 529.6 293.3 532.8 310.9 532.8 328.45 C 532.8 346.85 529.6 363.65 522.4 379.6 C 515.451 395.363 505.692 409.731 493.6 422 C 481.326 434.075 466.959 443.816 451.2 450.75 C 418.141 464.336 381.059 464.336 348 450.75 C 332.241 443.816 317.874 434.075 305.6 422 C 293.491 409.909 283.965 395.484 277.6 379.6 L 277.6 379.65 Z  M 648.8 644.95 C 648.8 643.35 648 642.55 648 640.95 C 640.132 615.921 628.535 592.221 613.6 570.65 C 598.651 548.919 580.28 529.754 559.2 513.9 C 543.101 501.789 525.651 491.587 507.2 483.5 C 515.594 477.962 523.372 471.542 530.4 464.35 C 542.327 452.575 552.802 439.415 561.6 425.15 C 579.318 396.04 588.468 362.525 588 328.45 C 588.247 303.226 583.348 278.216 573.6 254.95 C 563.976 232.532 550.124 212.178 532.8 195 C 515.502 178.002 495.144 164.43 472.8 155 C 449.495 145.27 424.453 140.387 399.2 140.65 C 373.943 140.403 348.901 145.303 325.6 155.05 C 303.063 164.459 282.656 178.319 265.6 195.8 C 248.602 213.079 235.03 233.421 225.6 255.75 C 215.852 279.016 210.953 304.026 211.2 329.25 C 211.2 346.85 213.6 363.65 218.4 379.6 C 223.2 396.4 229.6 411.6 238.4 425.95 C 246.4 440.35 257.6 453.15 269.6 465.15 C 276.8 472.35 284.8 478.7 293.6 484.3 C 275.092 492.603 257.636 503.076 241.6 515.5 C 220.8 531.5 202.4 550.65 187.2 571.45 C 172.113 592.932 160.504 616.656 152.8 641.75 C 152 643.35 152 644.95 152 645.75 C 88.8 581.8 49.6 495.5 49.6 399.6 C 49.6 207 207.2 49.55 400 49.55 C 592.8 49.55 750.4 207 750.4 399.6 C 750.295 491.598 713.766 579.811 648.8 644.95 L 648.8 644.95 Z " fill="rgb(0,189,0)" mask="url(#_mask_WaKqtkJwDquXXCZNEA2NPirXzQE4IEN8)" vector-effect="non-scaling-stroke" stroke-width="20" stroke="rgb(0,0,0)" stroke-linejoin="miter" stroke-linecap="square" stroke-miterlimit="3"/></g></svg>