<?xml version="1.0" encoding="UTF-8"?>
<!-- Uploaded to: SVG Repo, www.svgrepo.com, Generator: SVG Repo Mixer Tools -->
<svg width="800px" height="800px" viewBox="-3 0 37 37" version="1.1" xmlns="http://www.w3.org/2000/svg" xmlns:xlink="http://www.w3.org/1999/xlink">
    
    <title>cards</title>
    <desc>Created with Sketch.</desc>
    <defs>
        <linearGradient x1="50%" y1="0%" x2="50%" y2="100%" id="linearGradient-1">
            <stop stop-color="#E7E9EF" offset="0%">
</stop>
            <stop stop-color="#EEEFF6" offset="100%">
</stop>
        </linearGradient>
        <path d="M18.6153846,0 C20.4846561,0 22,1.51534392 22,3.38461538 L22,25.3846154 C22,27.2538868 20.4846561,28.7692308 18.6153846,28.7692308 L3.38461538,28.7692308 C1.51534392,28.7692308 0,27.2538868 0,25.3846154 L0,3.38461538 C0,1.51534392 1.51534392,0 3.38461538,0 L18.6153846,0 Z" id="path-2">
</path>
        <linearGradient x1="100%" y1="50%" x2="0%" y2="50%" id="linearGradient-4">
            <stop stop-color="#C3C4D4" offset="0%">
</stop>
            <stop stop-color="#AEAFC8" offset="100%">
</stop>
        </linearGradient>
        <linearGradient x1="50%" y1="0%" x2="50%" y2="100%" id="linearGradient-5">
            <stop stop-color="#F8F8FB" offset="0%">
</stop>
            <stop stop-color="#EEEFF6" offset="100%">
</stop>
        </linearGradient>
        <linearGradient x1="50%" y1="0%" x2="50%" y2="100%" id="linearGradient-6">
            <stop stop-color="#E83E3E" offset="0%">
</stop>
            <stop stop-color="#CD1D1D" offset="100%">
</stop>
        </linearGradient>
        <linearGradient x1="50%" y1="0%" x2="50%" y2="100%" id="linearGradient-7">
            <stop stop-color="#E83E3E" offset="0%">
</stop>
            <stop stop-color="#CD1D1D" offset="100%">
</stop>
        </linearGradient>
    </defs>
    <g id="icons" stroke="none" stroke-width="1" fill="none" fill-rule="evenodd">
        <g id="ui-gambling-website-lined-icnos-casinoshunter" transform="translate(-2424.000000, -2034.000000)">
            <g id="4" transform="translate(50.000000, 1871.000000)">
                <g id="cards" transform="translate(2374.000000, 163.000000)">
                    <g id="card-copy-3" transform="translate(9.000000, 0.000000)">
                        <g id="Combined-Shape">
                            <mask id="mask-3" fill="white">
                                <use xlink:href="#path-2">
</use>
                            </mask>
                            <use id="Mask" fill="url(#linearGradient-1)" fill-rule="nonzero" xlink:href="#path-2">
</use>
                            <path d="M16.4647756,-4.61852778e-14 L16.5712536,0.0069872665 L16.6666692,0.0240450888 L16.795385,0.0642426828 L16.8584129,0.0921429451 L16.9539947,0.146216607 L17.0075927,0.183367223 L17.1056263,0.268710666 L17.1695742,0.339538529 L17.1946415,0.371798158 L19.0039862,3.11637793 L20.3130735,1.31045824 C20.5901073,0.928033757 21.1014109,0.822304785 21.5003235,1.04726039 L21.5975095,1.11041979 C21.9752829,1.39086442 22.079726,1.90846316 21.8575063,2.31228711 L21.7951151,2.41066971 L20.0892294,4.76475002 L21.858229,7.44924428 C22.050602,7.42470615 22.2507854,7.4613981 22.4278549,7.56379226 L22.5243645,7.62800584 C22.8679063,7.88883441 22.9796715,8.34642694 22.8214537,8.7300473 L22.7691909,8.83789131 C23.0095916,9.25918067 22.8882838,9.80273198 22.4827377,10.0764247 C22.2624974,10.2250593 22.0019264,10.2647494 21.7630652,10.2080559 L20.1011754,12.448471 L21.8105446,14.8984708 C22.0172388,14.8609325 22.2361002,14.8947665 22.4278549,15.0056527 L22.5243645,15.0698663 C22.8679063,15.3306949 22.9796715,15.7882874 22.8214537,16.1719078 L22.7692946,16.27988 C23.0043304,16.6917564 22.894304,17.2245956 22.5029383,17.504255 C22.2794042,17.6639865 22.0097259,17.7085127 21.7627694,17.6498534 L20.4007429,19.4866105 L22.7501074,22.7590134 L22.793934,22.8375963 L22.8332178,22.9280642 L22.86099,23.0156781 L22.8827751,23.1237972 L22.8891792,23.1835454 L22.8920298,23.2589171 L22.8850057,23.3699385 L22.8681663,23.4661701 L22.858015,23.5071444 L22.8234992,23.6087191 L22.7872547,23.6875397 L22.7320452,23.7806992 L20.5872835,26.6763779 L21.786189,28.2750882 C22.0693235,28.6529061 22.0236899,29.1791694 21.6969816,29.5021184 L21.6094764,29.5784163 C21.2362536,29.8650368 20.7163908,29.8188413 20.3973696,29.4881107 L20.3219996,29.3995281 L19.4413916,28.2242849 L17.1946348,31.2559128 C16.9135552,31.6352998 16.4011581,31.7354574 16.0046579,31.5061729 L15.9081483,31.4419593 C15.5345112,31.1582813 15.4350382,30.641855 15.6588819,30.2409837 L14.0114997,28.1107965 L12.783,29.766 L12.783,26.667 L12.8380402,26.5935872 L12.783,26.522 L12.783,23.503 L13.9802564,25.0512616 L15.5130132,22.9824244 L13.8957159,20.8242849 L12.783,22.326 L12.783,16.262 L13.8874456,17.7349826 L15.4009051,15.6921919 L13.7937159,13.4549826 L12.783,14.848 L12.783824,12.3721919 C12.783824,10.4838837 11.4753607,8.90118345 9.71564581,8.481303 L9.97193212,8.13684305 L8.48604022,6.06893607 L6.879,8.372 L4.565,8.372 L3.00560779,6.29219188 L1.635,8.372 L-1.00000006,8.37252667 C-0.99991174,8.09635708 -0.878874237,7.82303048 -0.647378179,7.63962909 C-0.446627183,7.4805853 -0.200994459,7.4194188 0.0334206729,7.44920399 L1.82939157,4.72288956 L0.10578338,2.42278396 C-0.177351178,2.04496605 -0.131717555,1.51870276 0.194990703,1.19575378 L0.282495889,1.11945582 C0.655718715,0.832835334 1.17558151,0.879030794 1.49460273,1.20976145 L1.56997274,1.29834399 L2.90820239,3.08475002 L4.6678859,0.414331235 C4.89447413,0.0702642887 5.30830241,-0.0716992373 5.681352,0.0346058699 C6.00470335,-0.0574286472 6.36097736,0.0364472393 6.59847003,0.291979339 L6.67302685,0.383110703 L8.46490509,2.8754477 L10.2165936,0.364115809 L10.2675809,0.302732599 L10.3333272,0.236743184 C10.3851557,0.189743487 10.4414637,0.149493896 10.5009676,0.116218416 L10.6243751,0.05868907 L10.7521938,0.0210151791 L10.7975598,0.0121312945 L10.8499857,0.00517661095 C10.8752195,0.00213490974 10.9075901,-4.61852778e-14 10.9399126,-4.61852778e-14 L11.04932,0.0059893948 L11.0916887,0.0116260643 L11.1571571,0.0249836541 L11.2189946,0.0418386772 L11.299986,0.0716795882 C11.3620493,0.0978477514 11.4217688,0.131153497 11.4777208,0.171338508 L11.565952,0.243573642 L11.6311389,0.31012945 L11.6753788,0.364115809 L13.6411754,3.18335467 L15.7531114,0.334983397 L15.8126846,0.269377925 L15.8758921,0.211514546 L15.962361,0.147984113 L16.0578734,0.0935290533 L16.1612229,0.0502270137 L16.2284278,0.0297530853 L16.3298188,0.00922098553 L16.4647756,-4.61852778e-14 Z M16.6680943,24.5238198 L15.1537159,26.5694012 L16.795824,28.6931221 L18.2853916,26.6819593 L16.6680943,24.5238198 Z M19.2465808,21.0438198 L17.8149051,22.976843 L19.4322024,25.1349826 L20.830797,23.2475407 L19.2465808,21.0438198 Z M16.5320943,17.2661454 L15.0425267,19.2773082 L16.659824,21.4354477 L18.1153916,19.4698663 L16.5320943,17.2661454 Z M18.9433375,14.0121919 L17.6862564,15.7089361 L19.2695537,17.912657 L20.5027429,16.248471 L18.9433375,14.0121919 Z M16.2196618,10.1061454 L14.9350132,11.8800989 L16.5550673,14.1349826 L17.8296078,12.4149826 L16.2196618,10.1061454 Z M18.9323105,6.36195932 L17.3655537,8.52475002 L18.9874456,10.8512616 L20.5229591,8.77870351 L18.9323105,6.36195932 Z M13.5970673,6.34428491 L12.2572835,8.15358723 L13.8001483,10.300564 L15.1022564,8.50242444 L13.5970673,6.34428491 Z M16.4153916,2.54056398 L14.7549051,4.78149421 L16.2472294,6.92102909 L17.8461483,4.71451746 L16.4153916,2.54056398 Z M5.70263482,2.19637793 L4.0844186,4.65405235 L5.71090509,6.82428491 L7.34474293,4.48102909 L5.70263482,2.19637793 Z M10.9459862,2.54242444 L9.60528347,4.46335467 L11.1260943,6.57870351 L12.4833375,4.7470756 L10.9459862,2.54242444 Z" fill="url(#linearGradient-4)" fill-rule="nonzero" mask="url(#mask-3)">
</path>
                        </g>
                    </g>
                    <g id="card" transform="translate(0.000000, 8.000000)" fill-rule="nonzero">
                        <path d="M18.6153846,0 C20.4846561,0 22,1.51534392 22,3.38461538 L22,25.3846154 C22,27.2538868 20.4846561,28.7692308 18.6153846,28.7692308 L3.38461538,28.7692308 C1.51534392,28.7692308 0,27.2538868 0,25.3846154 L0,3.38461538 C0,1.51534392 1.51534392,0 3.38461538,0 L18.6153846,0 Z" id="Path" fill="url(#linearGradient-5)">
</path>
                        <path d="M5.92307692,3.38461538 C6.39039479,3.38461538 6.76923077,3.76345137 6.76923077,4.23076923 C6.76923077,4.6980871 6.39039479,5.07692308 5.92307692,5.07692308 L4.23076923,5.07692308 C3.76345137,5.07692308 3.38461538,4.6980871 3.38461538,4.23076923 C3.38461538,3.76345137 3.76345137,3.38461538 4.23076923,3.38461538 L5.92307692,3.38461538 Z" id="Path" fill="url(#linearGradient-6)">
</path>
                        <path d="M17.7692308,23.6923077 C18.2365486,23.6923077 18.6153846,24.0711437 18.6153846,24.5384615 C18.6153846,25.0057794 18.2365486,25.3846154 17.7692308,25.3846154 L16.0769231,25.3846154 C15.6096052,25.3846154 15.2307692,25.0057794 15.2307692,24.5384615 C15.2307692,24.0711437 15.6096052,23.6923077 16.0769231,23.6923077 L17.7692308,23.6923077 Z" id="Path" fill="url(#linearGradient-6)">
</path>
                        <path d="M12.8475317,10.1538462 C13.5920988,10.1538462 14.3055477,10.4492662 14.8317718,10.9754963 C15.3580292,11.5017597 15.6538462,12.2156638 15.6538462,12.9597523 C15.6538462,13.6998506 15.3614834,14.4097471 14.8476054,14.9274945 L11.6152465,18.3502105 C11.4555763,18.5194803 11.2327288,18.6153846 11,18.6153846 C10.7672712,18.6153846 10.5444237,18.5194803 10.3849414,18.3504095 L7.15907104,14.9348452 C6.63837018,14.4095213 6.34615385,13.6996512 6.34615385,12.9597523 C6.34615385,12.2154656 6.64167535,11.5016197 7.16779264,10.9754963 C7.69391085,10.4493721 8.40775121,10.1538462 9.15203275,10.1538462 C9.83387711,10.1538462 10.4901734,10.401869 10.9999956,10.8479947 L11.1425677,10.7312632 C11.629283,10.3587872 12.2277359,10.1538462 12.8475317,10.1538462 Z M12.8475317,11.8458151 C12.594628,11.8458151 12.3502239,11.9321216 12.1540585,12.088279 L12.0601797,12.1721024 L11.5979792,12.6347433 C11.2927176,12.9392051 10.8130124,12.9626252 10.481288,12.7046939 L10.4016264,12.6343495 L9.93929971,12.1720173 C9.73084091,11.9632407 9.44746925,11.8458151 9.15203275,11.8458151 C8.85671897,11.8458151 8.57361751,11.9631633 8.36453976,12.1722435 C8.15569035,12.3810953 8.03854865,12.6641075 8.03854865,12.9597523 C8.03854865,13.2131621 8.12461194,13.4572909 8.28548884,13.6582831 L8.37210968,13.7550278 L10.9999895,16.5369853 L13.6267496,13.7559719 L13.7190786,13.653473 C13.8752543,13.4571015 13.9614514,13.2128434 13.9614514,12.9597523 C13.9614514,12.6644794 13.8441276,12.3812291 13.6354602,12.1722435 C13.4264775,11.9632583 13.1429798,11.8458151 12.8475317,11.8458151 Z M7.19853692,13.1149854 L7.19230769,12.9597523 L7.19556081,13.0726369 L7.19853692,13.1149854 Z M12.5551768,11.0216139 L12.4634363,11.0379811 L12.2411646,11.0959304 C12.3433013,11.0626694 12.4483149,11.0377552 12.5551768,11.0216139 Z M7.88033664,11.4684921 L7.76611718,11.573814 C7.80298611,11.5371545 7.84106295,11.5019948 7.88033664,11.4684921 Z" id="Shape" fill="url(#linearGradient-7)">
</path>
                    </g>
                </g>
            </g>
        </g>
    </g>
</svg>