<?xml version="1.0" encoding="UTF-8" standalone="no"?><!-- Generator: Gravit.io --><svg xmlns="http://www.w3.org/2000/svg" xmlns:xlink="http://www.w3.org/1999/xlink" style="isolation:isolate" viewBox="-136.351 -361.855 50 50" width="50pt" height="50pt"><defs><clipPath id="_clipPath_Uhob4wqy13i8CGgI1gBuZuMKT9geG6aE"><rect x="-136.351" y="-361.855" width="50" height="50"/></clipPath></defs><g clip-path="url(#_clipPath_Uhob4wqy13i8CGgI1gBuZuMKT9geG6aE)"><path d=" M -86.525 -345.899 C -86.576 -346.799 -87.25 -347.553 -88.209 -347.553 C -88.305 -347.553 -88.397 -347.512 -88.491 -347.495 C -88.501 -347.495 -88.509 -347.501 -88.519 -347.501 C -88.711 -347.505 -88.902 -347.505 -89.094 -347.505 C -89.817 -347.505 -90.542 -347.486 -91.264 -347.474 C -92.239 -347.459 -93.213 -347.441 -94.186 -347.386 C -94.176 -347.862 -94.17 -348.341 -94.159 -348.818 C -94.119 -350.297 -94.135 -351.774 -94.139 -353.253 C -94.147 -354.853 -94.139 -356.457 -93.965 -358.049 C -93.926 -358.403 -93.886 -358.756 -93.849 -359.112 C -93.802 -359.528 -94.059 -360.006 -94.347 -360.289 C -94.397 -360.339 -94.466 -360.362 -94.523 -360.405 C -94.744 -360.983 -95.259 -361.456 -95.933 -361.412 C -96.577 -361.366 -97.237 -361.408 -97.883 -361.435 C -98.422 -361.458 -98.962 -361.462 -99.497 -361.474 C -100.09 -361.485 -100.68 -361.478 -101.273 -361.485 C -101.731 -361.489 -102.192 -361.524 -102.65 -361.547 C -103.919 -361.616 -105.188 -361.628 -106.455 -361.653 C -107.879 -361.683 -109.298 -361.828 -110.722 -361.851 C -110.892 -361.853 -111.059 -361.855 -111.227 -361.855 C -112.375 -361.855 -113.519 -361.793 -114.666 -361.77 C -115.966 -361.747 -117.265 -361.712 -118.565 -361.708 C -119.862 -361.708 -121.156 -361.708 -122.452 -361.743 C -123.573 -361.77 -124.697 -361.683 -125.815 -361.595 C -126.069 -361.576 -126.295 -361.51 -126.506 -361.414 C -127.27 -361.33 -127.877 -360.701 -127.885 -359.933 C -127.889 -359.137 -127.881 -358.345 -127.904 -357.549 C -127.918 -357.13 -127.957 -356.71 -127.969 -356.293 C -128 -355.295 -128 -354.303 -127.961 -353.303 C -127.881 -351.147 -127.799 -348.989 -127.724 -346.834 C -128.282 -346.868 -128.84 -346.874 -129.399 -346.864 C -129.7 -346.857 -130.004 -346.849 -130.303 -346.853 C -130.873 -346.853 -131.443 -346.922 -132.015 -346.97 C -132.814 -347.036 -133.609 -347.07 -134.408 -347.082 C -134.418 -347.082 -134.426 -347.082 -134.435 -347.082 C -135.32 -347.082 -136.053 -346.33 -136.053 -345.466 C -136.053 -345.305 -136.004 -345.159 -135.957 -345.012 C -135.98 -344.905 -136.024 -344.803 -136.025 -344.689 C -136.119 -341.188 -136.022 -337.684 -136.104 -334.182 C -136.119 -333.395 -136.178 -332.616 -136.194 -331.83 C -136.213 -330.992 -136.217 -330.149 -136.225 -329.309 C -136.241 -327.609 -136.206 -325.909 -136.182 -324.211 C -136.159 -322.384 -136.139 -320.557 -136.135 -318.73 C -136.135 -317.869 -136.139 -317.011 -136.198 -316.149 C -136.245 -315.43 -136.302 -314.707 -136.349 -313.986 C -136.386 -313.39 -136.027 -312.88 -135.548 -312.574 C -135.262 -312.226 -134.845 -311.986 -134.363 -311.992 C -133.029 -312.007 -131.694 -312.086 -130.36 -312.082 C -129.669 -312.082 -128.976 -312.024 -128.284 -312.021 C -127.609 -312.017 -126.939 -312.067 -126.267 -312.109 C -124.89 -312.19 -123.51 -312.201 -122.127 -312.201 C -120.715 -312.201 -119.311 -312.205 -117.903 -312.132 C -117.188 -312.094 -116.472 -312.051 -115.759 -312.024 C -115.087 -311.998 -114.413 -312.005 -113.738 -312.001 C -112.279 -311.986 -110.816 -311.986 -109.355 -311.99 C -107.912 -311.994 -106.469 -311.959 -105.025 -311.951 C -104.35 -311.948 -103.68 -311.948 -103.004 -311.951 C -102.233 -311.951 -101.461 -311.955 -100.688 -311.951 C -98.588 -311.932 -96.491 -311.89 -94.392 -311.886 C -93.51 -311.882 -92.635 -311.836 -91.754 -311.863 C -90.845 -311.894 -89.946 -311.988 -89.034 -311.992 C -88.712 -311.994 -88.429 -312.117 -88.18 -312.29 C -87.96 -312.317 -87.745 -312.388 -87.553 -312.499 C -87.301 -312.644 -87.103 -312.838 -86.956 -313.086 C -86.805 -313.342 -86.727 -313.615 -86.727 -313.913 C -86.556 -315.307 -86.664 -316.736 -86.664 -318.142 C -86.664 -319.715 -86.672 -321.284 -86.613 -322.857 C -86.498 -325.995 -86.502 -329.13 -86.486 -332.274 C -86.482 -333.353 -86.486 -334.434 -86.47 -335.516 C -86.455 -336.628 -86.392 -337.745 -86.368 -338.857 C -86.315 -341.203 -86.39 -343.557 -86.525 -345.899 Z  M -94.149 -344.239 C -93.475 -344.301 -92.799 -344.345 -92.122 -344.372 C -92.807 -343.853 -93.487 -343.326 -94.162 -342.793 C -94.155 -343.264 -94.155 -343.736 -94.149 -344.207 C -94.149 -344.216 -94.149 -344.228 -94.149 -344.239 Z  M -94.934 -338.48 C -93.951 -339.266 -92.968 -340.055 -91.969 -340.822 C -91.225 -341.372 -90.451 -341.87 -89.69 -342.389 C -89.656 -341.668 -89.623 -340.949 -89.611 -340.226 C -89.584 -338.634 -89.717 -337.049 -89.754 -335.457 C -89.797 -333.811 -89.778 -332.161 -89.774 -330.517 C -89.77 -328.974 -89.79 -327.432 -89.809 -325.892 C -89.837 -323.857 -89.899 -321.826 -89.911 -319.797 C -89.919 -318.872 -89.923 -317.942 -89.931 -317.017 C -89.931 -316.988 -89.931 -316.959 -89.931 -316.93 C -91.787 -319.322 -93.593 -321.753 -95.408 -324.176 C -96.413 -325.517 -97.425 -326.851 -98.371 -328.234 C -99.403 -329.732 -100.419 -331.232 -101.373 -332.778 C -101.444 -332.893 -101.532 -332.991 -101.624 -333.084 C -101.565 -333.13 -101.508 -333.182 -101.449 -333.228 C -100.22 -334.188 -99.029 -335.197 -97.823 -336.184 C -96.871 -336.964 -95.898 -337.714 -94.934 -338.48 Z  M -122.257 -358.71 C -121.244 -358.656 -120.228 -358.656 -119.211 -358.66 C -118.769 -358.66 -118.33 -358.66 -117.889 -358.66 C -116.501 -358.649 -115.105 -358.633 -113.716 -358.676 C -112.308 -358.718 -110.896 -358.812 -109.484 -358.776 C -108.864 -358.756 -108.243 -358.703 -107.622 -358.687 C -106.905 -358.668 -106.19 -358.649 -105.474 -358.641 C -104.406 -358.626 -103.347 -358.551 -102.286 -358.489 C -101.285 -358.435 -100.284 -358.416 -99.28 -358.412 C -98.786 -358.408 -98.298 -358.37 -97.805 -358.374 C -97.631 -358.376 -97.456 -358.382 -97.282 -358.385 C -97.374 -356.983 -97.39 -355.58 -97.433 -354.172 C -97.48 -352.653 -97.437 -351.128 -97.46 -349.609 C -97.472 -348.835 -97.492 -348.066 -97.488 -347.293 C -97.488 -346.543 -97.456 -345.797 -97.421 -345.045 C -97.362 -343.709 -97.374 -342.374 -97.374 -341.034 C -97.374 -340.836 -97.37 -340.641 -97.362 -340.443 C -97.36 -340.401 -97.341 -340.366 -97.337 -340.324 C -98.396 -339.509 -99.452 -338.688 -100.494 -337.847 C -101.727 -336.849 -102.938 -335.82 -104.199 -334.857 C -104.179 -334.87 -104.16 -334.886 -104.142 -334.899 C -105.515 -333.845 -106.831 -332.72 -108.196 -331.657 C -108.864 -331.14 -109.525 -330.609 -110.193 -330.092 C -110.565 -329.801 -110.928 -329.499 -111.29 -329.199 C -112.179 -329.818 -113.064 -330.44 -113.934 -331.091 C -113.877 -331.049 -113.82 -331.005 -113.765 -330.961 C -113.83 -331.011 -113.895 -331.061 -113.961 -331.111 C -114.004 -331.143 -114.047 -331.176 -114.092 -331.209 C -114.055 -331.182 -114.02 -331.155 -113.983 -331.128 C -116.178 -332.807 -118.358 -334.511 -120.543 -336.199 C -121.857 -337.213 -123.165 -338.234 -124.471 -339.259 C -124.471 -339.555 -124.458 -339.849 -124.444 -340.138 C -124.42 -340.678 -124.401 -341.216 -124.373 -341.757 C -124.307 -343.066 -124.33 -344.378 -124.358 -345.687 C -124.377 -347.039 -124.393 -348.395 -124.473 -349.739 C -124.544 -350.855 -124.552 -351.98 -124.616 -353.099 C -124.636 -353.482 -124.687 -353.862 -124.718 -354.247 C -124.769 -354.86 -124.765 -355.482 -124.793 -356.099 C -124.806 -356.535 -124.842 -356.974 -124.853 -357.412 C -124.869 -357.801 -124.861 -358.191 -124.851 -358.58 C -123.988 -358.672 -123.122 -358.758 -122.257 -358.71 Z  M -121.211 -332.147 C -121.452 -331.843 -121.693 -331.536 -121.933 -331.23 C -121.906 -331.265 -121.881 -331.297 -121.853 -331.332 C -122.713 -330.243 -123.631 -329.201 -124.528 -328.143 C -125.439 -327.063 -126.367 -325.992 -127.282 -324.909 C -128.171 -323.861 -129.054 -322.805 -129.912 -321.728 C -130.838 -320.565 -131.786 -319.417 -132.704 -318.247 C -132.681 -318.278 -132.657 -318.307 -132.634 -318.338 C -132.696 -318.257 -132.759 -318.178 -132.82 -318.099 C -132.798 -319.624 -132.8 -321.153 -132.796 -322.682 C -132.796 -324.338 -132.855 -325.99 -132.859 -327.642 C -132.867 -329.33 -132.886 -331.017 -132.839 -332.705 C -132.788 -334.58 -132.781 -336.449 -132.765 -338.32 C -132.755 -339.493 -132.71 -340.664 -132.677 -341.836 C -132.101 -341.384 -131.527 -340.928 -130.959 -340.466 C -130.125 -339.789 -129.254 -339.157 -128.396 -338.511 C -127.168 -337.557 -125.981 -336.559 -124.757 -335.605 C -123.492 -334.618 -122.233 -333.628 -120.968 -332.638 C -120.939 -332.615 -120.909 -332.591 -120.878 -332.568 C -120.995 -332.428 -121.103 -332.288 -121.211 -332.147 Z  M -128.789 -343.684 C -128.417 -343.684 -128.041 -343.699 -127.665 -343.687 C -127.663 -343.051 -127.663 -342.412 -127.673 -341.776 C -128.476 -342.403 -129.269 -343.041 -130.047 -343.699 C -129.628 -343.687 -129.207 -343.684 -128.789 -343.684 Z  M -97.018 -314.74 C -98.461 -314.74 -99.904 -314.767 -101.351 -314.763 C -102.791 -314.755 -104.234 -314.763 -105.673 -314.774 C -107.156 -314.79 -108.632 -314.855 -110.111 -314.855 C -111.546 -314.851 -112.978 -314.84 -114.41 -314.855 C -115.818 -314.871 -117.226 -314.917 -118.634 -314.996 C -119.638 -315.055 -120.649 -315.069 -121.657 -315.069 C -122.02 -315.069 -122.384 -315.067 -122.746 -315.065 C -123.083 -315.061 -123.422 -315.065 -123.759 -315.065 C -124.403 -315.069 -125.047 -315.072 -125.691 -315.046 C -126.661 -315.003 -127.626 -314.942 -128.598 -314.972 C -129.064 -314.984 -129.532 -315.011 -129.998 -315.026 C -130.442 -315.04 -130.887 -315.019 -131.329 -315.007 C -131.165 -315.213 -130.998 -315.417 -130.836 -315.624 C -130.113 -316.547 -129.402 -317.478 -128.686 -318.407 C -128.701 -318.386 -128.719 -318.365 -128.735 -318.344 C -128.66 -318.442 -128.584 -318.54 -128.507 -318.638 C -128.523 -318.617 -128.541 -318.596 -128.558 -318.574 C -128.6 -318.522 -128.639 -318.469 -128.68 -318.417 C -128.719 -318.367 -128.758 -318.319 -128.797 -318.271 C -128.697 -318.397 -128.6 -318.524 -128.5 -318.651 C -128.517 -318.626 -128.537 -318.603 -128.556 -318.578 C -128.527 -318.615 -128.498 -318.651 -128.47 -318.688 C -128.429 -318.74 -128.388 -318.794 -128.347 -318.846 C -128.359 -318.83 -128.37 -318.815 -128.382 -318.799 C -126.868 -320.703 -125.292 -322.551 -123.719 -324.407 C -121.957 -326.486 -120.085 -328.474 -118.387 -330.603 C -118.001 -330.299 -117.611 -330.001 -117.23 -329.695 C -116.004 -328.713 -114.766 -327.749 -113.485 -326.834 C -113.327 -326.72 -113.166 -326.605 -113.005 -326.492 C -112.821 -326.061 -112.475 -325.701 -111.993 -325.582 C -111.507 -325.465 -111.092 -325.547 -110.663 -325.772 C -110.469 -325.874 -110.299 -326.04 -110.129 -326.172 C -109.923 -326.332 -109.717 -326.492 -109.52 -326.661 C -108.993 -327.099 -108.488 -327.561 -107.953 -327.99 C -107.422 -328.417 -106.901 -328.859 -106.363 -329.276 C -105.805 -329.715 -105.239 -330.138 -104.683 -330.578 C -104.508 -330.718 -104.336 -330.863 -104.164 -331.005 C -103.641 -330.188 -103.098 -329.386 -102.526 -328.601 C -102.056 -327.953 -101.577 -327.315 -101.107 -326.667 C -100.126 -325.311 -99.133 -323.963 -98.14 -322.613 C -96.227 -320.019 -94.249 -317.474 -92.306 -314.907 C -92.273 -314.863 -92.239 -314.819 -92.206 -314.774 C -92.449 -314.771 -92.692 -314.763 -92.933 -314.759 C -94.29 -314.732 -95.651 -314.736 -97.018 -314.74 Z  M -113.975 -331.132 C -113.959 -331.12 -113.943 -331.109 -113.928 -331.095 C -113.936 -331.101 -113.945 -331.109 -113.953 -331.115 C -113.961 -331.12 -113.967 -331.126 -113.975 -331.132 Z  M -128.374 -318.797 C -128.417 -318.742 -128.46 -318.688 -128.504 -318.634 C -128.49 -318.651 -128.476 -318.669 -128.462 -318.686 C -128.433 -318.722 -128.404 -318.761 -128.374 -318.797 Z  M -128.58 -318.538 C -128.572 -318.549 -128.562 -318.559 -128.554 -318.571 C -128.553 -318.572 -128.553 -318.574 -128.551 -318.576 C -128.56 -318.563 -128.57 -318.551 -128.58 -318.538 Z  M -130.934 -315.492 C -130.901 -315.536 -130.867 -315.58 -130.832 -315.622 C -130.814 -315.646 -130.797 -315.667 -130.779 -315.69 C -130.832 -315.624 -130.883 -315.557 -130.934 -315.492 Z  M -118.645 -349.276 C -118.937 -349.56 -119.104 -349.957 -119.104 -350.364 C -119.104 -350.768 -118.937 -351.164 -118.645 -351.451 C -118.399 -351.693 -117.997 -351.909 -117.631 -351.909 C -117.6 -351.909 -117.568 -351.907 -117.537 -351.903 C -116.816 -351.826 -116.09 -351.755 -115.365 -351.693 C -114.981 -351.659 -114.601 -351.62 -114.218 -351.674 C -114.349 -351.655 -114.482 -351.639 -114.617 -351.62 C -113.791 -351.73 -112.956 -351.709 -112.126 -351.701 C -111.423 -351.693 -110.722 -351.701 -110.019 -351.709 C -109.046 -351.716 -108.072 -351.693 -107.101 -351.689 C -106.388 -351.689 -105.677 -351.712 -104.968 -351.739 C -104.119 -351.774 -103.41 -351.016 -103.41 -350.209 C -103.41 -349.389 -104.119 -348.655 -104.968 -348.678 C -105.969 -348.701 -106.97 -348.787 -107.971 -348.787 C -109.091 -348.787 -110.217 -348.787 -111.337 -348.807 C -112.222 -348.822 -113.117 -348.768 -114.002 -348.726 C -115.177 -348.668 -116.364 -348.722 -117.537 -348.82 C -117.966 -348.862 -118.33 -348.968 -118.645 -349.276 Z  M -119.321 -344.537 C -119.321 -345.38 -118.596 -346.111 -117.727 -346.099 C -117.564 -346.099 -117.402 -346.095 -117.237 -346.091 C -116.538 -346.076 -115.841 -346.045 -115.138 -346.034 C -114.433 -346.026 -113.722 -346.084 -113.019 -346.118 C -112.363 -346.153 -111.711 -346.153 -111.061 -346.168 C -110.507 -346.176 -109.95 -346.218 -109.392 -346.222 C -108.969 -346.226 -108.542 -346.237 -108.119 -346.241 C -107.886 -346.241 -107.653 -346.23 -107.42 -346.222 C -107.172 -346.211 -106.921 -346.203 -106.668 -346.207 C -106.486 -346.207 -106.3 -346.207 -106.118 -346.207 C -105.73 -346.207 -105.343 -346.207 -104.953 -346.239 C -104.822 -346.272 -104.688 -346.287 -104.557 -346.287 C -103.864 -346.287 -103.218 -345.843 -103.026 -345.155 C -102.801 -344.362 -103.29 -343.453 -104.124 -343.253 C -104.338 -343.203 -104.559 -343.184 -104.777 -343.17 C -105.468 -343.12 -106.153 -343.112 -106.848 -343.139 C -107.311 -343.155 -107.775 -343.147 -108.237 -343.143 C -108.719 -343.136 -109.202 -343.132 -109.68 -343.151 C -110.238 -343.174 -110.793 -343.147 -111.353 -343.132 C -112.032 -343.116 -112.706 -343.124 -113.385 -343.109 C -114.833 -343.07 -116.28 -342.989 -117.727 -342.972 C -118.596 -342.961 -119.321 -343.691 -119.321 -344.537 Z " fill="rgb(17,25,24)"/></g></svg>