<?xml version="1.0" encoding="UTF-8" standalone="no"?><!-- Generator: Gravit.io --><svg xmlns="http://www.w3.org/2000/svg" xmlns:xlink="http://www.w3.org/1999/xlink" style="isolation:isolate" viewBox="-87.85 -367.319 50 50" width="50pt" height="50pt"><defs><clipPath id="_clipPath_j3anEUDCsMKxauXRvEhrVjgxurQQCOQs"><rect x="-87.85" y="-367.319" width="50" height="50"/></clipPath></defs><g clip-path="url(#_clipPath_j3anEUDCsMKxauXRvEhrVjgxurQQCOQs)"><path d=" M -62.85 -367.319 C -76.657 -367.319 -87.85 -356.126 -87.85 -342.319 C -87.85 -328.512 -76.657 -317.319 -62.85 -317.319 C -49.043 -317.319 -37.85 -328.512 -37.85 -342.319 C -37.85 -356.126 -49.043 -367.319 -62.85 -367.319 Z  M -50.545 -337.335 C -48.524 -335.314 -48.524 -332.036 -50.545 -330.014 L -50.545 -330.014 C -52.566 -327.993 -55.844 -327.993 -57.866 -330.014 L -62.85 -334.998 L -67.834 -330.014 C -69.855 -327.993 -73.132 -327.993 -75.155 -330.014 L -75.155 -330.014 C -77.176 -332.035 -77.176 -335.313 -75.155 -337.335 L -70.171 -342.319 L -75.155 -347.302 C -77.176 -349.323 -77.176 -352.601 -75.155 -354.623 L -75.155 -354.623 C -73.134 -356.645 -69.856 -356.645 -67.834 -354.623 L -62.85 -349.64 L -57.866 -354.623 C -55.845 -356.645 -52.568 -356.645 -50.545 -354.623 L -50.545 -354.623 C -48.524 -352.602 -48.524 -349.325 -50.545 -347.302 L -55.53 -342.319 L -50.545 -337.335 Z " fill="rgb(179,3,3)"/></g></svg>