<?xml version="1.0" encoding="UTF-8" standalone="no"?><!-- Generator: Gravit.io --><svg xmlns="http://www.w3.org/2000/svg" xmlns:xlink="http://www.w3.org/1999/xlink" style="isolation:isolate" viewBox="479.369 261.858 634.462 581.142" width="634.462pt" height="581.142pt"><defs><clipPath id="_clipPath_CkyRfSmMKbyQyf4Cwsl40ox0k8gbNRE1"><rect x="479.369" y="261.858" width="634.462" height="581.142"/></clipPath></defs><g clip-path="url(#_clipPath_CkyRfSmMKbyQyf4Cwsl40ox0k8gbNRE1)"><g><linearGradient id="_lgradient_45" x1="0" y1="0" x2="1" y2="0" gradientTransform="matrix(-29.847,-69.405,22.256,-86.333,770.665,375.214)" gradientUnits="userSpaceOnUse"><stop offset="1.6666666666666667%" stop-opacity="1" style="stop-color:rgb(110,134,50)"/><stop offset="23.333333333333332%" stop-opacity="1" style="stop-color:rgb(160,206,176)"/><stop offset="40.416666666666664%" stop-opacity="1" style="stop-color:rgb(132,191,23)"/><stop offset="59.166666666666664%" stop-opacity="1" style="stop-color:rgb(180,225,0)"/><stop offset="68.75%" stop-opacity="1" style="stop-color:rgb(62,61,37)"/><stop offset="80.41666666666667%" stop-opacity="1" style="stop-color:rgb(104,111,60)"/><stop offset="87.5%" stop-opacity="1" style="stop-color:rgb(125,57,113)"/><stop offset="96.66666666666667%" stop-opacity="1" style="stop-color:rgb(153,145,60)"/></linearGradient><mask id="_mask_fnLrSR5hxZwaCxpCH5Cp9cXFB4GPdzf6"><path d=" M 741.229 315.65 L 754.793 312.774 C 761.334 311.387 764.488 316.15 764.855 326.307 C 765.222 336.48 762.456 342.484 755.916 343.871 L 742.351 346.748 L 741.229 315.65 Z  M 783.672 351.475 C 789.567 340.381 793.138 327.46 792.515 310.207 C 791.371 278.504 780.769 257.559 756.96 262.608 L 732.738 267.745 C 720.638 270.311 711.687 296.165 712.746 325.491 L 714.215 366.204 L 783.672 351.475 Z " fill-rule="evenodd" fill="white" stroke="none"/></mask><path d=" M 741.229 315.65 L 754.793 312.774 C 761.334 311.387 764.488 316.15 764.855 326.307 C 765.222 336.48 762.456 342.484 755.916 343.871 L 742.351 346.748 L 741.229 315.65 Z  M 783.672 351.475 C 789.567 340.381 793.138 327.46 792.515 310.207 C 791.371 278.504 780.769 257.559 756.96 262.608 L 732.738 267.745 C 720.638 270.311 711.687 296.165 712.746 325.491 L 714.215 366.204 L 783.672 351.475 Z " fill-rule="evenodd" fill="url(#_lgradient_45)"/><path d=" M 741.229 315.65 L 754.793 312.774 C 761.334 311.387 764.488 316.15 764.855 326.307 C 765.222 336.48 762.456 342.484 755.916 343.871 L 742.351 346.748 L 741.229 315.65 Z  M 783.672 351.475 C 789.567 340.381 793.138 327.46 792.515 310.207 C 791.371 278.504 780.769 257.559 756.96 262.608 L 732.738 267.745 C 720.638 270.311 711.687 296.165 712.746 325.491 L 714.215 366.204 L 783.672 351.475 Z " fill-rule="evenodd" fill="url(#_lgradient_45)" mask="url(#_mask_fnLrSR5hxZwaCxpCH5Cp9cXFB4GPdzf6)" vector-effect="non-scaling-stroke" stroke-width="2" stroke="rgb(0,0,0)" stroke-linejoin="miter" stroke-linecap="square" stroke-miterlimit="3"/><linearGradient id="_lgradient_46" x1="0" y1="0" x2="1" y2="0" gradientTransform="matrix(-33.231,-92.794,23.664,-112.61,777.151,492.299)" gradientUnits="userSpaceOnUse"><stop offset="1.6666666666666667%" stop-opacity="1" style="stop-color:rgb(110,134,50)"/><stop offset="23.333333333333332%" stop-opacity="1" style="stop-color:rgb(160,206,176)"/><stop offset="40.416666666666664%" stop-opacity="1" style="stop-color:rgb(132,191,23)"/><stop offset="59.166666666666664%" stop-opacity="1" style="stop-color:rgb(180,225,0)"/><stop offset="68.75%" stop-opacity="1" style="stop-color:rgb(62,61,37)"/><stop offset="80.41666666666667%" stop-opacity="1" style="stop-color:rgb(104,111,60)"/><stop offset="87.5%" stop-opacity="1" style="stop-color:rgb(125,57,113)"/><stop offset="96.66666666666667%" stop-opacity="1" style="stop-color:rgb(153,145,60)"/></linearGradient><mask id="_mask_SKxRtxSgiMrd1y6Rkei5Tmp6VCwU5Oq1"><path d=" M 762.734 422.571 L 745.222 426.285 L 744.035 393.388 L 761.547 389.674 C 767.961 388.314 771.377 393.319 771.765 404.082 C 772.154 414.844 769.148 421.211 762.734 422.571 Z  M 767.11 340.656 L 713.732 352.817 L 718.384 481.686 L 766.981 471.38 C 790.792 466.331 799.455 445.603 800.082 406.214 C 800.106 404.681 799.946 403.1 799.841 401.469 C 797.353 362.446 783.281 335.839 767.11 340.656 Z " fill-rule="evenodd" fill="white" stroke="none"/></mask><path d=" M 762.734 422.571 L 745.222 426.285 L 744.035 393.388 L 761.547 389.674 C 767.961 388.314 771.377 393.319 771.765 404.082 C 772.154 414.844 769.148 421.211 762.734 422.571 Z  M 767.11 340.656 L 713.732 352.817 L 718.384 481.686 L 766.981 471.38 C 790.792 466.331 799.455 445.603 800.082 406.214 C 800.106 404.681 799.946 403.1 799.841 401.469 C 797.353 362.446 783.281 335.839 767.11 340.656 Z " fill-rule="evenodd" fill="url(#_lgradient_46)"/><path d=" M 762.734 422.571 L 745.222 426.285 L 744.035 393.388 L 761.547 389.674 C 767.961 388.314 771.377 393.319 771.765 404.082 C 772.154 414.844 769.148 421.211 762.734 422.571 Z  M 767.11 340.656 L 713.732 352.817 L 718.384 481.686 L 766.981 471.38 C 790.792 466.331 799.455 445.603 800.082 406.214 C 800.106 404.681 799.946 403.1 799.841 401.469 C 797.353 362.446 783.281 335.839 767.11 340.656 Z " fill-rule="evenodd" fill="url(#_lgradient_46)" mask="url(#_mask_SKxRtxSgiMrd1y6Rkei5Tmp6VCwU5Oq1)" vector-effect="non-scaling-stroke" stroke-width="2" stroke="rgb(0,0,0)" stroke-linejoin="miter" stroke-linecap="square" stroke-miterlimit="3"/><linearGradient id="_lgradient_47" x1="0" y1="0" x2="1" y2="0" gradientTransform="matrix(-26.141,-58.799,24.258,-63.363,582.301,725.661)" gradientUnits="userSpaceOnUse"><stop offset="1.6666666666666667%" stop-opacity="1" style="stop-color:rgb(110,134,50)"/><stop offset="23.333333333333332%" stop-opacity="1" style="stop-color:rgb(160,206,176)"/><stop offset="40.416666666666664%" stop-opacity="1" style="stop-color:rgb(132,191,23)"/><stop offset="59.166666666666664%" stop-opacity="1" style="stop-color:rgb(180,225,0)"/><stop offset="68.75%" stop-opacity="1" style="stop-color:rgb(62,61,37)"/><stop offset="80.41666666666667%" stop-opacity="1" style="stop-color:rgb(104,111,60)"/><stop offset="87.5%" stop-opacity="1" style="stop-color:rgb(125,57,113)"/><stop offset="96.66666666666667%" stop-opacity="1" style="stop-color:rgb(153,145,60)"/></linearGradient><mask id="_mask_xd6OyzAhg6mlmOiFEgpecOfQ65h0Z6Kp"><path d=" M 555.883 677.62 L 569.499 677.62 C 576.065 677.62 579.036 683.032 579.036 693.227 C 579.036 703.439 576.065 708.837 569.499 708.837 L 555.883 708.837 L 555.883 677.62 Z  M 596.877 722.275 C 603.148 712.468 607.17 700.351 607.17 683.032 C 607.17 651.209 597.361 628.104 573.462 628.104 L 549.147 628.104 C 537.001 628.104 527.155 651.968 527.155 681.407 L 527.155 722.275 L 596.877 722.275 Z " fill-rule="evenodd" fill="white" stroke="none"/></mask><path d=" M 555.883 677.62 L 569.499 677.62 C 576.065 677.62 579.036 683.032 579.036 693.227 C 579.036 703.439 576.065 708.837 569.499 708.837 L 555.883 708.837 L 555.883 677.62 Z  M 596.877 722.275 C 603.148 712.468 607.17 700.351 607.17 683.032 C 607.17 651.209 597.361 628.104 573.462 628.104 L 549.147 628.104 C 537.001 628.104 527.155 651.968 527.155 681.407 L 527.155 722.275 L 596.877 722.275 Z " fill-rule="evenodd" fill="url(#_lgradient_47)"/><path d=" M 555.883 677.62 L 569.499 677.62 C 576.065 677.62 579.036 683.032 579.036 693.227 C 579.036 703.439 576.065 708.837 569.499 708.837 L 555.883 708.837 L 555.883 677.62 Z  M 596.877 722.275 C 603.148 712.468 607.17 700.351 607.17 683.032 C 607.17 651.209 597.361 628.104 573.462 628.104 L 549.147 628.104 C 537.001 628.104 527.155 651.968 527.155 681.407 L 527.155 722.275 L 596.877 722.275 Z " fill-rule="evenodd" fill="url(#_lgradient_47)" mask="url(#_mask_xd6OyzAhg6mlmOiFEgpecOfQ65h0Z6Kp)" vector-effect="non-scaling-stroke" stroke-width="2" stroke="rgb(0,0,0)" stroke-linejoin="miter" stroke-linecap="square" stroke-miterlimit="3"/><linearGradient id="_lgradient_48" x1="0" y1="0" x2="1" y2="0" gradientTransform="matrix(-27.486,-81.323,25.506,-87.636,585.137,842.881)" gradientUnits="userSpaceOnUse"><stop offset="1.6666666666666667%" stop-opacity="1" style="stop-color:rgb(110,134,50)"/><stop offset="23.333333333333332%" stop-opacity="1" style="stop-color:rgb(160,206,176)"/><stop offset="40.416666666666664%" stop-opacity="1" style="stop-color:rgb(132,191,23)"/><stop offset="59.166666666666664%" stop-opacity="1" style="stop-color:rgb(180,225,0)"/><stop offset="68.75%" stop-opacity="1" style="stop-color:rgb(62,61,37)"/><stop offset="80.41666666666667%" stop-opacity="1" style="stop-color:rgb(104,111,60)"/><stop offset="87.5%" stop-opacity="1" style="stop-color:rgb(125,57,113)"/><stop offset="96.66666666666667%" stop-opacity="1" style="stop-color:rgb(153,145,60)"/></linearGradient><mask id="_mask_czHDX3bPzKL0SvpqPh4sMAN7Ysy8Zj4w"><path d=" M 573.462 788.678 L 555.883 788.678 L 555.883 755.655 L 573.462 755.655 C 579.9 755.655 583.123 761.362 583.123 772.166 C 583.123 782.97 579.9 788.678 573.462 788.678 Z  M 580.767 707.998 L 527.155 708.837 L 527.155 838.198 L 575.938 838.198 C 599.839 838.198 609.215 819.379 611.256 780.273 C 611.335 778.75 611.232 777.142 611.186 775.494 C 610.111 736.094 597.049 706.616 580.767 707.998 Z " fill-rule="evenodd" fill="white" stroke="none"/></mask><path d=" M 573.462 788.678 L 555.883 788.678 L 555.883 755.655 L 573.462 755.655 C 579.9 755.655 583.123 761.362 583.123 772.166 C 583.123 782.97 579.9 788.678 573.462 788.678 Z  M 580.767 707.998 L 527.155 708.837 L 527.155 838.198 L 575.938 838.198 C 599.839 838.198 609.215 819.379 611.256 780.273 C 611.335 778.75 611.232 777.142 611.186 775.494 C 610.111 736.094 597.049 706.616 580.767 707.998 Z " fill-rule="evenodd" fill="url(#_lgradient_48)"/><path d=" M 573.462 788.678 L 555.883 788.678 L 555.883 755.655 L 573.462 755.655 C 579.9 755.655 583.123 761.362 583.123 772.166 C 583.123 782.97 579.9 788.678 573.462 788.678 Z  M 580.767 707.998 L 527.155 708.837 L 527.155 838.198 L 575.938 838.198 C 599.839 838.198 609.215 819.379 611.256 780.273 C 611.335 778.75 611.232 777.142 611.186 775.494 C 610.111 736.094 597.049 706.616 580.767 707.998 Z " fill-rule="evenodd" fill="url(#_lgradient_48)" mask="url(#_mask_czHDX3bPzKL0SvpqPh4sMAN7Ysy8Zj4w)" vector-effect="non-scaling-stroke" stroke-width="2" stroke="rgb(0,0,0)" stroke-linejoin="miter" stroke-linecap="square" stroke-miterlimit="3"/><linearGradient id="_lgradient_49" x1="0" y1="0" x2="1" y2="0" gradientTransform="matrix(-18.392,-193.481,52.488,-164.802,1073.075,630.715)" gradientUnits="userSpaceOnUse"><stop offset="1.6666666666666667%" stop-opacity="1" style="stop-color:rgb(110,134,50)"/><stop offset="23.333333333333332%" stop-opacity="1" style="stop-color:rgb(160,206,176)"/><stop offset="40.416666666666664%" stop-opacity="1" style="stop-color:rgb(132,191,23)"/><stop offset="59.166666666666664%" stop-opacity="1" style="stop-color:rgb(180,225,0)"/><stop offset="68.75%" stop-opacity="1" style="stop-color:rgb(62,61,37)"/><stop offset="80.41666666666667%" stop-opacity="1" style="stop-color:rgb(104,111,60)"/><stop offset="87.5%" stop-opacity="1" style="stop-color:rgb(125,57,113)"/><stop offset="96.66666666666667%" stop-opacity="1" style="stop-color:rgb(153,145,60)"/></linearGradient><mask id="_mask_PKOVPKaihIGwXT6QwTUYNk1QerOJIlQg"><path d=" M 1075.089 418.134 L 1064.752 411.887 L 1059.839 459.646 L 1070.176 465.893 C 1077.983 470.612 1082.639 463.83 1084.167 448.982 C 1085.694 434.139 1082.896 422.852 1075.089 418.134 Z  M 1062.196 516.133 L 1054.507 511.486 L 1053.246 523.74 C 1051.031 545.276 1042.032 558.383 1033.145 553.012 L 1020.882 545.601 L 1036.662 392.191 C 1039.528 364.332 1051.167 347.379 1062.661 354.325 L 1082.342 366.219 C 1105.767 380.376 1117.609 419.09 1112.757 466.26 C 1109.731 495.681 1101.687 514.329 1090.308 520.746 L 1097.924 570.821 C 1099.443 580.803 1095.732 590.837 1091.471 588.261 L 1075.562 578.647 C 1072.849 577.007 1070.649 572.213 1069.69 565.845 L 1062.196 516.133 Z " fill-rule="evenodd" fill="white" stroke="none"/></mask><path d=" M 1075.089 418.134 L 1064.752 411.887 L 1059.839 459.646 L 1070.176 465.893 C 1077.983 470.612 1082.639 463.83 1084.167 448.982 C 1085.694 434.139 1082.896 422.852 1075.089 418.134 Z  M 1062.196 516.133 L 1054.507 511.486 L 1053.246 523.74 C 1051.031 545.276 1042.032 558.383 1033.145 553.012 L 1020.882 545.601 L 1036.662 392.191 C 1039.528 364.332 1051.167 347.379 1062.661 354.325 L 1082.342 366.219 C 1105.767 380.376 1117.609 419.09 1112.757 466.26 C 1109.731 495.681 1101.687 514.329 1090.308 520.746 L 1097.924 570.821 C 1099.443 580.803 1095.732 590.837 1091.471 588.261 L 1075.562 578.647 C 1072.849 577.007 1070.649 572.213 1069.69 565.845 L 1062.196 516.133 Z " fill-rule="evenodd" fill="url(#_lgradient_49)"/><path d=" M 1075.089 418.134 L 1064.752 411.887 L 1059.839 459.646 L 1070.176 465.893 C 1077.983 470.612 1082.639 463.83 1084.167 448.982 C 1085.694 434.139 1082.896 422.852 1075.089 418.134 Z  M 1062.196 516.133 L 1054.507 511.486 L 1053.246 523.74 C 1051.031 545.276 1042.032 558.383 1033.145 553.012 L 1020.882 545.601 L 1036.662 392.191 C 1039.528 364.332 1051.167 347.379 1062.661 354.325 L 1082.342 366.219 C 1105.767 380.376 1117.609 419.09 1112.757 466.26 C 1109.731 495.681 1101.687 514.329 1090.308 520.746 L 1097.924 570.821 C 1099.443 580.803 1095.732 590.837 1091.471 588.261 L 1075.562 578.647 C 1072.849 577.007 1070.649 572.213 1069.69 565.845 L 1062.196 516.133 Z " fill-rule="evenodd" fill="url(#_lgradient_49)" mask="url(#_mask_PKOVPKaihIGwXT6QwTUYNk1QerOJIlQg)" vector-effect="non-scaling-stroke" stroke-width="2" stroke="rgb(0,0,0)" stroke-linejoin="miter" stroke-linecap="square" stroke-miterlimit="3"/><linearGradient id="_lgradient_50" x1="0" y1="0" x2="1" y2="0" gradientTransform="matrix(-26.537,-131.178,24.626,-141.361,693.356,834.876)" gradientUnits="userSpaceOnUse"><stop offset="1.6666666666666667%" stop-opacity="1" style="stop-color:rgb(110,134,50)"/><stop offset="23.333333333333332%" stop-opacity="1" style="stop-color:rgb(160,206,176)"/><stop offset="40.416666666666664%" stop-opacity="1" style="stop-color:rgb(132,191,23)"/><stop offset="59.166666666666664%" stop-opacity="1" style="stop-color:rgb(180,225,0)"/><stop offset="68.75%" stop-opacity="1" style="stop-color:rgb(62,61,37)"/><stop offset="80.41666666666667%" stop-opacity="1" style="stop-color:rgb(104,111,60)"/><stop offset="87.5%" stop-opacity="1" style="stop-color:rgb(125,57,113)"/><stop offset="96.66666666666667%" stop-opacity="1" style="stop-color:rgb(153,145,60)"/></linearGradient><mask id="_mask_58cGNP9Xnv9ukkAI4DJt0GuasOdePpu3"><path d=" M 677.25 671.854 L 666.596 671.854 L 666.596 721.076 L 677.25 721.076 C 685.296 721.076 689.137 711.765 689.137 696.463 C 689.137 681.165 685.296 671.854 677.25 671.854 Z  M 674.521 774.502 L 666.596 774.502 L 666.596 787.132 C 666.596 809.327 659.172 827.322 650.013 827.322 L 637.375 827.322 L 637.375 669.215 C 637.375 640.503 646.977 617.228 658.823 617.228 L 679.106 617.228 C 703.248 617.228 718.603 647.848 718.603 696.463 C 718.603 726.784 712.659 749.595 702.258 762.494 L 714.646 806.615 C 717.116 815.41 714.517 827.322 710.125 827.322 L 693.729 827.322 C 690.933 827.322 688.32 823.96 686.754 818.344 L 674.521 774.502 Z " fill-rule="evenodd" fill="white" stroke="none"/></mask><path d=" M 677.25 671.854 L 666.596 671.854 L 666.596 721.076 L 677.25 721.076 C 685.296 721.076 689.137 711.765 689.137 696.463 C 689.137 681.165 685.296 671.854 677.25 671.854 Z  M 674.521 774.502 L 666.596 774.502 L 666.596 787.132 C 666.596 809.327 659.172 827.322 650.013 827.322 L 637.375 827.322 L 637.375 669.215 C 637.375 640.503 646.977 617.228 658.823 617.228 L 679.106 617.228 C 703.248 617.228 718.603 647.848 718.603 696.463 C 718.603 726.784 712.659 749.595 702.258 762.494 L 714.646 806.615 C 717.116 815.41 714.517 827.322 710.125 827.322 L 693.729 827.322 C 690.933 827.322 688.32 823.96 686.754 818.344 L 674.521 774.502 Z " fill-rule="evenodd" fill="url(#_lgradient_50)"/><path d=" M 677.25 671.854 L 666.596 671.854 L 666.596 721.076 L 677.25 721.076 C 685.296 721.076 689.137 711.765 689.137 696.463 C 689.137 681.165 685.296 671.854 677.25 671.854 Z  M 674.521 774.502 L 666.596 774.502 L 666.596 787.132 C 666.596 809.327 659.172 827.322 650.013 827.322 L 637.375 827.322 L 637.375 669.215 C 637.375 640.503 646.977 617.228 658.823 617.228 L 679.106 617.228 C 703.248 617.228 718.603 647.848 718.603 696.463 C 718.603 726.784 712.659 749.595 702.258 762.494 L 714.646 806.615 C 717.116 815.41 714.517 827.322 710.125 827.322 L 693.729 827.322 C 690.933 827.322 688.32 823.96 686.754 818.344 L 674.521 774.502 Z " fill-rule="evenodd" fill="url(#_lgradient_50)" mask="url(#_mask_58cGNP9Xnv9ukkAI4DJt0GuasOdePpu3)" vector-effect="non-scaling-stroke" stroke-width="2" stroke="rgb(0,0,0)" stroke-linejoin="miter" stroke-linecap="square" stroke-miterlimit="3"/><linearGradient id="_lgradient_51" x1="0" y1="0" x2="1" y2="0" gradientTransform="matrix(-9.547,-131.175,8.859,-141.358,763.522,845.752)" gradientUnits="userSpaceOnUse"><stop offset="1.6666666666666667%" stop-opacity="1" style="stop-color:rgb(110,134,50)"/><stop offset="23.333333333333332%" stop-opacity="1" style="stop-color:rgb(160,206,176)"/><stop offset="40.416666666666664%" stop-opacity="1" style="stop-color:rgb(132,191,23)"/><stop offset="59.166666666666664%" stop-opacity="1" style="stop-color:rgb(180,225,0)"/><stop offset="68.75%" stop-opacity="1" style="stop-color:rgb(62,61,37)"/><stop offset="80.41666666666667%" stop-opacity="1" style="stop-color:rgb(104,111,60)"/><stop offset="87.5%" stop-opacity="1" style="stop-color:rgb(125,57,113)"/><stop offset="96.66666666666667%" stop-opacity="1" style="stop-color:rgb(153,145,60)"/></linearGradient><mask id="_mask_JY9igHjEr9JuyD0D8aaYriYZ1dgQGOXf"><path d=" M 743.382 628.109 L 760.546 628.109 C 767.207 628.109 772.604 641.191 772.604 657.337 L 772.604 838.198 L 755.443 838.198 C 748.782 838.198 743.382 825.111 743.382 808.965 L 743.382 628.109 Z " fill="white" stroke="none"/></mask><path d=" M 743.382 628.109 L 760.546 628.109 C 767.207 628.109 772.604 641.191 772.604 657.337 L 772.604 838.198 L 755.443 838.198 C 748.782 838.198 743.382 825.111 743.382 808.965 L 743.382 628.109 Z " fill="url(#_lgradient_51)"/><path d=" M 743.382 628.109 L 760.546 628.109 C 767.207 628.109 772.604 641.191 772.604 657.337 L 772.604 838.198 L 755.443 838.198 C 748.782 838.198 743.382 825.111 743.382 808.965 L 743.382 628.109 Z " fill="url(#_lgradient_51)" mask="url(#_mask_JY9igHjEr9JuyD0D8aaYriYZ1dgQGOXf)" vector-effect="non-scaling-stroke" stroke-width="2" stroke="rgb(0,0,0)" stroke-linejoin="miter" stroke-linecap="square" stroke-miterlimit="3"/><linearGradient id="_lgradient_52" x1="0" y1="0" x2="1" y2="0" gradientTransform="matrix(-36.782,-120.526,14.854,-153.171,662.182,520.391)" gradientUnits="userSpaceOnUse"><stop offset="1.6666666666666667%" stop-opacity="1" style="stop-color:rgb(110,134,50)"/><stop offset="23.333333333333332%" stop-opacity="1" style="stop-color:rgb(160,206,176)"/><stop offset="40.416666666666664%" stop-opacity="1" style="stop-color:rgb(132,191,23)"/><stop offset="59.166666666666664%" stop-opacity="1" style="stop-color:rgb(180,225,0)"/><stop offset="68.75%" stop-opacity="1" style="stop-color:rgb(62,61,37)"/><stop offset="80.41666666666667%" stop-opacity="1" style="stop-color:rgb(104,111,60)"/><stop offset="87.5%" stop-opacity="1" style="stop-color:rgb(125,57,113)"/><stop offset="96.66666666666667%" stop-opacity="1" style="stop-color:rgb(153,145,60)"/></linearGradient><mask id="_mask_wJKzmqa9xDsDS4z3xHYZEjy0dBF0hmn2"><path d=" M 597.196 439.448 L 591.455 360.53 C 590.053 341.262 595.36 322.893 603.309 319.496 L 603.309 319.496 C 611.256 316.099 618.835 328.961 620.236 348.229 L 625.827 425.074 C 628.128 456.708 633.984 466.394 642.033 462.954 C 650.08 459.514 654.22 445.556 651.919 413.922 L 646.286 336.485 C 644.908 317.549 650.122 299.488 657.934 296.149 L 657.934 296.149 C 665.747 292.81 673.198 305.458 674.576 324.393 L 680.36 403.904 C 684.875 465.963 672.114 508.299 645.897 519.505 C 619.675 530.712 601.711 501.507 597.196 439.448 Z " fill="white" stroke="none"/></mask><path d=" M 597.196 439.448 L 591.455 360.53 C 590.053 341.262 595.36 322.893 603.309 319.496 L 603.309 319.496 C 611.256 316.099 618.835 328.961 620.236 348.229 L 625.827 425.074 C 628.128 456.708 633.984 466.394 642.033 462.954 C 650.08 459.514 654.22 445.556 651.919 413.922 L 646.286 336.485 C 644.908 317.549 650.122 299.488 657.934 296.149 L 657.934 296.149 C 665.747 292.81 673.198 305.458 674.576 324.393 L 680.36 403.904 C 684.875 465.963 672.114 508.299 645.897 519.505 C 619.675 530.712 601.711 501.507 597.196 439.448 Z " fill="url(#_lgradient_52)"/><path d=" M 597.196 439.448 L 591.455 360.53 C 590.053 341.262 595.36 322.893 603.309 319.496 L 603.309 319.496 C 611.256 316.099 618.835 328.961 620.236 348.229 L 625.827 425.074 C 628.128 456.708 633.984 466.394 642.033 462.954 C 650.08 459.514 654.22 445.556 651.919 413.922 L 646.286 336.485 C 644.908 317.549 650.122 299.488 657.934 296.149 L 657.934 296.149 C 665.747 292.81 673.198 305.458 674.576 324.393 L 680.36 403.904 C 684.875 465.963 672.114 508.299 645.897 519.505 C 619.675 530.712 601.711 501.507 597.196 439.448 Z " fill="url(#_lgradient_52)" mask="url(#_mask_wJKzmqa9xDsDS4z3xHYZEjy0dBF0hmn2)" vector-effect="non-scaling-stroke" stroke-width="2" stroke="rgb(0,0,0)" stroke-linejoin="miter" stroke-linecap="square" stroke-miterlimit="3"/><linearGradient id="_lgradient_53" x1="0" y1="0" x2="1" y2="0" gradientTransform="matrix(-12.785,-139.658,32.575,-128.66,983.341,522.707)" gradientUnits="userSpaceOnUse"><stop offset="1.6666666666666667%" stop-opacity="1" style="stop-color:rgb(110,134,50)"/><stop offset="23.333333333333332%" stop-opacity="1" style="stop-color:rgb(160,206,176)"/><stop offset="40.416666666666664%" stop-opacity="1" style="stop-color:rgb(132,191,23)"/><stop offset="59.166666666666664%" stop-opacity="1" style="stop-color:rgb(180,225,0)"/><stop offset="68.75%" stop-opacity="1" style="stop-color:rgb(62,61,37)"/><stop offset="80.41666666666667%" stop-opacity="1" style="stop-color:rgb(104,111,60)"/><stop offset="87.5%" stop-opacity="1" style="stop-color:rgb(125,57,113)"/><stop offset="96.66666666666667%" stop-opacity="1" style="stop-color:rgb(153,145,60)"/></linearGradient><mask id="_mask_2KaA0zgcGGfMOmbNfyBBCuNiCqVLGBiS"><path d=" M 1007.319 508.237 L 1005.923 525.651 L 955.463 501.877 C 944.261 496.599 936.946 470.306 939.123 443.152 L 947.364 340.389 C 949.769 310.399 961.747 290.811 974.122 296.642 L 1020.882 318.672 L 1020.102 328.401 C 1018.21 351.991 1008.786 367.396 999.056 362.812 L 975.712 351.814 L 973.775 375.974 L 1009.753 392.925 L 1009.616 394.627 C 1007.473 421.351 996.801 438.796 985.779 433.603 L 969.759 426.055 L 967.585 453.161 L 995.676 466.397 C 1003.658 470.158 1008.871 488.89 1007.319 508.237 Z " fill="white" stroke="none"/></mask><path d=" M 1007.319 508.237 L 1005.923 525.651 L 955.463 501.877 C 944.261 496.599 936.946 470.306 939.123 443.152 L 947.364 340.389 C 949.769 310.399 961.747 290.811 974.122 296.642 L 1020.882 318.672 L 1020.102 328.401 C 1018.21 351.991 1008.786 367.396 999.056 362.812 L 975.712 351.814 L 973.775 375.974 L 1009.753 392.925 L 1009.616 394.627 C 1007.473 421.351 996.801 438.796 985.779 433.603 L 969.759 426.055 L 967.585 453.161 L 995.676 466.397 C 1003.658 470.158 1008.871 488.89 1007.319 508.237 Z " fill="url(#_lgradient_53)"/><path d=" M 1007.319 508.237 L 1005.923 525.651 L 955.463 501.877 C 944.261 496.599 936.946 470.306 939.123 443.152 L 947.364 340.389 C 949.769 310.399 961.747 290.811 974.122 296.642 L 1020.882 318.672 L 1020.102 328.401 C 1018.21 351.991 1008.786 367.396 999.056 362.812 L 975.712 351.814 L 973.775 375.974 L 1009.753 392.925 L 1009.616 394.627 C 1007.473 421.351 996.801 438.796 985.779 433.603 L 969.759 426.055 L 967.585 453.161 L 995.676 466.397 C 1003.658 470.158 1008.871 488.89 1007.319 508.237 Z " fill="url(#_lgradient_53)" mask="url(#_mask_2KaA0zgcGGfMOmbNfyBBCuNiCqVLGBiS)" vector-effect="non-scaling-stroke" stroke-width="2" stroke="rgb(0,0,0)" stroke-linejoin="miter" stroke-linecap="square" stroke-miterlimit="3"/><linearGradient id="_lgradient_54" x1="0" y1="0" x2="1" y2="0" gradientTransform="matrix(-23.544,-131.179,21.848,-141.362,1070.55,845.752)" gradientUnits="userSpaceOnUse"><stop offset="1.6666666666666667%" stop-opacity="1" style="stop-color:rgb(110,134,50)"/><stop offset="23.333333333333332%" stop-opacity="1" style="stop-color:rgb(160,206,176)"/><stop offset="40.416666666666664%" stop-opacity="1" style="stop-color:rgb(132,191,23)"/><stop offset="59.166666666666664%" stop-opacity="1" style="stop-color:rgb(180,225,0)"/><stop offset="68.75%" stop-opacity="1" style="stop-color:rgb(62,61,37)"/><stop offset="80.41666666666667%" stop-opacity="1" style="stop-color:rgb(104,111,60)"/><stop offset="87.5%" stop-opacity="1" style="stop-color:rgb(125,57,113)"/><stop offset="96.66666666666667%" stop-opacity="1" style="stop-color:rgb(153,145,60)"/></linearGradient><mask id="_mask_J3IntnXBQHq7LfOZLfcPG4Gqi3SJKTLZ"><path d=" M 1092.949 820.458 L 1092.949 838.198 L 1041.544 838.198 C 1030.132 838.198 1020.882 815.771 1020.882 788.109 L 1020.882 683.422 C 1020.882 652.871 1031.098 628.104 1043.704 628.104 L 1091.339 628.104 L 1091.339 638.014 C 1091.339 662.046 1083.301 681.527 1073.389 681.527 L 1049.608 681.527 L 1049.608 706.139 L 1086.26 706.139 L 1086.26 707.873 C 1086.26 735.097 1077.156 757.157 1065.929 757.157 L 1049.608 757.157 L 1049.608 784.771 L 1078.226 784.771 C 1086.357 784.771 1092.949 800.748 1092.949 820.458 Z " fill="white" stroke="none"/></mask><path d=" M 1092.949 820.458 L 1092.949 838.198 L 1041.544 838.198 C 1030.132 838.198 1020.882 815.771 1020.882 788.109 L 1020.882 683.422 C 1020.882 652.871 1031.098 628.104 1043.704 628.104 L 1091.339 628.104 L 1091.339 638.014 C 1091.339 662.046 1083.301 681.527 1073.389 681.527 L 1049.608 681.527 L 1049.608 706.139 L 1086.26 706.139 L 1086.26 707.873 C 1086.26 735.097 1077.156 757.157 1065.929 757.157 L 1049.608 757.157 L 1049.608 784.771 L 1078.226 784.771 C 1086.357 784.771 1092.949 800.748 1092.949 820.458 Z " fill="url(#_lgradient_54)"/><path d=" M 1092.949 820.458 L 1092.949 838.198 L 1041.544 838.198 C 1030.132 838.198 1020.882 815.771 1020.882 788.109 L 1020.882 683.422 C 1020.882 652.871 1031.098 628.104 1043.704 628.104 L 1091.339 628.104 L 1091.339 638.014 C 1091.339 662.046 1083.301 681.527 1073.389 681.527 L 1049.608 681.527 L 1049.608 706.139 L 1086.26 706.139 L 1086.26 707.873 C 1086.26 735.097 1077.156 757.157 1065.929 757.157 L 1049.608 757.157 L 1049.608 784.771 L 1078.226 784.771 C 1086.357 784.771 1092.949 800.748 1092.949 820.458 Z " fill="url(#_lgradient_54)" mask="url(#_mask_J3IntnXBQHq7LfOZLfcPG4Gqi3SJKTLZ)" vector-effect="non-scaling-stroke" stroke-width="2" stroke="rgb(0,0,0)" stroke-linejoin="miter" stroke-linecap="square" stroke-miterlimit="3"/><linearGradient id="_lgradient_55" x1="0" y1="0" x2="1" y2="0" gradientTransform="matrix(-28.156,-137.172,26.128,-147.82,971.329,850.899)" gradientUnits="userSpaceOnUse"><stop offset="1.6666666666666667%" stop-opacity="1" style="stop-color:rgb(110,134,50)"/><stop offset="23.333333333333332%" stop-opacity="1" style="stop-color:rgb(160,206,176)"/><stop offset="40.416666666666664%" stop-opacity="1" style="stop-color:rgb(132,191,23)"/><stop offset="59.166666666666664%" stop-opacity="1" style="stop-color:rgb(180,225,0)"/><stop offset="68.75%" stop-opacity="1" style="stop-color:rgb(62,61,37)"/><stop offset="80.41666666666667%" stop-opacity="1" style="stop-color:rgb(104,111,60)"/><stop offset="87.5%" stop-opacity="1" style="stop-color:rgb(125,57,113)"/><stop offset="96.66666666666667%" stop-opacity="1" style="stop-color:rgb(153,145,60)"/></linearGradient><mask id="_mask_H77B5CV3ccFByvukKGGSm8qc3qdcUemh"><path d=" M 988.77 727.448 L 998.115 727.448 L 998.115 788.74 C 998.115 807.41 993.46 824.403 986.276 831.141 C 977.975 838.93 968.785 843 960.351 843 C 932.366 843 911.934 797.675 911.934 733.142 C 911.934 668.618 932.366 623.307 960.967 623.307 C 971.13 623.307 980.108 628.398 987.566 638.012 C 995.135 647.776 996.343 672.89 989.908 686.632 L 989.893 686.665 C 985.7 695.62 979.673 696.072 974.911 688.987 C 971.177 683.434 967.062 680.625 962.454 680.625 C 949.577 680.625 941.407 700.73 941.407 733.142 C 941.407 764.662 949.577 785.672 962.084 785.672 C 965.677 785.672 969.142 784.174 972.733 780.571 L 972.733 766.319 C 972.733 744.851 979.913 727.448 988.77 727.448 Z " fill="white" stroke="none"/></mask><path d=" M 988.77 727.448 L 998.115 727.448 L 998.115 788.74 C 998.115 807.41 993.46 824.403 986.276 831.141 C 977.975 838.93 968.785 843 960.351 843 C 932.366 843 911.934 797.675 911.934 733.142 C 911.934 668.618 932.366 623.307 960.967 623.307 C 971.13 623.307 980.108 628.398 987.566 638.012 C 995.135 647.776 996.343 672.89 989.908 686.632 L 989.893 686.665 C 985.7 695.62 979.673 696.072 974.911 688.987 C 971.177 683.434 967.062 680.625 962.454 680.625 C 949.577 680.625 941.407 700.73 941.407 733.142 C 941.407 764.662 949.577 785.672 962.084 785.672 C 965.677 785.672 969.142 784.174 972.733 780.571 L 972.733 766.319 C 972.733 744.851 979.913 727.448 988.77 727.448 Z " fill="url(#_lgradient_55)"/><path d=" M 988.77 727.448 L 998.115 727.448 L 998.115 788.74 C 998.115 807.41 993.46 824.403 986.276 831.141 C 977.975 838.93 968.785 843 960.351 843 C 932.366 843 911.934 797.675 911.934 733.142 C 911.934 668.618 932.366 623.307 960.967 623.307 C 971.13 623.307 980.108 628.398 987.566 638.012 C 995.135 647.776 996.343 672.89 989.908 686.632 L 989.893 686.665 C 985.7 695.62 979.673 696.072 974.911 688.987 C 971.177 683.434 967.062 680.625 962.454 680.625 C 949.577 680.625 941.407 700.73 941.407 733.142 C 941.407 764.662 949.577 785.672 962.084 785.672 C 965.677 785.672 969.142 784.174 972.733 780.571 L 972.733 766.319 C 972.733 744.851 979.913 727.448 988.77 727.448 Z " fill="url(#_lgradient_55)" mask="url(#_mask_H77B5CV3ccFByvukKGGSm8qc3qdcUemh)" vector-effect="non-scaling-stroke" stroke-width="2" stroke="rgb(0,0,0)" stroke-linejoin="miter" stroke-linecap="square" stroke-miterlimit="3"/><linearGradient id="_lgradient_56" x1="0" y1="0" x2="1" y2="0" gradientTransform="matrix(-64.88,-145.566,6.274,-224.082,572.236,615.997)" gradientUnits="userSpaceOnUse"><stop offset="1.6666666666666667%" stop-opacity="1" style="stop-color:rgb(110,134,50)"/><stop offset="23.333333333333332%" stop-opacity="1" style="stop-color:rgb(160,206,176)"/><stop offset="40.416666666666664%" stop-opacity="1" style="stop-color:rgb(132,191,23)"/><stop offset="59.166666666666664%" stop-opacity="1" style="stop-color:rgb(180,225,0)"/><stop offset="68.75%" stop-opacity="1" style="stop-color:rgb(62,61,37)"/><stop offset="80.41666666666667%" stop-opacity="1" style="stop-color:rgb(104,111,60)"/><stop offset="87.5%" stop-opacity="1" style="stop-color:rgb(125,57,113)"/><stop offset="96.66666666666667%" stop-opacity="1" style="stop-color:rgb(153,145,60)"/></linearGradient><mask id="_mask_WBERpmWX5eiekoHIr5V06HMnjMIL6OOZ"><path d=" M 518.511 422.784 L 508.5 431.616 L 515.445 477.869 L 525.456 469.037 C 533.017 462.367 535.313 450.433 533.153 436.053 C 530.995 421.678 526.071 416.114 518.511 422.784 Z  M 530.431 521.503 L 522.984 528.073 L 524.766 539.941 C 527.898 560.797 523.461 583.862 514.854 591.455 L 502.978 601.932 L 480.668 453.36 C 476.617 426.38 482.356 396.549 493.487 386.729 L 512.547 369.914 C 535.233 349.899 553.982 365.943 560.842 411.626 C 565.121 440.118 562.754 466.482 554.801 487.225 L 572.667 518.415 C 576.229 524.632 575.468 537.98 571.341 541.621 L 555.934 555.214 C 553.306 557.532 550.376 556.539 548.112 552.559 L 530.431 521.503 Z " fill-rule="evenodd" fill="white" stroke="none"/></mask><path d=" M 518.511 422.784 L 508.5 431.616 L 515.445 477.869 L 525.456 469.037 C 533.017 462.367 535.313 450.433 533.153 436.053 C 530.995 421.678 526.071 416.114 518.511 422.784 Z  M 530.431 521.503 L 522.984 528.073 L 524.766 539.941 C 527.898 560.797 523.461 583.862 514.854 591.455 L 502.978 601.932 L 480.668 453.36 C 476.617 426.38 482.356 396.549 493.487 386.729 L 512.547 369.914 C 535.233 349.899 553.982 365.943 560.842 411.626 C 565.121 440.118 562.754 466.482 554.801 487.225 L 572.667 518.415 C 576.229 524.632 575.468 537.98 571.341 541.621 L 555.934 555.214 C 553.306 557.532 550.376 556.539 548.112 552.559 L 530.431 521.503 Z " fill-rule="evenodd" fill="url(#_lgradient_56)"/><path d=" M 518.511 422.784 L 508.5 431.616 L 515.445 477.869 L 525.456 469.037 C 533.017 462.367 535.313 450.433 533.153 436.053 C 530.995 421.678 526.071 416.114 518.511 422.784 Z  M 530.431 521.503 L 522.984 528.073 L 524.766 539.941 C 527.898 560.797 523.461 583.862 514.854 591.455 L 502.978 601.932 L 480.668 453.36 C 476.617 426.38 482.356 396.549 493.487 386.729 L 512.547 369.914 C 535.233 349.899 553.982 365.943 560.842 411.626 C 565.121 440.118 562.754 466.482 554.801 487.225 L 572.667 518.415 C 576.229 524.632 575.468 537.98 571.341 541.621 L 555.934 555.214 C 553.306 557.532 550.376 556.539 548.112 552.559 L 530.431 521.503 Z " fill-rule="evenodd" fill="url(#_lgradient_56)" mask="url(#_mask_WBERpmWX5eiekoHIr5V06HMnjMIL6OOZ)" vector-effect="non-scaling-stroke" stroke-width="2" stroke="rgb(0,0,0)" stroke-linejoin="miter" stroke-linecap="square" stroke-miterlimit="3"/><linearGradient id="_lgradient_57" x1="0" y1="0" x2="1" y2="0" gradientTransform="matrix(-24.838,-81.021,28.491,-75.592,884.363,385.615)" gradientUnits="userSpaceOnUse"><stop offset="1.6666666666666667%" stop-opacity="1" style="stop-color:rgb(110,134,50)"/><stop offset="23.333333333333332%" stop-opacity="1" style="stop-color:rgb(160,206,176)"/><stop offset="40.416666666666664%" stop-opacity="1" style="stop-color:rgb(132,191,23)"/><stop offset="59.166666666666664%" stop-opacity="1" style="stop-color:rgb(180,225,0)"/><stop offset="68.75%" stop-opacity="1" style="stop-color:rgb(62,61,37)"/><stop offset="80.41666666666667%" stop-opacity="1" style="stop-color:rgb(104,111,60)"/><stop offset="87.5%" stop-opacity="1" style="stop-color:rgb(125,57,113)"/><stop offset="96.66666666666667%" stop-opacity="1" style="stop-color:rgb(153,145,60)"/></linearGradient><mask id="_mask_VQRM59cwOZWERpxh8c19ZZGxfRsSIPOL"><path d=" M 860.353 316.606 L 873.917 319.483 C 880.458 320.87 883.223 326.888 882.856 337.045 C 882.489 347.218 879.336 351.967 872.795 350.58 L 859.231 347.704 L 860.353 316.606 Z  M 899.585 369.751 C 906.185 361.306 910.628 350.085 911.25 332.832 C 912.395 301.129 903.454 276.04 879.645 270.991 L 855.423 265.855 C 843.323 263.289 832.656 284.982 831.598 314.309 L 830.128 355.022 L 899.585 369.751 Z " fill-rule="evenodd" fill="white" stroke="none"/></mask><path d=" M 860.353 316.606 L 873.917 319.483 C 880.458 320.87 883.223 326.888 882.856 337.045 C 882.489 347.218 879.336 351.967 872.795 350.58 L 859.231 347.704 L 860.353 316.606 Z  M 899.585 369.751 C 906.185 361.306 910.628 350.085 911.25 332.832 C 912.395 301.129 903.454 276.04 879.645 270.991 L 855.423 265.855 C 843.323 263.289 832.656 284.982 831.598 314.309 L 830.128 355.022 L 899.585 369.751 Z " fill-rule="evenodd" fill="url(#_lgradient_57)"/><path d=" M 860.353 316.606 L 873.917 319.483 C 880.458 320.87 883.223 326.888 882.856 337.045 C 882.489 347.218 879.336 351.967 872.795 350.58 L 859.231 347.704 L 860.353 316.606 Z  M 899.585 369.751 C 906.185 361.306 910.628 350.085 911.25 332.832 C 912.395 301.129 903.454 276.04 879.645 270.991 L 855.423 265.855 C 843.323 263.289 832.656 284.982 831.598 314.309 L 830.128 355.022 L 899.585 369.751 Z " fill-rule="evenodd" fill="url(#_lgradient_57)" mask="url(#_mask_VQRM59cwOZWERpxh8c19ZZGxfRsSIPOL)" vector-effect="non-scaling-stroke" stroke-width="2" stroke="rgb(0,0,0)" stroke-linejoin="miter" stroke-linecap="square" stroke-miterlimit="3"/><linearGradient id="_lgradient_58" x1="0" y1="0" x2="1" y2="0" gradientTransform="matrix(-25.973,-104.337,31.202,-99.884,882.999,499.473)" gradientUnits="userSpaceOnUse"><stop offset="1.6666666666666667%" stop-opacity="1" style="stop-color:rgb(110,134,50)"/><stop offset="23.333333333333332%" stop-opacity="1" style="stop-color:rgb(160,206,176)"/><stop offset="40.416666666666664%" stop-opacity="1" style="stop-color:rgb(132,191,23)"/><stop offset="59.166666666666664%" stop-opacity="1" style="stop-color:rgb(180,225,0)"/><stop offset="68.75%" stop-opacity="1" style="stop-color:rgb(62,61,37)"/><stop offset="80.41666666666667%" stop-opacity="1" style="stop-color:rgb(104,111,60)"/><stop offset="87.5%" stop-opacity="1" style="stop-color:rgb(125,57,113)"/><stop offset="96.66666666666667%" stop-opacity="1" style="stop-color:rgb(153,145,60)"/></linearGradient><mask id="_mask_YxVc788RymkXPYOswStCfSyzcFCtwVKN"><path d=" M 873.871 430.954 L 856.36 427.241 L 857.547 394.343 L 875.059 398.057 C 881.473 399.417 884.479 405.784 884.09 416.547 C 883.702 427.309 880.285 432.314 873.871 430.954 Z  M 884.049 352.125 L 830.611 341.635 L 825.96 470.503 L 874.557 480.809 C 898.368 485.858 908.385 469.092 911.824 430.565 C 911.958 429.066 911.913 427.442 911.926 425.791 C 912.272 386.313 900.32 354.188 884.049 352.125 Z " fill-rule="evenodd" fill="white" stroke="none"/></mask><path d=" M 873.871 430.954 L 856.36 427.241 L 857.547 394.343 L 875.059 398.057 C 881.473 399.417 884.479 405.784 884.09 416.547 C 883.702 427.309 880.285 432.314 873.871 430.954 Z  M 884.049 352.125 L 830.611 341.635 L 825.96 470.503 L 874.557 480.809 C 898.368 485.858 908.385 469.092 911.824 430.565 C 911.958 429.066 911.913 427.442 911.926 425.791 C 912.272 386.313 900.32 354.188 884.049 352.125 Z " fill-rule="evenodd" fill="url(#_lgradient_58)"/><path d=" M 873.871 430.954 L 856.36 427.241 L 857.547 394.343 L 875.059 398.057 C 881.473 399.417 884.479 405.784 884.09 416.547 C 883.702 427.309 880.285 432.314 873.871 430.954 Z  M 884.049 352.125 L 830.611 341.635 L 825.96 470.503 L 874.557 480.809 C 898.368 485.858 908.385 469.092 911.824 430.565 C 911.958 429.066 911.913 427.442 911.926 425.791 C 912.272 386.313 900.32 354.188 884.049 352.125 Z " fill-rule="evenodd" fill="url(#_lgradient_58)" mask="url(#_mask_YxVc788RymkXPYOswStCfSyzcFCtwVKN)" vector-effect="non-scaling-stroke" stroke-width="2" stroke="rgb(0,0,0)" stroke-linejoin="miter" stroke-linecap="square" stroke-miterlimit="3"/><linearGradient id="_lgradient_59" x1="0" y1="0" x2="1" y2="0" gradientTransform="matrix(-29.935,-131.179,27.779,-141.362,863.234,845.758)" gradientUnits="userSpaceOnUse"><stop offset="1.6666666666666667%" stop-opacity="1" style="stop-color:rgb(110,134,50)"/><stop offset="23.333333333333332%" stop-opacity="1" style="stop-color:rgb(160,206,176)"/><stop offset="40.416666666666664%" stop-opacity="1" style="stop-color:rgb(132,191,23)"/><stop offset="59.166666666666664%" stop-opacity="1" style="stop-color:rgb(180,225,0)"/><stop offset="68.75%" stop-opacity="1" style="stop-color:rgb(62,61,37)"/><stop offset="80.41666666666667%" stop-opacity="1" style="stop-color:rgb(104,111,60)"/><stop offset="87.5%" stop-opacity="1" style="stop-color:rgb(125,57,113)"/><stop offset="96.66666666666667%" stop-opacity="1" style="stop-color:rgb(153,145,60)"/></linearGradient><mask id="_mask_9ALyyHX1Ja6k64Z9kQTNyGHADkbeyqyF"><path d=" M 841.565 782.976 C 853.822 782.976 862.239 765.265 862.239 733.152 C 862.239 701.044 853.822 683.332 841.565 683.332 L 829.308 683.332 L 829.308 782.976 L 841.565 782.976 Z  M 800.085 695.564 C 800.085 658.308 812.544 628.109 827.915 628.109 L 842.803 628.109 C 871.776 628.109 891.713 668.021 891.713 733.152 C 891.713 798.288 871.776 838.204 842.803 838.204 L 800.085 838.204 L 800.085 695.564 Z " fill-rule="evenodd" fill="white" stroke="none"/></mask><path d=" M 841.565 782.976 C 853.822 782.976 862.239 765.265 862.239 733.152 C 862.239 701.044 853.822 683.332 841.565 683.332 L 829.308 683.332 L 829.308 782.976 L 841.565 782.976 Z  M 800.085 695.564 C 800.085 658.308 812.544 628.109 827.915 628.109 L 842.803 628.109 C 871.776 628.109 891.713 668.021 891.713 733.152 C 891.713 798.288 871.776 838.204 842.803 838.204 L 800.085 838.204 L 800.085 695.564 Z " fill-rule="evenodd" fill="url(#_lgradient_59)"/><path d=" M 841.565 782.976 C 853.822 782.976 862.239 765.265 862.239 733.152 C 862.239 701.044 853.822 683.332 841.565 683.332 L 829.308 683.332 L 829.308 782.976 L 841.565 782.976 Z  M 800.085 695.564 C 800.085 658.308 812.544 628.109 827.915 628.109 L 842.803 628.109 C 871.776 628.109 891.713 668.021 891.713 733.152 C 891.713 798.288 871.776 838.204 842.803 838.204 L 800.085 838.204 L 800.085 695.564 Z " fill-rule="evenodd" fill="url(#_lgradient_59)" mask="url(#_mask_9ALyyHX1Ja6k64Z9kQTNyGHADkbeyqyF)" vector-effect="non-scaling-stroke" stroke-width="2" stroke="rgb(0,0,0)" stroke-linejoin="miter" stroke-linecap="square" stroke-miterlimit="3"/></g></g></svg>